<?xml version="1.0" encoding="UTF-8"?>
<!DOCTYPE svg PUBLIC "-//W3C//DTD SVG 1.1//EN" "http://www.w3.org/Graphics/SVG/1.1/DTD/svg11.dtd">
<svg xmlns="http://www.w3.org/2000/svg" version="1.1" width="512px" height="512px" style="shape-rendering:geometricPrecision; text-rendering:geometricPrecision; image-rendering:optimizeQuality; fill-rule:evenodd; clip-rule:evenodd" xmlns:xlink="http://www.w3.org/1999/xlink">
<g><path style="opacity:0.991" fill="#1f4693" d="M 244.5,-0.5 C 251.833,-0.5 259.167,-0.5 266.5,-0.5C 299.361,9.5769 314.194,31.9102 311,66.5C 300.32,101.436 276.82,115.936 240.5,110C 209.888,98.9729 196.388,77.1396 200,44.5C 205.708,20.2929 220.541,5.29289 244.5,-0.5 Z"/></g>
<g><path style="opacity:0.993" fill="#1f4593" d="M 339.5,511.5 C 333.5,511.5 327.5,511.5 321.5,511.5C 311.708,508.547 304.874,502.214 301,492.5C 292.145,450.744 282.811,409.077 273,367.5C 269.796,355.681 266.129,344.015 262,332.5C 260.639,328.429 258.305,325.095 255,322.5C 251.695,325.095 249.361,328.429 248,332.5C 244.263,343.045 240.929,353.711 238,364.5C 227.976,405.952 218.976,447.618 211,489.5C 207.615,500.717 200.448,508.05 189.5,511.5C 183.5,511.5 177.5,511.5 171.5,511.5C 157.259,507.59 149.592,498.257 148.5,483.5C 158.9,422.436 169.733,361.436 181,300.5C 184.203,277.711 187.036,254.878 189.5,232C 190.985,220.051 186.318,211.718 175.5,207C 143.5,197 111.5,187 79.5,177C 70.8929,173.698 62.8929,169.365 55.5,164C 44.3505,150.933 43.5172,137.1 53,122.5C 57.9435,115.692 64.6101,111.692 73,110.5C 112.288,121.947 152.121,131.113 192.5,138C 234.168,145.333 275.834,145.333 317.5,138C 355.712,131.697 393.378,123.03 430.5,112C 448.234,110.044 459.068,117.878 463,135.5C 465.812,147.054 462.979,156.887 454.5,165C 448.822,168.841 442.822,172.174 436.5,175C 402.5,187 368.5,199 334.5,211C 329.573,212.875 325.74,216.042 323,220.5C 321.458,229.104 321.124,237.77 322,246.5C 324.333,264.5 326.667,282.5 329,300.5C 340.599,361.43 351.766,422.43 362.5,483.5C 361.407,498.257 353.741,507.591 339.5,511.5 Z"/></g>
</svg>
