<?xml version="1.0" encoding="UTF-8"?>
<!DOCTYPE svg PUBLIC "-//W3C//DTD SVG 1.1//EN" "http://www.w3.org/Graphics/SVG/1.1/DTD/svg11.dtd">
<svg xmlns="http://www.w3.org/2000/svg" version="1.1" width="512px" height="512px" style="shape-rendering:geometricPrecision; text-rendering:geometricPrecision; image-rendering:optimizeQuality; fill-rule:evenodd; clip-rule:evenodd" xmlns:xlink="http://www.w3.org/1999/xlink">
<g><path style="opacity:0.931" fill="#fefffe" d="M 205.5,35.5 C 230.325,36.1557 242.159,48.8224 241,73.5C 238.119,86.5462 230.286,94.8795 217.5,98.5C 217.667,109.172 217.5,119.839 217,130.5C 213.987,135.535 209.82,136.702 204.5,134C 203.299,133.097 202.465,131.931 202,130.5C 201.5,119.839 201.333,109.172 201.5,98.5C 186.072,94 178.072,83.6667 177.5,67.5C 178.709,49.6298 188.042,38.9631 205.5,35.5 Z M 204.5,52.5 C 216.459,50.9602 223.459,56.1269 225.5,68C 222.298,81.267 214.298,85.6004 201.5,81C 190.373,70.3137 191.373,60.8137 204.5,52.5 Z"/></g>
<g><path style="opacity:0.933" fill="#fefffe" d="M 295.5,35.5 C 320.791,36.2901 332.625,49.2901 331,74.5C 327.684,86.9826 319.85,94.9826 307.5,98.5C 307.667,109.505 307.5,120.505 307,131.5C 301.514,137.08 296.514,136.747 292,130.5C 291.832,119.818 291.332,109.151 290.5,98.5C 272.341,91.1535 265.174,77.8201 269,58.5C 273.702,45.9579 282.535,38.2912 295.5,35.5 Z M 294.5,52.5 C 307.834,51.3429 314.667,57.3429 315,70.5C 310.76,82.0363 302.927,85.5363 291.5,81C 284.086,74.7052 282.586,67.2052 287,58.5C 289.114,55.8792 291.614,53.8792 294.5,52.5 Z"/></g>
<g><path style="opacity:0.951" fill="#fefffe" d="M 187.5,154.5 C 233.168,154.333 278.835,154.5 324.5,155C 343.546,158.379 355.046,169.546 359,188.5C 359.667,233.167 359.667,277.833 359,322.5C 355.046,341.454 343.546,352.621 324.5,356C 278.833,356.667 233.167,356.667 187.5,356C 169.42,352.253 158.254,341.42 154,323.5C 153.333,278.167 153.333,232.833 154,187.5C 158.432,169.567 169.599,158.567 187.5,154.5 Z M 191.5,170.5 C 234.835,170.333 278.168,170.5 321.5,171C 333.333,173.5 340.5,180.667 343,192.5C 343.667,234.5 343.667,276.5 343,318.5C 340.5,330.333 333.333,337.5 321.5,340C 278.167,340.667 234.833,340.667 191.5,340C 180.103,337.603 172.937,330.77 170,319.5C 169.333,276.833 169.333,234.167 170,191.5C 173.115,180.217 180.282,173.217 191.5,170.5 Z M 234.5,229.5 C 237.05,229.561 238.55,230.894 239,233.5C 243,242.833 247,252.167 251,261.5C 251.684,262.784 251.517,263.951 250.5,265C 240.589,265.818 230.756,265.651 221,264.5C 220.333,263.5 220.333,262.5 221,261.5C 225.788,250.927 230.288,240.261 234.5,229.5 Z"/></g>
<g><path style="opacity:0.931" fill="#fefffe" d="M 437.5,177.5 C 465.036,177.534 477.203,191.201 474,218.5C 467.626,235.275 455.459,242.775 437.5,241C 424.454,238.119 416.12,230.286 412.5,217.5C 401.828,217.667 391.161,217.5 380.5,217C 375.465,213.987 374.298,209.82 377,204.5C 377.903,203.299 379.069,202.465 380.5,202C 391.161,201.5 401.828,201.333 412.5,201.5C 416.298,188.701 424.631,180.701 437.5,177.5 Z M 441.5,193.5 C 456.688,195.879 461.521,204.212 456,218.5C 445.807,228.213 436.807,227.213 429,215.5C 426.2,204.147 430.367,196.814 441.5,193.5 Z"/></g>
<g><path style="opacity:0.933" fill="#fefffe" d="M 60.5,179.5 C 79.7321,177.434 92.3988,185.434 98.5,203.5C 109.505,203.333 120.505,203.5 131.5,204C 136.343,208.38 136.677,213.046 132.5,218C 121.248,219.125 109.915,219.958 98.5,220.5C 92.4174,236.548 80.7507,244.048 63.5,243C 44.1004,238.594 34.9338,226.428 36,206.5C 38.7907,192.546 46.9574,183.546 60.5,179.5 Z M 64.5,195.5 C 80.2059,196.594 85.7059,204.594 81,219.5C 74.7052,226.914 67.2052,228.414 58.5,224C 51.9893,217.749 50.8227,210.582 55,202.5C 57.529,199.115 60.6956,196.782 64.5,195.5 Z"/></g>
<g><path style="opacity:0.93" fill="#fefffe" d="M 230.5,206.5 C 237.016,205.237 242.516,206.904 247,211.5C 259.386,238.271 271.219,265.271 282.5,292.5C 280.951,299.612 276.618,302.112 269.5,300C 268.333,298.833 267.167,297.667 266,296.5C 263.833,291.5 261.667,286.5 259.5,281.5C 243.833,280.167 228.167,280.167 212.5,281.5C 210.071,288.194 206.738,294.36 202.5,300C 190.352,300.971 186.852,295.804 192,284.5C 202.528,261.25 212.861,237.917 223,214.5C 225.028,211.308 227.528,208.641 230.5,206.5 Z M 234.5,229.5 C 230.288,240.261 225.788,250.927 221,261.5C 220.333,262.5 220.333,263.5 221,264.5C 230.756,265.651 240.589,265.818 250.5,265C 251.517,263.951 251.684,262.784 251,261.5C 247,252.167 243,242.833 239,233.5C 238.55,230.894 237.05,229.561 234.5,229.5 Z"/></g>
<g><path style="opacity:0.916" fill="#fefffe" d="M 301.5,206.5 C 305.839,205.846 309.673,206.846 313,209.5C 313.333,210.5 313.667,211.5 314,212.5C 314.667,239.833 314.667,267.167 314,294.5C 312.839,298.833 310.005,300.833 305.5,300.5C 300.995,300.833 298.161,298.833 297,294.5C 296.333,267.167 296.333,239.833 297,212.5C 297.599,209.746 299.099,207.746 301.5,206.5 Z"/></g>
<g><path style="opacity:0.933" fill="#fefffe" d="M 439.5,267.5 C 456.676,266.827 468.176,274.494 474,290.5C 478.039,309.428 471.206,322.594 453.5,330C 438.818,334.122 426.651,330.288 417,318.5C 414.928,315.029 413.428,311.362 412.5,307.5C 401.495,307.667 390.495,307.5 379.5,307C 373.92,301.514 374.253,296.514 380.5,292C 391.182,291.832 401.849,291.332 412.5,290.5C 417.035,277.424 426.035,269.757 439.5,267.5 Z M 438.5,284.5 C 455.765,284.257 461.598,292.257 456,308.5C 449.536,316.216 442.036,317.383 433.5,312C 424.44,300.856 426.107,291.69 438.5,284.5 Z"/></g>
<g><path style="opacity:0.932" fill="#fefffe" d="M 62.5,269.5 C 80.7249,268.422 92.7249,276.422 98.5,293.5C 109.172,293.333 119.839,293.5 130.5,294C 135.535,297.013 136.702,301.18 134,306.5C 133.097,307.701 131.931,308.535 130.5,309C 119.839,309.5 109.172,309.667 98.5,309.5C 92.5907,327.214 80.2574,335.047 61.5,333C 46.7995,329.631 38.2995,320.465 36,305.5C 35.3939,286.326 44.2273,274.326 62.5,269.5 Z M 65.5,285.5 C 75.6347,286.227 81.6347,291.561 83.5,301.5C 80.1939,315.82 71.8606,319.986 58.5,314C 51.9893,307.749 50.8227,300.582 55,292.5C 57.9978,289.262 61.4978,286.929 65.5,285.5 Z"/></g>
<g><path style="opacity:0.933" fill="#fefffe" d="M 208.5,375.5 C 213.28,374.641 216.78,376.308 219,380.5C 219.168,391.182 219.668,401.849 220.5,412.5C 236.563,418.619 244.063,430.286 243,447.5C 238.594,466.9 226.428,476.066 206.5,475C 186.662,469.843 177.829,457.01 180,436.5C 183.316,424.017 191.15,416.017 203.5,412.5C 203.333,401.495 203.5,390.495 204,379.5C 205.397,377.93 206.897,376.596 208.5,375.5 Z M 208.5,427.5 C 224.354,429.209 229.521,437.542 224,452.5C 215.038,460.739 206.372,460.405 198,451.5C 193.597,439.977 197.097,431.977 208.5,427.5 Z"/></g>
<g><path style="opacity:0.931" fill="#fefffe" d="M 298.5,375.5 C 303.28,374.641 306.78,376.308 309,380.5C 309.5,391.161 309.667,401.828 309.5,412.5C 327.214,418.409 335.047,430.743 333,449.5C 328.922,465.807 318.422,474.474 301.5,475.5C 278.973,472.772 268.473,460.105 270,437.5C 272.881,424.454 280.714,416.12 293.5,412.5C 293.333,401.828 293.5,391.161 294,380.5C 295.025,378.313 296.525,376.646 298.5,375.5 Z M 298.5,427.5 C 312.387,427.988 318.22,434.988 316,448.5C 310.705,458.723 302.872,461.223 292.5,456C 282.389,443.943 284.389,434.443 298.5,427.5 Z"/></g>
</svg>
