<?xml version="1.0" encoding="UTF-8"?>
<!DOCTYPE svg PUBLIC "-//W3C//DTD SVG 1.1//EN" "http://www.w3.org/Graphics/SVG/1.1/DTD/svg11.dtd">
<svg xmlns="http://www.w3.org/2000/svg" version="1.1" width="512px" height="512px" style="shape-rendering:geometricPrecision; text-rendering:geometricPrecision; image-rendering:optimizeQuality; fill-rule:evenodd; clip-rule:evenodd" xmlns:xlink="http://www.w3.org/1999/xlink">
<g><path style="opacity:1" fill="#254792" d="M 232.5,-0.5 C 247.833,-0.5 263.167,-0.5 278.5,-0.5C 300.956,1.94469 322.956,6.94469 344.5,14.5C 346.339,17.1347 349.006,18.4681 352.5,18.5C 408.586,41.4115 451.419,79.4115 481,132.5C 485.12,140.405 488.953,148.405 492.5,156.5C 491.903,156.735 491.57,157.235 491.5,158C 492.381,160.867 493.714,163.367 495.5,165.5C 503.827,187.141 509.161,209.475 511.5,232.5C 511.5,247.833 511.5,263.167 511.5,278.5C 509.475,295.629 506.141,312.629 501.5,329.5C 500.503,329.47 499.836,329.97 499.5,331C 499.025,332.763 498.358,334.43 497.5,336C 497.728,336.399 498.062,336.565 498.5,336.5C 476.923,399.915 436.923,448.081 378.5,481C 347.03,497.695 313.697,507.861 278.5,511.5C 263.167,511.5 247.833,511.5 232.5,511.5C 223.644,510.098 214.644,508.765 205.5,507.5C 205.38,506.414 204.713,505.747 203.5,505.5C 202.584,505.543 201.917,505.876 201.5,506.5C 190.164,503.941 179.164,500.608 168.5,496.5C 166.684,494.559 164.684,493.892 162.5,494.5C 104.69,471.498 60.5232,432.831 30,378.5C 24.9979,369.499 20.8312,360.166 17.5,350.5C 17.9689,347.607 16.9689,345.607 14.5,344.5C 6.94469,322.956 1.94469,300.956 -0.5,278.5C -0.5,264.167 -0.5,249.833 -0.5,235.5C 1.53403,233.345 1.86736,231.012 0.5,228.5C 6.5041,174.517 27.1708,127.183 62.5,86.5C 65.8991,84.6117 68.8991,82.1117 71.5,79C 71.2716,78.6012 70.9382,78.4346 70.5,78.5C 72.8333,75.5 75.5,72.8333 78.5,70.5C 78.4346,70.9382 78.6012,71.2716 79,71.5C 81.7821,69.2295 83.9488,66.5628 85.5,63.5C 89.9131,58.79 94.9131,54.79 100.5,51.5C 103.204,51.3304 104.871,49.9971 105.5,47.5C 114.631,40.7155 124.298,34.7155 134.5,29.5C 134.435,29.9382 134.601,30.2716 135,30.5C 137.824,29.1819 140.324,27.5152 142.5,25.5C 170.929,11.3566 200.929,2.68993 232.5,-0.5 Z M 357.5,102.5 C 356.925,104.411 355.925,106.078 354.5,107.5C 352.5,108.833 350.833,110.5 349.5,112.5C 345.833,115.5 342.5,118.833 339.5,122.5C 336.5,124.833 333.833,127.5 331.5,130.5C 330.833,130.5 330.5,130.833 330.5,131.5C 326.5,134.833 322.833,138.5 319.5,142.5C 317.833,143.5 316.5,144.833 315.5,146.5C 308.5,152.833 301.833,159.5 295.5,166.5C 276.5,184.833 257.833,203.5 239.5,222.5C 236.5,224.833 233.833,227.5 231.5,230.5C 207.861,254.473 184.194,278.473 160.5,302.5C 156.167,306.167 152.167,310.167 148.5,314.5C 147.5,314.833 146.833,315.5 146.5,316.5C 141.833,320.5 137.5,324.833 133.5,329.5C 126.5,335.833 119.833,342.5 113.5,349.5C 110.167,352.167 107.167,355.167 104.5,358.5C 104.167,358.5 103.833,358.5 103.5,358.5C 102.66,356.147 101.326,354.147 99.5,352.5C 96.0696,345.303 92.4029,338.303 88.5,331.5C 87.0116,326.533 85.0116,321.866 82.5,317.5C 60.3009,244.141 75.3009,179.641 127.5,124C 135.347,117.252 143.347,110.752 151.5,104.5C 153.389,103.396 155.055,102.063 156.5,100.5C 223.943,61.2791 290.943,61.9458 357.5,102.5 Z M 406.5,152.5 C 434.421,194.092 444.087,239.759 435.5,289.5C 434.781,291.764 434.448,294.097 434.5,296.5C 433.232,298.905 432.565,301.572 432.5,304.5C 431.076,306.515 430.41,308.848 430.5,311.5C 425.342,324.821 419.342,337.821 412.5,350.5C 410.808,352.205 409.475,354.205 408.5,356.5C 392.013,380.32 371.347,399.654 346.5,414.5C 344.632,415.263 342.965,416.263 341.5,417.5C 292.126,442.013 241.459,445.013 189.5,426.5C 185.749,425.027 182.083,423.36 178.5,421.5C 169.144,417.495 160.477,412.495 152.5,406.5C 237.5,322.167 322.167,237.5 406.5,152.5 Z"/></g>
<g><path style="opacity:0.749" fill="#af9b57" d="M 344.5,14.5 C 347.328,15.6553 349.995,16.9886 352.5,18.5C 349.006,18.4681 346.339,17.1347 344.5,14.5 Z"/></g>
<g><path style="opacity:0.898" fill="#5aa372" d="M 142.5,25.5 C 140.324,27.5152 137.824,29.1819 135,30.5C 134.601,30.2716 134.435,29.9382 134.5,29.5C 136.849,27.659 139.515,26.3257 142.5,25.5 Z"/></g>
<g><path style="opacity:0.996" fill="#739448" d="M 105.5,47.5 C 104.871,49.9971 103.204,51.3304 100.5,51.5C 101.945,49.9373 103.611,48.604 105.5,47.5 Z"/></g>
<g><path style="opacity:0.969" fill="#9db15e" d="M 85.5,63.5 C 83.9488,66.5628 81.7821,69.2295 79,71.5C 78.6012,71.2716 78.4346,70.9382 78.5,70.5C 80.5,67.8333 82.8333,65.5 85.5,63.5 Z"/></g>
<g><path style="opacity:0.953" fill="#9fa779" d="M 70.5,78.5 C 70.9382,78.4346 71.2716,78.6012 71.5,79C 68.8991,82.1117 65.8991,84.6117 62.5,86.5C 64.8333,83.5 67.5,80.8333 70.5,78.5 Z"/></g>
<g><path style="opacity:0.192" fill="#69cd76" d="M 156.5,100.5 C 155.055,102.063 153.389,103.396 151.5,104.5C 151.414,103.504 151.748,102.671 152.5,102C 153.931,101.535 155.097,100.701 156,99.5C 156.399,99.7284 156.565,100.062 156.5,100.5 Z"/></g>
<g><path style="opacity:0.839" fill="#88913b" d="M 357.5,102.5 C 359.028,102.517 359.528,103.184 359,104.5C 357.871,106.141 356.371,107.141 354.5,107.5C 355.925,106.078 356.925,104.411 357.5,102.5 Z"/></g>
<g><path style="opacity:0.831" fill="#8b806c" d="M 349.5,112.5 C 347.167,116.833 343.833,120.167 339.5,122.5C 342.5,118.833 345.833,115.5 349.5,112.5 Z"/></g>
<g><path style="opacity:0.824" fill="#9b7358" d="M 339.5,122.5 C 337.612,125.899 335.112,128.899 332,131.5C 331.601,131.272 331.435,130.938 331.5,130.5C 333.833,127.5 336.5,124.833 339.5,122.5 Z"/></g>
<g><path style="opacity:0.792" fill="#b3b479" d="M 330.5,131.5 C 327.833,136.167 324.167,139.833 319.5,142.5C 322.833,138.5 326.5,134.833 330.5,131.5 Z"/></g>
<g><path style="opacity:0.753" fill="#a79688" d="M 315.5,146.5 C 309.892,153.635 303.392,160.635 296,167.5C 295.601,167.272 295.435,166.938 295.5,166.5C 301.833,159.5 308.5,152.833 315.5,146.5 Z"/></g>
<g><path style="opacity:0.733" fill="#8ea569" d="M 492.5,156.5 C 493.698,159.426 494.698,162.426 495.5,165.5C 493.714,163.367 492.381,160.867 491.5,158C 491.57,157.235 491.903,156.735 492.5,156.5 Z"/></g>
<g><path style="opacity:0.627" fill="#78a78b" d="M 239.5,222.5 C 239.938,222.435 240.272,222.601 240.5,223C 237.667,225.833 234.833,228.667 232,231.5C 231.601,231.272 231.435,230.938 231.5,230.5C 233.833,227.5 236.5,224.833 239.5,222.5 Z"/></g>
<g><path style="opacity:0.992" fill="#7aca93" d="M 0.5,228.5 C 1.86736,231.012 1.53403,233.345 -0.5,235.5C -0.5,234.5 -0.5,233.5 -0.5,232.5C 0.434475,231.432 0.767809,230.099 0.5,228.5 Z"/></g>
<g><path style="opacity:0.878" fill="#8fb677" d="M 435.5,289.5 C 436.097,289.735 436.43,290.235 436.5,291C 436.046,293.03 435.38,294.863 434.5,296.5C 434.448,294.097 434.781,291.764 435.5,289.5 Z"/></g>
<g><path style="opacity:0.949" fill="#b1c67f" d="M 432.5,304.5 C 432.59,307.152 431.924,309.485 430.5,311.5C 430.41,308.848 431.076,306.515 432.5,304.5 Z"/></g>
<g><path style="opacity:0.996" fill="#558c49" d="M 160.5,302.5 C 157.269,307.239 153.436,311.572 149,315.5C 148.601,315.272 148.435,314.938 148.5,314.5C 152.167,310.167 156.167,306.167 160.5,302.5 Z"/></g>
<g><path style="opacity:0.306" fill="#debf53" d="M 406.5,152.5 C 322.167,237.5 237.5,322.167 152.5,406.5C 236.13,321.368 320.63,236.368 406,151.5C 406.399,151.728 406.565,152.062 406.5,152.5 Z"/></g>
<g><path style="opacity:0.992" fill="#6daf91" d="M 146.5,316.5 C 143.239,321.303 139.072,325.97 134,330.5C 133.601,330.272 133.435,329.938 133.5,329.5C 137.5,324.833 141.833,320.5 146.5,316.5 Z"/></g>
<g><path style="opacity:0.294" fill="#a68980" d="M 82.5,317.5 C 85.0116,321.866 87.0116,326.533 88.5,331.5C 88.5654,331.938 88.3988,332.272 88,332.5C 85.5897,327.686 83.7564,322.686 82.5,317.5 Z"/></g>
<g><path style="opacity:0.647" fill="#82d38b" d="M 501.5,329.5 C 500.677,331.987 499.677,334.321 498.5,336.5C 498.062,336.565 497.728,336.399 497.5,336C 498.358,334.43 499.025,332.763 499.5,331C 499.836,329.97 500.503,329.47 501.5,329.5 Z"/></g>
<g><path style="opacity:0.992" fill="#89c88f" d="M 14.5,344.5 C 16.9689,345.607 17.9689,347.607 17.5,350.5C 16.5139,348.574 15.5139,346.574 14.5,344.5 Z"/></g>
<g><path style="opacity:0.98" fill="#b7a381" d="M 113.5,349.5 C 113.938,349.435 114.272,349.601 114.5,350C 111.333,353.167 108.167,356.333 105,359.5C 104.601,359.272 104.435,358.938 104.5,358.5C 107.167,355.167 110.167,352.167 113.5,349.5 Z"/></g>
<g><path style="opacity:0.996" fill="#7da04b" d="M 412.5,350.5 C 412.046,353.14 410.879,355.473 409,357.5C 408.601,357.272 408.435,356.938 408.5,356.5C 409.475,354.205 410.808,352.205 412.5,350.5 Z"/></g>
<g><path style="opacity:0.996" fill="#9cac66" d="M 99.5,352.5 C 101.326,354.147 102.66,356.147 103.5,358.5C 101.449,357.663 100.116,355.663 99.5,352.5 Z"/></g>
<g><path style="opacity:0.906" fill="#62bb68" d="M 346.5,414.5 C 345.618,416.384 344.118,417.717 342,418.5C 341.601,418.272 341.435,417.938 341.5,417.5C 342.965,416.263 344.632,415.263 346.5,414.5 Z"/></g>
<g><path style="opacity:0.008" fill="#a9b9a4" d="M 178.5,421.5 C 182.083,423.36 185.749,425.027 189.5,426.5C 189.44,427.043 189.107,427.376 188.5,427.5C 186.615,426.391 184.615,425.557 182.5,425C 180.456,424.502 179.122,423.335 178.5,421.5 Z"/></g>
<g><path style="opacity:0.863" fill="#6ed5a8" d="M 162.5,494.5 C 164.684,493.892 166.684,494.559 168.5,496.5C 166.297,496.396 164.297,495.73 162.5,494.5 Z"/></g>
<g><path style="opacity:0.976" fill="#b4ee7a" d="M 201.5,506.5 C 201.917,505.876 202.584,505.543 203.5,505.5C 204.713,505.747 205.38,506.414 205.5,507.5C 204.292,506.766 202.959,506.433 201.5,506.5 Z"/></g>
</svg>
