<?xml version="1.0" encoding="UTF-8"?>
<!DOCTYPE svg PUBLIC "-//W3C//DTD SVG 1.1//EN" "http://www.w3.org/Graphics/SVG/1.1/DTD/svg11.dtd">
<svg xmlns="http://www.w3.org/2000/svg" version="1.1" width="512px" height="512px" style="shape-rendering:geometricPrecision; text-rendering:geometricPrecision; image-rendering:optimizeQuality; fill-rule:evenodd; clip-rule:evenodd" xmlns:xlink="http://www.w3.org/1999/xlink">
<g><path style="opacity:1" fill="#234793" d="M 511.5,102.5 C 511.5,108.833 511.5,115.167 511.5,121.5C 510.323,123.679 509.323,126.013 508.5,128.5C 506.487,129.475 505.154,131.142 504.5,133.5C 504.624,134.107 504.957,134.44 505.5,134.5C 503.804,136.525 502.137,138.525 500.5,140.5C 475.918,163.581 451.751,187.247 428,211.5C 427.536,212.094 427.369,212.761 427.5,213.5C 380.5,261.167 333.167,308.5 285.5,355.5C 260.751,378.747 236.418,402.581 212.5,427C 212.728,427.399 213.062,427.565 213.5,427.5C 200.239,439.993 184.906,443.159 167.5,437C 164.102,435.643 161.102,433.81 158.5,431.5C 159.439,430.673 159.105,430.006 157.5,429.5C 109.118,380.117 60.1176,331.451 10.5,283.5C 5.01959,278.204 1.35292,271.871 -0.5,264.5C -0.5,258.5 -0.5,252.5 -0.5,246.5C 0.309209,244.972 0.975875,243.306 1.5,241.5C 3.17861,240 4.51195,238.167 5.5,236C 5.27155,235.601 4.93822,235.435 4.5,235.5C 5.34026,233.147 6.6736,231.147 8.5,229.5C 10.5441,228.969 12.2107,227.802 13.5,226C 13.2716,225.601 12.9382,225.435 12.5,225.5C 25.7758,213.876 40.7758,211.376 57.5,218C 59.9962,219.08 62.3295,220.414 64.5,222C 104.035,261.701 143.701,301.201 183.5,340.5C 183.369,341.239 183.536,341.906 184,342.5C 203.42,323.582 222.254,304.249 240.5,284.5C 240.5,283.833 240.833,283.5 241.5,283.5C 241.435,283.938 241.601,284.272 242,284.5C 243.039,283.756 243.539,282.756 243.5,281.5C 243.5,280.833 243.833,280.5 244.5,280.5C 244.435,280.938 244.601,281.272 245,281.5C 246.802,280.211 247.969,278.544 248.5,276.5C 267.833,256.5 287.5,236.833 307.5,217.5C 307.435,217.938 307.601,218.272 308,218.5C 309.802,217.211 310.969,215.544 311.5,213.5C 336.416,190.086 360.916,166.086 385,141.5C 385.464,140.906 385.631,140.239 385.5,139.5C 404.965,119.535 424.632,99.7014 444.5,80C 465.476,66.0714 484.976,67.9047 503,85.5C 506.898,90.7308 509.731,96.3975 511.5,102.5 Z"/></g>
<g><path style="opacity:0.098" fill="#a7a562" d="M 508.5,128.5 C 507.5,130.5 506.5,132.5 505.5,134.5C 504.957,134.44 504.624,134.107 504.5,133.5C 505.154,131.142 506.487,129.475 508.5,128.5 Z"/></g>
<g><path style="opacity:0.929" fill="#7f79c7" d="M 385.5,139.5 C 385.631,140.239 385.464,140.906 385,141.5C 360.916,166.086 336.416,190.086 311.5,213.5C 335.833,188.5 360.5,163.833 385.5,139.5 Z"/></g>
<g><path style="opacity:0.027" fill="#b13469" d="M 500.5,140.5 C 476.5,165.167 452.167,189.5 427.5,213.5C 427.369,212.761 427.536,212.094 428,211.5C 451.751,187.247 475.918,163.581 500.5,140.5 Z"/></g>
<g><path style="opacity:0.933" fill="#4cb173" d="M 311.5,213.5 C 310.969,215.544 309.802,217.211 308,218.5C 307.601,218.272 307.435,217.938 307.5,217.5C 308.5,215.833 309.833,214.5 311.5,213.5 Z"/></g>
<g><path style="opacity:0.98" fill="#90a068" d="M 12.5,225.5 C 12.9382,225.435 13.2716,225.601 13.5,226C 12.2107,227.802 10.5441,228.969 8.5,229.5C 9.5,227.833 10.8333,226.5 12.5,225.5 Z"/></g>
<g><path style="opacity:0.941" fill="#bd884b" d="M 4.5,235.5 C 4.93822,235.435 5.27155,235.601 5.5,236C 4.51195,238.167 3.17861,240 1.5,241.5C 1.99249,239.181 2.99249,237.181 4.5,235.5 Z"/></g>
<g><path style="opacity:0.925" fill="#66a875" d="M 248.5,276.5 C 247.969,278.544 246.802,280.211 245,281.5C 244.601,281.272 244.435,280.938 244.5,280.5C 245.5,278.833 246.833,277.5 248.5,276.5 Z"/></g>
<g><path style="opacity:0.933" fill="#5cd262" d="M 243.5,281.5 C 243.539,282.756 243.039,283.756 242,284.5C 241.601,284.272 241.435,283.938 241.5,283.5C 241.833,282.5 242.5,281.833 243.5,281.5 Z"/></g>
<g><path style="opacity:0.925" fill="#75a475" d="M 240.5,284.5 C 222.254,304.249 203.42,323.582 184,342.5C 183.536,341.906 183.369,341.239 183.5,340.5C 202.5,321.833 221.5,303.167 240.5,284.5 Z"/></g>
<g><path style="opacity:0.337" fill="#933e92" d="M 10.5,283.5 C 60.1176,331.451 109.118,380.117 157.5,429.5C 157.167,429.5 156.833,429.5 156.5,429.5C 107.5,381.167 58.8333,332.5 10.5,283.5 Z"/></g>
<g><path style="opacity:0.031" fill="#ecfaf5" d="M 285.5,355.5 C 261.833,379.833 237.833,403.833 213.5,427.5C 213.062,427.565 212.728,427.399 212.5,427C 236.418,402.581 260.751,378.747 285.5,355.5 Z"/></g>
<g><path style="opacity:0.894" fill="#63c12e" d="M 156.5,429.5 C 156.833,429.5 157.167,429.5 157.5,429.5C 159.105,430.006 159.439,430.673 158.5,431.5C 157.5,431.167 156.833,430.5 156.5,429.5 Z"/></g>
</svg>
