<?xml version="1.0" encoding="UTF-8"?>
<!DOCTYPE svg PUBLIC "-//W3C//DTD SVG 1.1//EN" "http://www.w3.org/Graphics/SVG/1.1/DTD/svg11.dtd">
<svg xmlns="http://www.w3.org/2000/svg" version="1.1" width="512px" height="512px" style="shape-rendering:geometricPrecision; text-rendering:geometricPrecision; image-rendering:optimizeQuality; fill-rule:evenodd; clip-rule:evenodd" xmlns:xlink="http://www.w3.org/1999/xlink">
<g><path style="opacity:0.998" fill="#1f4593" d="M 34.5,-0.5 C 91.5,-0.5 148.5,-0.5 205.5,-0.5C 223.484,4.65165 234.984,16.3183 240,34.5C 240.667,91.5 240.667,148.5 240,205.5C 235.167,223.667 223.667,235.167 205.5,240C 148.5,240.667 91.5,240.667 34.5,240C 16.3096,234.975 4.64294,223.475 -0.5,205.5C -0.5,148.5 -0.5,91.5 -0.5,34.5C 4.83333,16.5 16.5,4.83333 34.5,-0.5 Z M 115.5,61.5 C 124.051,59.8597 130.218,62.8597 134,70.5C 135.387,82.1128 135.887,93.7794 135.5,105.5C 147.221,105.113 158.887,105.613 170.5,107C 179.296,111.44 181.796,118.273 178,127.5C 176.235,130.473 173.735,132.64 170.5,134C 158.887,135.387 147.221,135.887 135.5,135.5C 135.887,147.221 135.387,158.887 134,170.5C 127.837,180.457 119.837,182.124 110,175.5C 109,173.833 108,172.167 107,170.5C 105.613,158.887 105.113,147.221 105.5,135.5C 93.7794,135.887 82.1128,135.387 70.5,134C 61.1704,128.718 59.0038,121.218 64,111.5C 66.0795,109.877 68.2462,108.377 70.5,107C 82.1128,105.613 93.7794,105.113 105.5,105.5C 105.113,93.7794 105.613,82.1128 107,70.5C 108.688,66.3148 111.521,63.3148 115.5,61.5 Z"/></g>
<g><path style="opacity:0.998" fill="#1f4593" d="M 305.5,-0.5 C 362.5,-0.5 419.5,-0.5 476.5,-0.5C 494.5,4.83333 506.167,16.5 511.5,34.5C 511.5,91.5 511.5,148.5 511.5,205.5C 506.348,223.484 494.682,234.984 476.5,240C 419.5,240.667 362.5,240.667 305.5,240C 287.325,235.158 275.825,223.658 271,205.5C 270.333,148.5 270.333,91.5 271,34.5C 276.016,16.3183 287.516,4.65165 305.5,-0.5 Z M 345.5,105.5 C 375.835,105.333 406.168,105.5 436.5,106C 443.038,106.346 447.538,109.513 450,115.5C 451.79,126.433 447.29,132.933 436.5,135C 406.167,135.667 375.833,135.667 345.5,135C 332.214,131.927 328.381,124.094 334,111.5C 337.308,108.265 341.141,106.265 345.5,105.5 Z"/></g>
<g><path style="opacity:0.997" fill="#1f4593" d="M 205.5,511.5 C 148.5,511.5 91.5,511.5 34.5,511.5C 16.4913,506.158 4.82461,494.491 -0.5,476.5C -0.5,419.5 -0.5,362.5 -0.5,305.5C 4.65165,287.516 16.3183,276.016 34.5,271C 91.5,270.333 148.5,270.333 205.5,271C 223.667,275.833 235.167,287.333 240,305.5C 240.667,362.5 240.667,419.5 240,476.5C 234.984,494.682 223.484,506.348 205.5,511.5 Z M 84.5,344.5 C 89.7019,343.756 94.3686,344.923 98.5,348C 105.681,355.348 113.014,362.515 120.5,369.5C 127.986,362.515 135.319,355.348 142.5,348C 150.355,342.762 157.522,343.595 164,350.5C 166.893,355.314 167.226,360.314 165,365.5C 157.35,373.984 149.516,382.318 141.5,390.5C 148.485,397.986 155.652,405.319 163,412.5C 168.238,420.355 167.405,427.522 160.5,434C 155.657,436.835 150.657,437.168 145.5,435C 137.016,427.35 128.682,419.516 120.5,411.5C 112.318,419.516 103.984,427.35 95.5,435C 83.5681,438.537 76.5681,434.204 74.5,422C 74.4944,419.7 74.9944,417.534 76,415.5C 83.6502,407.016 91.4835,398.682 99.5,390.5C 92.5146,383.014 85.348,375.681 78,368.5C 71.7855,358.181 73.9522,350.181 84.5,344.5 Z"/></g>
<g><path style="opacity:0.998" fill="#1f4593" d="M 511.5,305.5 C 511.5,362.5 511.5,419.5 511.5,476.5C 506.167,494.5 494.5,506.167 476.5,511.5C 419.5,511.5 362.5,511.5 305.5,511.5C 287.507,506.34 276.007,494.673 271,476.5C 270.333,419.5 270.333,362.5 271,305.5C 275.833,287.333 287.333,275.833 305.5,271C 362.5,270.333 419.5,270.333 476.5,271C 494.682,276.016 506.348,287.516 511.5,305.5 Z M 345.5,345.5 C 375.835,345.333 406.168,345.5 436.5,346C 447.29,348.067 451.79,354.567 450,365.5C 447.187,370.996 442.687,374.162 436.5,375C 406.167,375.667 375.833,375.667 345.5,375C 332.214,371.927 328.381,364.094 334,351.5C 337.308,348.265 341.141,346.265 345.5,345.5 Z M 345.5,405.5 C 375.835,405.333 406.168,405.5 436.5,406C 443.038,406.346 447.538,409.513 450,415.5C 451.79,426.433 447.29,432.933 436.5,435C 406.167,435.667 375.833,435.667 345.5,435C 332.214,431.927 328.381,424.094 334,411.5C 337.308,408.265 341.141,406.265 345.5,405.5 Z"/></g>
</svg>
