<?xml version="1.0" encoding="UTF-8"?>
<!DOCTYPE svg PUBLIC "-//W3C//DTD SVG 1.1//EN" "http://www.w3.org/Graphics/SVG/1.1/DTD/svg11.dtd">
<svg xmlns="http://www.w3.org/2000/svg" version="1.1" width="512px" height="512px" style="shape-rendering:geometricPrecision; text-rendering:geometricPrecision; image-rendering:optimizeQuality; fill-rule:evenodd; clip-rule:evenodd" xmlns:xlink="http://www.w3.org/1999/xlink">
<g><path style="opacity:1" fill="#274893" d="M 253.5,-0.5 C 254.833,-0.5 256.167,-0.5 257.5,-0.5C 259.868,0.782988 262.035,2.44965 264,4.5C 263.888,2.20275 262.722,0.536086 260.5,-0.5C 329.833,-0.5 399.167,-0.5 468.5,-0.5C 491.167,5.5 505.5,19.8333 511.5,42.5C 511.5,114.5 511.5,186.5 511.5,258.5C 510.067,259.833 508.733,261.333 507.5,263C 508.167,263.667 508.833,263.667 509.5,263C 510.066,262.005 510.733,261.172 511.5,260.5C 511.5,329.833 511.5,399.167 511.5,468.5C 510.141,473.553 508.308,478.553 506,483.5C 504.629,486.266 502.796,488.599 500.5,490.5C 498.413,491.585 497.08,493.251 496.5,495.5C 488.855,503.817 479.521,509.15 468.5,511.5C 399.167,511.5 329.833,511.5 260.5,511.5C 261.172,510.733 262.005,510.066 263,509.5C 263.667,508.833 263.667,508.167 263,507.5C 261.333,508.733 259.833,510.067 258.5,511.5C 257.167,511.5 255.833,511.5 254.5,511.5C 248.748,510.08 245.415,506.413 244.5,500.5C 245.499,422.335 245.833,344.002 245.5,265.5C 170.833,265.5 96.1667,265.5 21.5,265.5C 20.1667,258.833 20.1667,252.167 21.5,245.5C 96.1667,245.5 170.833,245.5 245.5,245.5C 245.833,166.998 245.499,88.6649 244.5,10.5C 245.492,7.86189 246.492,5.19522 247.5,2.5C 249.745,1.79177 251.745,0.791773 253.5,-0.5 Z M 472.5,24.5 C 472.842,25.3382 473.508,25.6716 474.5,25.5C 481.788,30.7217 486.621,37.7217 489,46.5C 489.5,112.499 489.667,178.499 489.5,244.5C 415.167,244.5 340.833,244.5 266.5,244.5C 266.5,170.167 266.5,95.8333 266.5,21.5C 332.501,21.3333 398.501,21.5 464.5,22C 467.154,22.9406 469.821,23.7739 472.5,24.5 Z M 266.5,266.5 C 340.833,266.5 415.167,266.5 489.5,266.5C 489.667,332.501 489.5,398.501 489,464.5C 485.5,477.333 477.333,485.5 464.5,489C 398.501,489.5 332.501,489.667 266.5,489.5C 266.5,415.167 266.5,340.833 266.5,266.5 Z"/></g>
<g><path style="opacity:0.796" fill="#af8d4f" d="M 257.5,-0.5 C 258.5,-0.5 259.5,-0.5 260.5,-0.5C 262.722,0.536086 263.888,2.20275 264,4.5C 262.035,2.44965 259.868,0.782988 257.5,-0.5 Z"/></g>
<g><path style="opacity:0.847" fill="#d2e84e" d="M 29.5,4.5 C 29.0269,5.90632 28.0269,6.57298 26.5,6.5C 26.9731,5.09368 27.9731,4.42702 29.5,4.5 Z"/></g>
<g><path style="opacity:0.969" fill="#7aa667" d="M 26.5,6.5 C 24.8525,8.3264 22.8525,9.65974 20.5,10.5C 21.8021,8.17823 23.8021,6.8449 26.5,6.5 Z"/></g>
<g><path style="opacity:0.976" fill="#a2de32" d="M 474.5,25.5 C 473.508,25.6716 472.842,25.3382 472.5,24.5C 472.435,24.0618 472.601,23.7284 473,23.5C 473.75,24.1258 474.584,24.6258 475.5,25C 475.272,25.3988 474.938,25.5654 474.5,25.5 Z"/></g>
<g><path style="opacity:1" fill="#2c4a93" d="M 123.5,191.5 C 122.258,189.75 120.758,188.083 119,186.5C 118.601,186.728 118.435,187.062 118.5,187.5C 117.655,186.329 116.989,184.995 116.5,183.5C 117.833,153.5 117.833,123.5 116.5,93.5C 118.796,86.0162 123.796,83.1829 131.5,85C 133.624,86.1217 135.457,87.6217 137,89.5C 138.461,102.067 138.961,114.734 138.5,127.5C 150.838,127.333 163.171,127.5 175.5,128C 181.771,132.786 182.937,138.619 179,145.5C 177.421,147.041 175.587,148.208 173.5,149C 161.838,149.5 150.171,149.667 138.5,149.5C 138.667,161.171 138.5,172.838 138,184.5C 135.278,190.892 130.445,193.225 123.5,191.5 Z"/></g>
<g><path style="opacity:1" fill="#385392" d="M 116.5,93.5 C 117.833,123.5 117.833,153.5 116.5,183.5C 116.5,172.167 116.5,160.833 116.5,149.5C 104.829,149.667 93.1619,149.5 81.5,149C 74.2,145.562 72.0334,140.062 75,132.5C 76.1667,130.667 77.6667,129.167 79.5,128C 91.8288,127.5 104.162,127.333 116.5,127.5C 116.5,116.167 116.5,104.833 116.5,93.5 Z"/></g>
<g><path style="opacity:1" fill="#274893" d="M 335.5,127.5 C 367.502,127.333 399.502,127.5 431.5,128C 437.771,132.786 438.937,138.619 435,145.5C 433.421,147.041 431.587,148.208 429.5,149C 398.833,149.667 368.167,149.667 337.5,149C 330.2,145.562 328.033,140.062 331,132.5C 332.366,130.638 333.866,128.972 335.5,127.5 Z"/></g>
<g><path style="opacity:0.078" fill="#bcdfa4" d="M 123.5,191.5 C 121.246,190.876 119.579,189.543 118.5,187.5C 118.435,187.062 118.601,186.728 119,186.5C 120.758,188.083 122.258,189.75 123.5,191.5 Z"/></g>
<g><path style="opacity:0.667" fill="#9dc691" d="M 244.5,10.5 C 245.499,88.6649 245.833,166.998 245.5,245.5C 170.833,245.5 96.1667,245.5 21.5,245.5C 21.5,245.167 21.5,244.833 21.5,244.5C 95.8333,244.5 170.167,244.5 244.5,244.5C 244.5,170.167 244.5,95.8333 244.5,21.5C 244.5,17.8333 244.5,14.1667 244.5,10.5 Z"/></g>
<g><path style="opacity:0.941" fill="#a5ac5b" d="M 511.5,258.5 C 511.5,259.167 511.5,259.833 511.5,260.5C 510.733,261.172 510.066,262.005 509.5,263C 508.833,263.667 508.167,263.667 507.5,263C 508.733,261.333 510.067,259.833 511.5,258.5 Z"/></g>
<g><path style="opacity:1" fill="#244792" d="M 42.5,-0.5 C 112.833,-0.5 183.167,-0.5 253.5,-0.5C 251.745,0.791773 249.745,1.79177 247.5,2.5C 246.492,5.19522 245.492,7.86189 244.5,10.5C 244.5,14.1667 244.5,17.8333 244.5,21.5C 178.499,21.3333 112.499,21.5 46.5,22C 33.6667,25.5 25.5,33.6667 22,46.5C 21.5,112.499 21.3333,178.499 21.5,244.5C 21.5,244.833 21.5,245.167 21.5,245.5C 20.1667,252.167 20.1667,258.833 21.5,265.5C 21.5,265.833 21.5,266.167 21.5,266.5C 21.5,332.5 21.5,398.5 21.5,464.5C 21.0618,464.435 20.7284,464.601 20.5,465C 21.0659,465.995 21.7326,466.828 22.5,467.5C 26.8154,478.643 34.8154,485.809 46.5,489C 112.499,489.5 178.499,489.667 244.5,489.5C 244.5,493.167 244.5,496.833 244.5,500.5C 245.415,506.413 248.748,510.08 254.5,511.5C 183.833,511.5 113.167,511.5 42.5,511.5C 19.8333,505.5 5.5,491.167 -0.5,468.5C -0.5,326.5 -0.5,184.5 -0.5,42.5C 2.58892,30.1743 8.92226,19.6743 18.5,11C 19.0944,10.5357 19.7611,10.369 20.5,10.5C 22.8525,9.65974 24.8525,8.3264 26.5,6.5C 28.0269,6.57298 29.0269,5.90632 29.5,4.5C 33.667,2.37603 38.0003,0.709367 42.5,-0.5 Z"/></g>
<g><path style="opacity:0.667" fill="#9cc690" d="M 21.5,266.5 C 21.5,266.167 21.5,265.833 21.5,265.5C 96.1667,265.5 170.833,265.5 245.5,265.5C 245.833,344.002 245.499,422.335 244.5,500.5C 244.5,496.833 244.5,493.167 244.5,489.5C 244.5,415.167 244.5,340.833 244.5,266.5C 170.167,266.5 95.8333,266.5 21.5,266.5 Z"/></g>
<g><path style="opacity:1" fill="#324991" d="M 170.5,353.5 C 165.064,359.438 159.397,365.271 153.5,371C 153.728,371.399 154.062,371.565 154.5,371.5C 150.833,375.5 147.167,379.5 143.5,383.5C 138.488,378.49 133.155,373.823 127.5,369.5C 136.487,361.526 144.487,353.193 151.5,344.5C 154.599,340.76 158.599,339.593 163.5,341C 168.827,343.487 171.16,347.653 170.5,353.5 Z"/></g>
<g><path style="opacity:1" fill="#375093" d="M 336.5,340.5 C 367.835,340.333 399.168,340.5 430.5,341C 437.115,344.843 438.948,350.343 436,357.5C 434.457,359.378 432.624,360.878 430.5,362C 399.167,362.667 367.833,362.667 336.5,362C 329.885,358.157 328.052,352.657 331,345.5C 332.73,343.598 334.563,341.931 336.5,340.5 Z"/></g>
<g><path style="opacity:0.988" fill="#a28465" d="M 91.5,341.5 C 90.2073,343.296 88.7073,344.963 87,346.5C 86.1553,348.611 85.322,350.611 84.5,352.5C 84.0756,347.004 86.4089,343.337 91.5,341.5 Z"/></g>
<g><path style="opacity:0.431" fill="#958662" d="M 100.5,341.5 C 105.167,345.5 109.5,349.833 113.5,354.5C 113.565,354.938 113.399,355.272 113,355.5C 108.232,351.24 104.066,346.573 100.5,341.5 Z"/></g>
<g><path style="opacity:0.404" fill="#549066" d="M 111.5,382.5 C 103.5,375.167 95.8333,367.5 88.5,359.5C 96.6352,366.111 104.635,373.611 112.5,382C 112.272,382.399 111.938,382.565 111.5,382.5 Z"/></g>
<g><path style="opacity:0.431" fill="#61b573" d="M 170.5,353.5 C 166.274,360.398 160.941,366.398 154.5,371.5C 154.062,371.565 153.728,371.399 153.5,371C 159.397,365.271 165.064,359.438 170.5,353.5 Z"/></g>
<g><path style="opacity:0.996" fill="#7c9a4f" d="M 151.5,344.5 C 144.487,353.193 136.487,361.526 127.5,369.5C 126.662,369.158 126.328,368.492 126.5,367.5C 135.113,360.223 143.447,352.557 151.5,344.5 Z"/></g>
<g><path style="opacity:1" fill="#314991" d="M 100.5,341.5 C 104.066,346.573 108.232,351.24 113,355.5C 113.399,355.272 113.565,354.938 113.5,354.5C 118.167,358.5 122.5,362.833 126.5,367.5C 126.328,368.492 126.662,369.158 127.5,369.5C 131.812,374.146 136.145,378.813 140.5,383.5C 136.515,387.985 132.349,392.318 128,396.5C 127.308,397.437 127.475,398.103 128.5,398.5C 128.5,398.833 128.5,399.167 128.5,399.5C 123.558,403.103 118.892,407.103 114.5,411.5C 114.565,411.062 114.399,410.728 114,410.5C 109.232,414.76 105.066,419.427 101.5,424.5C 95.6317,427.781 90.465,426.781 86,421.5C 84.5167,418.298 84.1834,414.964 85,411.5C 85.66,409.676 86.8267,408.343 88.5,407.5C 96.9684,400.554 105.302,392.721 113.5,384C 112.906,383.536 112.239,383.369 111.5,383.5C 111.5,383.167 111.5,382.833 111.5,382.5C 111.938,382.565 112.272,382.399 112.5,382C 104.635,373.611 96.6352,366.111 88.5,359.5C 85.8881,357.948 84.5548,355.614 84.5,352.5C 85.322,350.611 86.1553,348.611 87,346.5C 88.7073,344.963 90.2073,343.296 91.5,341.5C 94.3962,340.225 97.3962,340.225 100.5,341.5 Z"/></g>
<g><path style="opacity:1" fill="#294992" d="M 143.5,384.5 C 147.833,388.167 151.833,392.167 155.5,396.5C 158.833,401.833 163.167,406.167 168.5,409.5C 170.223,411.78 170.889,414.447 170.5,417.5C 168.453,419.55 166.786,421.883 165.5,424.5C 163.883,425.972 161.883,426.639 159.5,426.5C 157.117,426.639 155.117,425.972 153.5,424.5C 145.889,415.221 137.555,406.554 128.5,398.5C 132.892,393.106 137.892,388.439 143.5,384.5 Z"/></g>
<g><path style="opacity:0.933" fill="#62d162" d="M 127.5,369.5 C 133.155,373.823 138.488,378.49 143.5,383.5C 143.5,383.833 143.5,384.167 143.5,384.5C 137.892,388.439 132.892,393.106 128.5,398.5C 127.475,398.103 127.308,397.437 128,396.5C 132.349,392.318 136.515,387.985 140.5,383.5C 136.145,378.813 131.812,374.146 127.5,369.5 Z"/></g>
<g><path style="opacity:0.404" fill="#728f66" d="M 128.5,398.5 C 137.555,406.554 145.889,415.221 153.5,424.5C 144.833,416.5 136.5,408.167 128.5,399.5C 128.5,399.167 128.5,398.833 128.5,398.5 Z"/></g>
<g><path style="opacity:0.996" fill="#62984f" d="M 111.5,383.5 C 112.239,383.369 112.906,383.536 113.5,384C 105.302,392.721 96.9684,400.554 88.5,407.5C 96.1667,399.5 103.833,391.5 111.5,383.5 Z"/></g>
<g><path style="opacity:0.431" fill="#799663" d="M 155.5,396.5 C 160.167,400.5 164.5,404.833 168.5,409.5C 163.167,406.167 158.833,401.833 155.5,396.5 Z"/></g>
<g><path style="opacity:1" fill="#375093" d="M 336.5,404.5 C 367.835,404.333 399.168,404.5 430.5,405C 437.115,408.843 438.948,414.343 436,421.5C 434.457,423.378 432.624,424.878 430.5,426C 399.167,426.667 367.833,426.667 336.5,426C 329.885,422.157 328.052,416.657 331,409.5C 332.73,407.598 334.563,405.931 336.5,404.5 Z"/></g>
<g><path style="opacity:0.431" fill="#4cb578" d="M 114.5,411.5 C 110.5,416.167 106.167,420.5 101.5,424.5C 105.066,419.427 109.232,414.76 114,410.5C 114.399,410.728 114.565,411.062 114.5,411.5 Z"/></g>
<g><path style="opacity:0.322" fill="#8bc594" d="M 170.5,417.5 C 169.99,420.674 168.323,423.008 165.5,424.5C 166.786,421.883 168.453,419.55 170.5,417.5 Z"/></g>
<g><path style="opacity:0.078" fill="#86e055" d="M 21.5,464.5 C 22.404,465.209 22.7373,466.209 22.5,467.5C 21.7326,466.828 21.0659,465.995 20.5,465C 20.7284,464.601 21.0618,464.435 21.5,464.5 Z"/></g>
<g><path style="opacity:0.114" fill="#a1b671" d="M 500.5,490.5 C 499.92,492.749 498.587,494.415 496.5,495.5C 497.08,493.251 498.413,491.585 500.5,490.5 Z"/></g>
<g><path style="opacity:0.753" fill="#a5aa6a" d="M 260.5,511.5 C 259.833,511.5 259.167,511.5 258.5,511.5C 259.833,510.067 261.333,508.733 263,507.5C 263.667,508.167 263.667,508.833 263,509.5C 262.005,510.066 261.172,510.733 260.5,511.5 Z"/></g>
</svg>
