<?xml version="1.0" encoding="UTF-8"?>
<!DOCTYPE svg PUBLIC "-//W3C//DTD SVG 1.1//EN" "http://www.w3.org/Graphics/SVG/1.1/DTD/svg11.dtd">
<svg xmlns="http://www.w3.org/2000/svg" version="1.1" width="512px" height="512px" style="shape-rendering:geometricPrecision; text-rendering:geometricPrecision; image-rendering:optimizeQuality; fill-rule:evenodd; clip-rule:evenodd" xmlns:xlink="http://www.w3.org/1999/xlink">
<g><path style="opacity:0.998" fill="#ffb74e" d="M 164.5,32.5 C 209.501,32.3333 254.501,32.5 299.5,33C 303.229,33.8445 306.563,35.3445 309.5,37.5C 305.598,38.2487 301.931,40.2487 298.5,43.5C 297.833,49.6535 297.167,55.6535 296.5,61.5C 296.807,55.9066 296.473,50.4066 295.5,45C 254.835,44.5 214.168,44.3333 173.5,44.5C 169.018,43.6745 164.351,43.1745 159.5,43C 163.5,40 167.5,37 171.5,34C 168.964,33.8138 166.631,33.3138 164.5,32.5 Z"/></g>
<g><path style="opacity:0.998" fill="#ff9e39" d="M 104.5,32.5 C 100.688,33.3238 96.6877,33.8238 92.5,34C 88.5,37 84.5,40 80.5,43C 81.7375,43.2321 82.7375,43.7321 83.5,44.5C 72.8922,46.6077 66.3922,52.941 64,63.5C 63.5002,73.828 63.3335,84.1613 63.5,94.5C 62.6762,90.6877 62.1762,86.6877 62,82.5C 58.7007,85.226 55.2007,87.5593 51.5,89.5C 51.1167,78.1123 51.6167,66.7789 53,55.5C 54.8266,49.8546 57.9933,45.188 62.5,41.5C 63.2389,41.631 63.9056,41.4643 64.5,41C 65.7383,40.31 65.7383,39.81 64.5,39.5C 68.2136,36.3097 72.5469,34.1431 77.5,33C 86.4938,32.5002 95.4938,32.3336 104.5,32.5 Z"/></g>
<g><path style="opacity:1" fill="#ffa434" d="M 104.5,32.5 C 124.5,32.5 144.5,32.5 164.5,32.5C 166.631,33.3138 168.964,33.8138 171.5,34C 167.5,37 163.5,40 159.5,43C 164.351,43.1745 169.018,43.6745 173.5,44.5C 143.5,44.5 113.5,44.5 83.5,44.5C 82.7375,43.7321 81.7375,43.2321 80.5,43C 84.5,40 88.5,37 92.5,34C 96.6877,33.8238 100.688,33.3238 104.5,32.5 Z"/></g>
<g><path style="opacity:0.922" fill="#ff3ee6" d="M 64.5,39.5 C 65.7383,39.81 65.7383,40.31 64.5,41C 63.9056,41.4643 63.2389,41.631 62.5,41.5C 62.8333,40.5 63.5,39.8333 64.5,39.5 Z"/></g>
<g><path style="opacity:1" fill="#fecc52" d="M 309.5,37.5 C 311.23,38.0256 312.564,39.0256 313.5,40.5C 318.167,47.1667 323.833,52.8333 330.5,57.5C 334.167,60.5 337.5,63.8333 340.5,67.5C 340.859,69.371 341.859,70.871 343.5,72C 340.971,74.0285 338.304,75.8619 335.5,77.5C 331.849,74.3492 328.349,71.0158 325,67.5C 324.601,67.7284 324.435,68.0618 324.5,68.5C 323.5,68.1667 322.833,67.5 322.5,66.5C 318.902,61.3639 314.402,56.3639 309,51.5C 308.5,65.1626 308.333,78.8293 308.5,92.5C 308.799,94.604 308.466,96.604 307.5,98.5C 304.193,100.64 301.026,102.974 298,105.5C 297.79,103.942 297.29,102.609 296.5,101.5C 296.5,88.1667 296.5,74.8333 296.5,61.5C 297.167,55.6535 297.833,49.6535 298.5,43.5C 301.931,40.2487 305.598,38.2487 309.5,37.5 Z"/></g>
<g><path style="opacity:0.413" fill="#ff4b55" d="M 313.5,40.5 C 319.5,45.8333 325.167,51.5 330.5,57.5C 323.833,52.8333 318.167,47.1667 313.5,40.5 Z"/></g>
<g><path style="opacity:0.078" fill="#ffb3ab" d="M 322.5,66.5 C 318.202,62.7036 314.036,58.7036 310,54.5C 309.5,67.1623 309.333,79.8289 309.5,92.5C 309.167,92.5 308.833,92.5 308.5,92.5C 308.333,78.8293 308.5,65.1626 309,51.5C 314.402,56.3639 318.902,61.3639 322.5,66.5 Z"/></g>
<g><path style="opacity:1" fill="#d1ba57" d="M 340.5,67.5 C 345.167,71.5 349.5,75.8333 353.5,80.5C 353.511,82.0174 354.177,83.1841 355.5,84C 352.971,86.0285 350.304,87.8619 347.5,89.5C 346.522,89.0233 345.689,88.3567 345,87.5C 344.601,87.7284 344.435,88.0618 344.5,88.5C 337.5,82.1667 330.833,75.5 324.5,68.5C 324.435,68.0618 324.601,67.7284 325,67.5C 328.349,71.0158 331.849,74.3492 335.5,77.5C 338.304,75.8619 340.971,74.0285 343.5,72C 341.859,70.871 340.859,69.371 340.5,67.5 Z"/></g>
<g><path style="opacity:0.93" fill="#ffbc3d" d="M 221.5,93.5 C 220.731,95.6674 219.731,97.834 218.5,100C 187.331,100.168 156.331,100.668 125.5,101.5C 116.827,101.666 108.16,101.5 99.5,101C 96.3053,96.4905 96.9719,92.8238 101.5,90C 140.167,89.3333 178.833,89.3333 217.5,90C 219.324,90.66 220.657,91.8267 221.5,93.5 Z"/></g>
<g><path style="opacity:0.173" fill="#7e5deb" d="M 369.5,96.5 C 371.5,97.8333 373.167,99.5 374.5,101.5C 371.833,100.833 370.167,99.1667 369.5,96.5 Z"/></g>
<g><path style="opacity:0.933" fill="#ffaeab" d="M 221.5,93.5 C 221.78,96.2724 221.113,98.7724 219.5,101C 188.168,101.5 156.835,101.667 125.5,101.5C 156.331,100.668 187.331,100.168 218.5,100C 219.731,97.834 220.731,95.6674 221.5,93.5 Z"/></g>
<g><path style="opacity:1" fill="#85984b" d="M 353.5,80.5 C 359.167,85.5 364.5,90.8333 369.5,96.5C 370.167,99.1667 371.833,100.833 374.5,101.5C 375.389,103.736 376.722,105.736 378.5,107.5C 375.567,110.409 372.567,112.409 369.5,113.5C 360.833,105.5 352.5,97.1667 344.5,88.5C 344.435,88.0618 344.601,87.7284 345,87.5C 345.689,88.3567 346.522,89.0233 347.5,89.5C 350.304,87.8619 352.971,86.0285 355.5,84C 354.177,83.1841 353.511,82.0174 353.5,80.5 Z"/></g>
<g><path style="opacity:1" fill="#c2b557" d="M 308.5,92.5 C 308.833,92.5 309.167,92.5 309.5,92.5C 308.864,101.565 309.53,110.231 311.5,118.5C 314.305,119.319 317.305,119.819 320.5,120C 316.167,123 311.833,126 307.5,129C 304.445,129.634 301.445,129.468 298.5,128.5C 297.778,128.082 297.278,127.416 297,126.5C 296.5,118.173 296.334,109.84 296.5,101.5C 297.29,102.609 297.79,103.942 298,105.5C 301.026,102.974 304.193,100.64 307.5,98.5C 308.466,96.604 308.799,94.604 308.5,92.5 Z"/></g>
<g><path style="opacity:1" fill="#799565" d="M 374.5,101.5 C 384.278,108.267 390.945,117.267 394.5,128.5C 393.698,129.952 393.198,131.618 393,133.5C 390,135.833 387,138.167 384,140.5C 383.802,138.618 383.302,136.952 382.5,135.5C 382.714,133.856 382.38,132.356 381.5,131C 378.854,130.503 376.187,130.336 373.5,130.5C 371.369,129.686 369.036,129.186 366.5,129C 373.232,124.64 379.565,119.807 385.5,114.5C 384.855,113.354 384.022,112.354 383,111.5C 379.667,113.247 376.833,115.58 374.5,118.5C 372.701,119.788 371.035,119.788 369.5,118.5C 370.873,118.657 372.207,118.49 373.5,118C 371.959,116.629 370.625,115.129 369.5,113.5C 372.567,112.409 375.567,110.409 378.5,107.5C 376.722,105.736 375.389,103.736 374.5,101.5 Z"/></g>
<g><path style="opacity:1" fill="#9a8868" d="M 311.5,118.5 C 315.5,118.5 319.5,118.5 323.5,118.5C 320.248,122.662 316.248,126.162 311.5,129C 313.382,129.198 315.048,129.698 316.5,130.5C 310.824,130.666 305.157,130.499 299.5,130C 298.944,129.617 298.611,129.117 298.5,128.5C 301.445,129.468 304.445,129.634 307.5,129C 311.833,126 316.167,123 320.5,120C 317.305,119.819 314.305,119.319 311.5,118.5 Z"/></g>
<g><path style="opacity:1" fill="#839553" d="M 373.5,130.5 C 354.5,130.5 335.5,130.5 316.5,130.5C 315.048,129.698 313.382,129.198 311.5,129C 316.248,126.162 320.248,122.662 323.5,118.5C 338.833,118.5 354.167,118.5 369.5,118.5C 371.035,119.788 372.701,119.788 374.5,118.5C 376.833,115.58 379.667,113.247 383,111.5C 384.022,112.354 384.855,113.354 385.5,114.5C 379.565,119.807 373.232,124.64 366.5,129C 369.036,129.186 371.369,129.686 373.5,130.5 Z"/></g>
<g><path style="opacity:0.937" fill="#ffc250" d="M 99.5,135.5 C 139.168,135.333 178.835,135.5 218.5,136C 221.287,138.167 222.12,141.001 221,144.5C 220.097,145.701 218.931,146.535 217.5,147C 178.833,147.667 140.167,147.667 101.5,147C 96.9158,144.003 96.2491,140.17 99.5,135.5 Z"/></g>
<g><path style="opacity:1" fill="#ffb24b" d="M 63.5,94.5 C 63.5,127.833 63.5,161.167 63.5,194.5C 62.71,193.391 62.21,192.058 62,190.5C 59,192.833 56,195.167 53,197.5C 52.831,211.006 52.331,224.34 51.5,237.5C 51.5,188.167 51.5,138.833 51.5,89.5C 55.2007,87.5593 58.7007,85.226 62,82.5C 62.1762,86.6877 62.6762,90.6877 63.5,94.5 Z"/></g>
<g><path style="opacity:1" fill="#78a08c" d="M 394.5,128.5 C 394.5,144.167 394.5,159.833 394.5,175.5C 393.835,177.698 393.168,180.031 392.5,182.5C 389.391,184.475 386.557,186.808 384,189.5C 383.823,193.356 383.323,197.023 382.5,200.5C 382.5,178.833 382.5,157.167 382.5,135.5C 383.302,136.952 383.802,138.618 384,140.5C 387,138.167 390,135.833 393,133.5C 393.198,131.618 393.698,129.952 394.5,128.5 Z"/></g>
<g><path style="opacity:0.533" fill="#ff5162" d="M 158.5,180.5 C 158.5,180.833 158.5,181.167 158.5,181.5C 139.497,181.333 120.497,181.5 101.5,182C 100.744,183.38 100.078,183.547 99.5,182.5C 99.6107,181.883 99.944,181.383 100.5,181C 119.83,180.5 139.164,180.333 158.5,180.5 Z"/></g>
<g><path style="opacity:1" fill="#ffc654" d="M 158.5,181.5 C 167.839,181.334 177.173,181.5 186.5,182C 181.65,185.363 176.983,188.863 172.5,192.5C 148.498,192.667 124.498,192.5 100.5,192C 98.3352,190.839 97.3352,189.006 97.5,186.5C 97.3402,184.645 98.0069,183.312 99.5,182.5C 100.078,183.547 100.744,183.38 101.5,182C 120.497,181.5 139.497,181.333 158.5,181.5 Z"/></g>
<g><path style="opacity:1" fill="#dcc160" d="M 158.5,181.5 C 158.5,181.167 158.5,180.833 158.5,180.5C 169.167,180.5 179.833,180.5 190.5,180.5C 197.012,181.167 203.679,181.833 210.5,182.5C 207.853,185.157 204.853,187.323 201.5,189C 200.177,189.816 199.511,190.983 199.5,192.5C 190.5,192.5 181.5,192.5 172.5,192.5C 176.983,188.863 181.65,185.363 186.5,182C 177.173,181.5 167.839,181.334 158.5,181.5 Z"/></g>
<g><path style="opacity:1" fill="#839553" d="M 227.5,180.5 C 246.833,180.5 266.167,180.5 285.5,180.5C 288.305,181.319 291.305,181.819 294.5,182C 290.5,185 286.5,188 282.5,191C 277.649,191.174 272.982,191.674 268.5,192.5C 250.833,192.5 233.167,192.5 215.5,192.5C 217.969,191.683 220.635,191.183 223.5,191C 227.5,188 231.5,185 235.5,182C 232.635,181.817 229.969,181.317 227.5,180.5 Z"/></g>
<g><path style="opacity:1" fill="#8c9972" d="M 285.5,180.5 C 302.837,180.333 320.17,180.5 337.5,181C 341.057,184.182 341.391,187.682 338.5,191.5C 315.212,192.49 291.879,192.823 268.5,192.5C 272.982,191.674 277.649,191.174 282.5,191C 286.5,188 290.5,185 294.5,182C 291.305,181.819 288.305,181.319 285.5,180.5 Z"/></g>
<g><path style="opacity:1" fill="#b1ab56" d="M 190.5,180.5 C 202.833,180.5 215.167,180.5 227.5,180.5C 229.969,181.317 232.635,181.817 235.5,182C 231.5,185 227.5,188 223.5,191C 220.635,191.183 217.969,191.683 215.5,192.5C 210.167,192.5 204.833,192.5 199.5,192.5C 199.511,190.983 200.177,189.816 201.5,189C 204.853,187.323 207.853,185.157 210.5,182.5C 203.679,181.833 197.012,181.167 190.5,180.5 Z"/></g>
<g><path style="opacity:1" fill="#7facb3" d="M 394.5,175.5 C 394.5,194.833 394.5,214.167 394.5,233.5C 393.732,232.737 393.232,231.737 393,230.5C 390.305,232.694 387.472,234.694 384.5,236.5C 383.833,246.659 383.167,256.659 382.5,266.5C 382.5,244.5 382.5,222.5 382.5,200.5C 383.323,197.023 383.823,193.356 384,189.5C 386.557,186.808 389.391,184.475 392.5,182.5C 393.168,180.031 393.835,177.698 394.5,175.5 Z"/></g>
<g><path style="opacity:1" fill="#edca5a" d="M 130.5,225.5 C 135.651,226.327 140.984,226.827 146.5,227C 141.833,230.333 137.167,233.667 132.5,237C 125.987,237.172 119.653,237.672 113.5,238.5C 108.733,238.809 104.066,238.309 99.5,237C 96.8333,233.667 96.8333,230.333 99.5,227C 109.729,225.549 120.062,225.049 130.5,225.5 Z"/></g>
<g><path style="opacity:1" fill="#b4a95d" d="M 130.5,225.5 C 141.833,225.5 153.167,225.5 164.5,225.5C 166.631,226.314 168.964,226.814 171.5,227C 166.833,230.333 162.167,233.667 157.5,237C 154.305,237.181 151.305,237.681 148.5,238.5C 136.833,238.5 125.167,238.5 113.5,238.5C 119.653,237.672 125.987,237.172 132.5,237C 137.167,233.667 141.833,230.333 146.5,227C 140.984,226.827 135.651,226.327 130.5,225.5 Z"/></g>
<g><path style="opacity:1" fill="#7b9448" d="M 164.5,225.5 C 170.5,225.5 176.5,225.5 182.5,225.5C 196.661,226.331 210.994,226.831 225.5,227C 220.833,230.333 216.167,233.667 211.5,237C 195.995,237.169 180.661,237.669 165.5,238.5C 159.833,238.5 154.167,238.5 148.5,238.5C 151.305,237.681 154.305,237.181 157.5,237C 162.167,233.667 166.833,230.333 171.5,227C 168.964,226.814 166.631,226.314 164.5,225.5 Z"/></g>
<g><path style="opacity:1" fill="#9f917a" d="M 182.5,225.5 C 233.167,225.5 283.833,225.5 334.5,225.5C 317.005,226.332 299.338,226.832 281.5,227C 276.986,230.091 272.653,233.425 268.5,237C 287.338,237.168 306.004,237.668 324.5,238.5C 271.5,238.5 218.5,238.5 165.5,238.5C 180.661,237.669 195.995,237.169 211.5,237C 216.167,233.667 220.833,230.333 225.5,227C 210.994,226.831 196.661,226.331 182.5,225.5 Z"/></g>
<g><path style="opacity:1" fill="#75a994" d="M 334.5,225.5 C 340.092,226.625 341.926,229.958 340,235.5C 339.097,236.701 337.931,237.535 336.5,238C 332.514,238.499 328.514,238.666 324.5,238.5C 306.004,237.668 287.338,237.168 268.5,237C 272.653,233.425 276.986,230.091 281.5,227C 299.338,226.832 317.005,226.332 334.5,225.5 Z"/></g>
<g><path style="opacity:1" fill="#fac356" d="M 63.5,194.5 C 63.5,223.5 63.5,252.5 63.5,281.5C 63.0666,284.387 61.7333,286.887 59.5,289C 57.3333,290.5 55.1667,292 53,293.5C 52.6174,292.944 52.1174,292.611 51.5,292.5C 51.5,274.167 51.5,255.833 51.5,237.5C 52.331,224.34 52.831,211.006 53,197.5C 56,195.167 59,192.833 62,190.5C 62.21,192.058 62.71,193.391 63.5,194.5 Z"/></g>
<g><path style="opacity:1" fill="#75b4d8" d="M 394.5,233.5 C 394.5,248.167 394.5,262.833 394.5,277.5C 393.448,277.351 392.448,277.517 391.5,278C 388.621,280.385 385.621,282.552 382.5,284.5C 382.5,278.5 382.5,272.5 382.5,266.5C 383.167,256.659 383.833,246.659 384.5,236.5C 387.472,234.694 390.305,232.694 393,230.5C 393.232,231.737 393.732,232.737 394.5,233.5 Z"/></g>
<g><path style="opacity:1" fill="#7da07c" d="M 224.5,277.5 C 224.953,278.458 225.619,279.292 226.5,280C 223.833,282 221.167,284 218.5,286C 219.252,286.671 219.586,287.504 219.5,288.5C 214.467,285.317 209.134,282.65 203.5,280.5C 201.971,280.529 200.804,281.196 200,282.5C 199.059,285.154 198.226,287.821 197.5,290.5C 192.025,293.481 186.692,296.814 181.5,300.5C 183.154,293.037 185.32,285.703 188,278.5C 192.605,269.446 199.771,266.279 209.5,269C 214.887,271.354 219.887,274.188 224.5,277.5 Z"/></g>
<g><path style="opacity:1" fill="#6d9ec5" d="M 436.5,292.5 C 435.21,291.942 434.377,290.942 434,289.5C 431.5,291.333 429,293.167 426.5,295C 426.116,295.951 425.783,296.784 425.5,297.5C 423.798,292.571 421.965,287.571 420,282.5C 419.196,281.196 418.029,280.529 416.5,280.5C 407.046,285.061 397.713,289.894 388.5,295C 386.285,297.242 385.952,299.742 387.5,302.5C 384.249,304.144 381.249,306.31 378.5,309C 376.288,309.789 374.288,309.622 372.5,308.5C 373.873,308.657 375.207,308.49 376.5,308C 372.534,301.452 372.701,294.952 377,288.5C 378.432,286.561 380.265,285.228 382.5,284.5C 385.621,282.552 388.621,280.385 391.5,278C 392.448,277.517 393.448,277.351 394.5,277.5C 401.325,273.088 408.659,269.755 416.5,267.5C 421.902,268.117 426.402,270.451 430,274.5C 432.666,280.333 434.833,286.333 436.5,292.5 Z"/></g>
<g><path style="opacity:1" fill="#81a595" d="M 224.5,277.5 C 231.189,280.262 237.356,283.929 243,288.5C 246.33,293.477 247.163,298.81 245.5,304.5C 244.778,304.082 244.278,303.416 244,302.5C 238.231,307.442 232.064,311.775 225.5,315.5C 227.72,310.728 230.22,306.062 233,301.5C 233.667,299.833 233.667,298.167 233,296.5C 228.555,293.696 224.055,291.029 219.5,288.5C 219.586,287.504 219.252,286.671 218.5,286C 221.167,284 223.833,282 226.5,280C 225.619,279.292 224.953,278.458 224.5,277.5 Z"/></g>
<g><path style="opacity:0.992" fill="#7eb7d0" d="M 370.5,307.5 C 368.073,309.558 365.407,311.391 362.5,313C 361.663,314.011 361.33,315.178 361.5,316.5C 351.377,311.186 340.877,306.853 330,303.5C 317.278,307.272 304.778,311.772 292.5,317C 288.127,318.713 284.293,321.213 281,324.5C 271.634,336.564 263.8,349.564 257.5,363.5C 256.883,363.389 256.383,363.056 256,362.5C 253.167,364.667 250.333,366.833 247.5,369C 248.5,370 249.5,371 250.5,372C 250.272,372.399 249.938,372.565 249.5,372.5C 246.448,370.56 245.115,367.727 245.5,364C 247.193,354.777 250.693,346.277 256,338.5C 259.972,332.362 264.138,326.362 268.5,320.5C 265.522,319.647 262.522,318.981 259.5,318.5C 259.082,317.778 258.416,317.278 257.5,317C 261.975,314.35 265.975,311.183 269.5,307.5C 273.072,307.938 276.572,308.604 280,309.5C 291.986,303.948 304.153,298.781 316.5,294C 325.5,290.667 334.5,290.667 343.5,294C 352.735,298.232 361.735,302.732 370.5,307.5 Z"/></g>
<g><path style="opacity:1" fill="#81a399" d="M 207.5,297.5 C 217.486,297.141 219.819,301.141 214.5,309.5C 204.088,310.606 201.755,306.606 207.5,297.5 Z"/></g>
<g><path style="opacity:1" fill="#7083ae" d="M 405.5,297.5 C 412.409,297.953 414.909,301.62 413,308.5C 408.927,312.619 405.26,312.285 402,307.5C 400.581,303.082 401.748,299.749 405.5,297.5 Z"/></g>
<g><path style="opacity:1" fill="#7fb0b2" d="M 245.5,304.5 C 253.499,305.5 261.499,306.5 269.5,307.5C 265.975,311.183 261.975,314.35 257.5,317C 258.416,317.278 259.082,317.778 259.5,318.5C 252.524,317.419 245.524,316.919 238.5,317C 231.518,329.81 224.185,342.31 216.5,354.5C 216.483,352.972 215.816,352.472 214.5,353C 208.02,357.877 201.686,362.71 195.5,367.5C 205.01,349.805 215.01,332.471 225.5,315.5C 232.064,311.775 238.231,307.442 244,302.5C 244.278,303.416 244.778,304.082 245.5,304.5 Z"/></g>
<g><path style="opacity:1" fill="#aca94c" d="M 63.5,281.5 C 63.5,293.5 63.5,305.5 63.5,317.5C 61.7026,322.31 58.3693,325.977 53.5,328.5C 52.8333,321.345 52.1666,314.345 51.5,307.5C 51.5,302.5 51.5,297.5 51.5,292.5C 52.1174,292.611 52.6174,292.944 53,293.5C 55.1667,292 57.3333,290.5 59.5,289C 61.7333,286.887 63.0666,284.387 63.5,281.5 Z"/></g>
<g><path style="opacity:0.994" fill="#628ab9" d="M 387.5,302.5 C 397.337,318.836 406.67,335.502 415.5,352.5C 414.288,351.77 413.288,350.77 412.5,349.5C 410.007,351.58 407.341,353.414 404.5,355C 405.582,356.33 406.249,357.83 406.5,359.5C 398.526,346.23 390.526,332.897 382.5,319.5C 374.963,322.522 367.963,321.522 361.5,316.5C 361.33,315.178 361.663,314.011 362.5,313C 365.407,311.391 368.073,309.558 370.5,307.5C 371.492,307.328 372.158,307.662 372.5,308.5C 374.288,309.622 376.288,309.789 378.5,309C 381.249,306.31 384.249,304.144 387.5,302.5 Z"/></g>
<g><path style="opacity:1" fill="#7fa491" d="M 197.5,290.5 C 189.5,314.5 181.5,338.5 173.5,362.5C 172.957,362.44 172.624,362.107 172.5,361.5C 173.752,359.265 174.252,356.931 174,354.5C 169.317,357.697 164.817,361.03 160.5,364.5C 166.726,342.822 173.726,321.489 181.5,300.5C 186.692,296.814 192.025,293.481 197.5,290.5 Z"/></g>
<g><path style="opacity:1" fill="#5873a7" d="M 436.5,292.5 C 441.299,307.563 446.299,322.563 451.5,337.5C 450.25,337.423 449.417,336.756 449,335.5C 446.257,337.788 443.423,339.955 440.5,342C 441.167,343.333 441.833,344.667 442.5,346C 442.272,346.399 441.938,346.565 441.5,346.5C 435.796,330.386 430.463,314.053 425.5,297.5C 425.783,296.784 426.116,295.951 426.5,295C 429,293.167 431.5,291.333 434,289.5C 434.377,290.942 435.21,291.942 436.5,292.5 Z"/></g>
<g><path style="opacity:1" fill="#74a5ca" d="M 352.5,352.5 C 351.178,352.67 350.011,352.337 349,351.5C 345.923,354.083 343.089,356.75 340.5,359.5C 332.428,354.379 324.262,349.379 316,344.5C 314.177,345.651 312.344,346.818 310.5,348C 301.35,358.492 291.016,367.492 279.5,375C 272.35,377.406 265.017,378.073 257.5,377C 254.316,376.246 251.649,374.746 249.5,372.5C 249.938,372.565 250.272,372.399 250.5,372C 249.5,371 248.5,370 247.5,369C 250.333,366.833 253.167,364.667 256,362.5C 256.383,363.056 256.883,363.389 257.5,363.5C 264.346,366.384 271.013,365.884 277.5,362C 288.5,351.667 299.5,341.333 310.5,331C 311.872,330.598 313.205,330.098 314.5,329.5C 327.712,336.402 340.378,344.069 352.5,352.5 Z"/></g>
<g><path style="opacity:1" fill="#7c975f" d="M 51.5,307.5 C 52.1666,314.345 52.8333,321.345 53.5,328.5C 58.3693,325.977 61.7026,322.31 63.5,317.5C 63.5,339.167 63.5,360.833 63.5,382.5C 59.6278,384.193 56.1278,386.526 53,389.5C 52.829,381.656 52.329,373.989 51.5,366.5C 51.5,346.833 51.5,327.167 51.5,307.5 Z"/></g>
<g><path style="opacity:1" fill="#415394" d="M 451.5,337.5 C 454.095,345.452 456.595,353.452 459,361.5C 460.526,370.281 457.359,376.781 449.5,381C 445.286,383.274 440.953,385.274 436.5,387C 431.238,388.163 426.404,387.329 422,384.5C 421.617,385.056 421.117,385.389 420.5,385.5C 418.456,386.031 416.789,387.198 415.5,389C 415.728,389.399 416.062,389.565 416.5,389.5C 413.521,391.812 410.854,394.479 408.5,397.5C 409.828,401.186 409.828,404.853 408.5,408.5C 406.412,410.336 405.079,412.669 404.5,415.5C 401.356,419.964 397.022,422.298 391.5,422.5C 390.628,436.699 382.961,443.699 368.5,443.5C 365.985,453.349 359.652,458.349 349.5,458.5C 347.592,473.899 338.926,480.399 323.5,478C 315.273,474.303 307.106,470.47 299,466.5C 293.558,474.472 286.058,477.972 276.5,477C 273.555,476.861 271.221,475.694 269.5,473.5C 273.144,468.373 278.144,465.54 284.5,465C 292.172,457.558 300.505,451.725 309.5,447.5C 308.691,449.071 308.357,450.738 308.5,452.5C 307.587,454.086 307.587,455.586 308.5,457C 314.86,460.18 321.193,463.347 327.5,466.5C 331.526,468.014 334.859,466.847 337.5,463C 337.272,462.601 336.938,462.435 336.5,462.5C 336.663,460.143 336.497,457.81 336,455.5C 332.023,452.435 327.856,449.768 323.5,447.5C 327.309,445.089 330.976,442.422 334.5,439.5C 339.436,442.216 344.603,444.549 350,446.5C 355.466,444.903 357.133,441.569 355,436.5C 341.046,428.44 326.879,420.773 312.5,413.5C 311.551,411.223 310.218,409.223 308.5,407.5C 309.293,402.224 312.293,400.391 317.5,402C 329.721,408.274 341.721,414.774 353.5,421.5C 354.911,423.539 356.911,424.539 359.5,424.5C 363.783,426.89 368.283,428.89 373,430.5C 378.232,429.711 380.232,426.711 379,421.5C 370.72,415.276 361.887,409.942 352.5,405.5C 351.643,404.198 351.143,402.865 351,401.5C 353.411,399.422 356.078,397.755 359,396.5C 361.881,398.524 365.047,399.857 368.5,400.5C 374.604,403.386 380.604,406.553 386.5,410C 394.211,410.622 397.378,407.122 396,399.5C 391.568,394.56 386.735,390.227 381.5,386.5C 383.379,383.885 385.712,381.719 388.5,380C 390.163,379.735 391.663,380.235 393,381.5C 393.399,381.272 393.565,380.938 393.5,380.5C 396.061,382.371 398.561,384.371 401,386.5C 405.333,382.833 409.667,379.167 414,375.5C 411.822,370.137 409.322,364.804 406.5,359.5C 406.249,357.83 405.582,356.33 404.5,355C 407.341,353.414 410.007,351.58 412.5,349.5C 413.288,350.77 414.288,351.77 415.5,352.5C 420.144,359.106 424.311,366.106 428,373.5C 428.804,374.804 429.971,375.471 431.5,375.5C 437.878,373.654 443.211,370.321 447.5,365.5C 445.092,359.276 443.092,352.943 441.5,346.5C 441.938,346.565 442.272,346.399 442.5,346C 441.833,344.667 441.167,343.333 440.5,342C 443.423,339.955 446.257,337.788 449,335.5C 449.417,336.756 450.25,337.423 451.5,337.5 Z"/></g>
<g><path style="opacity:1" fill="#80b7c5" d="M 216.5,354.5 C 213.033,362.099 209.033,369.433 204.5,376.5C 205.653,380.139 207.319,383.472 209.5,386.5C 208.417,386.461 207.417,386.127 206.5,385.5C 203.765,387.521 201.099,389.521 198.5,391.5C 197.221,389.877 195.887,388.21 194.5,386.5C 190.892,387.593 187.225,387.76 183.5,387C 177.888,384.861 172.554,382.194 167.5,379C 162.616,375.398 160.282,370.565 160.5,364.5C 164.817,361.03 169.317,357.697 174,354.5C 174.252,356.931 173.752,359.265 172.5,361.5C 172.624,362.107 172.957,362.44 173.5,362.5C 172.451,364.563 172.784,366.563 174.5,368.5C 178.893,371.363 183.56,373.696 188.5,375.5C 190.029,375.471 191.196,374.804 192,373.5C 192.926,371.308 194.093,369.308 195.5,367.5C 201.686,362.71 208.02,357.877 214.5,353C 215.816,352.472 216.483,352.972 216.5,354.5 Z"/></g>
<g><path style="opacity:1" fill="#79b1d4" d="M 243.5,376.5 C 243.511,378.017 244.177,379.184 245.5,380C 242.509,382.848 239.176,385.015 235.5,386.5C 233.692,386.491 232.025,386.991 230.5,388C 223.93,395.063 217.596,402.23 211.5,409.5C 208.378,412.446 205.044,415.279 201.5,418C 200.552,418.483 199.552,418.649 198.5,418.5C 196.631,411.411 198.297,405.077 203.5,399.5C 201.311,397.113 199.644,394.447 198.5,391.5C 201.099,389.521 203.765,387.521 206.5,385.5C 207.417,386.127 208.417,386.461 209.5,386.5C 210.315,387.429 211.148,388.429 212,389.5C 216.263,383.235 221.763,378.402 228.5,375C 233.689,374.092 238.689,374.592 243.5,376.5 Z"/></g>
<g><path style="opacity:1" fill="#5271a6" d="M 352.5,352.5 C 366.738,361.085 380.405,370.418 393.5,380.5C 393.565,380.938 393.399,381.272 393,381.5C 391.663,380.235 390.163,379.735 388.5,380C 385.712,381.719 383.379,383.885 381.5,386.5C 368.005,377.251 354.338,368.251 340.5,359.5C 343.089,356.75 345.923,354.083 349,351.5C 350.011,352.337 351.178,352.67 352.5,352.5 Z"/></g>
<g><path style="opacity:1" fill="#6f9cc1" d="M 243.5,376.5 C 246.839,379.173 249.839,382.173 252.5,385.5C 265.81,381.818 274.476,386.485 278.5,399.5C 277.15,398.517 276.15,397.184 275.5,395.5C 272.25,397.612 269.25,399.945 266.5,402.5C 264.696,396.631 261.029,395.131 255.5,398C 247.333,407.5 239.167,417 231,426.5C 229.412,433.01 231.912,436.343 238.5,436.5C 236.369,437.314 234.036,437.814 231.5,438C 228.706,439.535 226.706,441.702 225.5,444.5C 220.759,442.054 218.426,438.054 218.5,432.5C 207.91,433.221 201.243,428.554 198.5,418.5C 199.552,418.649 200.552,418.483 201.5,418C 205.044,415.279 208.378,412.446 211.5,409.5C 208.514,417.034 211.181,420.534 219.5,420C 226.706,412.463 233.54,404.629 240,396.5C 241.442,391.723 239.942,388.39 235.5,386.5C 239.176,385.015 242.509,382.848 245.5,380C 244.177,379.184 243.511,378.017 243.5,376.5 Z"/></g>
<g><path style="opacity:0.098" fill="#b1ad55" d="M 420.5,385.5 C 419.5,387.167 418.167,388.5 416.5,389.5C 416.062,389.565 415.728,389.399 415.5,389C 416.789,387.198 418.456,386.031 420.5,385.5 Z"/></g>
<g><path style="opacity:0.996" fill="#c4d67a" d="M 322.5,388.5 C 324.308,388.491 325.975,388.991 327.5,390C 328.738,390.69 328.738,391.19 327.5,391.5C 325.632,390.737 323.965,389.737 322.5,388.5 Z"/></g>
<g><path style="opacity:1" fill="#5b72a8" d="M 368.5,400.5 C 365.047,399.857 361.881,398.524 359,396.5C 356.078,397.755 353.411,399.422 351,401.5C 351.143,402.865 351.643,404.198 352.5,405.5C 343.97,401.071 335.637,396.405 327.5,391.5C 328.738,391.19 328.738,390.69 327.5,390C 325.975,388.991 324.308,388.491 322.5,388.5C 315.209,386.106 313.875,381.94 318.5,376C 320.5,375.333 322.5,375.333 324.5,376C 339.39,383.941 354.057,392.108 368.5,400.5 Z"/></g>
<g><path style="opacity:1" fill="#7b9e8f" d="M 51.5,366.5 C 52.329,373.989 52.829,381.656 53,389.5C 56.1278,386.526 59.6278,384.193 63.5,382.5C 63.3334,399.503 63.5001,416.503 64,433.5C 64.561,436.279 65.3944,438.946 66.5,441.5C 64.5905,440.025 63.4238,438.025 63,435.5C 59.5935,437.745 56.7601,440.412 54.5,443.5C 53.2237,441.438 52.3903,439.104 52,436.5C 51.5,413.169 51.3334,389.836 51.5,366.5 Z"/></g>
<g><path style="opacity:0.878" fill="#b1c864" d="M 308.5,407.5 C 310.218,409.223 311.551,411.223 312.5,413.5C 309.956,412.292 308.622,410.292 308.5,407.5 Z"/></g>
<g><path style="opacity:0.043" fill="#79b969" d="M 408.5,408.5 C 407.921,411.331 406.588,413.664 404.5,415.5C 405.079,412.669 406.412,410.336 408.5,408.5 Z"/></g>
<g><path style="opacity:1" fill="#5f84b3" d="M 278.5,399.5 C 278.215,401.288 278.548,402.955 279.5,404.5C 290.842,407.508 295.842,414.842 294.5,426.5C 295.791,426.263 296.791,426.596 297.5,427.5C 294.606,428.278 291.606,429.778 288.5,432C 280.546,438.919 272.213,444.419 263.5,448.5C 269.832,441.332 275.998,433.999 282,426.5C 283.382,421.203 281.382,417.869 276,416.5C 272.439,418.055 269.439,420.388 267,423.5C 262.711,429.458 258.044,435.124 253,440.5C 251.11,444.42 251.943,447.754 255.5,450.5C 253.983,450.489 252.816,449.823 252,448.5C 245.768,453.699 239.268,458.532 232.5,463C 234.382,463.198 236.048,463.698 237.5,464.5C 210.167,464.5 182.833,464.5 155.5,464.5C 160.576,461.282 165.576,457.782 170.5,454C 169.944,453.617 169.611,453.117 169.5,452.5C 193.502,452.667 217.502,452.5 241.5,452C 240.833,451 240.167,450 239.5,449C 236.833,448.667 234.167,448.333 231.5,448C 228.975,447.576 226.975,446.41 225.5,444.5C 226.706,441.702 228.706,439.535 231.5,438C 234.036,437.814 236.369,437.314 238.5,436.5C 247.503,427.662 256.003,418.328 264,408.5C 265.559,406.783 266.392,404.783 266.5,402.5C 269.25,399.945 272.25,397.612 275.5,395.5C 276.15,397.184 277.15,398.517 278.5,399.5 Z"/></g>
<g><path style="opacity:0.635" fill="#96c268" d="M 353.5,421.5 C 355.819,421.992 357.819,422.992 359.5,424.5C 356.911,424.539 354.911,423.539 353.5,421.5 Z"/></g>
<g><path style="opacity:0.991" fill="#4566a4" d="M 297.5,427.5 C 303.02,428.851 306.853,432.184 309,437.5C 309.108,433.224 311.275,431.224 315.5,431.5C 322.166,433.332 328.499,435.998 334.5,439.5C 330.976,442.422 327.309,445.089 323.5,447.5C 319.157,445.912 314.99,443.912 311,441.5C 310.892,445.465 310.059,449.132 308.5,452.5C 308.357,450.738 308.691,449.071 309.5,447.5C 300.505,451.725 292.172,457.558 284.5,465C 278.144,465.54 273.144,468.373 269.5,473.5C 266.092,472.422 264.092,470.089 263.5,466.5C 262.265,464.227 262.598,462.394 264.5,461C 267,459.167 269.5,457.333 272,455.5C 272.232,456.737 272.732,457.737 273.5,458.5C 274.88,464.22 278.213,466.053 283.5,464C 289.29,458.219 294.29,451.886 298.5,445C 296.69,439.429 293.024,437.595 287.5,439.5C 286.761,439.369 286.094,439.536 285.5,440C 282.833,443 280.167,446 277.5,449C 271.221,452.946 265.221,457.279 259.5,462C 256.421,462.973 253.421,463.806 250.5,464.5C 246.167,464.5 241.833,464.5 237.5,464.5C 236.048,463.698 234.382,463.198 232.5,463C 239.268,458.532 245.768,453.699 252,448.5C 252.816,449.823 253.983,450.489 255.5,450.5C 258.513,450.893 261.18,450.226 263.5,448.5C 272.213,444.419 280.546,438.919 288.5,432C 291.606,429.778 294.606,428.278 297.5,427.5 Z M 273.5,458.5 C 273.351,457.448 273.517,456.448 274,455.5C 278.711,450.294 283.211,444.961 287.5,439.5C 293.024,437.595 296.69,439.429 298.5,445C 294.29,451.886 289.29,458.219 283.5,464C 278.213,466.053 274.88,464.22 273.5,458.5 Z"/></g>
<g><path style="opacity:1" fill="#7fb4bb" d="M 66.5,441.5 C 71.3573,448.266 78.0239,451.932 86.5,452.5C 86.9175,453.222 87.5842,453.722 88.5,454C 84.6562,456.422 80.9895,459.089 77.5,462C 78.7375,462.232 79.7375,462.732 80.5,463.5C 67.7068,462.113 59.0401,455.446 54.5,443.5C 56.7601,440.412 59.5935,437.745 63,435.5C 63.4238,438.025 64.5905,440.025 66.5,441.5 Z"/></g>
<g><path style="opacity:1" fill="#6c7e9e" d="M 287.5,439.5 C 283.211,444.961 278.711,450.294 274,455.5C 273.517,456.448 273.351,457.448 273.5,458.5C 272.732,457.737 272.232,456.737 272,455.5C 269.5,457.333 267,459.167 264.5,461C 262.598,462.394 262.265,464.227 263.5,466.5C 259.486,464.666 255.153,463.999 250.5,464.5C 253.421,463.806 256.421,462.973 259.5,462C 265.221,457.279 271.221,452.946 277.5,449C 280.167,446 282.833,443 285.5,440C 286.094,439.536 286.761,439.369 287.5,439.5 Z"/></g>
<g><path style="opacity:0.973" fill="#75add3" d="M 86.5,452.5 C 114.167,452.5 141.833,452.5 169.5,452.5C 169.611,453.117 169.944,453.617 170.5,454C 165.576,457.782 160.576,461.282 155.5,464.5C 130.328,464.831 105.328,464.498 80.5,463.5C 79.7375,462.732 78.7375,462.232 77.5,462C 80.9895,459.089 84.6562,456.422 88.5,454C 87.5842,453.722 86.9175,453.222 86.5,452.5 Z"/></g>
<g><path style="opacity:0.8" fill="#a97a5f" d="M 336.5,462.5 C 336.938,462.435 337.272,462.601 337.5,463C 334.859,466.847 331.526,468.014 327.5,466.5C 331.129,466.518 334.129,465.184 336.5,462.5 Z"/></g>
</svg>
