<?xml version="1.0" encoding="UTF-8"?>
<!DOCTYPE svg PUBLIC "-//W3C//DTD SVG 1.1//EN" "http://www.w3.org/Graphics/SVG/1.1/DTD/svg11.dtd">
<svg xmlns="http://www.w3.org/2000/svg" version="1.1" width="512px" height="512px" style="shape-rendering:geometricPrecision; text-rendering:geometricPrecision; image-rendering:optimizeQuality; fill-rule:evenodd; clip-rule:evenodd" xmlns:xlink="http://www.w3.org/1999/xlink">
<g><path style="opacity:1" fill="#284892" d="M 423.5,33.5 C 425.879,36.5354 428.879,38.8687 432.5,40.5C 440.135,46.0461 445.635,53.3794 449,62.5C 450.961,67.6767 452.294,73.01 453,78.5C 453.667,196.5 453.667,314.5 453,432.5C 448.167,462.667 430.667,480.167 400.5,485C 335.833,485.667 271.167,485.667 206.5,485C 196.985,483.887 188.318,480.72 180.5,475.5C 179.258,473.75 177.758,472.083 176,470.5C 175.601,470.728 175.435,471.062 175.5,471.5C 164.659,463.184 157.826,452.184 155,438.5C 153.888,424.205 153.388,409.871 153.5,395.5C 153.36,382.101 153.86,368.767 155,355.5C 161.312,345.179 169.812,343.013 180.5,349C 182.378,350.543 183.878,352.376 185,354.5C 186.305,379.437 186.972,404.437 187,429.5C 187.272,432.382 188.106,435.049 189.5,437.5C 188.285,438.779 188.618,439.779 190.5,440.5C 195.192,446.854 201.525,450.688 209.5,452C 272.167,452.667 334.833,452.667 397.5,452C 410.333,449.833 417.833,442.333 420,429.5C 420.667,313.5 420.667,197.5 420,81.5C 417.925,69.6511 411.091,62.3178 399.5,59.5C 399.389,58.8826 399.056,58.3826 398.5,58C 336.332,57.168 274.332,57.3347 212.5,58.5C 199.52,60.1338 191.186,67.1338 187.5,79.5C 186.883,79.6107 186.383,79.944 186,80.5C 185.17,103.67 185.337,126.67 186.5,149.5C 184.945,161.124 178.278,166.29 166.5,165C 161.16,163.59 157.327,160.423 155,155.5C 153.361,129.896 153.028,104.229 154,78.5C 158.833,48.3333 176.333,30.8333 206.5,26C 271.167,25.3333 335.833,25.3333 400.5,26C 408.721,27.0185 416.388,29.5185 423.5,33.5 Z"/></g>
<g><path style="opacity:0.996" fill="#a09e6b" d="M 423.5,33.5 C 427.082,35.1198 430.082,37.4531 432.5,40.5C 428.879,38.8687 425.879,36.5354 423.5,33.5 Z"/></g>
<g><path style="opacity:0.667" fill="#9ec491" d="M 212.5,58.5 C 274.332,57.3347 336.332,57.168 398.5,58C 399.056,58.3826 399.389,58.8826 399.5,59.5C 337.208,58.5074 274.875,58.1741 212.5,58.5 Z"/></g>
<g><path style="opacity:0.667" fill="#9dbf8c" d="M 187.5,79.5 C 186.52,102.788 186.187,126.122 186.5,149.5C 185.337,126.67 185.17,103.67 186,80.5C 186.383,79.944 186.883,79.6107 187.5,79.5 Z"/></g>
<g><path style="opacity:1" fill="#274792" d="M 218.5,335.5 C 219.097,335.265 219.43,334.765 219.5,334C 219.01,331.654 218.343,329.487 217.5,327.5C 218.408,324.013 220.074,321.013 222.5,318.5C 238.301,304.211 253.967,289.045 269.5,273C 269.272,272.601 268.938,272.435 268.5,272.5C 202.001,271.667 135.335,271.167 68.5,271C 59.1078,266.658 55.7744,259.492 58.5,249.5C 62.2112,245.786 66.2112,242.453 70.5,239.5C 136.501,239.667 202.501,239.5 268.5,239C 259.298,229.965 250.298,220.798 241.5,211.5C 235.929,204.423 229.762,197.756 223,191.5C 222.601,191.728 222.435,192.062 222.5,192.5C 215.461,183.553 216.128,175.053 224.5,167C 230.861,163.728 237.194,163.728 243.5,167C 270,193.5 296.5,220 323,246.5C 326.333,252.5 326.333,258.5 323,264.5C 296.5,291 270,317.5 243.5,344C 232.297,349.211 223.963,346.377 218.5,335.5 Z"/></g>
<g><path style="opacity:0.039" fill="#7ccd63" d="M 241.5,211.5 C 234.833,205.5 228.5,199.167 222.5,192.5C 222.435,192.062 222.601,191.728 223,191.5C 229.762,197.756 235.929,204.423 241.5,211.5 Z"/></g>
<g><path style="opacity:0.463" fill="#a08965" d="M 70.5,239.5 C 66.2112,242.453 62.2112,245.786 58.5,249.5C 61.0081,244.321 65.0081,240.988 70.5,239.5 Z"/></g>
<g><path style="opacity:0.741" fill="#60909b" d="M 268.5,272.5 C 268.938,272.435 269.272,272.601 269.5,273C 253.967,289.045 238.301,304.211 222.5,318.5C 237.5,302.833 252.833,287.5 268.5,272.5 Z"/></g>
<g><path style="opacity:0.569" fill="#af9b50" d="M 217.5,327.5 C 218.343,329.487 219.01,331.654 219.5,334C 219.43,334.765 219.097,335.265 218.5,335.5C 217.735,332.904 217.401,330.237 217.5,327.5 Z"/></g>
<g><path style="opacity:0.922" fill="#aade54" d="M 189.5,437.5 C 190.11,438.391 190.443,439.391 190.5,440.5C 188.618,439.779 188.285,438.779 189.5,437.5 Z"/></g>
<g><path style="opacity:0.502" fill="#a9cc98" d="M 180.5,475.5 C 178.246,474.876 176.579,473.543 175.5,471.5C 175.435,471.062 175.601,470.728 176,470.5C 177.758,472.083 179.258,473.75 180.5,475.5 Z"/></g>
</svg>
