<?xml version="1.0" encoding="UTF-8"?>
<!DOCTYPE svg PUBLIC "-//W3C//DTD SVG 1.1//EN" "http://www.w3.org/Graphics/SVG/1.1/DTD/svg11.dtd">
<svg xmlns="http://www.w3.org/2000/svg" version="1.1" width="512px" height="512px" style="shape-rendering:geometricPrecision; text-rendering:geometricPrecision; image-rendering:optimizeQuality; fill-rule:evenodd; clip-rule:evenodd" xmlns:xlink="http://www.w3.org/1999/xlink">
<g><path style="opacity:0.997" fill="#ff9e2b" d="M 342.5,42.5 C 344.172,46.052 346.172,48.7187 348.5,50.5C 350.874,53.6859 351.874,57.3526 351.5,61.5C 346.046,59.2017 340.38,58.8684 334.5,60.5C 333.157,56.6492 330.823,53.4825 327.5,51C 311.452,40.4282 293.786,34.4282 274.5,33C 248.403,29.9422 223.069,33.1089 198.5,42.5C 198.44,41.9569 198.107,41.6236 197.5,41.5C 194.432,42.6913 191.765,44.358 189.5,46.5C 185.689,49.2502 182.022,52.2502 178.5,55.5C 177.711,55.7828 177.044,56.2828 176.5,57C 170.752,57.212 165.085,57.712 159.5,58.5C 162.891,46.9281 169.891,38.0948 180.5,32C 197.399,23.0344 215.399,17.701 234.5,16C 263.33,12.7706 291.33,16.104 318.5,26C 327.784,29.7947 335.784,35.2947 342.5,42.5 Z"/></g>
<g><path style="opacity:0.349" fill="#ffaba9" d="M 198.5,42.5 C 195.622,44.1054 192.622,45.4388 189.5,46.5C 191.765,44.358 194.432,42.6913 197.5,41.5C 198.107,41.6236 198.44,41.9569 198.5,42.5 Z"/></g>
<g><path style="opacity:0.263" fill="#ff6072" d="M 342.5,42.5 C 345.471,44.4426 347.471,47.1092 348.5,50.5C 346.172,48.7187 344.172,46.052 342.5,42.5 Z"/></g>
<g><path style="opacity:1" fill="#ffb32f" d="M 207.5,55.5 C 239.5,55.5 271.5,55.5 303.5,55.5C 303.5,60.8333 303.5,66.1667 303.5,71.5C 271.5,71.5 239.5,71.5 207.5,71.5C 207.5,66.1667 207.5,60.8333 207.5,55.5 Z"/></g>
<g><path style="opacity:0.996" fill="#ffbb40" d="M 351.5,61.5 C 351.5,69.5 351.5,77.5 351.5,85.5C 339.167,85.5 326.833,85.5 314.5,85.5C 314.5,84.8333 314.167,84.5 313.5,84.5C 319.704,81.1443 325.537,77.1443 331,72.5C 333.949,69.0498 335.116,65.0498 334.5,60.5C 340.38,58.8684 346.046,59.2017 351.5,61.5 Z"/></g>
<g><path style="opacity:0.361" fill="#ff9faf" d="M 189.5,80.5 C 193.151,81.6589 196.485,83.3256 199.5,85.5C 195.109,84.6455 191.776,82.9788 189.5,80.5 Z"/></g>
<g><path style="opacity:0.996" fill="#ff929f" d="M 313.5,84.5 C 314.167,84.5 314.5,84.8333 314.5,85.5C 310.904,86.8004 307.237,87.8004 303.5,88.5C 306.54,86.6541 309.873,85.3208 313.5,84.5 Z"/></g>
<g><path style="opacity:0.998" fill="#ffc551" d="M 178.5,55.5 C 175.677,60.9185 175.843,66.2519 179,71.5C 182.292,74.8732 185.792,77.8732 189.5,80.5C 191.776,82.9788 195.109,84.6455 199.5,85.5C 233.913,96.9178 268.58,97.9178 303.5,88.5C 307.237,87.8004 310.904,86.8004 314.5,85.5C 326.833,85.5 339.167,85.5 351.5,85.5C 351.5,99.5 351.5,113.5 351.5,127.5C 345.077,127.791 338.744,127.458 332.5,126.5C 332.833,125.833 333.167,125.167 333.5,124.5C 334.586,124.38 335.253,123.713 335.5,122.5C 335.457,121.584 335.124,120.917 334.5,120.5C 335.639,110.911 335.806,101.244 335,91.5C 330.006,95.4139 324.506,98.4139 318.5,100.5C 318.062,100.565 317.728,100.399 317.5,100C 318.167,99.6667 318.833,99.3333 319.5,99C 298.167,98.8333 276.833,98.6667 255.5,98.5C 233.823,98.5003 212.489,99.167 191.5,100.5C 185.779,97.6396 180.446,94.973 175.5,92.5C 170.167,92.5 164.833,92.5 159.5,92.5C 159.5,81.1667 159.5,69.8333 159.5,58.5C 165.085,57.712 170.752,57.212 176.5,57C 177.044,56.2828 177.711,55.7828 178.5,55.5 Z"/></g>
<g><path style="opacity:0.997" fill="#facc59" d="M 318.5,100.5 C 311.642,104.007 304.309,106.34 296.5,107.5C 295.235,106.774 293.735,106.774 292,107.5C 290.624,107.684 289.791,108.351 289.5,109.5C 288.833,109.5 288.167,109.5 287.5,109.5C 285.32,108.206 283.32,108.539 281.5,110.5C 255.153,113.226 229.153,111.392 203.5,105C 199.365,103.762 195.365,102.262 191.5,100.5C 212.489,99.167 233.823,98.5003 255.5,98.5C 276.833,98.6667 298.167,98.8333 319.5,99C 318.833,99.3333 318.167,99.6667 317.5,100C 317.728,100.399 318.062,100.565 318.5,100.5 Z"/></g>
<g><path style="opacity:0.035" fill="#e13194" d="M 296.5,107.5 C 294.167,108.167 291.833,108.833 289.5,109.5C 289.791,108.351 290.624,107.684 292,107.5C 293.735,106.774 295.235,106.774 296.5,107.5 Z"/></g>
<g><path style="opacity:0.008" fill="#bfa1da" d="M 287.5,109.5 C 285.5,109.833 283.5,110.167 281.5,110.5C 283.32,108.539 285.32,108.206 287.5,109.5 Z"/></g>
<g><path style="opacity:1" fill="#f2ce55" d="M 183.5,111.5 C 188.833,111.5 194.167,111.5 199.5,111.5C 199.5,116.833 199.5,122.167 199.5,127.5C 194.167,127.5 188.833,127.5 183.5,127.5C 183.5,122.167 183.5,116.833 183.5,111.5 Z"/></g>
<g><path style="opacity:0.945" fill="#a227b4" d="M 334.5,120.5 C 335.124,120.917 335.457,121.584 335.5,122.5C 335.253,123.713 334.586,124.38 333.5,124.5C 334.234,123.292 334.567,121.959 334.5,120.5 Z"/></g>
<g><path style="opacity:1" fill="#f1cb56" d="M 159.5,92.5 C 164.833,92.5 170.167,92.5 175.5,92.5C 175.334,101.506 175.5,110.506 176,119.5C 176.561,122.279 177.394,124.946 178.5,127.5C 179.167,130.167 180.833,131.833 183.5,132.5C 184.492,132.328 185.158,132.662 185.5,133.5C 177.231,135.47 168.565,136.136 159.5,135.5C 159.5,121.167 159.5,106.833 159.5,92.5 Z"/></g>
<g><path style="opacity:1" fill="#eccb54" d="M 215.5,119.5 C 220.833,119.5 226.167,119.5 231.5,119.5C 231.5,124.833 231.5,130.167 231.5,135.5C 226.167,135.5 220.833,135.5 215.5,135.5C 215.5,130.167 215.5,124.833 215.5,119.5 Z"/></g>
<g><path style="opacity:0.992" fill="#895e9f" d="M 178.5,127.5 C 180.5,128.833 182.167,130.5 183.5,132.5C 180.833,131.833 179.167,130.167 178.5,127.5 Z"/></g>
<g><path style="opacity:1" fill="#d7bf56" d="M 332.5,126.5 C 338.744,127.458 345.077,127.791 351.5,127.5C 351.5,143.5 351.5,159.5 351.5,175.5C 346.067,176.802 340.734,176.802 335.5,175.5C 335.666,166.161 335.5,156.827 335,147.5C 331.345,150.744 327.178,153.078 322.5,154.5C 319.759,154.707 317.426,155.707 315.5,157.5C 313.208,159.267 310.542,160.267 307.5,160.5C 272.167,159.167 236.833,159.167 201.5,160.5C 192.387,157.36 183.887,153.027 176,147.5C 175.5,156.827 175.334,166.161 175.5,175.5C 170.266,176.802 164.933,176.802 159.5,175.5C 159.5,162.167 159.5,148.833 159.5,135.5C 168.565,136.136 177.231,135.47 185.5,133.5C 198.953,141.93 213.619,147.096 229.5,149C 253.351,152.323 277.018,150.989 300.5,145C 312.97,141.61 323.636,135.443 332.5,126.5 Z"/></g>
<g><path style="opacity:0.043" fill="#9c4aaf" d="M 322.5,154.5 C 320.574,156.293 318.241,157.293 315.5,157.5C 317.426,155.707 319.759,154.707 322.5,154.5 Z"/></g>
<g><path style="opacity:0.998" fill="#c7b55a" d="M 201.5,160.5 C 236.833,159.167 272.167,159.167 307.5,160.5C 290.714,165.887 273.381,168.22 255.5,167.5C 237.101,168.086 219.101,165.752 201.5,160.5 Z"/></g>
<g><path style="opacity:1" fill="#c6b84d" d="M 183.5,167.5 C 188.833,167.5 194.167,167.5 199.5,167.5C 199.5,172.833 199.5,178.167 199.5,183.5C 194.167,183.5 188.833,183.5 183.5,183.5C 183.5,178.167 183.5,172.833 183.5,167.5 Z"/></g>
<g><path style="opacity:1" fill="#b2a956" d="M 159.5,175.5 C 164.933,176.802 170.266,176.802 175.5,175.5C 176.355,178.175 177.522,180.842 179,183.5C 183.45,187.798 188.283,191.465 193.5,194.5C 194.479,196.02 196.313,197.353 199,198.5C 199.399,198.272 199.565,197.938 199.5,197.5C 232.865,208.63 266.532,209.797 300.5,201C 311.929,197.704 322.095,192.204 331,184.5C 333.079,181.676 334.579,178.676 335.5,175.5C 340.734,176.802 346.067,176.802 351.5,175.5C 351.983,182.217 350.15,188.217 346,193.5C 340.29,200.924 333.123,206.257 324.5,209.5C 301.836,208.833 279.002,208.5 256,208.5C 232.823,208.5 209.99,209.167 187.5,210.5C 174.859,205.026 165.692,196.026 160,183.5C 159.503,180.854 159.336,178.187 159.5,175.5 Z"/></g>
<g><path style="opacity:0.361" fill="#9d4da3" d="M 193.5,194.5 C 195.819,194.992 197.819,195.992 199.5,197.5C 199.565,197.938 199.399,198.272 199,198.5C 196.313,197.353 194.479,196.02 193.5,194.5 Z"/></g>
<g><path style="opacity:1" fill="#c0b54c" d="M 215.5,175.5 C 220.833,175.5 226.167,175.5 231.5,175.5C 231.5,180.833 231.5,186.167 231.5,191.5C 226.167,191.5 220.833,191.5 215.5,191.5C 215.5,186.167 215.5,180.833 215.5,175.5 Z"/></g>
<g><path style="opacity:0.702" fill="#352793" d="M 324.5,209.5 C 322.819,211.008 320.819,212.008 318.5,212.5C 319.414,210.69 321.414,209.69 324.5,209.5 Z"/></g>
<g><path style="opacity:0.998" fill="#a6a74f" d="M 324.5,209.5 C 321.414,209.69 319.414,210.69 318.5,212.5C 301.036,219.86 282.702,223.526 263.5,223.5C 263.5,229.167 263.5,234.833 263.5,240.5C 258.167,240.5 252.833,240.5 247.5,240.5C 247.5,234.833 247.5,229.167 247.5,223.5C 226.506,223.502 206.506,219.169 187.5,210.5C 209.99,209.167 232.823,208.5 256,208.5C 279.002,208.5 301.836,208.833 324.5,209.5 Z"/></g>
<g><path style="opacity:1" fill="#849745" d="M 247.5,240.5 C 252.833,240.5 258.167,240.5 263.5,240.5C 270.396,243.061 275.396,247.727 278.5,254.5C 317.496,255.333 356.496,255.833 395.5,256C 397.333,256.5 398.5,257.667 399,259.5C 399.5,268.827 399.666,278.161 399.5,287.5C 394.167,288.833 388.833,288.833 383.5,287.5C 383.5,282.167 383.5,276.833 383.5,271.5C 348.494,271.167 313.494,271.5 278.5,272.5C 269.887,287.869 257.554,291.703 241.5,284C 237.546,280.883 234.546,277.05 232.5,272.5C 197.506,271.5 162.506,271.167 127.5,271.5C 127.5,276.833 127.5,282.167 127.5,287.5C 122.167,288.833 116.833,288.833 111.5,287.5C 111.334,278.161 111.5,268.827 112,259.5C 112.5,257.667 113.667,256.5 115.5,256C 154.504,255.833 193.504,255.333 232.5,254.5C 235.604,247.727 240.604,243.061 247.5,240.5 Z M 260.5,257.5 C 260.833,258.167 261.167,258.833 261.5,259.5C 263.654,268.948 259.987,272.281 250.5,269.5C 249.833,268.167 249.167,266.833 248.5,265.5C 248.689,257.394 252.689,254.727 260.5,257.5 Z"/></g>
<g><path style="opacity:0.259" fill="#a728d0" d="M 261.5,259.5 C 261.167,258.833 260.833,258.167 260.5,257.5C 260.81,256.262 261.31,256.262 262,257.5C 262.692,258.437 262.525,259.103 261.5,259.5 Z"/></g>
<g><path style="opacity:0.827" fill="#9b74c7" d="M 248.5,265.5 C 249.167,266.833 249.833,268.167 250.5,269.5C 250.19,270.738 249.69,270.738 249,269.5C 247.702,268.054 247.535,266.721 248.5,265.5 Z"/></g>
<g><path style="opacity:0.998" fill="#76955a" d="M 111.5,287.5 C 116.833,288.833 122.167,288.833 127.5,287.5C 144.623,287.632 161.289,290.465 177.5,296C 181.507,297.337 185.173,299.17 188.5,301.5C 142.598,302.83 96.5977,302.83 50.5,301.5C 59.4514,296.347 69.1181,292.847 79.5,291C 90.0533,288.772 100.72,287.605 111.5,287.5 Z"/></g>
<g><path style="opacity:0.998" fill="#76955a" d="M 383.5,287.5 C 388.833,288.833 394.167,288.833 399.5,287.5C 416.623,287.632 433.289,290.465 449.5,296C 453.507,297.337 457.173,299.17 460.5,301.5C 414.598,302.83 368.598,302.83 322.5,301.5C 331.451,296.347 341.118,292.847 351.5,291C 362.053,288.772 372.72,287.605 383.5,287.5 Z"/></g>
<g><path style="opacity:0.994" fill="#7b9e79" d="M 50.5,301.5 C 96.5977,302.83 142.598,302.83 188.5,301.5C 197.123,304.743 204.29,310.076 210,317.5C 212.324,320.48 213.824,323.813 214.5,327.5C 208.5,328.833 202.5,328.833 196.5,327.5C 181.717,315.396 164.717,308.229 145.5,306C 121.099,302.532 96.932,304.032 73,310.5C 60.5697,313.951 50.0697,320.284 41.5,329.5C 36.3595,328.512 31.0262,328.179 25.5,328.5C 25.7373,327.209 25.404,326.209 24.5,325.5C 30.3017,314.364 38.9683,306.364 50.5,301.5 Z"/></g>
<g><path style="opacity:0.994" fill="#7b9e79" d="M 322.5,301.5 C 368.598,302.83 414.598,302.83 460.5,301.5C 469.123,304.743 476.29,310.076 482,317.5C 484.324,320.48 485.824,323.813 486.5,327.5C 480.5,328.833 474.5,328.833 468.5,327.5C 453.717,315.396 436.717,308.229 417.5,306C 393.099,302.532 368.932,304.032 345,310.5C 332.57,313.951 322.07,320.284 313.5,329.5C 308.36,328.512 303.026,328.179 297.5,328.5C 297.737,327.209 297.404,326.209 296.5,325.5C 302.302,314.364 310.968,306.364 322.5,301.5 Z"/></g>
<g><path style="opacity:1" fill="#75b3b4" d="M 71.5,327.5 C 103.5,327.5 135.5,327.5 167.5,327.5C 167.5,332.833 167.5,338.167 167.5,343.5C 135.5,343.5 103.5,343.5 71.5,343.5C 71.5,338.167 71.5,332.833 71.5,327.5 Z"/></g>
<g><path style="opacity:1" fill="#75b3b4" d="M 343.5,327.5 C 375.5,327.5 407.5,327.5 439.5,327.5C 439.5,332.833 439.5,338.167 439.5,343.5C 407.5,343.5 375.5,343.5 343.5,343.5C 343.5,338.167 343.5,332.833 343.5,327.5 Z"/></g>
<g><path style="opacity:1" fill="#7db2b7" d="M 24.5,325.5 C 25.404,326.209 25.7373,327.209 25.5,328.5C 31.0262,328.179 36.3595,328.512 41.5,329.5C 39.1791,337.193 41.1791,343.526 47.5,348.5C 39.555,347.563 31.555,347.23 23.5,347.5C 23.2363,340.11 23.5696,332.777 24.5,325.5 Z"/></g>
<g><path style="opacity:1" fill="#7db2b7" d="M 296.5,325.5 C 297.404,326.209 297.737,327.209 297.5,328.5C 303.026,328.179 308.36,328.512 313.5,329.5C 311.179,337.193 313.179,343.526 319.5,348.5C 311.555,347.563 303.555,347.23 295.5,347.5C 295.236,340.11 295.57,332.777 296.5,325.5 Z"/></g>
<g><path style="opacity:1" fill="#7eb2ba" d="M 196.5,327.5 C 202.5,328.833 208.5,328.833 214.5,327.5C 215.492,334.648 215.825,341.981 215.5,349.5C 207.16,349.334 198.827,349.5 190.5,350C 189.744,351.38 189.078,351.547 188.5,350.5C 192.52,347.642 195.686,343.975 198,339.5C 198.81,335.31 198.31,331.31 196.5,327.5 Z"/></g>
<g><path style="opacity:1" fill="#7eb2ba" d="M 468.5,327.5 C 474.5,328.833 480.5,328.833 486.5,327.5C 487.492,334.648 487.825,341.981 487.5,349.5C 479.16,349.334 470.827,349.5 462.5,350C 461.744,351.38 461.078,351.547 460.5,350.5C 464.52,347.642 467.686,343.975 470,339.5C 470.81,335.31 470.31,331.31 468.5,327.5 Z"/></g>
<g><path style="opacity:0.996" fill="#78b7d9" d="M 23.5,347.5 C 31.555,347.23 39.555,347.563 47.5,348.5C 69.6605,361.375 93.6605,367.708 119.5,367.5C 143.987,367.539 166.987,361.873 188.5,350.5C 189.078,351.547 189.744,351.38 190.5,350C 198.827,349.5 207.16,349.334 215.5,349.5C 215.5,366.5 215.5,383.5 215.5,400.5C 207.93,399.946 200.596,400.613 193.5,402.5C 196.379,399.408 198.213,395.741 199,391.5C 199.667,382.167 199.667,372.833 199,363.5C 180.992,375.3 161.159,381.8 139.5,383C 112.919,385.688 86.9186,383.021 61.5,375C 53.8086,372.072 46.6419,368.239 40,363.5C 39.5065,365.134 39.3398,366.801 39.5,368.5C 34.1667,368.5 28.8333,368.5 23.5,368.5C 23.5,361.5 23.5,354.5 23.5,347.5 Z"/></g>
<g><path style="opacity:0.996" fill="#78b7d9" d="M 295.5,347.5 C 303.555,347.23 311.555,347.563 319.5,348.5C 341.66,361.375 365.66,367.708 391.5,367.5C 415.987,367.539 438.987,361.873 460.5,350.5C 461.078,351.547 461.744,351.38 462.5,350C 470.827,349.5 479.16,349.334 487.5,349.5C 487.5,366.5 487.5,383.5 487.5,400.5C 479.93,399.946 472.596,400.613 465.5,402.5C 468.379,399.408 470.213,395.741 471,391.5C 471.667,382.167 471.667,372.833 471,363.5C 452.992,375.3 433.159,381.8 411.5,383C 384.919,385.688 358.919,383.021 333.5,375C 325.809,372.072 318.642,368.239 312,363.5C 311.506,365.134 311.34,366.801 311.5,368.5C 306.167,368.5 300.833,368.5 295.5,368.5C 295.5,361.5 295.5,354.5 295.5,347.5 Z"/></g>
<g><path style="opacity:1" fill="#61a5d4" d="M 47.5,383.5 C 52.8333,383.5 58.1667,383.5 63.5,383.5C 63.5,388.833 63.5,394.167 63.5,399.5C 58.1667,399.5 52.8333,399.5 47.5,399.5C 47.5,394.167 47.5,388.833 47.5,383.5 Z"/></g>
<g><path style="opacity:1" fill="#61a5d4" d="M 319.5,383.5 C 324.833,383.5 330.167,383.5 335.5,383.5C 335.5,388.833 335.5,394.167 335.5,399.5C 330.167,399.5 324.833,399.5 319.5,399.5C 319.5,394.167 319.5,388.833 319.5,383.5 Z"/></g>
<g><path style="opacity:1" fill="#62a0ce" d="M 23.5,368.5 C 28.8333,368.5 34.1667,368.5 39.5,368.5C 39.1187,377.568 39.6187,386.568 41,395.5C 42.3999,398.902 44.5665,401.736 47.5,404C 51.407,406.759 55.407,409.259 59.5,411.5C 47.5375,410.562 35.5375,410.228 23.5,410.5C 23.5,396.5 23.5,382.5 23.5,368.5 Z"/></g>
<g><path style="opacity:1" fill="#5a9bcd" d="M 79.5,391.5 C 84.8333,391.5 90.1667,391.5 95.5,391.5C 95.5,396.833 95.5,402.167 95.5,407.5C 90.1667,407.5 84.8333,407.5 79.5,407.5C 79.5,402.167 79.5,396.833 79.5,391.5 Z"/></g>
<g><path style="opacity:1" fill="#62a0ce" d="M 295.5,368.5 C 300.833,368.5 306.167,368.5 311.5,368.5C 311.119,377.568 311.619,386.568 313,395.5C 314.4,398.902 316.567,401.736 319.5,404C 323.407,406.759 327.407,409.259 331.5,411.5C 319.538,410.562 307.538,410.228 295.5,410.5C 295.5,396.5 295.5,382.5 295.5,368.5 Z"/></g>
<g><path style="opacity:1" fill="#5a9bcd" d="M 351.5,391.5 C 356.833,391.5 362.167,391.5 367.5,391.5C 367.5,396.833 367.5,402.167 367.5,407.5C 362.167,407.5 356.833,407.5 351.5,407.5C 351.5,402.167 351.5,396.833 351.5,391.5 Z"/></g>
<g><path style="opacity:0.698" fill="#7ab646" d="M 52.5,426.5 C 55.0336,426.259 56.7002,427.259 57.5,429.5C 55.6316,428.737 53.9649,427.737 52.5,426.5 Z"/></g>
<g><path style="opacity:0.698" fill="#7ab646" d="M 324.5,426.5 C 327.034,426.259 328.7,427.259 329.5,429.5C 327.632,428.737 325.965,427.737 324.5,426.5 Z"/></g>
<g><path style="opacity:0.999" fill="#5584b8" d="M 215.5,400.5 C 215.5,406.833 215.5,413.167 215.5,419.5C 210.167,419.5 204.833,419.5 199.5,419.5C 194.949,422.943 189.949,425.61 184.5,427.5C 184.565,427.062 184.399,426.728 184,426.5C 182.348,427.399 180.848,428.399 179.5,429.5C 171.613,433.061 163.279,435.561 154.5,437C 133.214,439.899 111.88,440.232 90.5,438C 79.1881,436.256 68.1881,433.422 57.5,429.5C 56.7002,427.259 55.0336,426.259 52.5,426.5C 47.7156,424.942 43.3822,422.609 39.5,419.5C 34.1667,419.5 28.8333,419.5 23.5,419.5C 23.5,416.5 23.5,413.5 23.5,410.5C 35.5375,410.228 47.5375,410.562 59.5,411.5C 98.0382,426.25 136.705,426.75 175.5,413C 182.02,410.245 188.02,406.745 193.5,402.5C 200.596,400.613 207.93,399.946 215.5,400.5 Z"/></g>
<g><path style="opacity:0.043" fill="#c09434" d="M 184.5,427.5 C 183.22,428.931 181.553,429.598 179.5,429.5C 180.848,428.399 182.348,427.399 184,426.5C 184.399,426.728 184.565,427.062 184.5,427.5 Z"/></g>
<g><path style="opacity:0.999" fill="#5584b8" d="M 487.5,400.5 C 487.5,406.833 487.5,413.167 487.5,419.5C 482.167,419.5 476.833,419.5 471.5,419.5C 466.949,422.943 461.949,425.61 456.5,427.5C 456.565,427.062 456.399,426.728 456,426.5C 454.348,427.399 452.848,428.399 451.5,429.5C 443.613,433.061 435.279,435.561 426.5,437C 405.214,439.899 383.88,440.232 362.5,438C 351.188,436.256 340.188,433.422 329.5,429.5C 328.7,427.259 327.034,426.259 324.5,426.5C 319.716,424.942 315.382,422.609 311.5,419.5C 306.167,419.5 300.833,419.5 295.5,419.5C 295.5,416.5 295.5,413.5 295.5,410.5C 307.538,410.228 319.538,410.562 331.5,411.5C 370.038,426.25 408.705,426.75 447.5,413C 454.02,410.245 460.02,406.745 465.5,402.5C 472.596,400.613 479.93,399.946 487.5,400.5 Z"/></g>
<g><path style="opacity:0.043" fill="#c09434" d="M 456.5,427.5 C 455.22,428.931 453.553,429.598 451.5,429.5C 452.848,428.399 454.348,427.399 456,426.5C 456.399,426.728 456.565,427.062 456.5,427.5 Z"/></g>
<g><path style="opacity:1" fill="#4673af" d="M 23.5,419.5 C 28.8333,419.5 34.1667,419.5 39.5,419.5C 39.0973,430.231 39.5973,440.898 41,451.5C 43.3138,455.975 46.4804,459.642 50.5,462.5C 50.1667,462.5 49.8333,462.5 49.5,462.5C 42.5803,461.372 35.5803,461.205 28.5,462C 29.4533,463.955 30.7866,465.622 32.5,467C 32.2716,467.399 31.9382,467.565 31.5,467.5C 27.7617,464.374 25.2617,460.374 24,455.5C 23.5001,443.505 23.3335,431.505 23.5,419.5 Z"/></g>
<g><path style="opacity:1" fill="#4673af" d="M 295.5,419.5 C 300.833,419.5 306.167,419.5 311.5,419.5C 311.097,430.231 311.597,440.898 313,451.5C 315.314,455.975 318.48,459.642 322.5,462.5C 322.167,462.5 321.833,462.5 321.5,462.5C 314.58,461.372 307.58,461.205 300.5,462C 301.453,463.955 302.787,465.622 304.5,467C 304.272,467.399 303.938,467.565 303.5,467.5C 299.762,464.374 297.262,460.374 296,455.5C 295.5,443.505 295.333,431.505 295.5,419.5 Z"/></g>
<g><path style="opacity:1" fill="#396cad" d="M 47.5,439.5 C 52.8333,439.5 58.1667,439.5 63.5,439.5C 63.5,444.833 63.5,450.167 63.5,455.5C 58.1667,455.5 52.8333,455.5 47.5,455.5C 47.5,450.167 47.5,444.833 47.5,439.5 Z"/></g>
<g><path style="opacity:1" fill="#456ca9" d="M 199.5,419.5 C 204.833,419.5 210.167,419.5 215.5,419.5C 215.667,431.505 215.5,443.505 215,455.5C 212.249,463.418 207.415,469.752 200.5,474.5C 200.062,474.565 199.728,474.399 199.5,474C 200.5,473 201.5,472 202.5,471C 193.442,471.142 184.775,470.309 176.5,468.5C 185.615,465.209 192.782,459.543 198,451.5C 199.403,440.898 199.903,430.231 199.5,419.5 Z"/></g>
<g><path style="opacity:1" fill="#396cad" d="M 319.5,439.5 C 324.833,439.5 330.167,439.5 335.5,439.5C 335.5,444.833 335.5,450.167 335.5,455.5C 330.167,455.5 324.833,455.5 319.5,455.5C 319.5,450.167 319.5,444.833 319.5,439.5 Z"/></g>
<g><path style="opacity:1" fill="#456ca9" d="M 471.5,419.5 C 476.833,419.5 482.167,419.5 487.5,419.5C 487.667,431.505 487.5,443.505 487,455.5C 484.249,463.418 479.415,469.752 472.5,474.5C 472.062,474.565 471.728,474.399 471.5,474C 472.5,473 473.5,472 474.5,471C 465.442,471.142 456.775,470.309 448.5,468.5C 457.615,465.209 464.782,459.543 470,451.5C 471.403,440.898 471.903,430.231 471.5,419.5 Z"/></g>
<g><path style="opacity:1" fill="#3464a8" d="M 79.5,447.5 C 84.8333,447.5 90.1667,447.5 95.5,447.5C 95.5,452.833 95.5,458.167 95.5,463.5C 90.1667,463.5 84.8333,463.5 79.5,463.5C 79.5,458.167 79.5,452.833 79.5,447.5 Z"/></g>
<g><path style="opacity:1" fill="#3464a8" d="M 351.5,447.5 C 356.833,447.5 362.167,447.5 367.5,447.5C 367.5,452.833 367.5,458.167 367.5,463.5C 362.167,463.5 356.833,463.5 351.5,463.5C 351.5,458.167 351.5,452.833 351.5,447.5 Z"/></g>
<g><path style="opacity:0.467" fill="#9bd093" d="M 49.5,462.5 C 49.8333,462.5 50.1667,462.5 50.5,462.5C 52.0618,462.733 53.3951,463.4 54.5,464.5C 54.44,465.043 54.1067,465.376 53.5,465.5C 52.0986,464.479 50.7653,463.479 49.5,462.5 Z"/></g>
<g><path style="opacity:0.467" fill="#9bd093" d="M 321.5,462.5 C 321.833,462.5 322.167,462.5 322.5,462.5C 324.062,462.733 325.395,463.4 326.5,464.5C 326.44,465.043 326.107,465.376 325.5,465.5C 324.099,464.479 322.765,463.479 321.5,462.5 Z"/></g>
<g><path style="opacity:1" fill="#3a5497" d="M 49.5,462.5 C 50.7653,463.479 52.0986,464.479 53.5,465.5C 54.1067,465.376 54.44,465.043 54.5,464.5C 74.9687,474.462 96.6354,479.462 119.5,479.5C 136.216,479.036 152.549,476.37 168.5,471.5C 170.824,472.833 172.491,472.166 173.5,469.5C 174.609,469.443 175.609,469.11 176.5,468.5C 184.775,470.309 193.442,471.142 202.5,471C 201.5,472 200.5,473 199.5,474C 199.728,474.399 200.062,474.565 200.5,474.5C 182.232,486.979 161.899,493.812 139.5,495C 111.692,497.982 84.6915,494.815 58.5,485.5C 56.4208,483.127 53.7541,481.794 50.5,481.5C 42.913,478.539 36.5797,473.873 31.5,467.5C 31.9382,467.565 32.2716,467.399 32.5,467C 30.7866,465.622 29.4533,463.955 28.5,462C 35.5803,461.205 42.5803,461.372 49.5,462.5 Z"/></g>
<g><path style="opacity:0.996" fill="#7eaa52" d="M 173.5,469.5 C 172.491,472.166 170.824,472.833 168.5,471.5C 170.284,471.107 171.95,470.441 173.5,469.5 Z"/></g>
<g><path style="opacity:1" fill="#3a5497" d="M 321.5,462.5 C 322.765,463.479 324.099,464.479 325.5,465.5C 326.107,465.376 326.44,465.043 326.5,464.5C 346.969,474.462 368.635,479.462 391.5,479.5C 408.216,479.036 424.549,476.37 440.5,471.5C 442.824,472.833 444.491,472.166 445.5,469.5C 446.609,469.443 447.609,469.11 448.5,468.5C 456.775,470.309 465.442,471.142 474.5,471C 473.5,472 472.5,473 471.5,474C 471.728,474.399 472.062,474.565 472.5,474.5C 454.232,486.979 433.899,493.812 411.5,495C 383.692,497.982 356.692,494.815 330.5,485.5C 328.421,483.127 325.754,481.794 322.5,481.5C 314.913,478.539 308.58,473.873 303.5,467.5C 303.938,467.565 304.272,467.399 304.5,467C 302.787,465.622 301.453,463.955 300.5,462C 307.58,461.205 314.58,461.372 321.5,462.5 Z"/></g>
<g><path style="opacity:0.996" fill="#7eaa52" d="M 445.5,469.5 C 444.491,472.166 442.824,472.833 440.5,471.5C 442.284,471.107 443.95,470.441 445.5,469.5 Z"/></g>
<g><path style="opacity:0.09" fill="#8ecd87" d="M 50.5,481.5 C 53.7541,481.794 56.4208,483.127 58.5,485.5C 55.5152,484.674 52.8485,483.341 50.5,481.5 Z"/></g>
<g><path style="opacity:0.09" fill="#8ecd87" d="M 322.5,481.5 C 325.754,481.794 328.421,483.127 330.5,485.5C 327.515,484.674 324.849,483.341 322.5,481.5 Z"/></g>
</svg>
