<?xml version="1.0" encoding="UTF-8"?>
<!DOCTYPE svg PUBLIC "-//W3C//DTD SVG 1.1//EN" "http://www.w3.org/Graphics/SVG/1.1/DTD/svg11.dtd">
<svg xmlns="http://www.w3.org/2000/svg" version="1.1" width="512px" height="512px" style="shape-rendering:geometricPrecision; text-rendering:geometricPrecision; image-rendering:optimizeQuality; fill-rule:evenodd; clip-rule:evenodd" xmlns:xlink="http://www.w3.org/1999/xlink">
<g><path style="opacity:0.976" fill="#fefffe" d="M 211.5,-0.5 C 240.833,-0.5 270.167,-0.5 299.5,-0.5C 341.97,1.31768 384.303,5.81768 426.5,13C 449.72,16.74 471.72,24.0733 492.5,35C 501.214,40.2048 507.547,47.3715 511.5,56.5C 511.5,189.167 511.5,321.833 511.5,454.5C 507.547,463.629 501.214,470.795 492.5,476C 471.72,486.927 449.72,494.26 426.5,498C 384.302,505.182 341.969,509.682 299.5,511.5C 270.167,511.5 240.833,511.5 211.5,511.5C 181.913,509.902 152.246,507.402 122.5,504C 92.3883,500.645 63.0549,493.978 34.5,484C 23.0388,479.856 13.2055,473.356 5,464.5C 2.8703,461.233 1.03697,457.9 -0.5,454.5C -0.5,321.833 -0.5,189.167 -0.5,56.5C 3.45295,47.3715 9.78628,40.2048 18.5,35C 32.4823,27.5615 47.149,21.8948 62.5,18C 82.2846,13.1765 102.285,9.5098 122.5,7C 152.246,3.59756 181.913,1.09756 211.5,-0.5 Z M 252.5,31.5 C 300.039,31.5495 347.372,34.7162 394.5,41C 419.863,44.2053 444.53,50.2053 468.5,59C 471.21,60.0152 473.543,61.5152 475.5,63.5C 471.983,66.4276 467.983,68.5943 463.5,70C 436.157,79.0023 408.157,85.0023 379.5,88C 291.779,97.8687 204.112,97.2021 116.5,86C 92.9905,82.8317 69.9905,77.4983 47.5,70C 43.0174,68.5943 39.0174,66.4276 35.5,63.5C 37.4566,61.5152 39.7899,60.0152 42.5,59C 71.3288,48.71 100.995,42.0434 131.5,39C 171.866,34.4669 212.199,31.9669 252.5,31.5 Z M 31.5,98.5 C 60.847,109.539 91.1803,116.705 122.5,120C 211.167,130 299.833,130 388.5,120C 412.533,117.161 436.2,112.495 459.5,106C 466.181,103.907 472.681,101.407 479,98.5C 479.667,128.833 479.667,159.167 479,189.5C 474.363,193.236 469.196,196.07 463.5,198C 433.515,207.554 402.849,213.887 371.5,217C 288.784,225.524 206.117,224.857 123.5,215C 97.6124,211.756 72.2791,206.089 47.5,198C 41.8036,196.07 36.6369,193.236 32,189.5C 31.5,159.168 31.3334,128.835 31.5,98.5 Z M 31.5,226.5 C 60.847,237.539 91.1803,244.705 122.5,248C 211.167,258 299.833,258 388.5,248C 412.533,245.161 436.2,240.495 459.5,234C 466.181,231.907 472.681,229.407 479,226.5C 479.667,256.833 479.667,287.167 479,317.5C 474.363,321.236 469.196,324.07 463.5,326C 433.515,335.554 402.849,341.887 371.5,345C 288.784,353.524 206.117,352.857 123.5,343C 97.6124,339.756 72.2791,334.089 47.5,326C 41.8036,324.07 36.6369,321.236 32,317.5C 31.5,287.168 31.3334,256.835 31.5,226.5 Z M 31.5,354.5 C 60.847,365.539 91.1803,372.705 122.5,376C 211.167,386 299.833,386 388.5,376C 412.533,373.161 436.2,368.495 459.5,362C 466.181,359.907 472.681,357.407 479,354.5C 479.667,384.833 479.667,415.167 479,445.5C 474.363,449.236 469.196,452.07 463.5,454C 433.557,463.769 402.89,470.102 371.5,473C 297.505,480.61 223.505,480.944 149.5,474C 114.72,471.204 80.7205,464.537 47.5,454C 41.8036,452.07 36.6369,449.236 32,445.5C 31.5,415.168 31.3334,384.835 31.5,354.5 Z"/></g>
<g><path style="opacity:0.951" fill="#fefffe" d="M 100.5,148.5 C 120.774,147.717 129.608,157.383 127,177.5C 119.832,191.225 108.999,195.058 94.5,189C 83.8864,180.347 81.7197,169.847 88,157.5C 91.2991,153.118 95.4657,150.118 100.5,148.5 Z"/></g>
<g><path style="opacity:0.951" fill="#fefffe" d="M 100.5,276.5 C 120.774,275.717 129.608,285.383 127,305.5C 119.832,319.225 108.999,323.058 94.5,317C 83.8864,308.347 81.7197,297.847 88,285.5C 91.2991,281.118 95.4657,278.118 100.5,276.5 Z"/></g>
<g><path style="opacity:0.951" fill="#fefffe" d="M 100.5,404.5 C 120.774,403.717 129.608,413.383 127,433.5C 119.832,447.225 108.999,451.058 94.5,445C 83.8864,436.347 81.7197,425.847 88,413.5C 91.2991,409.118 95.4657,406.118 100.5,404.5 Z"/></g>
</svg>
