<?xml version="1.0" encoding="UTF-8"?>
<!DOCTYPE svg PUBLIC "-//W3C//DTD SVG 1.1//EN" "http://www.w3.org/Graphics/SVG/1.1/DTD/svg11.dtd">
<svg xmlns="http://www.w3.org/2000/svg" version="1.1" width="512px" height="512px" style="shape-rendering:geometricPrecision; text-rendering:geometricPrecision; image-rendering:optimizeQuality; fill-rule:evenodd; clip-rule:evenodd" xmlns:xlink="http://www.w3.org/1999/xlink">
<g><path style="opacity:0.952" fill="#fefffe" d="M 57.5,-0.5 C 167.167,-0.5 276.833,-0.5 386.5,-0.5C 394.481,2.64896 399.981,8.31563 403,16.5C 404.391,33.1283 404.891,49.795 404.5,66.5C 421.215,66.075 437.882,66.575 454.5,68C 463.07,70.9038 468.57,76.7372 471,85.5C 471.667,189.167 471.667,292.833 471,396.5C 468.466,409.736 462.632,421.236 453.5,431C 428.866,453.3 404.532,475.966 380.5,499C 371.451,504.864 361.785,509.031 351.5,511.5C 275.833,511.5 200.167,511.5 124.5,511.5C 116.519,508.351 111.019,502.684 108,494.5C 106.609,477.872 106.109,461.205 106.5,444.5C 89.785,444.925 73.1183,444.425 56.5,443C 47.9304,440.096 42.4304,434.263 40,425.5C 39.3333,289.5 39.3333,153.5 40,17.5C 42.6834,8.318 48.5167,2.318 57.5,-0.5 Z M 62.5,18.5 C 168.501,18.3333 274.501,18.5 380.5,19C 382.333,19.5 383.5,20.6667 384,22.5C 384.5,37.1629 384.667,51.8295 384.5,66.5C 299.499,66.3333 214.499,66.5 129.5,67C 116.206,69.2938 108.706,77.1272 107,90.5C 106.5,201.833 106.333,313.166 106.5,424.5C 91.8295,424.667 77.1629,424.5 62.5,424C 60.6667,423.5 59.5,422.333 59,420.5C 58.3333,287.833 58.3333,155.167 59,22.5C 59.6897,20.6498 60.8564,19.3164 62.5,18.5 Z M 129.5,86.5 C 235.834,86.3333 342.167,86.5 448.5,87C 449.416,87.3742 450.25,87.8742 451,88.5C 452.662,189.419 452.995,290.419 452,391.5C 427.726,393.319 403.226,394.153 378.5,394C 361.87,396.631 351.704,406.131 348,422.5C 347.828,445.739 347.328,468.906 346.5,492C 274.5,492.667 202.5,492.667 130.5,492C 129.584,491.626 128.75,491.126 128,490.5C 126.337,356.914 126.004,223.247 127,89.5C 128.045,88.6266 128.878,87.6266 129.5,86.5 Z M 377.5,413.5 C 398.836,413.333 420.169,413.5 441.5,414C 417.137,437.273 392.637,460.44 368,483.5C 367.333,463.5 367.333,443.5 368,423.5C 370.022,418.98 373.189,415.647 377.5,413.5 Z"/></g>
<g><path style="opacity:0.969" fill="#fefffe" d="M 195.5,153.5 C 257.834,153.333 320.168,153.5 382.5,154C 388.467,157.392 389.967,162.226 387,168.5C 385.786,170.049 384.286,171.215 382.5,172C 320.5,172.667 258.5,172.667 196.5,172C 190.831,169.185 188.998,164.685 191,158.5C 192.366,156.638 193.866,154.972 195.5,153.5 Z"/></g>
<g><path style="opacity:0.92" fill="#fefffe" d="M 198.5,214.5 C 258.834,214.333 319.168,214.5 379.5,215C 388.244,216.99 390.744,222.156 387,230.5C 385.681,232.487 383.848,233.654 381.5,234C 320.167,234.667 258.833,234.667 197.5,234C 190.518,230.831 188.684,225.664 192,218.5C 194.013,216.752 196.18,215.418 198.5,214.5 Z"/></g>
<g><path style="opacity:0.92" fill="#fefffe" d="M 197.5,276.5 C 258.834,276.333 320.168,276.5 381.5,277C 386.308,278.312 388.642,281.479 388.5,286.5C 388.336,292.315 385.336,295.481 379.5,296C 319.167,296.667 258.833,296.667 198.5,296C 190.588,293.395 188.421,288.228 192,280.5C 193.5,278.531 195.333,277.198 197.5,276.5 Z"/></g>
<g><path style="opacity:0.962" fill="#fefffe" d="M 196.5,338.5 C 231.835,338.333 267.168,338.5 302.5,339C 308.467,342.392 309.967,347.226 307,353.5C 305.786,355.049 304.286,356.215 302.5,357C 266.833,357.667 231.167,357.667 195.5,357C 190.78,353.702 189.28,349.202 191,343.5C 192.406,341.256 194.239,339.59 196.5,338.5 Z"/></g>
</svg>
