<?xml version="1.0" encoding="UTF-8"?>
<!DOCTYPE svg PUBLIC "-//W3C//DTD SVG 1.1//EN" "http://www.w3.org/Graphics/SVG/1.1/DTD/svg11.dtd">
<svg xmlns="http://www.w3.org/2000/svg" version="1.1" width="512px" height="308px" style="shape-rendering:geometricPrecision; text-rendering:geometricPrecision; image-rendering:optimizeQuality; fill-rule:evenodd; clip-rule:evenodd" xmlns:xlink="http://www.w3.org/1999/xlink">
<g><path style="opacity:0.764" fill="#f2f4f0" d="M -0.5,-0.5 C 170.167,-0.5 340.833,-0.5 511.5,-0.5C 511.5,102.167 511.5,204.833 511.5,307.5C 340.833,307.5 170.167,307.5 -0.5,307.5C -0.5,204.833 -0.5,102.167 -0.5,-0.5 Z"/></g>
<g><path style="opacity:1" fill="#0154a4" d="M 505.5,0.5 C 505.5,102.167 505.5,203.833 505.5,305.5C 337.167,305.5 168.833,305.5 0.5,305.5C 0.5,203.833 0.5,102.167 0.5,0.5C 168.833,0.5 337.167,0.5 505.5,0.5 Z"/></g>
<g><path style="opacity:1" fill="#00559c" d="M 505.5,0.5 C 506.167,0.5 506.833,0.5 507.5,0.5C 507.5,102.167 507.5,203.833 507.5,305.5C 506.833,305.5 506.167,305.5 505.5,305.5C 505.5,203.833 505.5,102.167 505.5,0.5 Z"/></g>
<g><path style="opacity:1" fill="#305da8" d="M 507.5,0.5 C 508.5,0.5 509.5,0.5 510.5,0.5C 510.5,102.167 510.5,203.833 510.5,305.5C 509.5,305.5 508.5,305.5 507.5,305.5C 507.5,203.833 507.5,102.167 507.5,0.5 Z"/></g>
<g><path style="opacity:1" fill="#a3a066" d="M 254.5,25.5 C 253.25,25.4226 252.417,24.756 252,23.5C 251.722,24.4158 251.222,25.0825 250.5,25.5C 250.5,24.1667 250.5,22.8333 250.5,21.5C 251.833,21.5 253.167,21.5 254.5,21.5C 254.5,22.8333 254.5,24.1667 254.5,25.5 Z"/></g>
<g><path style="opacity:1" fill="#778061" d="M 254.5,25.5 C 256.176,26.1834 256.843,27.5168 256.5,29.5C 254.824,28.8166 254.157,27.4832 254.5,25.5 Z"/></g>
<g><path style="opacity:1" fill="#365c82" d="M 256.5,30.5 C 261.5,30.5 266.5,30.5 271.5,30.5C 271.843,32.4832 271.176,33.8166 269.5,34.5C 265.627,32.5698 261.294,31.9031 256.5,32.5C 256.5,31.8333 256.5,31.1667 256.5,30.5 Z"/></g>
<g><path style="opacity:1" fill="#597170" d="M 247.5,31.5 C 244.167,32.1667 240.833,32.8333 237.5,33.5C 237.062,33.4346 236.728,33.6012 236.5,34C 237.756,34.4169 238.423,35.2502 238.5,36.5C 235.676,36.0107 234.343,34.344 234.5,31.5C 238.833,31.5 243.167,31.5 247.5,31.5 Z"/></g>
<g><path style="opacity:1" fill="#9a8f4f" d="M 250.5,25.5 C 250.021,28.0644 249.355,30.5644 248.5,33C 244.848,33.4986 241.182,33.6653 237.5,33.5C 240.833,32.8333 244.167,32.1667 247.5,31.5C 247.94,29.1561 248.94,27.1561 250.5,25.5 Z"/></g>
<g><path style="opacity:1" fill="#a59852" d="M 256.5,32.5 C 261.294,31.9031 265.627,32.5698 269.5,34.5C 268.833,34.5 268.167,34.5 267.5,34.5C 263.833,33.8333 260.167,33.1667 256.5,32.5 Z"/></g>
<g><path style="opacity:1" fill="#f5ba25" d="M 254.5,25.5 C 254.157,27.4832 254.824,28.8166 256.5,29.5C 256.5,29.8333 256.5,30.1667 256.5,30.5C 256.5,31.1667 256.5,31.8333 256.5,32.5C 260.167,33.1667 263.833,33.8333 267.5,34.5C 266.554,37.3126 264.554,38.646 261.5,38.5C 260.167,38.5 258.833,38.5 257.5,38.5C 257.5,40.8333 257.5,43.1667 257.5,45.5C 254.612,44.9898 252.279,45.6565 250.5,47.5C 248.833,47.5 247.167,47.5 245.5,47.5C 245.5,46.5 245.5,45.5 245.5,44.5C 244.942,40.2754 242.609,37.6088 238.5,36.5C 238.423,35.2502 237.756,34.4169 236.5,34C 236.728,33.6012 237.062,33.4346 237.5,33.5C 241.182,33.6653 244.848,33.4986 248.5,33C 249.355,30.5644 250.021,28.0644 250.5,25.5C 251.222,25.0825 251.722,24.4158 252,23.5C 252.417,24.756 253.25,25.4226 254.5,25.5 Z"/></g>
<g><path style="opacity:1" fill="#707b60" d="M 193.5,40.5 C 193.741,42.8984 193.074,44.8984 191.5,46.5C 191.259,44.1016 191.926,42.1016 193.5,40.5 Z"/></g>
<g><path style="opacity:1" fill="#4a6360" d="M 198.5,40.5 C 200.344,42.2789 201.01,44.6122 200.5,47.5C 198.656,45.7211 197.99,43.3878 198.5,40.5 Z"/></g>
<g><path style="opacity:1" fill="#d7b138" d="M 261.5,38.5 C 260.076,41.7696 260.409,44.7696 262.5,47.5C 262.539,48.5832 262.873,49.5832 263.5,50.5C 262.675,51.3857 261.675,51.719 260.5,51.5C 258.922,50.9344 257.588,49.9344 256.5,48.5C 254.604,47.5344 252.604,47.2011 250.5,47.5C 252.279,45.6565 254.612,44.9898 257.5,45.5C 257.5,43.1667 257.5,40.8333 257.5,38.5C 258.833,38.5 260.167,38.5 261.5,38.5 Z"/></g>
<g><path style="opacity:1" fill="#999a60" d="M 191.5,47.5 C 187.833,48.1667 184.167,48.8333 180.5,49.5C 179.624,49.6309 178.957,49.2975 178.5,48.5C 182.783,47.5078 187.116,47.1744 191.5,47.5 Z"/></g>
<g><path style="opacity:1" fill="#949664" d="M 200.5,47.5 C 204.884,47.1744 209.217,47.5078 213.5,48.5C 213.043,49.2975 212.376,49.6309 211.5,49.5C 207.833,48.8333 204.167,48.1667 200.5,47.5 Z"/></g>
<g><path style="opacity:1" fill="#8f9465" d="M 304.5,47.5 C 300.833,48.1667 297.167,48.8333 293.5,49.5C 292.624,49.6309 291.957,49.2975 291.5,48.5C 295.783,47.5078 300.116,47.1744 304.5,47.5 Z"/></g>
<g><path style="opacity:1" fill="#99965d" d="M 310.5,40.5 C 312.024,42.4079 313.357,44.5746 314.5,47C 318.871,47.1725 323.204,47.6725 327.5,48.5C 327.043,49.2975 326.376,49.6309 325.5,49.5C 322.038,48.5184 318.371,48.185 314.5,48.5C 313.504,48.5858 312.671,48.2524 312,47.5C 311.56,45.1341 311.06,42.8008 310.5,40.5 Z"/></g>
<g><path style="opacity:1" fill="#c7ad4e" d="M 245.5,44.5 C 245.5,45.5 245.5,46.5 245.5,47.5C 247.167,47.5 248.833,47.5 250.5,47.5C 248.26,49.9657 245.593,51.9657 242.5,53.5C 242.167,52.8333 241.833,52.1667 241.5,51.5C 242.443,48.7449 243.776,46.4116 245.5,44.5 Z"/></g>
<g><path style="opacity:1" fill="#4b6b8a" d="M 262.5,47.5 C 265.295,48.358 265.962,50.358 264.5,53.5C 262.517,53.8432 261.183,53.1765 260.5,51.5C 261.675,51.719 262.675,51.3857 263.5,50.5C 262.873,49.5832 262.539,48.5832 262.5,47.5 Z"/></g>
<g><path style="opacity:1" fill="#f5b820" d="M 310.5,40.5 C 311.06,42.8008 311.56,45.1341 312,47.5C 312.671,48.2524 313.504,48.5858 314.5,48.5C 316.631,49.3138 318.964,49.8138 321.5,50C 319.5,50.3333 317.5,50.6667 315.5,51C 315.719,54.6823 315.719,58.5156 315.5,62.5C 314.5,62.5 313.5,62.5 312.5,62.5C 307.532,62.473 303.532,64.473 300.5,68.5C 300.167,67.5 299.833,66.5 299.5,65.5C 300.02,62.9604 300.687,60.4604 301.5,58C 299.603,54.2745 296.937,51.4412 293.5,49.5C 297.167,48.8333 300.833,48.1667 304.5,47.5C 306.415,43.9995 308.082,40.3329 309.5,36.5C 310.429,37.6888 310.762,39.0222 310.5,40.5 Z"/></g>
<g><path style="opacity:1" fill="#d7b342" d="M 314.5,48.5 C 318.371,48.185 322.038,48.5184 325.5,49.5C 322.007,51.4951 319.34,54.3284 317.5,58C 319.395,61.3902 319.728,64.8902 318.5,68.5C 315.884,66.9976 313.884,64.9976 312.5,62.5C 313.5,62.5 314.5,62.5 315.5,62.5C 315.719,58.5156 315.719,54.6823 315.5,51C 317.5,50.6667 319.5,50.3333 321.5,50C 318.964,49.8138 316.631,49.3138 314.5,48.5 Z"/></g>
<g><path style="opacity:1" fill="#f0b929" d="M 198.5,40.5 C 197.99,43.3878 198.656,45.7211 200.5,47.5C 204.167,48.1667 207.833,48.8333 211.5,49.5C 208.996,51.2593 206.663,53.2593 204.5,55.5C 202.656,57.2789 201.99,59.6122 202.5,62.5C 201.167,62.5 199.833,62.5 198.5,62.5C 193.717,62.8914 189.717,64.8914 186.5,68.5C 186.675,64.1937 186.675,59.8604 186.5,55.5C 184.383,53.4497 182.383,51.4497 180.5,49.5C 184.167,48.8333 187.833,48.1667 191.5,47.5C 191.5,47.1667 191.5,46.8333 191.5,46.5C 193.074,44.8984 193.741,42.8984 193.5,40.5C 195.496,35.4443 197.162,35.4443 198.5,40.5 Z"/></g>
<g><path style="opacity:1" fill="#b8a651" d="M 204.5,55.5 C 204.441,58.9639 205.108,62.2972 206.5,65.5C 206.167,66.5 205.833,67.5 205.5,68.5C 202.463,67.1733 200.13,65.1733 198.5,62.5C 199.833,62.5 201.167,62.5 202.5,62.5C 201.99,59.6122 202.656,57.2789 204.5,55.5 Z"/></g>
<g><path style="opacity:1" fill="#5c7179" d="M 157.5,85.5 C 155.926,83.8984 155.259,81.8984 155.5,79.5C 154.5,79.5 153.5,79.5 152.5,79.5C 153.183,77.8235 154.517,77.1568 156.5,77.5C 156.833,80.1667 157.167,82.8333 157.5,85.5 Z"/></g>
<g><path style="opacity:1" fill="#a7a063" d="M 349.5,81.5 C 349.843,83.4832 349.176,84.8166 347.5,85.5C 347.157,83.5168 347.824,82.1834 349.5,81.5 Z"/></g>
<g><path style="opacity:1" fill="#56677a" d="M 152.5,79.5 C 152.459,83.2364 151.126,86.2364 148.5,88.5C 148.882,84.9984 150.216,81.9984 152.5,79.5 Z"/></g>
<g><path style="opacity:1" fill="#b2a459" d="M 353.5,85.5 C 352.566,84.4324 352.232,83.099 352.5,81.5C 351.5,81.5 350.5,81.5 349.5,81.5C 349.286,77.7429 350.286,77.0762 352.5,79.5C 353.466,81.396 353.799,83.396 353.5,85.5 Z"/></g>
<g><path style="opacity:1" fill="#f0b929" d="M 349.5,81.5 C 350.5,81.5 351.5,81.5 352.5,81.5C 352.232,83.099 352.566,84.4324 353.5,85.5C 354.167,86.5 354.833,87.5 355.5,88.5C 359.167,89.1667 362.833,89.8333 366.5,90.5C 364.797,93.1921 362.464,95.1921 359.5,96.5C 358.848,97.4486 358.514,98.6153 358.5,100C 358.608,101.681 359.275,102.848 360.5,103.5C 360.328,105.492 360.995,107.158 362.5,108.5C 361.833,108.833 361.167,109.167 360.5,109.5C 358.119,108.13 355.786,106.797 353.5,105.5C 353.03,104.307 352.03,103.64 350.5,103.5C 347.898,103.777 346.231,105.111 345.5,107.5C 344.833,107.5 344.167,107.5 343.5,107.5C 342.539,105.735 342.205,103.735 342.5,101.5C 343.301,99.9582 343.634,98.2915 343.5,96.5C 340.922,95.5873 338.589,94.254 336.5,92.5C 340.167,91.1667 343.833,89.8333 347.5,88.5C 347.5,87.5 347.5,86.5 347.5,85.5C 349.176,84.8166 349.843,83.4832 349.5,81.5 Z"/></g>
<g><path style="opacity:1" fill="#828c6f" d="M 148.5,88.5 C 145.713,89.4767 142.713,89.81 139.5,89.5C 139.5,90.5 139.5,91.5 139.5,92.5C 137.824,91.8166 137.157,90.4832 137.5,88.5C 141.167,88.5 144.833,88.5 148.5,88.5 Z"/></g>
<g><path style="opacity:1" fill="#718279" d="M 345.5,88.5 C 341.833,89.1667 338.167,89.8333 334.5,90.5C 332.535,90.0517 332.202,89.0517 333.5,87.5C 337.429,88.4328 341.429,88.7662 345.5,88.5 Z"/></g>
<g><path style="opacity:1" fill="#798977" d="M 355.5,88.5 C 359.884,88.1744 364.217,88.5078 368.5,89.5C 368.043,90.2975 367.376,90.6309 366.5,90.5C 362.833,89.8333 359.167,89.1667 355.5,88.5 Z"/></g>
<g><path style="opacity:1" fill="#a69d66" d="M 157.5,88.5 C 161.833,88.5 166.167,88.5 170.5,88.5C 170.5,89.8333 170.5,91.1667 170.5,92.5C 169.5,92.5 168.5,92.5 167.5,92.5C 164.167,91.1667 160.833,89.8333 157.5,88.5 Z"/></g>
<g><path style="opacity:1" fill="#c4ad60" d="M 345.5,88.5 C 346.167,88.5 346.833,88.5 347.5,88.5C 343.833,89.8333 340.167,91.1667 336.5,92.5C 335.167,92.5 334.5,91.8333 334.5,90.5C 338.167,89.8333 341.833,89.1667 345.5,88.5 Z"/></g>
<g><path style="opacity:1" fill="#f4b926" d="M 152.5,79.5 C 153.5,79.5 154.5,79.5 155.5,79.5C 155.259,81.8984 155.926,83.8984 157.5,85.5C 157.5,86.5 157.5,87.5 157.5,88.5C 160.833,89.8333 164.167,91.1667 167.5,92.5C 166.156,94.0348 164.489,95.3681 162.5,96.5C 161.614,97.325 161.281,98.325 161.5,99.5C 162.096,105.171 160.762,106.171 157.5,102.5C 155.257,101.526 152.924,101.192 150.5,101.5C 150.5,102.833 150.5,104.167 150.5,105.5C 148.568,106.584 146.735,107.917 145,109.5C 144.5,109.167 144,108.833 143.5,108.5C 144.713,104.533 145.713,100.533 146.5,96.5C 143.422,96.413 141.089,95.0797 139.5,92.5C 139.5,91.5 139.5,90.5 139.5,89.5C 142.713,89.81 145.713,89.4767 148.5,88.5C 151.126,86.2364 152.459,83.2364 152.5,79.5 Z"/></g>
<g><path style="opacity:1" fill="#bfaa45" d="M 161.5,99.5 C 163.308,100.918 163.975,102.918 163.5,105.5C 163.5,106.833 163.5,108.167 163.5,109.5C 159.975,108.149 156.808,106.149 154,103.5C 152.923,104.429 151.756,105.096 150.5,105.5C 150.5,104.167 150.5,102.833 150.5,101.5C 152.924,101.192 155.257,101.526 157.5,102.5C 160.762,106.171 162.096,105.171 161.5,99.5 Z"/></g>
<g><path style="opacity:1" fill="#707668" d="M 359.5,96.5 C 359.448,98.9029 359.781,101.236 360.5,103.5C 359.275,102.848 358.608,101.681 358.5,100C 358.514,98.6153 358.848,97.4486 359.5,96.5 Z"/></g>
<g><path style="opacity:1" fill="#305881" d="M 353.5,105.5 C 351.023,106.12 351.023,107.12 353.5,108.5C 352.833,108.833 352.167,109.167 351.5,109.5C 349.666,108.246 347.666,107.579 345.5,107.5C 346.231,105.111 347.898,103.777 350.5,103.5C 352.03,103.64 353.03,104.307 353.5,105.5 Z"/></g>
<g><path style="opacity:1" fill="#6f8a82" d="M 163.5,105.5 C 164.693,105.97 165.36,106.97 165.5,108.5C 165.167,109.5 164.833,110.5 164.5,111.5C 163.702,111.043 163.369,110.376 163.5,109.5C 163.5,108.167 163.5,106.833 163.5,105.5 Z"/></g>
<g><path style="opacity:1" fill="#9e9c62" d="M 342.5,101.5 C 342.205,103.735 342.539,105.735 343.5,107.5C 343.179,109.048 342.179,109.715 340.5,109.5C 340.111,106.447 340.777,103.78 342.5,101.5 Z"/></g>
<g><path style="opacity:1" fill="#50707a" d="M 368.5,137.5 C 367.533,136.194 366.199,135.527 364.5,135.5C 365.183,133.824 366.517,133.157 368.5,133.5C 368.5,134.833 368.5,136.167 368.5,137.5 Z"/></g>
<g><path style="opacity:1" fill="#9fa05a" d="M 141.5,140.5 C 141.5,141.167 141.5,141.833 141.5,142.5C 140.868,140.257 139.534,138.591 137.5,137.5C 137.5,136.833 137.5,136.167 137.5,135.5C 137.639,133.663 138.306,133.33 139.5,134.5C 140.747,136.323 141.414,138.323 141.5,140.5 Z"/></g>
<g><path style="opacity:1" fill="#2e5979" d="M 370.5,144.5 C 375.167,144.5 379.833,144.5 384.5,144.5C 384.843,146.483 384.176,147.817 382.5,148.5C 378.5,147.167 374.5,145.833 370.5,144.5 Z"/></g>
<g><path style="opacity:1" fill="#37597a" d="M 137.5,135.5 C 137.5,136.167 137.5,136.833 137.5,137.5C 135.956,140.248 135.29,143.248 135.5,146.5C 130.706,145.903 126.373,146.57 122.5,148.5C 120.824,147.817 120.157,146.483 120.5,144.5C 124.884,144.826 129.217,144.492 133.5,143.5C 134.147,139.876 134.314,136.21 134,132.5C 134.759,134.063 135.926,135.063 137.5,135.5 Z"/></g>
<g><path style="opacity:1" fill="#325a7c" d="M 141.5,140.5 C 143.104,141.287 143.771,142.62 143.5,144.5C 148.875,144.172 154.208,144.505 159.5,145.5C 158.412,146.934 157.078,147.934 155.5,148.5C 151.627,146.57 147.294,145.903 142.5,146.5C 142.768,144.901 142.434,143.568 141.5,142.5C 141.5,141.833 141.5,141.167 141.5,140.5 Z"/></g>
<g><path style="opacity:1" fill="#eeb92b" d="M 137.5,137.5 C 139.534,138.591 140.868,140.257 141.5,142.5C 142.434,143.568 142.768,144.901 142.5,146.5C 147.294,145.903 151.627,146.57 155.5,148.5C 152.603,149.717 149.936,151.384 147.5,153.5C 146.571,154.689 146.238,156.022 146.5,157.5C 146.5,158.833 146.5,160.167 146.5,161.5C 145.167,161.5 143.833,161.5 142.5,161.5C 139.248,161.29 136.248,161.956 133.5,163.5C 132.5,163.5 131.5,163.5 130.5,163.5C 130.5,162.167 130.5,160.833 130.5,159.5C 131.519,157.46 131.519,155.46 130.5,153.5C 128.025,151.461 125.358,149.795 122.5,148.5C 126.373,146.57 130.706,145.903 135.5,146.5C 135.29,143.248 135.956,140.248 137.5,137.5 Z"/></g>
<g><path style="opacity:1" fill="#edb82a" d="M 364.5,135.5 C 366.199,135.527 367.533,136.194 368.5,137.5C 368.721,140.067 369.388,142.401 370.5,144.5C 374.5,145.833 378.5,147.167 382.5,148.5C 379.616,149.697 376.949,151.364 374.5,153.5C 373.571,154.689 373.238,156.022 373.5,157.5C 373.66,159.199 373.494,160.866 373,162.5C 371.989,161.663 370.822,161.33 369.5,161.5C 369.167,161.5 368.833,161.5 368.5,161.5C 368.38,160.414 367.713,159.747 366.5,159.5C 365.287,159.747 364.62,160.414 364.5,161.5C 363.167,162.167 361.833,162.833 360.5,163.5C 359.265,163.721 358.265,164.388 357.5,165.5C 356.571,164.311 356.238,162.978 356.5,161.5C 357.933,159.086 358.433,156.419 358,153.5C 355.079,151.623 352.246,149.623 349.5,147.5C 354.243,147.123 358.576,146.123 362.5,144.5C 362.928,141.436 363.594,138.436 364.5,135.5 Z"/></g>
<g><path style="opacity:1" fill="#27568b" d="M 362.5,144.5 C 358.576,146.123 354.243,147.123 349.5,147.5C 352.246,149.623 355.079,151.623 358,153.5C 358.433,156.419 357.933,159.086 356.5,161.5C 356.5,159.5 356.5,157.5 356.5,155.5C 354.416,154.752 352.416,154.752 350.5,155.5C 348.348,152.135 347.348,148.468 347.5,144.5C 352.5,144.5 357.5,144.5 362.5,144.5 Z"/></g>
<g><path style="opacity:1" fill="#6d7248" d="M 368.5,161.5 C 367.167,161.5 365.833,161.5 364.5,161.5C 364.62,160.414 365.287,159.747 366.5,159.5C 367.713,159.747 368.38,160.414 368.5,161.5 Z"/></g>
<g><path style="opacity:1" fill="#c9b24d" d="M 146.5,157.5 C 148.308,158.918 148.975,160.918 148.5,163.5C 148.5,164.833 147.833,165.5 146.5,165.5C 144.5,164.833 143.167,163.5 142.5,161.5C 143.833,161.5 145.167,161.5 146.5,161.5C 146.5,160.167 146.5,158.833 146.5,157.5 Z"/></g>
<g><path style="opacity:1" fill="#c1ae50" d="M 373.5,157.5 C 375.086,159.663 376.419,162.163 377.5,165C 377.167,165.5 376.833,166 376.5,166.5C 373.187,166.026 370.853,164.36 369.5,161.5C 370.822,161.33 371.989,161.663 373,162.5C 373.494,160.866 373.66,159.199 373.5,157.5 Z"/></g>
<g><path style="opacity:1" fill="#aca161" d="M 130.5,159.5 C 130.5,160.833 130.5,162.167 130.5,163.5C 131.5,163.5 132.5,163.5 133.5,163.5C 132.526,165.085 131.026,166.085 129,166.5C 128.725,163.942 129.225,161.608 130.5,159.5 Z"/></g>
<g><path style="opacity:1" fill="#58717b" d="M 356.5,161.5 C 356.238,162.978 356.571,164.311 357.5,165.5C 358.265,164.388 359.265,163.721 360.5,163.5C 359.888,166.697 357.888,168.031 354.5,167.5C 354.025,164.918 354.692,162.918 356.5,161.5 Z"/></g>
<g><path style="opacity:1" fill="#567373" d="M 148.5,163.5 C 150.176,164.183 150.843,165.517 150.5,167.5C 148.517,167.843 147.183,167.176 146.5,165.5C 147.833,165.5 148.5,164.833 148.5,163.5 Z"/></g>
<g><path style="opacity:1" fill="#6e7968" d="M 155.5,193.5 C 153.821,193.285 152.821,193.952 152.5,195.5C 152.573,197.027 151.906,198.027 150.5,198.5C 150.674,196.139 151.007,193.806 151.5,191.5C 153.483,191.157 154.817,191.824 155.5,193.5 Z"/></g>
<g><path style="opacity:1" fill="#d4b347" d="M 364.5,206.5 C 361.256,204.888 357.589,203.888 353.5,203.5C 352.602,200.721 351.269,198.388 349.5,196.5C 349.215,194.712 349.548,193.045 350.5,191.5C 352.697,194.455 354.03,197.788 354.5,201.5C 358.445,202.491 362.445,202.824 366.5,202.5C 366.843,204.483 366.176,205.817 364.5,206.5 Z"/></g>
<g><path style="opacity:1" fill="#c1af5e" d="M 155.5,193.5 C 156.776,196.336 157.442,199.336 157.5,202.5C 156.583,199.679 154.916,197.346 152.5,195.5C 152.821,193.952 153.821,193.285 155.5,193.5 Z"/></g>
<g><path style="opacity:1" fill="#567664" d="M 347.5,200.5 C 347.5,201.833 346.833,202.5 345.5,202.5C 345.5,201.167 346.167,200.5 347.5,200.5 Z"/></g>
<g><path style="opacity:1" fill="#bcac54" d="M 150.5,202.5 C 147.645,204.25 144.311,205.083 140.5,205C 142.751,205.748 144.084,207.248 144.5,209.5C 142.146,208.987 140.146,207.821 138.5,206C 137.663,204.989 137.33,203.822 137.5,202.5C 141.833,202.5 146.167,202.5 150.5,202.5 Z"/></g>
<g><path style="opacity:1" fill="#ccaf4f" d="M 157.5,202.5 C 161.884,202.174 166.217,202.508 170.5,203.5C 169.995,204.919 168.995,205.585 167.5,205.5C 163.881,205.119 160.548,204.119 157.5,202.5 Z"/></g>
<g><path style="opacity:1" fill="#9b9b6d" d="M 336.5,202.5 C 336.527,204.199 337.194,205.533 338.5,206.5C 335.988,206.577 333.988,205.577 332.5,203.5C 333.689,202.571 335.022,202.238 336.5,202.5 Z"/></g>
<g><path style="opacity:1" fill="#f2b926" d="M 152.5,195.5 C 154.916,197.346 156.583,199.679 157.5,202.5C 160.548,204.119 163.881,205.119 167.5,205.5C 165.49,207.502 163.49,209.502 161.5,211.5C 162.512,213.552 163.179,215.719 163.5,218C 163.431,219.986 162.765,221.486 161.5,222.5C 160.965,220.554 159.632,219.554 157.5,219.5C 156.848,218.275 155.681,217.608 154,217.5C 152.833,217.833 151.667,218.167 150.5,218.5C 148.625,219.409 147.292,220.743 146.5,222.5C 143.752,222.598 143.086,221.598 144.5,219.5C 144.855,217.11 145.522,214.777 146.5,212.5C 146.36,210.97 145.693,209.97 144.5,209.5C 144.084,207.248 142.751,205.748 140.5,205C 144.311,205.083 147.645,204.25 150.5,202.5C 150.5,201.167 150.5,199.833 150.5,198.5C 151.906,198.027 152.573,197.027 152.5,195.5 Z"/></g>
<g><path style="opacity:1" fill="#f1b826" d="M 349.5,196.5 C 351.269,198.388 352.602,200.721 353.5,203.5C 357.589,203.888 361.256,204.888 364.5,206.5C 363.167,206.5 362.5,207.167 362.5,208.5C 359.864,208.491 358.531,209.825 358.5,212.5C 359.254,214.64 359.921,216.806 360.5,219C 360.392,220.681 359.725,221.848 358.5,222.5C 356.201,220.345 353.535,218.678 350.5,217.5C 348.153,218.526 345.82,219.526 343.5,220.5C 343.167,217.167 342.833,213.833 342.5,210.5C 340.703,209.607 339.37,208.274 338.5,206.5C 337.194,205.533 336.527,204.199 336.5,202.5C 339.5,202.5 342.5,202.5 345.5,202.5C 346.833,202.5 347.5,201.833 347.5,200.5C 347.157,198.517 347.824,197.183 349.5,196.5 Z"/></g>
<g><path style="opacity:1" fill="#436681" d="M 362.5,208.5 C 362.179,210.048 361.179,210.715 359.5,210.5C 359.354,212.942 360.187,213.609 362,212.5C 362.167,213 362.333,213.5 362.5,214C 361.727,217.454 361.727,220.954 362.5,224.5C 360.62,224.771 359.287,224.104 358.5,222.5C 359.725,221.848 360.392,220.681 360.5,219C 359.921,216.806 359.254,214.64 358.5,212.5C 358.531,209.825 359.864,208.491 362.5,208.5 Z"/></g>
<g><path style="opacity:1" fill="#5e7e7b" d="M 144.5,219.5 C 143.086,221.598 143.752,222.598 146.5,222.5C 144.601,224.999 143.267,224.832 142.5,222C 142.684,220.624 143.351,219.791 144.5,219.5 Z"/></g>
<g><path style="opacity:1" fill="#4c6065" d="M 157.5,219.5 C 159.632,219.554 160.965,220.554 161.5,222.5C 159.368,222.446 158.035,221.446 157.5,219.5 Z"/></g>
<g><path style="opacity:1" fill="#969962" d="M 342.5,210.5 C 342.833,213.833 343.167,217.167 343.5,220.5C 343.179,222.048 342.179,222.715 340.5,222.5C 340.848,218.443 341.514,214.443 342.5,210.5 Z"/></g>
<g><path style="opacity:1" fill="#858f68" d="M 308.5,234.5 C 308.598,236.553 307.931,238.22 306.5,239.5C 306.077,237.219 306.744,235.552 308.5,234.5 Z"/></g>
<g><path style="opacity:1" fill="#ccad47" d="M 198.5,239.5 C 197.85,239.196 197.183,238.863 196.5,238.5C 195.03,241.159 193.364,243.492 191.5,245.5C 191.5,244.833 191.5,244.167 191.5,243.5C 192.372,239.654 193.706,235.987 195.5,232.5C 197.854,234.246 198.854,236.579 198.5,239.5 Z"/></g>
<g><path style="opacity:1" fill="#919659" d="M 312.5,243.5 C 316.833,243.5 321.167,243.5 325.5,243.5C 325.843,245.483 325.176,246.817 323.5,247.5C 319.833,246.167 316.167,244.833 312.5,243.5 Z"/></g>
<g><path style="opacity:1" fill="#908b55" d="M 191.5,243.5 C 191.5,244.167 191.5,244.833 191.5,245.5C 187.351,244.92 183.684,245.586 180.5,247.5C 178.824,246.817 178.157,245.483 178.5,243.5C 182.833,243.5 187.167,243.5 191.5,243.5 Z"/></g>
<g><path style="opacity:1" fill="#8d925e" d="M 198.5,241.5 C 203.326,242.939 208.326,243.939 213.5,244.5C 213.145,245.522 212.478,246.189 211.5,246.5C 207.366,245.515 203.032,245.182 198.5,245.5C 198.5,244.167 198.5,242.833 198.5,241.5 Z"/></g>
<g><path style="opacity:1" fill="#9a9455" d="M 306.5,241.5 C 306.67,242.822 306.337,243.989 305.5,245C 301.689,244.917 298.355,245.75 295.5,247.5C 293.922,246.934 292.588,245.934 291.5,244.5C 296.758,244.043 301.758,243.043 306.5,241.5 Z"/></g>
<g><path style="opacity:1" fill="#f5b91f" d="M 198.5,239.5 C 198.5,240.167 198.5,240.833 198.5,241.5C 198.5,242.833 198.5,244.167 198.5,245.5C 203.032,245.182 207.366,245.515 211.5,246.5C 208.262,247.401 205.929,249.401 204.5,252.5C 202.656,254.279 201.99,256.612 202.5,259.5C 199.972,258.977 197.639,257.977 195.5,256.5C 193.721,257.394 192.388,258.727 191.5,260.5C 190.417,260.539 189.417,260.873 188.5,261.5C 187.614,260.675 187.281,259.675 187.5,258.5C 187.5,255.833 187.5,253.167 187.5,250.5C 184.744,250.284 182.41,249.284 180.5,247.5C 183.684,245.586 187.351,244.92 191.5,245.5C 193.364,243.492 195.03,241.159 196.5,238.5C 197.183,238.863 197.85,239.196 198.5,239.5 Z"/></g>
<g><path style="opacity:1" fill="#b6a041" d="M 319.5,250.5 C 317.919,252.142 317.253,254.142 317.5,256.5C 315.692,255.082 315.025,253.082 315.5,250.5C 316.833,250.5 318.167,250.5 319.5,250.5 Z"/></g>
<g><path style="opacity:1" fill="#f5b91f" d="M 312.5,243.5 C 316.167,244.833 319.833,246.167 323.5,247.5C 321.878,248.122 320.545,249.122 319.5,250.5C 318.167,250.5 316.833,250.5 315.5,250.5C 315.025,253.082 315.692,255.082 317.5,256.5C 317.5,258.167 317.5,259.833 317.5,261.5C 315.263,260.551 312.929,259.884 310.5,259.5C 310.083,258.876 309.416,258.543 308.5,258.5C 306.351,260.409 304.018,262.076 301.5,263.5C 300.167,263.5 299.5,262.833 299.5,261.5C 300.242,259.406 300.909,257.239 301.5,255C 301.167,253.833 300.833,252.667 300.5,251.5C 298.501,250.492 296.834,249.159 295.5,247.5C 298.355,245.75 301.689,244.917 305.5,245C 306.337,243.989 306.67,242.822 306.5,241.5C 306.5,240.833 306.5,240.167 306.5,239.5C 307.931,238.22 308.598,236.553 308.5,234.5C 308.369,233.624 308.702,232.957 309.5,232.5C 310.809,236.107 311.809,239.774 312.5,243.5 Z"/></g>
<g><path style="opacity:1" fill="#b6a44b" d="M 254.5,251.5 C 253.5,251.5 252.5,251.5 251.5,251.5C 252.004,255.481 250.671,258.481 247.5,260.5C 247.5,259.833 247.5,259.167 247.5,258.5C 249.82,255.679 250.987,252.346 251,248.5C 252.011,247.663 253.178,247.33 254.5,247.5C 254.5,248.833 254.5,250.167 254.5,251.5 Z"/></g>
<g><path style="opacity:1" fill="#cbb246" d="M 204.5,252.5 C 204.5,254.5 204.5,256.5 204.5,258.5C 205.038,260.117 205.371,261.784 205.5,263.5C 204.5,263.5 203.5,263.5 202.5,263.5C 200.906,261.264 198.739,259.597 196,258.5C 194.594,259.414 193.094,260.08 191.5,260.5C 192.388,258.727 193.721,257.394 195.5,256.5C 197.639,257.977 199.972,258.977 202.5,259.5C 201.99,256.612 202.656,254.279 204.5,252.5 Z"/></g>
<g><path style="opacity:1" fill="#5b7067" d="M 247.5,258.5 C 247.5,259.167 247.5,259.833 247.5,260.5C 243.818,260.335 240.152,260.501 236.5,261C 237.056,261.383 237.389,261.883 237.5,262.5C 235.824,261.817 235.157,260.483 235.5,258.5C 239.5,258.5 243.5,258.5 247.5,258.5 Z"/></g>
<g><path style="opacity:1" fill="#777e63" d="M 256.5,258.5 C 260.833,258.5 265.167,258.5 269.5,258.5C 269.817,261.546 268.484,263.213 265.5,263.5C 265.577,262.25 266.244,261.417 267.5,261C 263.367,261.094 259.701,260.26 256.5,258.5 Z"/></g>
<g><path style="opacity:1" fill="#aba064" d="M 187.5,258.5 C 187.281,259.675 187.614,260.675 188.5,261.5C 189.417,260.873 190.417,260.539 191.5,260.5C 190.106,262.481 188.273,264.148 186,265.5C 185.5,265.167 185,264.833 184.5,264.5C 184.771,261.953 185.771,259.953 187.5,258.5 Z"/></g>
<g><path style="opacity:1" fill="#b3a555" d="M 317.5,256.5 C 319.163,258.438 319.829,260.772 319.5,263.5C 315.99,263.147 312.99,261.814 310.5,259.5C 312.929,259.884 315.263,260.551 317.5,261.5C 317.5,259.833 317.5,258.167 317.5,256.5 Z"/></g>
<g><path style="opacity:1" fill="#778873" d="M 204.5,258.5 C 205.725,259.152 206.392,260.319 206.5,262C 206.395,266.095 205.062,266.595 202.5,263.5C 203.5,263.5 204.5,263.5 205.5,263.5C 205.371,261.784 205.038,260.117 204.5,258.5 Z"/></g>
<g><path style="opacity:1" fill="#f3b924" d="M 254.5,251.5 C 255.449,253.737 256.116,256.071 256.5,258.5C 259.701,260.26 263.367,261.094 267.5,261C 266.244,261.417 265.577,262.25 265.5,263.5C 261.409,265.011 260.076,267.678 261.5,271.5C 261.802,274.059 261.468,276.393 260.5,278.5C 258.745,277.096 256.745,276.096 254.5,275.5C 253.796,273.656 252.463,273.156 250.5,274C 248.638,275.366 246.972,276.866 245.5,278.5C 244.167,278.5 243.5,277.833 243.5,276.5C 246.365,269.575 244.365,264.908 237.5,262.5C 237.389,261.883 237.056,261.383 236.5,261C 240.152,260.501 243.818,260.335 247.5,260.5C 250.671,258.481 252.004,255.481 251.5,251.5C 252.5,251.5 253.5,251.5 254.5,251.5 Z"/></g>
<g><path style="opacity:1" fill="#5e7d77" d="M 299.5,261.5 C 299.5,262.833 300.167,263.5 301.5,263.5C 300.713,265.104 299.38,265.771 297.5,265.5C 297.229,263.62 297.896,262.287 299.5,261.5 Z"/></g>
<g><path style="opacity:1" fill="#596f6f" d="M 254.5,275.5 C 251.197,275.69 248.197,276.69 245.5,278.5C 246.972,276.866 248.638,275.366 250.5,274C 252.463,273.156 253.796,273.656 254.5,275.5 Z"/></g>
<g><path style="opacity:1" fill="#848e6c" d="M 261.5,271.5 C 262.657,274.273 263.324,277.273 263.5,280.5C 261.821,280.715 260.821,280.048 260.5,278.5C 261.468,276.393 261.802,274.059 261.5,271.5 Z"/></g>
<g><path style="opacity:1" fill="#8d8f72" d="M 243.5,276.5 C 243.5,277.833 244.167,278.5 245.5,278.5C 244.817,280.176 243.483,280.843 241.5,280.5C 241.157,278.517 241.824,277.183 243.5,276.5 Z"/></g>
</svg>
