<?xml version="1.0" encoding="UTF-8"?>
<!DOCTYPE svg PUBLIC "-//W3C//DTD SVG 1.1//EN" "http://www.w3.org/Graphics/SVG/1.1/DTD/svg11.dtd">
<svg xmlns="http://www.w3.org/2000/svg" version="1.1" width="512px" height="512px" style="shape-rendering:geometricPrecision; text-rendering:geometricPrecision; image-rendering:optimizeQuality; fill-rule:evenodd; clip-rule:evenodd" xmlns:xlink="http://www.w3.org/1999/xlink">
<g><path style="opacity:1" fill="#ead16d" d="M 138.5,-0.5 C 145.5,-0.5 152.5,-0.5 159.5,-0.5C 159.5,4.83333 159.5,10.1667 159.5,15.5C 152.5,15.5 145.5,15.5 138.5,15.5C 138.5,10.1667 138.5,4.83333 138.5,-0.5 Z"/></g>
<g><path style="opacity:1" fill="#d3cf86" d="M 159.5,-0.5 C 166.5,-0.5 173.5,-0.5 180.5,-0.5C 180.5,4.83333 180.5,10.1667 180.5,15.5C 173.5,15.5 166.5,15.5 159.5,15.5C 159.5,10.1667 159.5,4.83333 159.5,-0.5 Z"/></g>
<g><path style="opacity:1" fill="#bccc9e" d="M 180.5,-0.5 C 187.5,-0.5 194.5,-0.5 201.5,-0.5C 201.5,4.83333 201.5,10.1667 201.5,15.5C 194.5,15.5 187.5,15.5 180.5,15.5C 180.5,10.1667 180.5,4.83333 180.5,-0.5 Z"/></g>
<g><path style="opacity:1" fill="#a5cab8" d="M 201.5,-0.5 C 208.833,-0.5 216.167,-0.5 223.5,-0.5C 223.5,4.83333 223.5,10.1667 223.5,15.5C 216.167,15.5 208.833,15.5 201.5,15.5C 201.5,10.1667 201.5,4.83333 201.5,-0.5 Z"/></g>
<g><path style="opacity:1" fill="#8bc7d4" d="M 223.5,-0.5 C 233.167,-0.5 242.833,-0.5 252.5,-0.5C 252.5,4.83333 252.5,10.1667 252.5,15.5C 242.833,15.5 233.167,15.5 223.5,15.5C 223.5,10.1667 223.5,4.83333 223.5,-0.5 Z"/></g>
<g><path style="opacity:1" fill="#6ab1dc" d="M 252.5,-0.5 C 266.5,-0.5 280.5,-0.5 294.5,-0.5C 294.5,4.83333 294.5,10.1667 294.5,15.5C 280.5,15.5 266.5,15.5 252.5,15.5C 252.5,10.1667 252.5,4.83333 252.5,-0.5 Z"/></g>
<g><path style="opacity:1" fill="#558abe" d="M 294.5,-0.5 C 310.833,-0.5 327.167,-0.5 343.5,-0.5C 346.404,0.285203 349.07,1.61854 351.5,3.5C 350.28,11.6851 350.28,20.0184 351.5,28.5C 349.44,23.2706 345.774,19.4373 340.5,17C 325.216,15.5823 309.883,15.0823 294.5,15.5C 294.5,10.1667 294.5,4.83333 294.5,-0.5 Z"/></g>
<g><path style="opacity:0.976" fill="#ff95c0" d="M 110.5,0.5 C 106.851,2.07949 103.351,4.07949 100,6.5C 99.6012,6.27155 99.4346,5.93822 99.5,5.5C 102.497,2.50352 106.164,0.836857 110.5,0.5 Z"/></g>
<g><path style="opacity:1" fill="#ffc14d" d="M 110.5,-0.5 C 119.833,-0.5 129.167,-0.5 138.5,-0.5C 138.5,4.83333 138.5,10.1667 138.5,15.5C 131.442,15.203 124.442,15.5363 117.5,16.5C 116.667,43.4938 116.167,70.4938 116,97.5C 114.786,99.0488 113.286,100.215 111.5,101C 102.506,101.5 93.5062,101.666 84.5,101.5C 83.791,100.596 82.791,100.263 81.5,100.5C 81.5,95.1667 81.5,89.8333 81.5,84.5C 87.5,84.5 93.5,84.5 99.5,84.5C 99.6666,66.1636 99.4999,47.8303 99,29.5C 93.2981,35.3696 87.4647,41.0362 81.5,46.5C 82.4337,38.889 82.7671,31.2223 82.5,23.5C 83.6005,22.3951 84.2671,21.0618 84.5,19.5C 88.9046,16.6042 92.9046,13.1042 96.5,9C 96.2716,8.60123 95.9382,8.43456 95.5,8.5C 96.2623,6.73758 97.5956,5.73758 99.5,5.5C 99.4346,5.93822 99.6012,6.27155 100,6.5C 103.351,4.07949 106.851,2.07949 110.5,0.5C 110.5,0.166667 110.5,-0.166667 110.5,-0.5 Z"/></g>
<g><path style="opacity:1" fill="#3f6dad" d="M 351.5,3.5 C 362.509,9.82668 368.175,19.4933 368.5,32.5C 367.168,94.668 367.168,157.001 368.5,219.5C 371.267,217.8 372.934,215.8 373.5,213.5C 376.833,209.5 380.5,205.833 384.5,202.5C 384.938,203.506 385.604,203.506 386.5,202.5C 386.334,209.175 386.5,215.842 387,222.5C 387.816,221.177 388.983,220.511 390.5,220.5C 378.167,233.5 365.5,246.167 352.5,258.5C 350.85,252.062 349.85,245.395 349.5,238.5C 349.5,238.167 349.5,237.833 349.5,237.5C 350.496,237.586 351.329,237.252 352,236.5C 352.832,166.999 352.665,97.6655 351.5,28.5C 350.28,20.0184 350.28,11.6851 351.5,3.5 Z"/></g>
<g><path style="opacity:0.835" fill="#ff4769" d="M 95.5,8.5 C 95.9382,8.43456 96.2716,8.60123 96.5,9C 92.9046,13.1042 88.9046,16.6042 84.5,19.5C 87.8333,15.5 91.5,11.8333 95.5,8.5 Z"/></g>
<g><path style="opacity:0.827" fill="#ff678a" d="M 84.5,19.5 C 84.2671,21.0618 83.6005,22.3951 82.5,23.5C 80.4268,25.5798 78.0934,27.2464 75.5,28.5C 78.1667,25.1667 81.1667,22.1667 84.5,19.5 Z"/></g>
<g><path style="opacity:0.671" fill="#65c4a2" d="M 351.5,28.5 C 352.665,97.6655 352.832,166.999 352,236.5C 351.329,237.252 350.496,237.586 349.5,237.5C 349.783,236.711 350.283,236.044 351,235.5C 351.5,166.501 351.667,97.5008 351.5,28.5 Z"/></g>
<g><path style="opacity:0.341" fill="#f2f7a9" d="M 368.5,32.5 C 368.333,94.1676 368.5,155.834 369,217.5C 370.371,215.959 371.871,214.625 373.5,213.5C 372.934,215.8 371.267,217.8 368.5,219.5C 367.168,157.001 367.168,94.668 368.5,32.5 Z"/></g>
<g><path style="opacity:1" fill="#dbca7b" d="M 163.5,42.5 C 165.948,43.4731 168.615,43.8064 171.5,43.5C 172.037,49.1348 171.37,54.4682 169.5,59.5C 162.825,59.6663 156.158,59.4996 149.5,59C 143.513,54.3744 143.18,49.3744 148.5,44C 153.401,42.6746 158.401,42.1746 163.5,42.5 Z"/></g>
<g><path style="opacity:1" fill="#bdc395" d="M 163.5,42.5 C 170.167,42.5 176.833,42.5 183.5,42.5C 190.982,43.492 198.648,43.8254 206.5,43.5C 206.5,48.5 206.5,53.5 206.5,58.5C 208.415,58.2155 210.081,58.5489 211.5,59.5C 197.5,59.5 183.5,59.5 169.5,59.5C 171.37,54.4682 172.037,49.1348 171.5,43.5C 168.615,43.8064 165.948,43.4731 163.5,42.5 Z"/></g>
<g><path style="opacity:1" fill="#9bb9b2" d="M 183.5,42.5 C 210.167,42.5 236.833,42.5 263.5,42.5C 254.014,43.4938 244.348,43.8271 234.5,43.5C 233.963,49.1348 234.63,54.4682 236.5,59.5C 228.167,59.5 219.833,59.5 211.5,59.5C 210.081,58.5489 208.415,58.2155 206.5,58.5C 206.5,53.5 206.5,48.5 206.5,43.5C 198.648,43.8254 190.982,43.492 183.5,42.5 Z"/></g>
<g><path style="opacity:1" fill="#78b2d8" d="M 263.5,42.5 C 269.5,42.5 275.5,42.5 281.5,42.5C 288.982,43.492 296.648,43.8254 304.5,43.5C 304.5,48.5 304.5,53.5 304.5,58.5C 303.209,58.2627 302.209,58.596 301.5,59.5C 279.833,59.5 258.167,59.5 236.5,59.5C 234.63,54.4682 233.963,49.1348 234.5,43.5C 244.348,43.8271 254.014,43.4938 263.5,42.5 Z"/></g>
<g><path style="opacity:1" fill="#6d8fbb" d="M 281.5,42.5 C 294.241,42.0589 306.908,42.5589 319.5,44C 324.436,48.3437 324.769,53.0104 320.5,58C 314.285,59.4155 307.952,59.9155 301.5,59.5C 302.209,58.596 303.209,58.2627 304.5,58.5C 304.5,53.5 304.5,48.5 304.5,43.5C 296.648,43.8254 288.982,43.492 281.5,42.5 Z"/></g>
<g><path style="opacity:0.835" fill="#ff8098" d="M 67.5,36.5 C 64.1667,41.8333 59.8333,46.1667 54.5,49.5C 58.5,44.8333 62.8333,40.5 67.5,36.5 Z"/></g>
<g><path style="opacity:0.999" fill="#ff9a30" d="M 82.5,23.5 C 82.7671,31.2223 82.4337,38.889 81.5,46.5C 69.3686,59.1318 57.0353,71.6318 44.5,84C 56.8288,84.4999 69.1622,84.6665 81.5,84.5C 81.5,89.8333 81.5,95.1667 81.5,100.5C 82.791,100.263 83.791,100.596 84.5,101.5C 66.8333,101.5 49.1667,101.5 31.5,101.5C 31.3333,228.834 31.5,356.167 32,483.5C 33.4056,488.573 36.5723,492.073 41.5,494C 49.1052,495.311 56.7718,495.811 64.5,495.5C 64.5,500.833 64.5,506.167 64.5,511.5C 55.8333,511.5 47.1667,511.5 38.5,511.5C 26.4139,507.245 18.5805,498.912 15,486.5C 14.3333,356.167 14.3333,225.833 15,95.5C 15.8959,90.701 18.0626,86.701 21.5,83.5C 28.8517,77.1657 35.1851,70.4991 40.5,63.5C 44.8333,58.5 49.5,53.8333 54.5,49.5C 59.8333,46.1667 64.1667,41.8333 67.5,36.5C 69.8333,33.5 72.5,30.8333 75.5,28.5C 78.0934,27.2464 80.4268,25.5798 82.5,23.5 Z"/></g>
<g><path style="opacity:0.831" fill="#ff7c95" d="M 40.5,63.5 C 35.1851,70.4991 28.8517,77.1657 21.5,83.5C 27.1089,76.2224 33.4423,69.5557 40.5,63.5 Z"/></g>
<g><path style="opacity:1" fill="#314c95" d="M 414.5,267.5 C 407.833,272.167 402.167,277.833 397.5,284.5C 397.5,285.167 397.167,285.5 396.5,285.5C 393.269,287.22 390.436,289.553 388,292.5C 387.667,285.833 387.333,279.167 387,272.5C 386.292,273.381 385.458,274.047 384.5,274.5C 384.5,274.167 384.5,273.833 384.5,273.5C 384.833,272.5 385.5,271.833 386.5,271.5C 392.167,267.833 396.833,263.167 400.5,257.5C 400.833,256.5 401.5,255.833 402.5,255.5C 409.577,249.929 416.244,243.762 422.5,237C 422.272,236.601 421.938,236.435 421.5,236.5C 421.5,235.833 421.833,235.5 422.5,235.5C 428.242,231.265 433.575,226.432 438.5,221C 438.272,220.601 437.938,220.435 437.5,220.5C 437.5,219.833 437.833,219.5 438.5,219.5C 440.544,218.969 442.211,217.802 443.5,216C 443.272,215.601 442.938,215.435 442.5,215.5C 445.5,211.833 448.833,208.5 452.5,205.5C 454.686,205.489 455.519,204.489 455,202.5C 450.906,197.898 446.406,193.898 441.5,190.5C 437.869,187.371 434.369,184.037 431,180.5C 420.965,190.702 410.798,200.702 400.5,210.5C 400.565,210.062 400.399,209.728 400,209.5C 396.558,212.432 393.725,215.765 391.5,219.5C 391.5,220.167 391.167,220.5 390.5,220.5C 388.983,220.511 387.816,221.177 387,222.5C 386.5,215.842 386.334,209.175 386.5,202.5C 387.29,201.206 388.29,200.039 389.5,199C 389.272,198.601 388.938,198.435 388.5,198.5C 389.167,197.167 390.167,196.167 391.5,195.5C 391.435,195.938 391.601,196.272 392,196.5C 396.436,192.572 400.269,188.239 403.5,183.5C 404.5,181.833 405.833,180.5 407.5,179.5C 407.435,179.938 407.601,180.272 408,180.5C 411.167,177.333 414.333,174.167 417.5,171C 417.272,170.601 416.938,170.435 416.5,170.5C 418.167,168.167 420.167,166.167 422.5,164.5C 430.499,158.182 438.166,150.849 445.5,142.5C 455.117,135.796 464.784,135.963 474.5,143C 481.032,149.198 487.199,155.698 493,162.5C 498.132,172.58 497.465,182.247 491,191.5C 465.632,217.035 440.132,242.368 414.5,267.5 Z M 463.5,156.5 C 466.5,160.167 469.833,163.5 473.5,166.5C 475.127,168.63 476.96,170.63 479,172.5C 479.495,174.473 479.662,176.473 479.5,178.5C 475.108,182.897 470.442,186.897 465.5,190.5C 458.369,182.868 451.036,175.368 443.5,168C 448.087,162.741 453.253,158.241 459,154.5C 460.585,155.044 462.085,155.711 463.5,156.5 Z"/></g>
<g><path style="opacity:1" fill="#ffaf38" d="M 99.5,142.5 C 99.5,147.833 99.5,153.167 99.5,158.5C 96.9407,158.198 94.6074,158.532 92.5,159.5C 88.8333,159.5 85.1667,159.5 81.5,159.5C 81.5,172.5 81.5,185.5 81.5,198.5C 85.1667,198.5 88.8333,198.5 92.5,198.5C 91.1667,204.167 91.1667,209.833 92.5,215.5C 89.8333,215.5 87.1667,215.5 84.5,215.5C 81.3046,214.764 77.9713,214.097 74.5,213.5C 73.8933,213.624 73.56,213.957 73.5,214.5C 69.4924,212.658 66.6591,209.658 65,205.5C 64.039,186.768 64.3723,168.101 66,149.5C 67.7648,146.527 70.2648,144.36 73.5,143C 82.1603,142.5 90.8269,142.334 99.5,142.5 Z"/></g>
<g><path style="opacity:0.996" fill="#fec754" d="M 99.5,142.5 C 109.172,142.334 118.839,142.5 128.5,143C 132.667,144.5 135.5,147.333 137,151.5C 137.667,169.833 137.667,188.167 137,206.5C 135.373,211.062 132.206,213.895 127.5,215C 115.838,215.5 104.171,215.667 92.5,215.5C 91.1667,209.833 91.1667,204.167 92.5,198.5C 101.833,198.5 111.167,198.5 120.5,198.5C 120.5,185.5 120.5,172.5 120.5,159.5C 111.167,159.5 101.833,159.5 92.5,159.5C 94.6074,158.532 96.9407,158.198 99.5,158.5C 99.5,153.167 99.5,147.833 99.5,142.5 Z"/></g>
<g><path style="opacity:1" fill="#c6cb92" d="M 196.5,148.5 C 196.5,153.833 196.5,159.167 196.5,164.5C 188.16,164.666 179.827,164.5 171.5,164C 166.701,160.929 165.535,156.762 168,151.5C 168.903,150.299 170.069,149.465 171.5,149C 179.827,148.5 188.16,148.334 196.5,148.5 Z"/></g>
<g><path style="opacity:1" fill="#abcab1" d="M 196.5,148.5 C 203.5,148.5 210.5,148.5 217.5,148.5C 217.5,153.833 217.5,159.167 217.5,164.5C 210.5,164.5 203.5,164.5 196.5,164.5C 196.5,159.167 196.5,153.833 196.5,148.5 Z"/></g>
<g><path style="opacity:1" fill="#93c8cb" d="M 217.5,148.5 C 225.167,148.5 232.833,148.5 240.5,148.5C 240.5,153.833 240.5,159.167 240.5,164.5C 232.833,164.5 225.167,164.5 217.5,164.5C 217.5,159.167 217.5,153.833 217.5,148.5 Z"/></g>
<g><path style="opacity:1" fill="#71bae0" d="M 240.5,148.5 C 255.167,148.5 269.833,148.5 284.5,148.5C 284.5,153.833 284.5,159.167 284.5,164.5C 269.833,164.5 255.167,164.5 240.5,164.5C 240.5,159.167 240.5,153.833 240.5,148.5 Z"/></g>
<g><path style="opacity:1" fill="#61a0cf" d="M 284.5,148.5 C 294.172,148.334 303.839,148.5 313.5,149C 316.516,150.529 317.849,153.029 317.5,156.5C 317.849,159.971 316.516,162.471 313.5,164C 303.839,164.5 294.172,164.666 284.5,164.5C 284.5,159.167 284.5,153.833 284.5,148.5 Z"/></g>
<g><path style="opacity:0.09" fill="#68bba9" d="M 473.5,166.5 C 469.833,163.5 466.5,160.167 463.5,156.5C 463.435,156.062 463.601,155.728 464,155.5C 467.773,158.764 470.94,162.43 473.5,166.5 Z"/></g>
<g><path style="opacity:0.776" fill="#769e62" d="M 445.5,142.5 C 438.166,150.849 430.499,158.182 422.5,164.5C 429.555,156.444 437.221,149.11 445.5,142.5 Z"/></g>
<g><path style="opacity:0.78" fill="#9a9680" d="M 416.5,170.5 C 416.938,170.435 417.272,170.601 417.5,171C 414.333,174.167 411.167,177.333 408,180.5C 407.601,180.272 407.435,179.938 407.5,179.5C 410.167,176.167 413.167,173.167 416.5,170.5 Z"/></g>
<g><path style="opacity:0.867" fill="#58a847" d="M 479.5,178.5 C 476.102,183.406 472.102,187.906 467.5,192C 466.184,192.528 465.517,192.028 465.5,190.5C 470.442,186.897 475.108,182.897 479.5,178.5 Z"/></g>
<g><path style="opacity:0.78" fill="#97826f" d="M 403.5,183.5 C 400.269,188.239 396.436,192.572 392,196.5C 391.601,196.272 391.435,195.938 391.5,195.5C 395.167,191.167 399.167,187.167 403.5,183.5 Z"/></g>
<g><path style="opacity:0.898" fill="#8b513b" d="M 441.5,190.5 C 446.406,193.898 450.906,197.898 455,202.5C 455.519,204.489 454.686,205.489 452.5,205.5C 453.303,204.577 453.47,203.577 453,202.5C 448.963,198.631 445.13,194.631 441.5,190.5 Z"/></g>
<g><path style="opacity:1" fill="#c3c790" d="M 175.5,192.5 C 182.313,193.491 189.313,193.825 196.5,193.5C 196.218,198.927 196.551,204.26 197.5,209.5C 188.06,209.945 178.726,209.445 169.5,208C 164.722,200.163 166.722,194.996 175.5,192.5 Z"/></g>
<g><path style="opacity:1" fill="#9fb9b5" d="M 175.5,192.5 C 195.5,192.5 215.5,192.5 235.5,192.5C 236.452,198.075 236.786,203.741 236.5,209.5C 223.5,209.5 210.5,209.5 197.5,209.5C 196.551,204.26 196.218,198.927 196.5,193.5C 189.313,193.825 182.313,193.491 175.5,192.5 Z"/></g>
<g><path style="opacity:1" fill="#8cbac9" d="M 235.5,192.5 C 240.511,192.334 245.511,192.501 250.5,193C 256.095,195.354 257.928,199.521 256,205.5C 254.833,206.667 253.667,207.833 252.5,209C 247.177,209.499 241.844,209.666 236.5,209.5C 236.786,203.741 236.452,198.075 235.5,192.5 Z"/></g>
<g><path style="opacity:0.776" fill="#c5a464" d="M 388.5,198.5 C 388.938,198.435 389.272,198.601 389.5,199C 388.29,200.039 387.29,201.206 386.5,202.5C 385.604,203.506 384.938,203.506 384.5,202.5C 385.5,200.833 386.833,199.5 388.5,198.5 Z"/></g>
<g><path style="opacity:0.055" fill="#8d6558" d="M 400.5,210.5 C 397.833,213.833 394.833,216.833 391.5,219.5C 393.725,215.765 396.558,212.432 400,209.5C 400.399,209.728 400.565,210.062 400.5,210.5 Z"/></g>
<g><path style="opacity:0.651" fill="#ff77b6" d="M 73.5,214.5 C 73.56,213.957 73.8933,213.624 74.5,213.5C 77.9713,214.097 81.3046,214.764 84.5,215.5C 80.7307,215.756 77.0641,215.423 73.5,214.5 Z"/></g>
<g><path style="opacity:0.839" fill="#7d9f33" d="M 442.5,215.5 C 442.938,215.435 443.272,215.601 443.5,216C 442.211,217.802 440.544,218.969 438.5,219.5C 439.5,217.833 440.833,216.5 442.5,215.5 Z"/></g>
<g><path style="opacity:0.839" fill="#7d9f33" d="M 437.5,220.5 C 437.938,220.435 438.272,220.601 438.5,221C 433.575,226.432 428.242,231.265 422.5,235.5C 427.167,230.167 432.167,225.167 437.5,220.5 Z"/></g>
<g><path style="opacity:0.749" fill="#acb853" d="M 349.5,237.5 C 349.5,237.833 349.5,238.167 349.5,238.5C 348.415,240.587 346.749,241.92 344.5,242.5C 345.833,240.5 347.5,238.833 349.5,237.5 Z"/></g>
<g><path style="opacity:0.839" fill="#85a53b" d="M 421.5,236.5 C 421.938,236.435 422.272,236.601 422.5,237C 416.244,243.762 409.577,249.929 402.5,255.5C 408.5,248.833 414.833,242.5 421.5,236.5 Z"/></g>
<g><path style="opacity:1" fill="#ffae3a" d="M 122.5,261.5 C 116.021,262.491 109.354,262.824 102.5,262.5C 102.5,267.5 102.5,272.5 102.5,277.5C 101.209,277.263 100.209,277.596 99.5,278.5C 98.8333,278.5 98.1667,278.5 97.5,278.5C 91.69,277.51 85.69,277.177 79.5,277.5C 79.1674,291.516 79.5008,305.516 80.5,319.5C 81.1067,319.376 81.44,319.043 81.5,318.5C 86.1667,318.5 90.8333,318.5 95.5,318.5C 94.4324,319.434 93.099,319.768 91.5,319.5C 91.2175,324.927 91.5509,330.26 92.5,335.5C 86.8236,335.666 81.1569,335.499 75.5,335C 70.8125,334.08 67.3125,331.58 65,327.5C 63.3723,308.899 63.039,290.232 64,271.5C 65.9268,266.572 69.4268,263.406 74.5,262C 90.4965,261.5 106.497,261.333 122.5,261.5 Z"/></g>
<g><path style="opacity:0.979" fill="#fecb4d" d="M 122.5,261.5 C 128.729,261.894 133.229,264.894 136,270.5C 136.667,288.833 136.667,307.167 136,325.5C 133.96,330.876 130.127,334.043 124.5,335C 113.839,335.5 103.172,335.667 92.5,335.5C 91.5509,330.26 91.2175,324.927 91.5,319.5C 93.099,319.768 94.4324,319.434 95.5,318.5C 96.8333,318.5 98.1667,318.5 99.5,318.5C 106.313,319.491 113.313,319.825 120.5,319.5C 120.5,305.5 120.5,291.5 120.5,277.5C 114.5,277.5 108.5,277.5 102.5,277.5C 102.5,272.5 102.5,267.5 102.5,262.5C 109.354,262.824 116.021,262.491 122.5,261.5 Z"/></g>
<g><path style="opacity:0.761" fill="#9b5e74" d="M 336.5,250.5 C 336.631,251.239 336.464,251.906 336,252.5C 329.91,259.096 323.41,265.096 316.5,270.5C 322.833,263.5 329.5,256.833 336.5,250.5 Z"/></g>
<g><path style="opacity:0.839" fill="#b79579" d="M 400.5,257.5 C 396.833,263.167 392.167,267.833 386.5,271.5C 390.833,266.5 395.5,261.833 400.5,257.5 Z"/></g>
<g><path style="opacity:1" fill="#c0c590" d="M 192.5,267.5 C 194.143,272.956 195.143,278.623 195.5,284.5C 187.826,284.666 180.159,284.5 172.5,284C 164.5,278.667 164.5,273.333 172.5,268C 179.158,267.5 185.825,267.334 192.5,267.5 Z"/></g>
<g><path style="opacity:1" fill="#a6c2ae" d="M 192.5,267.5 C 205.833,267.5 219.167,267.5 232.5,267.5C 231.432,268.434 230.099,268.768 228.5,268.5C 228.5,273.5 228.5,278.5 228.5,283.5C 218.319,283.173 208.319,283.506 198.5,284.5C 197.5,284.5 196.5,284.5 195.5,284.5C 195.143,278.623 194.143,272.956 192.5,267.5 Z"/></g>
<g><path style="opacity:1" fill="#91b5c6" d="M 232.5,267.5 C 233.833,267.5 235.167,267.5 236.5,267.5C 239.287,268.477 242.287,268.81 245.5,268.5C 245.5,273.5 245.5,278.5 245.5,283.5C 247.099,283.232 248.432,283.566 249.5,284.5C 232.5,284.5 215.5,284.5 198.5,284.5C 208.319,283.506 218.319,283.173 228.5,283.5C 228.5,278.5 228.5,273.5 228.5,268.5C 230.099,268.768 231.432,268.434 232.5,267.5 Z"/></g>
<g><path style="opacity:1" fill="#76aed1" d="M 236.5,267.5 C 257.167,267.5 277.833,267.5 298.5,267.5C 297.432,268.434 296.099,268.768 294.5,268.5C 295.037,274.135 294.37,279.468 292.5,284.5C 278.167,284.5 263.833,284.5 249.5,284.5C 248.432,283.566 247.099,283.232 245.5,283.5C 245.5,278.5 245.5,273.5 245.5,268.5C 242.287,268.81 239.287,268.477 236.5,267.5 Z"/></g>
<g><path style="opacity:0.855" fill="#a5a71a" d="M 384.5,273.5 C 384.5,273.833 384.5,274.167 384.5,274.5C 384.027,275.906 383.027,276.573 381.5,276.5C 382.167,275.167 383.167,274.167 384.5,273.5 Z"/></g>
<g><path style="opacity:0.855" fill="#b6e45d" d="M 381.5,276.5 C 380.833,279.167 379.167,280.833 376.5,281.5C 377.833,279.5 379.5,277.833 381.5,276.5 Z"/></g>
<g><path style="opacity:0.31" fill="#ff7297" d="M 97.5,278.5 C 91.8333,278.5 86.1667,278.5 80.5,278.5C 80.1711,292.01 80.5044,305.344 81.5,318.5C 81.44,319.043 81.1067,319.376 80.5,319.5C 79.5008,305.516 79.1674,291.516 79.5,277.5C 85.69,277.177 91.69,277.51 97.5,278.5 Z"/></g>
<g><path style="opacity:0.039" fill="#ffaaae" d="M 99.5,278.5 C 100.209,277.596 101.209,277.263 102.5,277.5C 108.5,277.5 114.5,277.5 120.5,277.5C 120.5,291.5 120.5,305.5 120.5,319.5C 113.313,319.825 106.313,319.491 99.5,318.5C 106.167,318.5 112.833,318.5 119.5,318.5C 119.5,305.167 119.5,291.833 119.5,278.5C 112.833,278.5 106.167,278.5 99.5,278.5 Z"/></g>
<g><path style="opacity:0.016" fill="#b9dac0" d="M 414.5,267.5 C 409.167,273.5 403.5,279.167 397.5,284.5C 402.167,277.833 407.833,272.167 414.5,267.5 Z"/></g>
<g><path style="opacity:1" fill="#5d94c4" d="M 349.5,238.5 C 349.85,245.395 350.85,252.062 352.5,258.5C 336.833,274.833 320.833,290.833 304.5,306.5C 302.284,307.203 300.451,308.536 299,310.5C 298.333,303.5 298.333,296.5 299,289.5C 300,288.5 301,287.5 302,286.5C 302.692,285.563 302.525,284.897 301.5,284.5C 298.5,284.5 295.5,284.5 292.5,284.5C 294.37,279.468 295.037,274.135 294.5,268.5C 296.099,268.768 297.432,268.434 298.5,267.5C 303.179,267.334 307.845,267.501 312.5,268C 313.984,268.662 315.317,269.496 316.5,270.5C 323.41,265.096 329.91,259.096 336,252.5C 336.464,251.906 336.631,251.239 336.5,250.5C 338.833,247.5 341.5,244.833 344.5,242.5C 346.749,241.92 348.415,240.587 349.5,238.5 Z"/></g>
<g><path style="opacity:1" fill="#4e73ac" d="M 396.5,285.5 C 387.536,294.965 378.369,304.298 369,313.5C 368.667,370.167 368.333,426.833 368,483.5C 366.923,490.987 363.757,497.32 358.5,502.5C 357.172,434.961 357.172,367.294 358.5,299.5C 364.167,293.167 370.167,287.167 376.5,281.5C 379.167,280.833 380.833,279.167 381.5,276.5C 383.027,276.573 384.027,275.906 384.5,274.5C 385.458,274.047 386.292,273.381 387,272.5C 387.333,279.167 387.667,285.833 388,292.5C 390.436,289.553 393.269,287.22 396.5,285.5 Z"/></g>
<g><path style="opacity:1" fill="#4b7cb1" d="M 358.5,299.5 C 357.172,367.294 357.172,434.961 358.5,502.5C 356.704,504.9 354.37,506.567 351.5,507.5C 350.575,499.768 350.241,492.101 350.5,484.5C 351.657,433.541 351.824,382.541 351,331.5C 341.246,341.758 331.08,351.424 320.5,360.5C 320.666,353.492 320.5,346.492 320,339.5C 319.31,340.738 318.81,340.738 318.5,339.5C 322.5,334.833 326.833,330.5 331.5,326.5C 334.5,325.5 336.5,323.5 337.5,320.5C 344.167,313.167 351.167,306.167 358.5,299.5 Z"/></g>
<g><path style="opacity:0.996" fill="#6fa6ce" d="M 301.5,284.5 C 302.525,284.897 302.692,285.563 302,286.5C 301,287.5 300,288.5 299,289.5C 298.333,296.5 298.333,303.5 299,310.5C 300.451,308.536 302.284,307.203 304.5,306.5C 300.855,310.48 297.189,314.48 293.5,318.5C 300.819,326.319 308.319,333.986 316,341.5C 316.708,340.619 317.542,339.953 318.5,339.5C 318.81,340.738 319.31,340.738 320,339.5C 320.5,346.492 320.666,353.492 320.5,360.5C 303.835,365.584 286.835,369.917 269.5,373.5C 265.896,373.451 263.396,371.784 262,368.5C 261.333,365.5 261.333,362.5 262,359.5C 265.51,344.458 269.177,329.458 273,314.5C 282.339,304.328 291.839,294.328 301.5,284.5 Z M 285.5,335.5 C 290.298,339.797 294.965,344.297 299.5,349C 293.539,350.124 287.705,351.624 282,353.5C 282.518,347.42 283.684,341.42 285.5,335.5 Z"/></g>
<g><path style="opacity:0.945" fill="#7c3bc0" d="M 174.5,312.5 C 173.828,313.267 172.995,313.934 172,314.5C 171.601,314.272 171.435,313.938 171.5,313.5C 172.209,312.596 173.209,312.263 174.5,312.5 Z"/></g>
<g><path style="opacity:1" fill="#c5c88f" d="M 174.5,312.5 C 182.167,312.5 189.833,312.5 197.5,312.5C 196.551,317.74 196.218,323.073 196.5,328.5C 189.313,328.175 182.313,328.509 175.5,329.5C 173.033,329.245 171.033,328.245 169.5,326.5C 169.245,324.033 168.245,322.033 166.5,320.5C 166.981,317.166 168.647,314.833 171.5,313.5C 171.435,313.938 171.601,314.272 172,314.5C 172.995,313.934 173.828,313.267 174.5,312.5 Z"/></g>
<g><path style="opacity:1" fill="#9fb9b5" d="M 197.5,312.5 C 210.5,312.5 223.5,312.5 236.5,312.5C 236.786,318.259 236.452,323.925 235.5,329.5C 215.5,329.5 195.5,329.5 175.5,329.5C 182.313,328.509 189.313,328.175 196.5,328.5C 196.218,323.073 196.551,317.74 197.5,312.5 Z"/></g>
<g><path style="opacity:1" fill="#8cbbcb" d="M 236.5,312.5 C 241.844,312.334 247.177,312.501 252.5,313C 256.788,316.771 257.621,321.271 255,326.5C 253.581,327.46 252.081,328.293 250.5,329C 245.511,329.499 240.511,329.666 235.5,329.5C 236.452,323.925 236.786,318.259 236.5,312.5 Z"/></g>
<g><path style="opacity:0.424" fill="#7081e6" d="M 166.5,320.5 C 168.245,322.033 169.245,324.033 169.5,326.5C 167.755,324.967 166.755,322.967 166.5,320.5 Z"/></g>
<g><path style="opacity:0.855" fill="#d8ae64" d="M 337.5,320.5 C 336.5,323.5 334.5,325.5 331.5,326.5C 333.167,324.167 335.167,322.167 337.5,320.5 Z"/></g>
<g><path style="opacity:1" fill="#ffc551" d="M 92.5,380.5 C 102.172,380.334 111.839,380.5 121.5,381C 123.382,381.198 125.048,381.698 126.5,382.5C 127.833,383.933 129.333,385.267 131,386.5C 131.399,386.272 131.565,385.938 131.5,385.5C 134.028,387.89 135.528,390.89 136,394.5C 136.667,409.833 136.667,425.167 136,440.5C 135.237,447.219 131.737,451.719 125.5,454C 115.506,454.5 105.506,454.666 95.5,454.5C 94.4324,453.566 93.099,453.232 91.5,453.5C 90.9634,447.865 91.6301,442.532 93.5,437.5C 102.167,437.5 110.833,437.5 119.5,437.5C 119.5,424.167 119.5,410.833 119.5,397.5C 106.833,397.5 94.1667,397.5 81.5,397.5C 81.5,392.167 81.5,386.833 81.5,381.5C 85.3714,381.815 89.0381,381.482 92.5,380.5 Z"/></g>
<g><path style="opacity:0.663" fill="#ff7993" d="M 126.5,382.5 C 128.674,382.75 130.341,383.75 131.5,385.5C 131.565,385.938 131.399,386.272 131,386.5C 129.333,385.267 127.833,383.933 126.5,382.5 Z"/></g>
<g><path style="opacity:0.999" fill="#ffaa3b" d="M 92.5,380.5 C 89.0381,381.482 85.3714,381.815 81.5,381.5C 81.5,386.833 81.5,392.167 81.5,397.5C 80.8333,397.5 80.1667,397.5 79.5,397.5C 78.1745,411.006 78.1745,424.672 79.5,438.5C 80.1067,438.376 80.44,438.043 80.5,437.5C 84.8333,437.5 89.1667,437.5 93.5,437.5C 91.6301,442.532 90.9634,447.865 91.5,453.5C 93.099,453.232 94.4324,453.566 95.5,454.5C 87.8261,454.666 80.1594,454.5 72.5,454C 68,452.167 64.8333,449 63,444.5C 62.039,425.768 62.3723,407.101 64,388.5C 65.7648,385.527 68.2648,383.36 71.5,382C 78.4369,380.712 85.4369,380.212 92.5,380.5 Z"/></g>
<g><path style="opacity:1" fill="#bac59a" d="M 183.5,386.5 C 190.982,387.492 198.648,387.825 206.5,387.5C 206.5,392.5 206.5,397.5 206.5,402.5C 208.415,402.216 210.081,402.549 211.5,403.5C 197.402,403.965 183.402,403.465 169.5,402C 164.94,395.355 166.273,390.355 173.5,387C 176.817,386.502 180.15,386.335 183.5,386.5 Z"/></g>
<g><path style="opacity:1" fill="#9bb9b2" d="M 183.5,386.5 C 210.167,386.5 236.833,386.5 263.5,386.5C 254.014,387.494 244.348,387.827 234.5,387.5C 233.963,393.135 234.63,398.468 236.5,403.5C 228.167,403.5 219.833,403.5 211.5,403.5C 210.081,402.549 208.415,402.216 206.5,402.5C 206.5,397.5 206.5,392.5 206.5,387.5C 198.648,387.825 190.982,387.492 183.5,386.5 Z"/></g>
<g><path style="opacity:1" fill="#79b4d9" d="M 263.5,386.5 C 269.5,386.5 275.5,386.5 281.5,386.5C 284.625,387.479 287.958,387.813 291.5,387.5C 291.5,392.5 291.5,397.5 291.5,402.5C 289.265,402.205 287.265,402.539 285.5,403.5C 269.167,403.5 252.833,403.5 236.5,403.5C 234.63,398.468 233.963,393.135 234.5,387.5C 244.348,387.827 254.014,387.494 263.5,386.5 Z"/></g>
<g><path style="opacity:1" fill="#7097c4" d="M 281.5,386.5 C 291.172,386.334 300.839,386.5 310.5,387C 316.964,388.756 319.13,392.923 317,399.5C 315.833,400.667 314.667,401.833 313.5,403C 304.173,403.5 294.839,403.666 285.5,403.5C 287.265,402.539 289.265,402.205 291.5,402.5C 291.5,397.5 291.5,392.5 291.5,387.5C 287.958,387.813 284.625,387.479 281.5,386.5 Z"/></g>
<g><path style="opacity:0.38" fill="#ff7685" d="M 79.5,397.5 C 79.1711,411.01 79.5044,424.344 80.5,437.5C 80.44,438.043 80.1067,438.376 79.5,438.5C 78.1745,424.672 78.1745,411.006 79.5,397.5 Z"/></g>
<g><path style="opacity:0.972" fill="#adc8a8" d="M 187.5,431.5 C 197.5,431.5 207.5,431.5 217.5,431.5C 217.5,437.167 217.5,442.833 217.5,448.5C 206.833,448.5 196.167,448.5 185.5,448.5C 184.955,442.537 185.621,436.87 187.5,431.5 Z"/></g>
<g><path style="opacity:0.978" fill="#8dc2cf" d="M 217.5,431.5 C 228.505,431.333 239.505,431.5 250.5,432C 254.819,433.123 256.819,435.956 256.5,440.5C 256.721,443.791 255.387,446.291 252.5,448C 240.838,448.5 229.171,448.667 217.5,448.5C 217.5,442.833 217.5,437.167 217.5,431.5 Z"/></g>
<g><path style="opacity:1" fill="#c9c58b" d="M 187.5,431.5 C 185.621,436.87 184.955,442.537 185.5,448.5C 180.821,448.666 176.155,448.499 171.5,448C 164.765,442.259 165.099,436.926 172.5,432C 177.489,431.501 182.489,431.334 187.5,431.5 Z"/></g>
<g><path style="opacity:1" fill="#ffb735" d="M 64.5,495.5 C 76.1667,495.5 87.8333,495.5 99.5,495.5C 99.5,500.833 99.5,506.167 99.5,511.5C 87.8333,511.5 76.1667,511.5 64.5,511.5C 64.5,506.167 64.5,500.833 64.5,495.5 Z"/></g>
<g><path style="opacity:1" fill="#fecd50" d="M 99.5,495.5 C 112.5,495.5 125.5,495.5 138.5,495.5C 138.5,500.833 138.5,506.167 138.5,511.5C 125.5,511.5 112.5,511.5 99.5,511.5C 99.5,506.167 99.5,500.833 99.5,495.5 Z"/></g>
<g><path style="opacity:1" fill="#ead16d" d="M 138.5,495.5 C 145.5,495.5 152.5,495.5 159.5,495.5C 159.5,500.833 159.5,506.167 159.5,511.5C 152.5,511.5 145.5,511.5 138.5,511.5C 138.5,506.167 138.5,500.833 138.5,495.5 Z"/></g>
<g><path style="opacity:1" fill="#d3cf86" d="M 159.5,495.5 C 166.5,495.5 173.5,495.5 180.5,495.5C 180.5,500.833 180.5,506.167 180.5,511.5C 173.5,511.5 166.5,511.5 159.5,511.5C 159.5,506.167 159.5,500.833 159.5,495.5 Z"/></g>
<g><path style="opacity:1" fill="#bccc9e" d="M 180.5,495.5 C 187.5,495.5 194.5,495.5 201.5,495.5C 201.5,500.833 201.5,506.167 201.5,511.5C 194.5,511.5 187.5,511.5 180.5,511.5C 180.5,506.167 180.5,500.833 180.5,495.5 Z"/></g>
<g><path style="opacity:1" fill="#a5cab8" d="M 201.5,495.5 C 208.833,495.5 216.167,495.5 223.5,495.5C 223.5,500.833 223.5,506.167 223.5,511.5C 216.167,511.5 208.833,511.5 201.5,511.5C 201.5,506.167 201.5,500.833 201.5,495.5 Z"/></g>
<g><path style="opacity:1" fill="#8bc7d4" d="M 223.5,495.5 C 233.167,495.5 242.833,495.5 252.5,495.5C 252.5,500.833 252.5,506.167 252.5,511.5C 242.833,511.5 233.167,511.5 223.5,511.5C 223.5,506.167 223.5,500.833 223.5,495.5 Z"/></g>
<g><path style="opacity:1" fill="#6ab1dc" d="M 252.5,495.5 C 266.5,495.5 280.5,495.5 294.5,495.5C 294.5,500.833 294.5,506.167 294.5,511.5C 280.5,511.5 266.5,511.5 252.5,511.5C 252.5,506.167 252.5,500.833 252.5,495.5 Z"/></g>
<g><path style="opacity:1" fill="#548bc0" d="M 350.5,484.5 C 350.241,492.101 350.575,499.768 351.5,507.5C 349.07,509.381 346.404,510.715 343.5,511.5C 327.167,511.5 310.833,511.5 294.5,511.5C 294.5,506.167 294.5,500.833 294.5,495.5C 308.171,495.667 321.837,495.5 335.5,495C 342.584,494.408 347.584,490.908 350.5,484.5 Z"/></g>
</svg>
