<?xml version="1.0" encoding="UTF-8"?>
<!DOCTYPE svg PUBLIC "-//W3C//DTD SVG 1.1//EN" "http://www.w3.org/Graphics/SVG/1.1/DTD/svg11.dtd">
<svg xmlns="http://www.w3.org/2000/svg" version="1.1" width="512px" height="512px" style="shape-rendering:geometricPrecision; text-rendering:geometricPrecision; image-rendering:optimizeQuality; fill-rule:evenodd; clip-rule:evenodd" xmlns:xlink="http://www.w3.org/1999/xlink">
<g><path style="opacity:0.958" fill="#fca115" d="M 179.5,118.5 C 179.5,112.833 179.5,107.167 179.5,101.5C 192.946,100.723 206.279,101.89 219.5,105C 225.632,109.647 225.965,114.647 220.5,120C 218.966,120.923 217.299,121.423 215.5,121.5C 203.632,118.982 191.632,117.982 179.5,118.5 Z"/></g>
<g><path style="opacity:0.943" fill="#949235" d="M 325.5,101.5 C 326.167,107.167 326.833,112.833 327.5,118.5C 319.033,118.154 310.7,118.82 302.5,120.5C 302.822,114.642 302.489,108.975 301.5,103.5C 309.271,101.845 317.271,101.178 325.5,101.5 Z"/></g>
<g><path style="opacity:0.948" fill="#82903a" d="M 325.5,101.5 C 331.026,101.179 336.36,101.512 341.5,102.5C 340.512,107.64 340.179,112.974 340.5,118.5C 336.167,118.5 331.833,118.5 327.5,118.5C 326.833,112.833 326.167,107.167 325.5,101.5 Z"/></g>
<g><path style="opacity:0.977" fill="#ffb60d" d="M 179.5,101.5 C 179.5,107.167 179.5,112.833 179.5,118.5C 172.086,119.01 164.752,120.01 157.5,121.5C 157.789,115.409 157.455,109.409 156.5,103.5C 164.097,102.117 171.764,101.45 179.5,101.5 Z"/></g>
<g><path style="opacity:0.972" fill="#aa952e" d="M 301.5,103.5 C 302.489,108.975 302.822,114.642 302.5,120.5C 295.765,121.517 289.098,122.851 282.5,124.5C 282.144,118.923 281.144,113.59 279.5,108.5C 286.494,105.832 293.827,104.165 301.5,103.5 Z"/></g>
<g><path style="opacity:0.978" fill="#718f40" d="M 341.5,102.5 C 401.961,110.647 444.461,142.647 469,198.5C 489.19,254.175 481.524,305.508 446,352.5C 420.445,382.367 388.279,401.034 349.5,408.5C 347.621,403.13 346.955,397.463 347.5,391.5C 397.049,381.127 432.215,352.794 453,306.5C 473.586,245.678 460.42,193.511 413.5,150C 391.995,132.913 367.661,122.413 340.5,118.5C 340.179,112.974 340.512,107.64 341.5,102.5 Z"/></g>
<g><path style="opacity:0.961" fill="#ffc209" d="M 156.5,103.5 C 157.455,109.409 157.789,115.409 157.5,121.5C 151.307,122.548 145.307,124.214 139.5,126.5C 137.621,121.13 136.955,115.463 137.5,109.5C 143.52,106.741 149.853,104.741 156.5,103.5 Z"/></g>
<g><path style="opacity:0.984" fill="#bf9728" d="M 279.5,108.5 C 281.144,113.59 282.144,118.923 282.5,124.5C 279.613,126.083 276.613,127.583 273.5,129C 274.942,129.377 275.942,130.21 276.5,131.5C 276.829,145.344 276.496,159.01 275.5,172.5C 271.566,171.64 267.566,171.307 263.5,171.5C 263.5,152.5 263.5,133.5 263.5,114.5C 268.537,111.929 273.871,109.929 279.5,108.5 Z"/></g>
<g><path style="opacity:0.954" fill="#ffd004" d="M 137.5,109.5 C 136.955,115.463 137.621,121.13 139.5,126.5C 131.271,129.281 123.271,132.615 115.5,136.5C 115.5,130.5 115.5,124.5 115.5,118.5C 122.321,114.429 129.654,111.429 137.5,109.5 Z"/></g>
<g><path style="opacity:0.986" fill="#cf9824" d="M 263.5,114.5 C 263.5,133.5 263.5,152.5 263.5,171.5C 259.167,171.5 254.833,171.5 250.5,171.5C 250.83,154.658 250.497,137.992 249.5,121.5C 253.849,118.659 258.516,116.326 263.5,114.5 Z"/></g>
<g><path style="opacity:0.95" fill="#ffdd00" d="M 115.5,118.5 C 115.5,124.5 115.5,130.5 115.5,136.5C 66.0636,169.051 44.2302,215.051 50,274.5C 55.8388,313.876 74.6721,345.209 106.5,368.5C 105.833,374.5 105.167,380.5 104.5,386.5C 65.1363,361.914 41.303,326.581 33,280.5C 24.7324,214.894 47.5657,163.394 101.5,126C 106.062,123.22 110.728,120.72 115.5,118.5 Z"/></g>
<g><path style="opacity:0.988" fill="#db9a20" d="M 249.5,121.5 C 250.497,137.992 250.83,154.658 250.5,171.5C 246.5,171.5 242.5,171.5 238.5,171.5C 238.5,157.167 238.5,142.833 238.5,128.5C 241.65,125.421 245.317,123.087 249.5,121.5 Z"/></g>
<g><path style="opacity:0.992" fill="#e79b1c" d="M 238.5,128.5 C 238.5,142.833 238.5,157.167 238.5,171.5C 230.367,173.152 228.367,177.652 232.5,185C 234.677,186.202 237.011,186.702 239.5,186.5C 238.534,194.08 238.201,201.747 238.5,209.5C 234.167,209.5 229.833,209.5 225.5,209.5C 225.518,185.527 225.518,161.861 225.5,138.5C 229.258,134.408 233.591,131.074 238.5,128.5 Z"/></g>
<g><path style="opacity:0.989" fill="#b4962c" d="M 276.5,131.5 C 281.374,134.107 285.708,137.44 289.5,141.5C 290.156,164.858 289.49,187.858 287.5,210.5C 283.548,209.728 279.548,209.395 275.5,209.5C 276.467,201.586 276.801,193.586 276.5,185.5C 280.729,180.842 280.396,176.508 275.5,172.5C 276.496,159.01 276.829,145.344 276.5,131.5 Z"/></g>
<g><path style="opacity:0.992" fill="#ad952e" d="M 289.5,141.5 C 291.833,143.167 293.833,145.167 295.5,147.5C 295.167,219.335 295.501,291.002 296.5,362.5C 292.793,367.208 288.46,371.208 283.5,374.5C 282.502,350.339 282.169,326.006 282.5,301.5C 292.232,299.303 293.899,294.469 287.5,287C 283.848,286.501 280.182,286.335 276.5,286.5C 276.5,286.167 276.5,285.833 276.5,285.5C 278.5,285.5 280.5,285.5 282.5,285.5C 282.5,265.5 282.5,245.5 282.5,225.5C 280.265,225.795 278.265,225.461 276.5,224.5C 280.182,224.665 283.848,224.499 287.5,224C 292.807,219.375 292.807,214.875 287.5,210.5C 289.49,187.858 290.156,164.858 289.5,141.5 Z"/></g>
<g><path style="opacity:0.993" fill="#f29c19" d="M 225.5,138.5 C 225.518,161.861 225.518,185.527 225.5,209.5C 216.922,212.463 215.589,217.297 221.5,224C 224.482,224.498 227.482,224.665 230.5,224.5C 229.081,225.451 227.415,225.784 225.5,225.5C 225.5,245.5 225.5,265.5 225.5,285.5C 227.415,285.216 229.081,285.549 230.5,286.5C 227.482,286.335 224.482,286.502 221.5,287C 215.589,293.703 216.922,298.537 225.5,301.5C 225.5,325.167 225.5,348.833 225.5,372.5C 221.544,370.212 218.211,367.212 215.5,363.5C 215.833,291.665 215.499,219.998 214.5,148.5C 217.543,144.456 221.209,141.123 225.5,138.5 Z"/></g>
<g><path style="opacity:0.997" fill="#a59430" d="M 295.5,147.5 C 298.55,149.549 300.883,152.216 302.5,155.5C 302.168,222.002 302.501,288.335 303.5,354.5C 301.157,357.207 298.823,359.874 296.5,362.5C 295.501,291.002 295.167,219.335 295.5,147.5 Z"/></g>
<g><path style="opacity:0.994" fill="#fc9e16" d="M 214.5,148.5 C 215.499,219.998 215.833,291.665 215.5,363.5C 209.034,357.704 203.7,351.038 199.5,343.5C 199.5,284.5 199.5,225.5 199.5,166.5C 203.776,159.891 208.776,153.891 214.5,148.5 Z"/></g>
<g><path style="opacity:0.997" fill="#9e9332" d="M 302.5,155.5 C 304.89,156.891 306.557,158.891 307.5,161.5C 307.171,223.571 307.504,285.571 308.5,347.5C 307.214,350.117 305.547,352.45 303.5,354.5C 302.501,288.335 302.168,222.002 302.5,155.5 Z"/></g>
<g><path style="opacity:0.993" fill="#999333" d="M 307.5,161.5 C 310.888,164.597 313.555,168.264 315.5,172.5C 314.167,227.5 314.167,282.5 315.5,337.5C 313.646,341.221 311.313,344.554 308.5,347.5C 307.504,285.571 307.171,223.571 307.5,161.5 Z"/></g>
<g><path style="opacity:0.994" fill="#ffa513" d="M 199.5,166.5 C 199.5,225.5 199.5,284.5 199.5,343.5C 194.833,338.176 191.166,332.176 188.5,325.5C 189.833,278.833 189.833,232.167 188.5,185.5C 191.412,178.668 195.079,172.334 199.5,166.5 Z"/></g>
<g><path style="opacity:0.993" fill="#919236" d="M 315.5,172.5 C 320.515,179.19 324.515,186.523 327.5,194.5C 326.167,234.167 326.167,273.833 327.5,313.5C 324.535,322.097 320.535,330.097 315.5,337.5C 314.167,282.5 314.167,227.5 315.5,172.5 Z"/></g>
<g><path style="opacity:0.986" fill="#ffac10" d="M 188.5,185.5 C 189.833,232.167 189.833,278.833 188.5,325.5C 171.717,292.574 167.217,257.908 175,221.5C 177.852,208.764 182.352,196.764 188.5,185.5 Z"/></g>
<g><path style="opacity:0.955" fill="#d99a21" d="M 239.5,186.5 C 243.5,186.5 247.5,186.5 251.5,186.5C 250.534,194.08 250.201,201.747 250.5,209.5C 246.5,209.5 242.5,209.5 238.5,209.5C 238.201,201.747 238.534,194.08 239.5,186.5 Z"/></g>
<g><path style="opacity:1" fill="#c99825" d="M 276.5,185.5 C 276.801,193.586 276.467,201.586 275.5,209.5C 267.167,209.5 258.833,209.5 250.5,209.5C 250.201,201.747 250.534,194.08 251.5,186.5C 259.888,186.773 268.221,186.44 276.5,185.5 Z"/></g>
<g><path style="opacity:0.983" fill="#869139" d="M 327.5,194.5 C 343.493,234.252 343.493,273.919 327.5,313.5C 326.167,273.833 326.167,234.167 327.5,194.5 Z"/></g>
<g><path style="opacity:0.991" fill="#e79b1c" d="M 230.5,224.5 C 235.5,224.5 240.5,224.5 245.5,224.5C 243.393,225.468 241.059,225.802 238.5,225.5C 238.5,232.833 238.5,240.167 238.5,247.5C 231.021,249.124 228.855,253.458 232,260.5C 234.052,261.793 236.219,262.793 238.5,263.5C 238.5,270.833 238.5,278.167 238.5,285.5C 241.059,285.198 243.393,285.532 245.5,286.5C 240.5,286.5 235.5,286.5 230.5,286.5C 229.081,285.549 227.415,285.216 225.5,285.5C 225.5,265.5 225.5,245.5 225.5,225.5C 227.415,225.784 229.081,225.451 230.5,224.5 Z"/></g>
<g><path style="opacity:1" fill="#d99920" d="M 245.5,224.5 C 250.5,224.5 255.5,224.5 260.5,224.5C 260.5,224.833 260.5,225.167 260.5,225.5C 257.167,225.5 253.833,225.5 250.5,225.5C 250.5,232.833 250.5,240.167 250.5,247.5C 246.5,247.5 242.5,247.5 238.5,247.5C 238.5,240.167 238.5,232.833 238.5,225.5C 241.059,225.802 243.393,225.468 245.5,224.5 Z"/></g>
<g><path style="opacity:1" fill="#cc9824" d="M 260.5,225.5 C 261.5,225.5 262.5,225.5 263.5,225.5C 263.5,232.833 263.5,240.167 263.5,247.5C 259.167,247.5 254.833,247.5 250.5,247.5C 250.5,240.167 250.5,232.833 250.5,225.5C 253.833,225.5 257.167,225.5 260.5,225.5 Z"/></g>
<g><path style="opacity:0.988" fill="#bb972a" d="M 260.5,225.5 C 260.5,225.167 260.5,224.833 260.5,224.5C 265.833,224.5 271.167,224.5 276.5,224.5C 278.265,225.461 280.265,225.795 282.5,225.5C 282.5,245.5 282.5,265.5 282.5,285.5C 280.5,285.5 278.5,285.5 276.5,285.5C 276.5,277.5 276.5,269.5 276.5,261.5C 280.557,257.067 280.223,252.9 275.5,249C 271.582,247.844 267.582,247.344 263.5,247.5C 263.5,240.167 263.5,232.833 263.5,225.5C 262.5,225.5 261.5,225.5 260.5,225.5 Z"/></g>
<g><path style="opacity:1" fill="#d99920" d="M 238.5,263.5 C 242.5,263.5 246.5,263.5 250.5,263.5C 250.5,270.833 250.5,278.167 250.5,285.5C 254.042,285.187 257.375,285.521 260.5,286.5C 255.5,286.5 250.5,286.5 245.5,286.5C 243.393,285.532 241.059,285.198 238.5,285.5C 238.5,278.167 238.5,270.833 238.5,263.5 Z"/></g>
<g><path style="opacity:1" fill="#c59727" d="M 276.5,261.5 C 276.5,269.5 276.5,277.5 276.5,285.5C 276.5,285.833 276.5,286.167 276.5,286.5C 271.167,286.5 265.833,286.5 260.5,286.5C 257.375,285.521 254.042,285.187 250.5,285.5C 250.5,278.167 250.5,270.833 250.5,263.5C 259.324,264.002 267.991,263.336 276.5,261.5 Z"/></g>
<g><path style="opacity:0.955" fill="#d99a21" d="M 238.5,301.5 C 242.5,301.5 246.5,301.5 250.5,301.5C 250.201,309.253 250.534,316.92 251.5,324.5C 247.5,324.5 243.5,324.5 239.5,324.5C 238.534,316.92 238.201,309.253 238.5,301.5 Z"/></g>
<g><path style="opacity:0.98" fill="#bb9729" d="M 264.5,301.5 C 270.5,301.5 276.5,301.5 282.5,301.5C 282.169,326.006 282.502,350.339 283.5,374.5C 279.546,378.812 274.88,382.145 269.5,384.5C 268.875,369.258 269.541,354.258 271.5,339.5C 278.17,337.822 280.337,333.822 278,327.5C 277.097,326.299 275.931,325.465 274.5,325C 270.514,324.501 266.514,324.334 262.5,324.5C 263.167,316.833 263.833,309.167 264.5,301.5 Z"/></g>
<g><path style="opacity:0.992" fill="#e79b1c" d="M 225.5,301.5 C 229.833,301.5 234.167,301.5 238.5,301.5C 238.201,309.253 238.534,316.92 239.5,324.5C 231.902,324.334 229.069,328.001 231,335.5C 232.941,337.87 235.441,339.203 238.5,339.5C 238.829,353.677 238.496,367.677 237.5,381.5C 232.929,379.262 228.929,376.262 225.5,372.5C 225.5,348.833 225.5,325.167 225.5,301.5 Z"/></g>
<g><path style="opacity:1" fill="#cc9824" d="M 250.5,301.5 C 255.167,301.5 259.833,301.5 264.5,301.5C 263.833,309.167 263.167,316.833 262.5,324.5C 258.833,324.5 255.167,324.5 251.5,324.5C 250.534,316.92 250.201,309.253 250.5,301.5 Z"/></g>
<g><path style="opacity:0.988" fill="#d39922" d="M 245.5,339.5 C 249.167,339.5 252.833,339.5 256.5,339.5C 256.5,357.167 256.5,374.833 256.5,392.5C 252.813,395.01 248.813,397.01 244.5,398.5C 244.179,378.757 244.513,359.091 245.5,339.5 Z"/></g>
<g><path style="opacity:0.98" fill="#c69826" d="M 256.5,339.5 C 261.5,339.5 266.5,339.5 271.5,339.5C 269.541,354.258 268.875,369.258 269.5,384.5C 265.677,387.916 261.343,390.582 256.5,392.5C 256.5,374.833 256.5,357.167 256.5,339.5 Z"/></g>
<g><path style="opacity:0.998" fill="#de9a1f" d="M 238.5,339.5 C 240.833,339.5 243.167,339.5 245.5,339.5C 244.513,359.091 244.179,378.757 244.5,398.5C 240.298,400.234 235.965,401.567 231.5,402.5C 230.947,396.208 231.614,390.208 233.5,384.5C 235.076,383.857 236.41,382.857 237.5,381.5C 238.496,367.677 238.829,353.677 238.5,339.5 Z"/></g>
<g><path style="opacity:0.959" fill="#ffcf05" d="M 106.5,368.5 C 116.146,374.786 126.48,379.786 137.5,383.5C 137.823,389.69 137.49,395.69 136.5,401.5C 125.021,398.092 114.354,393.092 104.5,386.5C 105.167,380.5 105.833,374.5 106.5,368.5 Z"/></g>
<g><path style="opacity:0.961" fill="#ffc009" d="M 137.5,383.5 C 143.972,386.101 150.638,388.101 157.5,389.5C 157.822,395.358 157.489,401.025 156.5,406.5C 149.497,405.749 142.83,404.083 136.5,401.5C 137.49,395.69 137.823,389.69 137.5,383.5 Z"/></g>
<g><path style="opacity:0.967" fill="#ee9c1a" d="M 233.5,384.5 C 231.614,390.208 230.947,396.208 231.5,402.5C 226.497,404.706 221.164,406.039 215.5,406.5C 215.5,400.833 215.5,395.167 215.5,389.5C 221.501,387.833 227.501,386.166 233.5,384.5 Z"/></g>
<g><path style="opacity:0.977" fill="#a7942f" d="M 302.5,390.5 C 302.5,396.5 302.5,402.5 302.5,408.5C 297.348,407.568 292.348,406.068 287.5,404C 285.066,400.284 284.899,396.451 287,392.5C 287.903,391.299 289.069,390.465 290.5,390C 294.524,389.503 298.524,389.669 302.5,390.5 Z"/></g>
<g><path style="opacity:0.957" fill="#ffb40e" d="M 157.5,389.5 C 164.733,391.15 172.066,392.15 179.5,392.5C 179.5,398.167 179.5,403.833 179.5,409.5C 171.56,409.55 163.894,408.55 156.5,406.5C 157.489,401.025 157.822,395.358 157.5,389.5 Z"/></g>
<g><path style="opacity:0.952" fill="#fea413" d="M 215.5,389.5 C 215.5,395.167 215.5,400.833 215.5,406.5C 203.679,409.017 191.679,410.017 179.5,409.5C 179.5,403.833 179.5,398.167 179.5,392.5C 191.645,393.018 203.645,392.018 215.5,389.5 Z"/></g>
<g><path style="opacity:0.954" fill="#949235" d="M 302.5,390.5 C 310.7,392.18 319.033,392.846 327.5,392.5C 326.548,398.075 326.214,403.741 326.5,409.5C 318.475,409.61 310.475,409.276 302.5,408.5C 302.5,402.5 302.5,396.5 302.5,390.5 Z"/></g>
<g><path style="opacity:0.974" fill="#7f903b" d="M 347.5,391.5 C 346.955,397.463 347.621,403.13 349.5,408.5C 341.925,408.882 334.425,409.548 327,410.5C 326.601,410.272 326.435,409.938 326.5,409.5C 326.214,403.741 326.548,398.075 327.5,392.5C 334.186,392.473 340.852,392.139 347.5,391.5 Z"/></g>
</svg>
