<?xml version="1.0" encoding="UTF-8"?>
<!DOCTYPE svg PUBLIC "-//W3C//DTD SVG 1.1//EN" "http://www.w3.org/Graphics/SVG/1.1/DTD/svg11.dtd">
<svg xmlns="http://www.w3.org/2000/svg" version="1.1" width="512px" height="512px" style="shape-rendering:geometricPrecision; text-rendering:geometricPrecision; image-rendering:optimizeQuality; fill-rule:evenodd; clip-rule:evenodd" xmlns:xlink="http://www.w3.org/1999/xlink">
<g><path style="opacity:1" fill="#ff9d2c" d="M 270.5,82.5 C 260.5,82.5 250.5,82.5 240.5,82.5C 243.033,74.0675 245.866,65.7342 249,57.5C 253.333,54.8333 257.667,54.8333 262,57.5C 265.295,65.6832 268.129,74.0165 270.5,82.5 Z"/></g>
<g><path style="opacity:0.667" fill="#ff3738" d="M 238.5,87.5 C 228.675,88.3302 218.675,88.8302 208.5,89C 207.584,89.3742 206.75,89.8742 206,90.5C 205.601,90.2716 205.435,89.9382 205.5,89.5C 205.918,88.7784 206.584,88.2784 207.5,88C 217.828,87.5002 228.161,87.3335 238.5,87.5 Z"/></g>
<g><path style="opacity:1" fill="#ffa52b" d="M 240.5,82.5 C 250.5,82.5 260.5,82.5 270.5,82.5C 271.234,83.7079 271.567,85.0413 271.5,86.5C 276.119,87.8275 281.119,88.4942 286.5,88.5C 291.678,88.4993 296.678,88.166 301.5,87.5C 308.61,90.0613 310.277,94.728 306.5,101.5C 300.074,106.606 293.407,111.273 286.5,115.5C 278.889,114.924 271.556,115.59 264.5,117.5C 264.424,111.714 267.09,107.547 272.5,105C 268.309,104.926 264.309,104.093 260.5,102.5C 258.454,99.367 256.788,96.0337 255.5,92.5C 254.212,96.0337 252.546,99.367 250.5,102.5C 246.691,104.093 242.691,104.926 238.5,105C 241.666,107 244.332,109.5 246.5,112.5C 245.596,113.209 245.263,114.209 245.5,115.5C 239.158,115.334 232.825,115.5 226.5,116C 227.056,116.383 227.389,116.883 227.5,117.5C 227.5,117.833 227.5,118.167 227.5,118.5C 219.685,113.086 212.018,107.42 204.5,101.5C 201.578,97.0841 201.911,93.0841 205.5,89.5C 205.435,89.9382 205.601,90.2716 206,90.5C 206.75,89.8742 207.584,89.3742 208.5,89C 218.675,88.8302 228.675,88.3302 238.5,87.5C 239.167,85.8333 239.833,84.1667 240.5,82.5 Z"/></g>
<g><path style="opacity:0.667" fill="#fe2625" d="M 271.5,86.5 C 281.418,87.4741 291.418,87.8074 301.5,87.5C 296.678,88.166 291.678,88.4993 286.5,88.5C 281.119,88.4942 276.119,87.8275 271.5,86.5 Z"/></g>
<g><path style="opacity:1" fill="#ffa637" d="M 142.5,118.5 C 140.952,118.179 140.285,117.179 140.5,115.5C 131.235,114.905 122.235,115.572 113.5,117.5C 115.228,109.591 117.728,101.925 121,94.5C 125.333,90.5 129.667,90.5 134,94.5C 137.143,102.413 139.976,110.413 142.5,118.5 Z"/></g>
<g><path style="opacity:1" fill="#ffa936" d="M 398.5,120.5 C 388.76,118.564 378.76,117.898 368.5,118.5C 371.229,110.479 374.063,102.479 377,94.5C 381.333,90.5 385.667,90.5 390,94.5C 393.739,102.883 396.572,111.55 398.5,120.5 Z"/></g>
<g><path style="opacity:1" fill="#ffad39" d="M 142.5,118.5 C 142.869,120.441 143.536,122.275 144.5,124C 154.833,124.333 165.167,124.667 175.5,125C 178.789,126.41 180.456,128.91 180.5,132.5C 163.402,131.176 146.402,131.176 129.5,132.5C 128.596,131.791 128.263,130.791 128.5,129.5C 127.474,123.932 126.474,124.265 125.5,130.5C 108.262,129.87 91.2619,130.536 74.5,132.5C 74.7076,127.96 77.0409,125.293 81.5,124.5C 91.3247,125.658 101.325,125.825 111.5,125C 112.26,123.559 112.926,122.059 113.5,120.5C 113.376,119.893 113.043,119.56 112.5,119.5C 112.328,118.508 112.662,117.842 113.5,117.5C 122.235,115.572 131.235,114.905 140.5,115.5C 140.285,117.179 140.952,118.179 142.5,118.5 Z"/></g>
<g><path style="opacity:0.999" fill="#ffaf3b" d="M 245.5,115.5 C 245.117,119.319 244.117,122.986 242.5,126.5C 243.86,127.665 244.86,127.332 245.5,125.5C 252.21,117.522 259.043,117.522 266,125.5C 265.641,122.888 265.141,120.221 264.5,117.5C 271.556,115.59 278.889,114.924 286.5,115.5C 285.521,117.145 284.188,118.479 282.5,119.5C 284.242,123.725 285.576,128.059 286.5,132.5C 266.4,130.53 246.066,129.863 225.5,130.5C 225.598,132.553 224.931,134.22 223.5,135.5C 224.297,131.777 225.297,128.11 226.5,124.5C 228.405,123.536 229.405,121.869 229.5,119.5C 229.253,118.287 228.586,117.62 227.5,117.5C 227.389,116.883 227.056,116.383 226.5,116C 232.825,115.5 239.158,115.334 245.5,115.5 Z"/></g>
<g><path style="opacity:1" fill="#ffb137" d="M 368.5,118.5 C 378.76,117.898 388.76,118.564 398.5,120.5C 399.338,120.842 399.672,121.508 399.5,122.5C 398.226,123.189 398.226,124.023 399.5,125C 409.675,125.825 419.675,125.658 429.5,124.5C 433.5,125.167 435.833,127.5 436.5,131.5C 419.167,131.5 401.833,131.5 384.5,131.5C 384.631,130.624 384.298,129.957 383.5,129.5C 382.824,130.602 382.158,131.602 381.5,132.5C 365.2,130.515 348.534,129.848 331.5,130.5C 331.674,132.861 332.007,135.194 332.5,137.5C 329.269,132.407 330.269,128.241 335.5,125C 336.793,124.51 338.127,124.343 339.5,124.5C 348.657,125.658 357.991,125.824 367.5,125C 368.738,124.31 368.738,123.81 367.5,123.5C 367.629,121.784 367.962,120.117 368.5,118.5 Z"/></g>
<g><path style="opacity:0.992" fill="#ff4eb0" d="M 227.5,118.5 C 227.5,118.167 227.5,117.833 227.5,117.5C 228.586,117.62 229.253,118.287 229.5,119.5C 229.405,121.869 228.405,123.536 226.5,124.5C 227.159,122.862 227.826,121.195 228.5,119.5C 228.376,118.893 228.043,118.56 227.5,118.5 Z"/></g>
<g><path style="opacity:0.729" fill="#ff718b" d="M 246.5,112.5 C 246.812,116.675 246.145,120.675 244.5,124.5C 244.624,125.107 244.957,125.44 245.5,125.5C 244.86,127.332 243.86,127.665 242.5,126.5C 244.117,122.986 245.117,119.319 245.5,115.5C 245.263,114.209 245.596,113.209 246.5,112.5 Z"/></g>
<g><path style="opacity:0.733" fill="#ff558c" d="M 112.5,119.5 C 113.043,119.56 113.376,119.893 113.5,120.5C 112.926,122.059 112.26,123.559 111.5,125C 101.325,125.825 91.3247,125.658 81.5,124.5C 91.1724,124.666 100.839,124.5 110.5,124C 111.267,122.53 111.933,121.03 112.5,119.5 Z"/></g>
<g><path style="opacity:0.733" fill="#ff6090" d="M 367.5,123.5 C 368.738,123.81 368.738,124.31 367.5,125C 357.991,125.824 348.657,125.658 339.5,124.5C 348.917,124.805 358.25,124.472 367.5,123.5 Z"/></g>
<g><path style="opacity:0.733" fill="#fe5392" d="M 399.5,122.5 C 399.611,123.117 399.944,123.617 400.5,124C 410.161,124.5 419.828,124.666 429.5,124.5C 419.675,125.658 409.675,125.825 399.5,125C 398.226,124.023 398.226,123.189 399.5,122.5 Z"/></g>
<g><path style="opacity:0.118" fill="#ff488f" d="M 128.5,129.5 C 127.508,129.328 126.842,129.662 126.5,130.5C 126.167,130.5 125.833,130.5 125.5,130.5C 126.474,124.265 127.474,123.932 128.5,129.5 Z"/></g>
<g><path style="opacity:1" fill="#ffb63b" d="M 125.5,130.5 C 125.833,130.5 126.167,130.5 126.5,130.5C 126.017,135.814 123.351,139.48 118.5,141.5C 115.313,140.194 111.98,140.194 108.5,141.5C 108.709,142.086 109.043,142.586 109.5,143C 101.323,143.171 93.3228,143.671 85.5,144.5C 79.7277,142.396 76.061,138.396 74.5,132.5C 91.2619,130.536 108.262,129.87 125.5,130.5 Z"/></g>
<g><path style="opacity:1" fill="#ffb43d" d="M 180.5,132.5 C 178.939,138.396 175.272,142.396 169.5,144.5C 160.548,145.611 151.548,145.777 142.5,145C 143.056,144.617 143.389,144.117 143.5,143.5C 143.611,142.883 143.944,142.383 144.5,142C 140.309,141.926 136.309,141.093 132.5,139.5C 130.673,137.513 129.673,135.179 129.5,132.5C 146.402,131.176 163.402,131.176 180.5,132.5 Z"/></g>
<g><path style="opacity:1" fill="#ffb743" d="M 286.5,132.5 C 289.73,138.371 291.23,144.704 291,151.5C 287.634,156.609 283.134,157.776 277.5,155C 270.302,149.574 262.969,144.408 255.5,139.5C 248.031,144.408 240.698,149.574 233.5,155C 225.756,158.462 221.09,156.129 219.5,148C 220.163,143.514 221.497,139.347 223.5,135.5C 224.931,134.22 225.598,132.553 225.5,130.5C 246.066,129.863 266.4,130.53 286.5,132.5 Z"/></g>
<g><path style="opacity:1" fill="#ffb63e" d="M 381.5,132.5 C 381.333,136.179 379.666,138.846 376.5,140.5C 373.082,140.296 369.416,140.296 365.5,140.5C 365.285,142.179 365.952,143.179 367.5,143.5C 374.521,146.63 376.521,151.63 373.5,158.5C 372.226,157.811 372.226,156.977 373.5,156C 368.177,155.501 362.844,155.334 357.5,155.5C 357.598,157.553 356.931,159.22 355.5,160.5C 355.421,159.07 355.754,157.736 356.5,156.5C 348.067,150.629 340.067,144.295 332.5,137.5C 332.007,135.194 331.674,132.861 331.5,130.5C 348.534,129.848 365.2,130.515 381.5,132.5 Z"/></g>
<g><path style="opacity:1" fill="#ffb442" d="M 384.5,131.5 C 401.833,131.5 419.167,131.5 436.5,131.5C 436.623,134.588 435.623,137.255 433.5,139.5C 425.95,145.099 418.283,150.433 410.5,155.5C 404.409,155.211 398.409,155.545 392.5,156.5C 392.336,153.813 392.503,151.146 393,148.5C 395.205,145.96 397.705,143.793 400.5,142C 391.924,143.223 386.59,139.723 384.5,131.5 Z"/></g>
<g><path style="opacity:0.267" fill="#ff5385" d="M 376.5,140.5 C 373.253,141.252 369.919,141.752 366.5,142C 367.056,142.383 367.389,142.883 367.5,143.5C 367.389,142.883 367.056,142.383 366.5,142C 369.919,141.752 373.253,141.252 376.5,140.5 Z"/></g>
<g><path style="opacity:1" fill="#ffb44b" d="M 118.5,141.5 C 115.813,141.336 113.146,141.503 110.5,142C 118.768,146.482 120.768,152.982 116.5,161.5C 111.431,159.3 106.098,158.967 100.5,160.5C 99.6279,162.45 98.9612,164.45 98.5,166.5C 98.1667,166.5 97.8333,166.5 97.5,166.5C 98.0906,163.06 99.0906,159.727 100.5,156.5C 95.4566,152.446 90.4566,148.446 85.5,144.5C 93.3228,143.671 101.323,143.171 109.5,143C 109.043,142.586 108.709,142.086 108.5,141.5C 111.98,140.194 115.313,140.194 118.5,141.5 Z"/></g>
<g><path style="opacity:0.998" fill="#ffba4e" d="M 143.5,143.5 C 143.389,144.117 143.056,144.617 142.5,145C 151.548,145.777 160.548,145.611 169.5,144.5C 164.543,148.446 159.543,152.446 154.5,156.5C 156.242,160.725 157.576,165.059 158.5,169.5C 157.733,168.828 157.066,167.995 156.5,167C 137.17,166.5 117.836,166.333 98.5,166.5C 98.9612,164.45 99.6279,162.45 100.5,160.5C 106.098,158.967 111.431,159.3 116.5,161.5C 116.435,161.938 116.601,162.272 117,162.5C 124,154.5 131,154.5 138,162.5C 137.511,159.176 136.677,155.843 135.5,152.5C 136.447,147.891 139.113,144.891 143.5,143.5 Z"/></g>
<g><path style="opacity:1" fill="#ffbf48" d="M 373.5,158.5 C 371.81,162.512 372.477,163.178 375.5,160.5C 375.435,160.938 375.601,161.272 376,161.5C 380.014,157.201 384.514,156.534 389.5,159.5C 391.167,160.167 392.833,160.833 394.5,161.5C 393.105,162.648 393.272,163.648 395,164.5C 395.826,161.788 395.326,159.455 393.5,157.5C 392.833,157.5 392.5,157.167 392.5,156.5C 398.409,155.545 404.409,155.211 410.5,155.5C 411.038,157.117 411.371,158.784 411.5,160.5C 411.517,162.565 411.85,164.565 412.5,166.5C 393.164,166.333 373.83,166.5 354.5,167C 354.026,168.729 353.026,169.895 351.5,170.5C 352.657,167.016 353.99,163.683 355.5,160.5C 356.931,159.22 357.598,157.553 357.5,155.5C 362.844,155.334 368.177,155.501 373.5,156C 372.226,156.977 372.226,157.811 373.5,158.5 Z"/></g>
<g><path style="opacity:0.949" fill="#ff7da0" d="M 389.5,159.5 C 384.514,156.534 380.014,157.201 376,161.5C 375.601,161.272 375.435,160.938 375.5,160.5C 379.957,155.75 384.624,155.417 389.5,159.5 Z"/></g>
<g><path style="opacity:0.976" fill="#ff84cb" d="M 393.5,157.5 C 395.326,159.455 395.826,161.788 395,164.5C 393.272,163.648 393.105,162.648 394.5,161.5C 393.766,160.292 393.433,158.959 393.5,157.5 Z"/></g>
<g><path style="opacity:1" fill="#ffc450" d="M 97.5,166.5 C 97.8333,166.5 98.1667,166.5 98.5,166.5C 117.836,166.333 137.17,166.5 156.5,167C 157.066,167.995 157.733,168.828 158.5,169.5C 160.837,174.346 162.503,179.513 163.5,185C 161.91,193.129 157.244,195.462 149.5,192C 142.302,186.574 134.969,181.408 127.5,176.5C 120.031,181.408 112.698,186.574 105.5,192C 97.7564,195.462 93.0898,193.129 91.5,185C 92.8299,178.513 94.8299,172.346 97.5,166.5 Z"/></g>
<g><path style="opacity:1" fill="#ffc450" d="M 412.5,166.5 C 413.462,169.739 414.795,172.739 416.5,175.5C 419.572,180.187 420.072,185.187 418,190.5C 414.205,193.803 410.038,194.303 405.5,192C 398.302,186.574 390.969,181.408 383.5,176.5C 376.031,181.408 368.698,186.574 361.5,192C 351.426,195.553 346.926,192.053 348,181.5C 349.274,177.846 350.44,174.18 351.5,170.5C 353.026,169.895 354.026,168.729 354.5,167C 373.83,166.5 393.164,166.333 412.5,166.5 Z"/></g>
<g><path style="opacity:0.98" fill="#ff8695" d="M 411.5,160.5 C 413.739,165.216 415.405,170.216 416.5,175.5C 414.795,172.739 413.462,169.739 412.5,166.5C 411.85,164.565 411.517,162.565 411.5,160.5 Z"/></g>
<g><path style="opacity:1" fill="#779c71" d="M 316.5,235.5 C 298.833,234.167 281.167,232.833 263.5,231.5C 262.553,226.777 263.886,222.944 267.5,220C 280.167,219.333 292.833,219.333 305.5,220C 312.499,222.828 316.165,227.994 316.5,235.5 Z"/></g>
<g><path style="opacity:1" fill="#759c6f" d="M 248.5,230.5 C 231.167,230.5 213.833,230.5 196.5,230.5C 196.5,226.833 196.5,223.167 196.5,219.5C 210.504,219.333 224.504,219.5 238.5,220C 243.978,221.456 247.312,224.956 248.5,230.5 Z"/></g>
<g><path style="opacity:1" fill="#749e6f" d="M 182.5,227.5 C 180.896,228.287 180.229,229.62 180.5,231.5C 163.423,231.818 146.423,231.485 129.5,230.5C 128.618,226.091 129.952,222.591 133.5,220C 148.167,219.333 162.833,219.333 177.5,220C 180.708,221.437 182.375,223.937 182.5,227.5 Z"/></g>
<g><path style="opacity:1" fill="#759f72" d="M 377.5,229.5 C 376.262,229.81 376.262,230.31 377.5,231C 360.503,231.5 343.503,231.667 326.5,231.5C 326.768,229.901 326.434,228.568 325.5,227.5C 326.055,224.213 327.722,221.713 330.5,220C 343.167,219.333 355.833,219.333 368.5,220C 373.079,221.744 376.079,224.91 377.5,229.5 Z"/></g>
<g><path style="opacity:1" fill="#74a88f" d="M 377.5,229.5 C 378.477,232.287 378.81,235.287 378.5,238.5C 377.532,240.607 377.198,242.941 377.5,245.5C 372.5,245.5 367.5,245.5 362.5,245.5C 362.813,241.958 362.479,238.625 361.5,235.5C 355.167,235.5 348.833,235.5 342.5,235.5C 342.5,236.5 342.5,237.5 342.5,238.5C 341.532,240.607 341.198,242.941 341.5,245.5C 336.5,245.5 331.5,245.5 326.5,245.5C 326.5,240.833 326.5,236.167 326.5,231.5C 343.503,231.667 360.503,231.5 377.5,231C 376.262,230.31 376.262,229.81 377.5,229.5 Z"/></g>
<g><path style="opacity:1" fill="#75a690" d="M 182.5,227.5 C 182.375,231.063 180.708,233.563 177.5,235C 167.172,235.5 156.839,235.666 146.5,235.5C 146.5,236.5 146.5,237.5 146.5,238.5C 145.523,241.287 145.19,244.287 145.5,247.5C 139.865,248.037 134.532,247.37 129.5,245.5C 129.5,240.5 129.5,235.5 129.5,230.5C 146.423,231.485 163.423,231.818 180.5,231.5C 180.229,229.62 180.896,228.287 182.5,227.5 Z"/></g>
<g><path style="opacity:1" fill="#72a38c" d="M 196.5,230.5 C 213.833,230.5 231.167,230.5 248.5,230.5C 249.491,236.979 249.824,243.646 249.5,250.5C 248.549,249.081 248.216,247.415 248.5,245.5C 243.5,245.5 238.5,245.5 233.5,245.5C 233.768,247.099 233.434,248.432 232.5,249.5C 232.5,244.833 232.5,240.167 232.5,235.5C 226.167,235.5 219.833,235.5 213.5,235.5C 213.5,237.833 213.5,240.167 213.5,242.5C 207.62,244.132 201.954,243.798 196.5,241.5C 196.5,237.833 196.5,234.167 196.5,230.5 Z"/></g>
<g><path style="opacity:1" fill="#80aa92" d="M 263.5,231.5 C 281.167,232.833 298.833,234.167 316.5,235.5C 316.821,240.695 316.487,245.695 315.5,250.5C 315.285,248.477 315.285,246.144 315.5,243.5C 310.167,243.5 304.833,243.5 299.5,243.5C 299.5,240.833 299.5,238.167 299.5,235.5C 293.167,235.5 286.833,235.5 280.5,235.5C 280.5,239.5 280.5,243.5 280.5,247.5C 279.566,246.432 279.232,245.099 279.5,243.5C 274.167,243.5 268.833,243.5 263.5,243.5C 263.5,239.5 263.5,235.5 263.5,231.5 Z M 299.5,243.5 C 299.5,244.833 299.5,246.167 299.5,247.5C 293.167,247.5 286.833,247.5 280.5,247.5C 280.5,243.5 280.5,239.5 280.5,235.5C 286.833,235.5 293.167,235.5 299.5,235.5C 299.5,238.167 299.5,240.833 299.5,243.5 Z"/></g>
<g><path style="opacity:1" fill="#85b3b8" d="M 196.5,241.5 C 201.954,243.798 207.62,244.132 213.5,242.5C 213.5,252.167 213.5,261.833 213.5,271.5C 212.523,268.713 212.19,265.713 212.5,262.5C 207.073,262.218 201.74,262.551 196.5,263.5C 196.5,256.167 196.5,248.833 196.5,241.5 Z"/></g>
<g><path style="opacity:1" fill="#86b6bb" d="M 249.5,250.5 C 249.5,257.5 249.5,264.5 249.5,271.5C 248.523,268.713 248.19,265.713 248.5,262.5C 243.073,262.218 237.74,262.551 232.5,263.5C 232.5,258.833 232.5,254.167 232.5,249.5C 233.434,248.432 233.768,247.099 233.5,245.5C 238.5,245.5 243.5,245.5 248.5,245.5C 248.216,247.415 248.549,249.081 249.5,250.5 Z"/></g>
<g><path style="opacity:1" fill="#82b9c0" d="M 325.5,227.5 C 326.434,228.568 326.768,229.901 326.5,231.5C 326.5,236.167 326.5,240.833 326.5,245.5C 331.5,245.5 336.5,245.5 341.5,245.5C 341.198,242.941 341.532,240.607 342.5,238.5C 342.5,241.5 342.5,244.5 342.5,247.5C 348.833,247.5 355.167,247.5 361.5,247.5C 361.5,243.5 361.5,239.5 361.5,235.5C 362.479,238.625 362.813,241.958 362.5,245.5C 367.5,245.5 372.5,245.5 377.5,245.5C 377.198,242.941 377.532,240.607 378.5,238.5C 380.96,249.035 377.96,257.368 369.5,263.5C 368.226,262.811 368.226,261.977 369.5,261C 355.171,260.5 340.837,260.333 326.5,260.5C 326.5,268.5 326.5,276.5 326.5,284.5C 325.503,265.674 325.17,246.674 325.5,227.5 Z M 361.5,235.5 C 361.5,239.5 361.5,243.5 361.5,247.5C 355.167,247.5 348.833,247.5 342.5,247.5C 342.5,244.5 342.5,241.5 342.5,238.5C 342.5,237.5 342.5,236.5 342.5,235.5C 348.833,235.5 355.167,235.5 361.5,235.5 Z"/></g>
<g><path style="opacity:1" fill="#79b4b8" d="M 263.5,243.5 C 268.833,243.5 274.167,243.5 279.5,243.5C 279.232,245.099 279.566,246.432 280.5,247.5C 286.833,247.5 293.167,247.5 299.5,247.5C 299.5,246.167 299.5,244.833 299.5,243.5C 304.833,243.5 310.167,243.5 315.5,243.5C 315.285,246.144 315.285,248.477 315.5,250.5C 315.741,254.019 314.407,256.685 311.5,258.5C 296.202,256.516 280.536,255.849 264.5,256.5C 264.737,257.791 264.404,258.791 263.5,259.5C 263.5,254.167 263.5,248.833 263.5,243.5 Z"/></g>
<g><path style="opacity:1" fill="#7cb9c7" d="M 182.5,260.5 C 181.566,261.568 181.232,262.901 181.5,264.5C 176.167,264.5 170.833,264.5 165.5,264.5C 163.052,263.527 160.385,263.194 157.5,263.5C 157.5,258.167 157.5,252.833 157.5,247.5C 164.947,247.071 172.281,247.571 179.5,249C 182.013,252.377 183.013,256.21 182.5,260.5 Z"/></g>
<g><path style="opacity:1" fill="#7abcd9" d="M 369.5,263.5 C 373.557,268.59 377.39,273.923 381,279.5C 382.5,288.667 378.667,292.5 369.5,291C 368.069,290.535 366.903,289.701 366,288.5C 360.5,280.333 355,272.167 349.5,264C 347.19,263.503 344.857,263.337 342.5,263.5C 342.941,272.276 342.441,280.942 341,289.5C 336.667,292.167 332.333,292.167 328,289.5C 326.991,287.975 326.491,286.308 326.5,284.5C 326.5,276.5 326.5,268.5 326.5,260.5C 340.837,260.333 355.171,260.5 369.5,261C 368.226,261.977 368.226,262.811 369.5,263.5 Z"/></g>
<g><path style="opacity:1" fill="#7ab8d7" d="M 146.5,238.5 C 146.5,250.833 146.5,263.167 146.5,275.5C 152.833,275.5 159.167,275.5 165.5,275.5C 165.5,271.833 165.5,268.167 165.5,264.5C 170.833,264.5 176.167,264.5 181.5,264.5C 181.232,262.901 181.566,261.568 182.5,260.5C 182.5,268.167 182.5,275.833 182.5,283.5C 164.833,283.5 147.167,283.5 129.5,283.5C 129.5,270.833 129.5,258.167 129.5,245.5C 134.532,247.37 139.865,248.037 145.5,247.5C 145.19,244.287 145.523,241.287 146.5,238.5 Z"/></g>
<g><path style="opacity:0.998" fill="#75bde3" d="M 213.5,271.5 C 213.5,272.833 213.5,274.167 213.5,275.5C 219.833,275.5 226.167,275.5 232.5,275.5C 232.5,271.5 232.5,267.5 232.5,263.5C 237.74,262.551 243.073,262.218 248.5,262.5C 248.19,265.713 248.523,268.713 249.5,271.5C 249.81,274.713 249.477,277.713 248.5,280.5C 247.522,280.811 246.855,281.478 246.5,282.5C 230.18,283.499 213.847,283.833 197.5,283.5C 197.784,285.415 197.451,287.081 196.5,288.5C 196.5,280.167 196.5,271.833 196.5,263.5C 201.74,262.551 207.073,262.218 212.5,262.5C 212.19,265.713 212.523,268.713 213.5,271.5 Z"/></g>
<g><path style="opacity:1" fill="#81b9d7" d="M 311.5,258.5 C 310.106,260.708 308.106,262.208 305.5,263C 297.173,263.5 288.84,263.666 280.5,263.5C 280.906,271.917 280.406,280.251 279,288.5C 273.643,292.787 268.643,292.453 264,287.5C 263.5,278.173 263.334,268.839 263.5,259.5C 264.404,258.791 264.737,257.791 264.5,256.5C 280.536,255.849 296.202,256.516 311.5,258.5 Z"/></g>
<g><path style="opacity:1" fill="#76b5db" d="M 129.5,283.5 C 147.167,283.5 164.833,283.5 182.5,283.5C 182.375,287.063 180.708,289.563 177.5,291C 162.833,291.667 148.167,291.667 133.5,291C 130.603,289.285 129.269,286.785 129.5,283.5 Z"/></g>
<g><path style="opacity:0.998" fill="#76b5da" d="M 248.5,280.5 C 247.054,285.78 243.721,289.28 238.5,291C 224.504,291.5 210.504,291.667 196.5,291.5C 196.5,290.5 196.5,289.5 196.5,288.5C 197.451,287.081 197.784,285.415 197.5,283.5C 213.847,283.833 230.18,283.499 246.5,282.5C 246.855,281.478 247.522,280.811 248.5,280.5 Z"/></g>
<g><path style="opacity:1" fill="#6ca0c7" d="M 149.5,333.5 C 141.245,334.303 132.911,334.803 124.5,335C 123.947,336.878 122.947,338.378 121.5,339.5C 123.56,332.82 125.726,326.153 128,319.5C 130.354,313.905 134.521,312.072 140.5,314C 141.667,315.167 142.833,316.333 144,317.5C 145.744,322.899 147.577,328.232 149.5,333.5 Z"/></g>
<g><path style="opacity:1" fill="#679cc8" d="M 391.5,344.5 C 380.704,343.877 370.037,343.21 359.5,342.5C 361.487,334.036 363.987,325.702 367,317.5C 371.053,312.992 375.72,312.326 381,315.5C 384.804,325.081 388.304,334.747 391.5,344.5 Z"/></g>
<g><path style="opacity:0.533" fill="#988e50" d="M 119.5,345.5 C 110.245,346.344 100.245,346.844 89.5,347C 88.255,347.791 86.9217,348.291 85.5,348.5C 86.0577,347.21 87.0577,346.377 88.5,346C 98.828,345.5 109.161,345.334 119.5,345.5 Z"/></g>
<g><path style="opacity:1" fill="#5f95c3" d="M 149.5,333.5 C 150.91,337.397 151.91,341.397 152.5,345.5C 163.172,345.333 173.839,345.5 184.5,346C 186.928,347.018 188.262,348.852 188.5,351.5C 171.194,351.474 154.194,351.474 137.5,351.5C 136.833,351.5 136.5,351.167 136.5,350.5C 119.349,351.765 102.015,351.765 84.5,350.5C 84.3284,349.508 84.6618,348.842 85.5,348.5C 86.9217,348.291 88.255,347.791 89.5,347C 100.245,346.844 110.245,346.344 119.5,345.5C 120.363,343.579 121.029,341.579 121.5,339.5C 122.947,338.378 123.947,336.878 124.5,335C 132.911,334.803 141.245,334.303 149.5,333.5 Z"/></g>
<g><path style="opacity:1" fill="#6092bf" d="M 359.5,342.5 C 370.037,343.21 380.704,343.877 391.5,344.5C 401.659,345.33 411.992,345.83 422.5,346C 427.237,348.748 428.57,352.582 426.5,357.5C 410.486,357.833 394.486,357.499 378.5,356.5C 377.766,353.653 376.766,351.653 375.5,350.5C 373.794,352.612 372.461,354.945 371.5,357.5C 371.565,357.062 371.399,356.728 371,356.5C 355.167,357.174 339.334,357.841 323.5,358.5C 320.467,353.512 321.467,349.346 326.5,346C 337.161,345.5 347.828,345.333 358.5,345.5C 358.263,344.209 358.596,343.209 359.5,342.5 Z"/></g>
<g><path style="opacity:0.982" fill="#5d8cbd" d="M 136.5,350.5 C 135.23,353.94 133.564,357.273 131.5,360.5C 127.691,362.093 123.691,362.926 119.5,363C 122.28,364.812 124.78,366.979 127,369.5C 127.494,371.134 127.66,372.801 127.5,374.5C 121.785,376.55 115.785,377.05 109.5,376C 108.744,374.62 108.078,374.453 107.5,375.5C 99.8791,370.386 92.3791,365.053 85,359.5C 83.3367,356.44 83.1701,353.44 84.5,350.5C 102.015,351.765 119.349,351.765 136.5,350.5 Z"/></g>
<g><path style="opacity:0.984" fill="#5e8cbe" d="M 188.5,351.5 C 189.776,354.185 189.442,356.852 187.5,359.5C 180.011,365.411 172.345,371.077 164.5,376.5C 163.948,378.003 163.948,379.669 164.5,381.5C 158.591,380.545 152.591,380.211 146.5,380.5C 145.197,377.624 144.697,374.624 145,371.5C 147.167,368 150,365.167 153.5,363C 143.934,364.739 138.6,360.905 137.5,351.5C 154.194,351.474 171.194,351.474 188.5,351.5 Z"/></g>
<g><path style="opacity:1" fill="#6087b6" d="M 267.5,373.5 C 259.684,374.492 251.684,374.826 243.5,374.5C 243.598,376.553 242.931,378.22 241.5,379.5C 243.357,372.427 245.524,365.427 248,358.5C 253,353.167 258,353.167 263,358.5C 264.81,363.429 266.31,368.429 267.5,373.5 Z"/></g>
<g><path style="opacity:0.996" fill="#5b8bba" d="M 371.5,357.5 C 371.084,359.752 369.751,361.252 367.5,362C 364.167,362.333 360.833,362.667 357.5,363C 361.994,365.49 364.994,369.156 366.5,374C 366.43,374.765 366.097,375.265 365.5,375.5C 359.347,374.347 353.014,374.18 346.5,375C 347.167,375.333 347.833,375.667 348.5,376C 348.272,376.399 347.938,376.565 347.5,376.5C 338.776,371.471 330.776,365.471 323.5,358.5C 339.334,357.841 355.167,357.174 371,356.5C 371.399,356.728 371.565,357.062 371.5,357.5 Z"/></g>
<g><path style="opacity:1" fill="#608cbb" d="M 426.5,357.5 C 426.489,359.017 425.823,360.184 424.5,361C 417.833,365.667 411.167,370.333 404.5,375C 403.177,375.816 402.511,376.983 402.5,378.5C 400.51,378.007 400.51,376.84 402.5,375C 396.509,374.501 390.509,374.334 384.5,374.5C 385.291,376.691 385.291,378.691 384.5,380.5C 383.489,376.888 383.322,373.221 384,369.5C 386.22,366.979 388.72,364.812 391.5,363C 381.732,364.301 376.399,360.135 375.5,350.5C 376.766,351.653 377.766,353.653 378.5,356.5C 394.486,357.499 410.486,357.833 426.5,357.5 Z"/></g>
<g><path style="opacity:1" fill="#5b86b3" d="M 127.5,374.5 C 127.065,377.596 126.565,380.596 126,383.5C 132.377,376.064 139.044,375.731 146,382.5C 146.464,381.906 146.631,381.239 146.5,380.5C 152.591,380.211 158.591,380.545 164.5,381.5C 165.612,383.599 166.279,385.933 166.5,388.5C 146.5,388.5 126.5,388.5 106.5,388.5C 106.715,390.179 106.048,391.179 104.5,391.5C 107.223,386.378 108.223,381.045 107.5,375.5C 108.078,374.453 108.744,374.62 109.5,376C 115.785,377.05 121.785,376.55 127.5,374.5 Z"/></g>
<g><path style="opacity:1" fill="#5b7eb3" d="M 267.5,373.5 C 269.242,377.544 270.909,381.711 272.5,386C 282.5,386.333 292.5,386.667 302.5,387C 303.527,387.513 304.527,388.013 305.5,388.5C 288.961,389.18 272.294,389.847 255.5,390.5C 240.34,388.537 225.007,387.871 209.5,388.5C 219.167,387.833 228.833,387.167 238.5,386.5C 239.323,384.013 240.323,381.679 241.5,379.5C 242.931,378.22 243.598,376.553 243.5,374.5C 251.684,374.826 259.684,374.492 267.5,373.5 Z"/></g>
<g><path style="opacity:1" fill="#5284b8" d="M 365.5,375.5 C 365.634,377.292 365.301,378.958 364.5,380.5C 362.623,381.659 362.123,383.326 363,385.5C 365.832,384.038 367.999,382.038 369.5,379.5C 375.546,376.783 380.712,378.117 385,383.5C 385.47,382.423 385.303,381.423 384.5,380.5C 385.291,378.691 385.291,376.691 384.5,374.5C 390.509,374.334 396.509,374.501 402.5,375C 400.51,376.84 400.51,378.007 402.5,378.5C 403.5,382.501 404.5,386.501 405.5,390.5C 385.4,388.53 365.066,387.863 344.5,388.5C 345.5,384.501 346.5,380.501 347.5,376.5C 347.938,376.565 348.272,376.399 348.5,376C 347.833,375.667 347.167,375.333 346.5,375C 353.014,374.18 359.347,374.347 365.5,375.5 Z"/></g>
<g><path style="opacity:0.953" fill="#abb378" d="M 369.5,379.5 C 367.999,382.038 365.832,384.038 363,385.5C 362.123,383.326 362.623,381.659 364.5,380.5C 364.369,381.239 364.536,381.906 365,382.5C 366.615,381.614 368.115,380.614 369.5,379.5 Z"/></g>
<g><path style="opacity:0.267" fill="#c44c70" d="M 238.5,386.5 C 228.833,387.167 219.167,387.833 209.5,388.5C 208.202,389.116 207.202,389.116 206.5,388.5C 206.918,387.778 207.584,387.278 208.5,387C 218.494,386.5 228.494,386.334 238.5,386.5 Z"/></g>
<g><path style="opacity:1" fill="#497ab4" d="M 166.5,388.5 C 168.072,391.215 169.072,394.215 169.5,397.5C 159.911,398.639 150.244,398.806 140.5,398C 139.167,397.333 137.833,396.667 136.5,396C 125.424,395.191 114.424,395.358 103.5,396.5C 103.629,394.784 103.962,393.117 104.5,391.5C 106.048,391.179 106.715,390.179 106.5,388.5C 126.5,388.5 146.5,388.5 166.5,388.5 Z"/></g>
<g><path style="opacity:1" fill="#497ab6" d="M 206.5,388.5 C 207.202,389.116 208.202,389.116 209.5,388.5C 225.007,387.871 240.34,388.537 255.5,390.5C 272.294,389.847 288.961,389.18 305.5,388.5C 307.008,390.181 308.008,392.181 308.5,394.5C 291.271,395.486 274.271,395.819 257.5,395.5C 256.842,394.602 256.176,393.602 255.5,392.5C 254.482,394.594 253.482,396.594 252.5,398.5C 236.167,398.5 219.833,398.5 203.5,398.5C 201.747,394.358 202.747,391.024 206.5,388.5 Z"/></g>
<g><path style="opacity:1" fill="#4e78b0" d="M 344.5,388.5 C 365.066,387.863 385.4,388.53 405.5,390.5C 408.94,396.671 410.44,403.337 410,410.5C 406.146,414.671 401.646,415.504 396.5,413C 389.404,407.705 382.238,402.539 375,397.5C 367.235,402.261 359.735,407.428 352.5,413C 344.779,416.473 340.113,414.14 338.5,406C 340.034,399.895 342.034,394.062 344.5,388.5 Z"/></g>
<g><path style="opacity:1" fill="#5778aa" d="M 169.5,397.5 C 172.501,401.854 173.001,406.521 171,411.5C 167.205,414.803 163.038,415.303 158.5,413C 151.265,407.428 143.765,402.261 136,397.5C 128.762,402.539 121.596,407.705 114.5,413C 104.426,416.553 99.9261,413.053 101,402.5C 101.566,400.277 102.4,398.277 103.5,396.5C 114.424,395.358 125.424,395.191 136.5,396C 137.833,396.667 139.167,397.333 140.5,398C 150.244,398.806 159.911,398.639 169.5,397.5 Z"/></g>
<g><path style="opacity:1" fill="#4b79b0" d="M 308.5,394.5 C 308.741,398.019 307.407,400.685 304.5,402.5C 294.866,403.255 285.2,403.755 275.5,404C 274.437,405.188 273.103,405.688 271.5,405.5C 272.167,404.833 272.833,404.167 273.5,403.5C 269.892,402.914 265.726,401.914 261,400.5C 260.601,400.728 260.435,401.062 260.5,401.5C 258.461,400.089 257.461,398.089 257.5,395.5C 274.271,395.819 291.271,395.486 308.5,394.5 Z"/></g>
<g><path style="opacity:0.733" fill="#f38165" d="M 273.5,403.5 C 269.818,403.665 266.152,403.499 262.5,403C 261.584,402.722 260.918,402.222 260.5,401.5C 260.435,401.062 260.601,400.728 261,400.5C 265.726,401.914 269.892,402.914 273.5,403.5 Z"/></g>
<g><path style="opacity:1" fill="#5676a7" d="M 203.5,398.5 C 219.833,398.5 236.167,398.5 252.5,398.5C 252.084,400.752 250.751,402.252 248.5,403C 244.833,403.333 241.167,403.667 237.5,404C 240.423,406.045 243.257,408.212 246,410.5C 246.494,412.134 246.66,413.801 246.5,415.5C 245.596,414.791 245.263,413.791 245.5,412.5C 238.159,412.334 230.826,412.5 223.5,413C 224.984,414.574 226.651,415.907 228.5,417C 228.272,417.399 227.938,417.565 227.5,417.5C 220.046,412.553 212.713,407.386 205.5,402C 204.177,401.184 203.511,400.017 203.5,398.5 Z"/></g>
<g><path style="opacity:1" fill="#4f6ea7" d="M 304.5,402.5 C 297.056,407.736 289.723,413.236 282.5,419C 284.002,422.005 285.002,425.171 285.5,428.5C 265.877,427.193 245.877,427.193 225.5,428.5C 225.998,425.171 226.998,422.005 228.5,419C 227.944,418.617 227.611,418.117 227.5,417.5C 227.938,417.565 228.272,417.399 228.5,417C 226.651,415.907 224.984,414.574 223.5,413C 230.826,412.5 238.159,412.334 245.5,412.5C 245.263,413.791 245.596,414.791 246.5,415.5C 245.795,418.244 245.795,420.911 246.5,423.5C 253.246,417.986 259.746,418.32 266,424.5C 264.724,419.99 264.391,415.323 265,410.5C 266.926,408.461 269.093,406.794 271.5,405.5C 273.103,405.688 274.437,405.188 275.5,404C 285.2,403.755 294.866,403.255 304.5,402.5 Z"/></g>
<g><path style="opacity:1" fill="#4062a2" d="M 285.5,428.5 C 287.866,434.603 289.866,440.937 291.5,447.5C 290.263,455.063 285.929,457.563 278.5,455C 270.973,449.306 263.306,443.806 255.5,438.5C 247.694,443.806 240.027,449.306 232.5,455C 225.071,457.563 220.737,455.063 219.5,447.5C 221.134,440.937 223.134,434.603 225.5,428.5C 245.877,427.193 265.877,427.193 285.5,428.5 Z"/></g>
</svg>
