<?xml version="1.0" encoding="UTF-8"?>
<!DOCTYPE svg PUBLIC "-//W3C//DTD SVG 1.1//EN" "http://www.w3.org/Graphics/SVG/1.1/DTD/svg11.dtd">
<svg xmlns="http://www.w3.org/2000/svg" version="1.1" width="512px" height="512px" style="shape-rendering:geometricPrecision; text-rendering:geometricPrecision; image-rendering:optimizeQuality; fill-rule:evenodd; clip-rule:evenodd" xmlns:xlink="http://www.w3.org/1999/xlink">
<g><path style="opacity:0.962" fill="#fefffe" d="M 99.5,-0.5 C 111.167,-0.5 122.833,-0.5 134.5,-0.5C 159.525,2.78583 183.192,10.6192 205.5,23C 215.039,29.2251 224.539,35.3917 234,41.5C 235.627,41.3749 237.127,40.8749 238.5,40C 266.422,17.7056 298.088,4.20558 333.5,-0.5C 345.167,-0.5 356.833,-0.5 368.5,-0.5C 394.202,1.54337 406.535,15.5434 405.5,41.5C 419.218,41.0939 432.885,41.5939 446.5,43C 459.061,47.5591 466.561,56.3924 469,69.5C 469.667,114.833 469.667,160.167 469,205.5C 462.964,215.336 455.964,216.003 448,207.5C 447.98,161.788 447.313,116.121 446,70.5C 444.132,66.4794 440.965,64.3128 436.5,64C 426.172,63.5002 415.839,63.3335 405.5,63.5C 405.667,103.501 405.5,143.501 405,183.5C 401.555,191.56 395.721,193.726 387.5,190C 385.951,188.786 384.785,187.286 384,185.5C 383.667,134.833 383.333,84.1667 383,33.5C 382.167,27.3333 378.667,23.8333 372.5,23C 324.458,17.6825 282.291,30.8491 246,62.5C 245.667,124.167 245.333,185.833 245,247.5C 242.416,255.069 237.249,257.569 229.5,255C 227,253.833 225.167,252 224,249.5C 223.667,187.5 223.333,125.5 223,63.5C 186.731,30.7451 144.231,17.2451 95.5,23C 90.5623,23.2723 87.3956,25.7723 86,30.5C 85.3333,116.167 85.3333,201.833 86,287.5C 87.1667,290 89,291.833 91.5,293C 125.901,289.866 158.901,295.2 190.5,309C 200.421,314.417 201.754,321.417 194.5,330C 190.961,331.504 187.295,331.837 183.5,331C 155.84,317.269 126.674,312.436 96,316.5C 81.2016,315.944 70.8682,308.944 65,295.5C 63.5089,218.224 63.0089,140.891 63.5,63.5C 52.8281,63.3335 42.1615,63.5002 31.5,64C 26.5623,64.2723 23.3956,66.7723 22,71.5C 21.3333,158.833 21.3333,246.167 22,333.5C 23.587,336.756 26.087,338.923 29.5,340C 81.1667,340.333 132.833,340.667 184.5,341C 191.132,344.097 193.299,349.264 191,356.5C 189.749,359.381 187.583,361.214 184.5,362C 131.167,362.667 77.8333,362.667 24.5,362C 12.0544,358.384 3.72111,350.55 -0.5,338.5C -0.5,247.833 -0.5,157.167 -0.5,66.5C 3.6216,52.5541 12.9549,44.3874 27.5,42C 39.4954,41.5001 51.4954,41.3335 63.5,41.5C 61.5657,15.4406 73.5657,1.44058 99.5,-0.5 Z"/></g>
<g><path style="opacity:0.947" fill="#fefffe" d="M 511.5,356.5 C 511.5,367.5 511.5,378.5 511.5,389.5C 502.557,443.538 472.891,481.372 422.5,503C 411.644,506.93 400.644,509.764 389.5,511.5C 378.5,511.5 367.5,511.5 356.5,511.5C 302.56,503.072 264.726,473.739 243,423.5C 222.538,360.915 236.705,307.748 285.5,264C 329.601,231.554 377.268,225.22 428.5,245C 475.743,267.676 503.41,304.842 511.5,356.5 Z M 371.5,255.5 C 421.819,257.731 457.986,281.398 480,326.5C 497.283,371.26 490.949,412.26 461,449.5C 424.725,487.36 381.559,498.194 331.5,482C 283.693,461.394 258.693,425.061 256.5,373C 258.37,323.57 281.37,287.903 325.5,266C 340.348,259.734 355.682,256.234 371.5,255.5 Z"/></g>
<g><path style="opacity:0.901" fill="#fefffe" d="M 369.5,297.5 C 380.375,297.537 384.875,302.871 383,313.5C 381.833,316 380,317.833 377.5,319C 366.726,320.891 361.559,316.391 362,305.5C 363.353,301.65 365.853,298.983 369.5,297.5 Z"/></g>
<g><path style="opacity:0.958" fill="#fefffe" d="M 368.5,340.5 C 374.734,339.373 379.568,341.373 383,346.5C 383.667,378.167 383.667,409.833 383,441.5C 380.929,445.953 377.429,447.953 372.5,447.5C 367.169,447.346 363.669,444.679 362,439.5C 361.333,409.167 361.333,378.833 362,348.5C 363.305,345.039 365.471,342.372 368.5,340.5 Z"/></g>
</svg>
