<?xml version="1.0" encoding="UTF-8"?>
<!DOCTYPE svg PUBLIC "-//W3C//DTD SVG 1.1//EN" "http://www.w3.org/Graphics/SVG/1.1/DTD/svg11.dtd">
<svg xmlns="http://www.w3.org/2000/svg" version="1.1" width="512px" height="512px" style="shape-rendering:geometricPrecision; text-rendering:geometricPrecision; image-rendering:optimizeQuality; fill-rule:evenodd; clip-rule:evenodd" xmlns:xlink="http://www.w3.org/1999/xlink">
<g><path style="opacity:0.986" fill="#1f4593" d="M 246.5,-0.5 C 253.167,-0.5 259.833,-0.5 266.5,-0.5C 273.955,1.89414 280.955,5.39414 287.5,10C 359,81.5 430.5,153 502,224.5C 505.716,229.938 508.882,235.605 511.5,241.5C 511.5,250.833 511.5,260.167 511.5,269.5C 501.96,293.123 484.293,304.456 458.5,303.5C 458.961,358.19 458.461,412.857 457,467.5C 450.872,491.129 436.038,505.796 412.5,511.5C 380.167,511.5 347.833,511.5 315.5,511.5C 311.215,509.378 308.048,506.045 306,501.5C 305.974,457.129 305.307,412.796 304,368.5C 301.565,361.066 296.732,355.899 289.5,353C 278.555,351.88 267.555,351.38 256.5,351.5C 245.445,351.38 234.445,351.88 223.5,353C 215.118,356.924 209.951,363.424 208,372.5C 207.667,415.5 207.333,458.5 207,501.5C 204.978,506.02 201.811,509.353 197.5,511.5C 164.833,511.5 132.167,511.5 99.5,511.5C 76.9561,505.457 62.4561,491.124 56,468.5C 54.5341,413.526 54.0341,358.526 54.5,303.5C 21.6141,303.936 3.61414,287.936 0.5,255.5C 0.0595491,245.658 2.55955,236.658 8,228.5C 80.1392,155.361 152.639,82.5274 225.5,10C 232.045,5.39414 239.045,1.89414 246.5,-0.5 Z M 251.5,30.5 C 257.311,29.7743 262.645,30.9409 267.5,34C 337.667,104.167 407.833,174.333 478,244.5C 481.763,250.457 482.429,256.79 480,263.5C 476.955,267.942 472.789,270.776 467.5,272C 457.5,272.333 447.5,272.667 437.5,273C 433,274.833 429.833,278 428,282.5C 427.667,341.167 427.333,399.833 427,458.5C 425.602,469.235 419.769,476.402 409.5,480C 385.201,481.429 360.868,481.929 336.5,481.5C 336.667,444.832 336.5,408.165 336,371.5C 332.161,343.329 316.328,326.496 288.5,321C 266.833,320.333 245.167,320.333 223.5,321C 197.122,326.712 181.622,342.878 177,369.5C 176.5,406.832 176.333,444.165 176.5,481.5C 152.132,481.929 127.799,481.429 103.5,480C 93.2311,476.402 87.3977,469.235 86,458.5C 85.6667,399.833 85.3333,341.167 85,282.5C 83.1667,278 80,274.833 75.5,273C 65.5,272.667 55.5,272.333 45.5,272C 34.5149,268.998 30.0149,261.831 32,250.5C 32.5611,248.275 33.5611,246.275 35,244.5C 105.167,174.333 175.333,104.167 245.5,34C 247.432,32.5415 249.432,31.3748 251.5,30.5 Z"/></g>
</svg>
