<?xml version="1.0" encoding="UTF-8"?>
<!DOCTYPE svg PUBLIC "-//W3C//DTD SVG 1.1//EN" "http://www.w3.org/Graphics/SVG/1.1/DTD/svg11.dtd">
<svg xmlns="http://www.w3.org/2000/svg" version="1.1" width="512px" height="512px" style="shape-rendering:geometricPrecision; text-rendering:geometricPrecision; image-rendering:optimizeQuality; fill-rule:evenodd; clip-rule:evenodd" xmlns:xlink="http://www.w3.org/1999/xlink">
<g><path style="opacity:1" fill="#2c4992" d="M 232.5,-0.5 C 247.833,-0.5 263.167,-0.5 278.5,-0.5C 291.005,0.862276 303.339,3.19561 315.5,6.5C 319.016,8.63656 322.683,9.30323 326.5,8.5C 345.932,14.1917 364.265,22.1917 381.5,32.5C 382.144,34.0537 383.811,35.0537 386.5,35.5C 407.813,47.1628 426.479,62.1628 442.5,80.5C 443.5,83.5 445.5,85.5 448.5,86.5C 484.777,128.405 505.777,177.072 511.5,232.5C 511.5,247.833 511.5,263.167 511.5,278.5C 505.882,333.388 485.215,381.722 449.5,423.5C 448.761,423.369 448.094,423.536 447.5,424C 446.262,424.69 446.262,425.19 447.5,425.5C 402.313,475.595 345.979,504.262 278.5,511.5C 263.167,511.5 247.833,511.5 232.5,511.5C 213.523,509.436 194.856,505.436 176.5,499.5C 175.129,497.859 173.296,496.859 171,496.5C 170.235,496.57 169.735,496.903 169.5,497.5C 99.73,470.895 49.5633,423.562 19,355.5C 8.86366,330.62 2.36366,304.953 -0.5,278.5C -0.5,263.167 -0.5,247.833 -0.5,232.5C 8.18028,156.719 42.5136,95.5523 102.5,49C 109.388,43.7252 116.721,39.2252 124.5,35.5C 127.189,35.0537 128.856,34.0537 129.5,32.5C 161.447,14.0732 195.781,3.07324 232.5,-0.5 Z M 434.5,134.5 C 436.234,138.3 438.234,141.966 440.5,145.5C 465.794,188.467 475.294,234.8 469,284.5C 466.597,299.776 463.097,314.776 458.5,329.5C 457.599,330.29 456.932,331.29 456.5,332.5C 443.219,367.07 422.553,396.403 394.5,420.5C 393.5,420.833 392.833,421.5 392.5,422.5C 334.514,467.099 269.848,480.765 198.5,463.5C 196.579,462.637 194.579,461.971 192.5,461.5C 119.218,436.717 71.0511,387.384 48,313.5C 36.4643,268.565 38.2976,224.231 53.5,180.5C 54.7837,177.598 55.7837,174.598 56.5,171.5C 82.7312,113.934 125.398,73.9345 184.5,51.5C 186.786,51.405 188.786,50.7384 190.5,49.5C 261.993,29.5001 327.659,41.3334 387.5,85C 405.48,99.4752 421.146,115.975 434.5,134.5 Z"/></g>
<g><path style="opacity:0.824" fill="#bd9752" d="M 315.5,6.5 C 319.197,7.00781 322.864,7.67448 326.5,8.5C 322.683,9.30323 319.016,8.63656 315.5,6.5 Z"/></g>
<g><path style="opacity:0.667" fill="#a3b06c" d="M 129.5,32.5 C 128.856,34.0537 127.189,35.0537 124.5,35.5C 125.659,33.7497 127.326,32.7497 129.5,32.5 Z"/></g>
<g><path style="opacity:0.569" fill="#bcbf5a" d="M 381.5,32.5 C 383.674,32.7497 385.341,33.7497 386.5,35.5C 383.811,35.0537 382.144,34.0537 381.5,32.5 Z"/></g>
<g><path style="opacity:0.114" fill="#879c53" d="M 190.5,49.5 C 188.786,50.7384 186.786,51.405 184.5,51.5C 186.109,50.2291 187.942,49.2291 190,48.5C 190.399,48.7284 190.565,49.0618 190.5,49.5 Z"/></g>
<g><path style="opacity:0.949" fill="#89bc55" d="M 442.5,80.5 C 444.833,82.1667 446.833,84.1667 448.5,86.5C 445.5,85.5 443.5,83.5 442.5,80.5 Z"/></g>
<g><path style="opacity:1" fill="#334a92" d="M 236.5,181.5 C 235.92,179.251 234.587,177.585 232.5,176.5C 230.689,174.615 229.522,172.281 229,169.5C 226.24,149.011 235.073,137.344 255.5,134.5C 275.927,137.344 284.76,149.011 282,169.5C 276.27,185.121 265.103,191.621 248.5,189C 243.626,187.738 239.626,185.238 236.5,181.5 Z"/></g>
<g><path style="opacity:0.541" fill="#86a67f" d="M 434.5,134.5 C 437.303,137.417 439.637,140.75 441.5,144.5C 441.376,145.107 441.043,145.44 440.5,145.5C 438.234,141.966 436.234,138.3 434.5,134.5 Z"/></g>
<g><path style="opacity:0.22" fill="#bc975a" d="M 232.5,176.5 C 234.587,177.585 235.92,179.251 236.5,181.5C 234.413,180.415 233.08,178.749 232.5,176.5 Z"/></g>
<g><path style="opacity:0.553" fill="#94a13c" d="M 56.5,171.5 C 55.7837,174.598 54.7837,177.598 53.5,180.5C 53.0311,177.236 54.0311,174.236 56.5,171.5 Z"/></g>
<g><path style="opacity:1" fill="#244792" d="M 238.5,374.5 C 239.043,374.44 239.376,374.107 239.5,373.5C 238.806,371.188 237.806,369.854 236.5,369.5C 235.335,322.335 235.168,275.002 236,227.5C 239.276,218.396 245.776,213.729 255.5,213.5C 263.744,213.704 269.911,217.371 274,224.5C 275.652,272.775 275.985,321.108 275,369.5C 267.375,383.363 256.542,386.53 242.5,379C 240.959,377.629 239.625,376.129 238.5,374.5 Z"/></g>
<g><path style="opacity:0.933" fill="#61d63d" d="M 458.5,329.5 C 458.715,331.179 458.048,332.179 456.5,332.5C 456.932,331.29 457.599,330.29 458.5,329.5 Z"/></g>
<g><path style="opacity:0.114" fill="#7e884b" d="M 238.5,374.5 C 237.559,372.95 236.893,371.284 236.5,369.5C 237.806,369.854 238.806,371.188 239.5,373.5C 239.376,374.107 239.043,374.44 238.5,374.5 Z"/></g>
<g><path style="opacity:0.976" fill="#c4ce30" d="M 394.5,420.5 C 394.938,420.435 395.272,420.601 395.5,421C 394.756,422.039 393.756,422.539 392.5,422.5C 392.833,421.5 393.5,420.833 394.5,420.5 Z"/></g>
<g><path style="opacity:0.047" fill="#4aec71" d="M 449.5,423.5 C 449.167,424.5 448.5,425.167 447.5,425.5C 446.262,425.19 446.262,424.69 447.5,424C 448.094,423.536 448.761,423.369 449.5,423.5 Z"/></g>
<g><path style="opacity:0.098" fill="#85a266" d="M 192.5,461.5 C 194.579,461.971 196.579,462.637 198.5,463.5C 198.44,464.043 198.107,464.376 197.5,464.5C 195.402,464.043 193.736,463.043 192.5,461.5 Z"/></g>
<g><path style="opacity:0.078" fill="#b4ca6e" d="M 169.5,497.5 C 169.735,496.903 170.235,496.57 171,496.5C 173.296,496.859 175.129,497.859 176.5,499.5C 174.167,498.833 171.833,498.167 169.5,497.5 Z"/></g>
</svg>