<?xml version="1.0" encoding="UTF-8"?>
<!DOCTYPE svg PUBLIC "-//W3C//DTD SVG 1.1//EN" "http://www.w3.org/Graphics/SVG/1.1/DTD/svg11.dtd">
<svg xmlns="http://www.w3.org/2000/svg" version="1.1" width="512px" height="512px" style="shape-rendering:geometricPrecision; text-rendering:geometricPrecision; image-rendering:optimizeQuality; fill-rule:evenodd; clip-rule:evenodd" xmlns:xlink="http://www.w3.org/1999/xlink">
<g><path style="opacity:0.982" fill="#1f4693" d="M 240.5,31.5 C 291.148,27.5704 329.314,47.2371 355,90.5C 368.121,117.024 371.121,144.691 364,173.5C 356.688,199.483 342.021,220.15 320,235.5C 319.97,258.896 319.303,282.23 318,305.5C 314.64,311.693 309.807,316.36 303.5,319.5C 295.434,349.049 276.1,362.216 245.5,359C 224.847,353.514 212.181,340.347 207.5,319.5C 200.05,315.885 194.884,310.218 192,302.5C 191.667,280.167 191.333,257.833 191,235.5C 155.235,208.933 139.568,173.266 144,128.5C 154.346,74.3207 186.513,41.9874 240.5,31.5 Z M 254.5,47.5 C 306.946,51.446 338.78,79.1127 350,130.5C 353.443,171.611 338.11,203.611 304,226.5C 303.501,230.821 303.334,235.154 303.5,239.5C 290.167,239.5 276.833,239.5 263.5,239.5C 263.5,210.167 263.5,180.833 263.5,151.5C 272.839,151.666 282.173,151.5 291.5,151C 293.333,150.5 294.5,149.333 295,147.5C 295.667,144.833 295.667,142.167 295,139.5C 294.5,137.667 293.333,136.5 291.5,136C 267.5,135.333 243.5,135.333 219.5,136C 218.584,136.374 217.75,136.874 217,137.5C 215.517,140.702 215.183,144.036 216,147.5C 216.5,149.333 217.667,150.5 219.5,151C 228.827,151.5 238.161,151.666 247.5,151.5C 247.5,180.833 247.5,210.167 247.5,239.5C 234.167,239.5 220.833,239.5 207.5,239.5C 207.666,235.154 207.499,230.821 207,226.5C 163.928,195.949 150.928,155.616 168,105.5C 185.558,69.3072 214.392,49.9738 254.5,47.5 Z M 207.5,255.5 C 239.5,255.5 271.5,255.5 303.5,255.5C 303.5,260.833 303.5,266.167 303.5,271.5C 271.5,271.5 239.5,271.5 207.5,271.5C 207.5,266.167 207.5,260.833 207.5,255.5 Z M 207.5,287.5 C 239.5,287.5 271.5,287.5 303.5,287.5C 303.737,291.273 303.237,294.94 302,298.5C 301.5,300.333 300.333,301.5 298.5,302C 284.232,303.142 269.899,303.642 255.5,303.5C 241.636,303.487 227.802,303.154 214,302.5C 211.541,302.11 209.874,300.776 209,298.5C 207.763,294.94 207.263,291.273 207.5,287.5 Z M 225.5,319.5 C 245.511,319.167 265.511,319.5 285.5,320.5C 277.798,339.018 264.131,345.851 244.5,341C 234.421,337.091 228.088,329.924 225.5,319.5 Z"/></g>
<g><path style="opacity:0.972" fill="#1e4593" d="M 67.5,71.5 C 70.1873,71.3359 72.854,71.5026 75.5,72C 86.8333,77.6667 98.1667,83.3333 109.5,89C 113.5,94.3333 112.833,99 107.5,103C 104.833,103.667 102.167,103.667 99.5,103C 88.1667,97.3333 76.8333,91.6667 65.5,86C 63.5715,82.7441 63.0715,79.2441 64,75.5C 64.6897,73.6498 65.8564,72.3164 67.5,71.5 Z"/></g>
<g><path style="opacity:0.973" fill="#1f4592" d="M 435.5,71.5 C 446.86,70.71 450.193,75.5434 445.5,86C 434.167,91.6667 422.833,97.3333 411.5,103C 400.128,104.28 396.795,99.6131 401.5,89C 413.051,83.3923 424.384,77.559 435.5,71.5 Z"/></g>
<g><path style="opacity:0.982" fill="#1f4592" d="M 67.5,135.5 C 80.8375,135.333 94.1708,135.5 107.5,136C 109.333,136.5 110.5,137.667 111,139.5C 111.667,142.167 111.667,144.833 111,147.5C 110.5,149.333 109.333,150.5 107.5,151C 94.1667,151.667 80.8333,151.667 67.5,151C 64.484,149.471 63.1506,146.971 63.5,143.5C 63.2824,139.934 64.6157,137.268 67.5,135.5 Z"/></g>
<g><path style="opacity:0.982" fill="#1f4592" d="M 403.5,135.5 C 416.837,135.333 430.171,135.5 443.5,136C 445.333,136.5 446.5,137.667 447,139.5C 447.667,142.167 447.667,144.833 447,147.5C 446.5,149.333 445.333,150.5 443.5,151C 430.167,151.667 416.833,151.667 403.5,151C 400.484,149.471 399.151,146.971 399.5,143.5C 399.282,139.934 400.616,137.268 403.5,135.5 Z"/></g>
<g><path style="opacity:0.966" fill="#1e4592" d="M 99.5,183.5 C 110.86,182.71 114.193,187.543 109.5,198C 98.1667,203.667 86.8333,209.333 75.5,215C 64.128,216.28 60.7947,211.613 65.5,201C 77.0511,195.392 88.3845,189.559 99.5,183.5 Z"/></g>
<g><path style="opacity:0.967" fill="#1e4593" d="M 403.5,183.5 C 406.187,183.336 408.854,183.503 411.5,184C 422.833,189.667 434.167,195.333 445.5,201C 449.5,206.333 448.833,211 443.5,215C 440.833,215.667 438.167,215.667 435.5,215C 424.167,209.333 412.833,203.667 401.5,198C 399.571,194.744 399.071,191.244 400,187.5C 400.69,185.65 401.856,184.316 403.5,183.5 Z"/></g>
<g><path style="opacity:0.968" fill="#1f4693" d="M 83.5,319.5 C 87.2733,319.263 90.9399,319.763 94.5,321C 146.083,344.527 197.749,367.861 249.5,391C 256.215,392.248 262.548,391.248 268.5,388C 317.833,365.667 367.167,343.333 416.5,321C 420.072,319.595 423.739,319.262 427.5,320C 429.815,321.109 431.315,322.943 432,325.5C 438.803,344.244 445.803,362.911 453,381.5C 476.553,385.941 483.886,399.274 475,421.5C 471.211,426.308 466.378,429.475 460.5,431C 394.5,447 328.5,463 262.5,479C 257.833,479.667 253.167,479.667 248.5,479C 190.87,464.843 133.203,450.843 75.5,437C 64.6326,434.617 53.966,431.617 43.5,428C 29.2034,414.692 28.87,401.025 42.5,387C 47.3932,384.321 52.5599,382.487 58,381.5C 65.1965,362.911 72.1965,344.244 79,325.5C 79.8041,322.854 81.3041,320.854 83.5,319.5 Z M 225.5,319.5 C 228.088,329.924 234.421,337.091 244.5,341C 264.131,345.851 277.798,339.018 285.5,320.5C 265.511,319.5 245.511,319.167 225.5,319.5 Z M 92.5,339.5 C 137.478,359.655 182.478,379.821 227.5,400C 220.181,404.983 214.681,411.483 211,419.5C 165.566,408.212 120.066,397.045 74.5,386C 76.9978,380.673 78.9978,375.173 80.5,369.5C 100.17,376.558 119.836,383.724 139.5,391C 150.872,392.28 154.205,387.613 149.5,377C 129.206,369.069 108.873,361.235 88.5,353.5C 88.7551,348.71 90.0884,344.043 92.5,339.5 Z M 416.5,339.5 C 417.5,339.5 418.5,339.5 419.5,339.5C 420.392,343.789 421.725,347.956 423.5,352C 423.167,352.5 422.833,353 422.5,353.5C 402.127,361.235 381.794,369.069 361.5,377C 356.794,388.256 360.461,392.923 372.5,391C 391.461,383.735 410.461,376.568 429.5,369.5C 431.933,374.966 434.266,380.466 436.5,386C 391.161,397.168 345.828,408.335 300.5,419.5C 296.454,411.618 290.787,405.118 283.5,400C 328.146,380.295 372.479,360.128 416.5,339.5 Z M 54.5,399.5 C 108.553,412.013 162.553,424.846 216.5,438C 217.99,442.703 218.99,447.536 219.5,452.5C 217.926,453.631 216.259,453.798 214.5,453C 160.4,439.975 106.4,426.642 52.5,413C 48.1882,407.731 48.8548,403.231 54.5,399.5 Z M 452.5,399.5 C 461.292,400.437 463.792,404.77 460,412.5C 459.25,413.126 458.416,413.626 457.5,414C 402.28,427.43 347.113,440.93 292,454.5C 292.128,450.208 292.461,445.874 293,441.5C 293.318,439.939 294.151,438.772 295.5,438C 347.996,425.292 400.33,412.459 452.5,399.5 Z M 248.5,408.5 C 262.462,406.587 273.462,411.254 281.5,422.5C 273.307,426.051 264.641,428.384 255.5,429.5C 247.073,428.115 238.74,426.281 230.5,424C 230.368,420.925 231.701,418.258 234.5,416C 238.815,412.678 243.482,410.178 248.5,408.5 Z M 235.5,442.5 C 242.054,444.472 248.721,446.138 255.5,447.5C 262.129,446.218 268.629,444.551 275,442.5C 275.907,448.384 275.073,453.884 272.5,459C 266.869,460.36 261.202,461.526 255.5,462.5C 249.124,461.322 242.791,459.989 236.5,458.5C 236.167,453.167 235.833,447.833 235.5,442.5 Z"/></g>
</svg>
