<?xml version="1.0" encoding="UTF-8"?>
<!DOCTYPE svg PUBLIC "-//W3C//DTD SVG 1.1//EN" "http://www.w3.org/Graphics/SVG/1.1/DTD/svg11.dtd">
<svg xmlns="http://www.w3.org/2000/svg" version="1.1" width="512px" height="512px" style="shape-rendering:geometricPrecision; text-rendering:geometricPrecision; image-rendering:optimizeQuality; fill-rule:evenodd; clip-rule:evenodd" xmlns:xlink="http://www.w3.org/1999/xlink">
<g><path style="opacity:0.981" fill="#1f4693" d="M 250.5,23.5 C 263.906,22.4213 273.073,28.0879 278,40.5C 278.957,57.5666 278.624,74.5666 277,91.5C 268.774,105.435 257.274,108.935 242.5,102C 237.748,98.5864 234.581,94.0864 233,88.5C 232.333,72.5 232.333,56.5 233,40.5C 236.109,31.8886 241.943,26.2219 250.5,23.5 Z"/></g>
<g><path style="opacity:0.983" fill="#1f4692" d="M 101.5,84.5 C 108.221,83.7513 114.554,84.9179 120.5,88C 132,98.1667 142.833,109 153,120.5C 160.495,137.024 155.995,148.858 139.5,156C 132.785,157.248 126.452,156.248 120.5,153C 109,142.833 98.1667,132 88,120.5C 80.5986,103.857 85.0986,91.8569 101.5,84.5 Z"/></g>
<g><path style="opacity:0.981" fill="#1f4693" d="M 397.5,84.5 C 411.634,82.6422 421.134,88.3089 426,101.5C 427.87,110.216 425.87,117.883 420,124.5C 410.47,134.364 400.637,143.864 390.5,153C 375.641,160.156 364.141,156.656 356,142.5C 352.855,132.866 354.521,124.199 361,116.5C 369.5,108 378,99.5 386.5,91C 389.933,88.2894 393.6,86.1227 397.5,84.5 Z"/></g>
<g><path style="opacity:0.992" fill="#1f4593" d="M 239.5,119.5 C 289.035,115.388 329.868,132.055 362,169.5C 393.375,211.765 400.041,257.765 382,307.5C 353.567,367.317 306.067,395.15 239.5,391C 187.395,383.211 150.561,355.378 129,307.5C 110.952,257.802 117.619,211.802 149,169.5C 172.894,141.47 203.061,124.803 239.5,119.5 Z M 263.5,136.5 C 312.818,141.734 347.318,167.068 367,212.5C 383.897,264.75 372.397,309.583 332.5,347C 312.449,363.352 289.449,372.519 263.5,374.5C 263.5,295.167 263.5,215.833 263.5,136.5 Z"/></g>
<g><path style="opacity:0.902" fill="#1f4593" d="M 328.5,183.5 C 330.655,183.372 332.655,183.872 334.5,185C 338.919,189.846 342.586,195.179 345.5,201C 344.488,204.672 342.155,206.005 338.5,205C 335.333,201.167 332.167,197.333 329,193.5C 325.971,190.23 325.804,186.897 328.5,183.5 Z"/></g>
<g><path style="opacity:0.916" fill="#1f4594" d="M 345.5,210.5 C 349.182,209.725 351.682,211.059 353,214.5C 355.206,219.286 356.706,224.286 357.5,229.5C 357.167,233.989 354.833,235.489 350.5,234C 347.774,227.824 345.441,221.49 343.5,215C 343.519,213.167 344.185,211.667 345.5,210.5 Z"/></g>
<g><path style="opacity:0.982" fill="#1f4593" d="M 40.5,232.5 C 56.5035,232.333 72.5035,232.5 88.5,233C 105.009,240.186 109.509,252.02 102,268.5C 98.5864,273.252 94.0864,276.419 88.5,278C 72.5,278.667 56.5,278.667 40.5,278C 27.9287,273.092 22.4287,263.925 24,250.5C 26.5923,241.745 32.0923,235.745 40.5,232.5 Z"/></g>
<g><path style="opacity:0.982" fill="#1f4593" d="M 422.5,232.5 C 438.503,232.333 454.503,232.5 470.5,233C 485.794,239.53 490.628,250.697 485,266.5C 481.632,272.203 476.799,276.037 470.5,278C 454.5,278.667 438.5,278.667 422.5,278C 405.991,270.814 401.491,258.98 409,242.5C 412.579,237.731 417.079,234.397 422.5,232.5 Z"/></g>
<g><path style="opacity:0.951" fill="#1f4594" d="M 353.5,241.5 C 356.044,241.104 358.211,241.771 360,243.5C 360.238,247.222 360.738,250.889 361.5,254.5C 360.746,257.777 360.246,261.11 360,264.5C 355.183,267.677 352.349,266.343 351.5,260.5C 351.81,254.878 351.976,249.212 352,243.5C 352.717,242.956 353.217,242.289 353.5,241.5 Z"/></g>
<g><path style="opacity:0.921" fill="#1f4594" d="M 351.5,273.5 C 355.525,272.578 357.859,274.078 358.5,278C 357.514,284.112 355.681,289.945 353,295.5C 348.913,298.595 346.079,297.595 344.5,292.5C 346.658,286.017 348.992,279.683 351.5,273.5 Z"/></g>
<g><path style="opacity:0.918" fill="#1e4692" d="M 340.5,302.5 C 345.989,302.504 347.822,305.171 346,310.5C 342.882,315.286 339.382,319.786 335.5,324C 330.502,325.33 328.336,323.496 329,318.5C 333.084,313.265 336.917,307.931 340.5,302.5 Z"/></g>
<g><path style="opacity:0.982" fill="#1f4692" d="M 127.5,354.5 C 141.634,352.642 151.134,358.309 156,371.5C 157.87,380.216 155.87,387.883 150,394.5C 140.47,404.364 130.637,413.864 120.5,423C 105.641,430.156 94.1414,426.656 86,412.5C 82.8546,402.866 84.5212,394.199 91,386.5C 99.5,378 108,369.5 116.5,361C 119.933,358.289 123.6,356.123 127.5,354.5 Z"/></g>
<g><path style="opacity:0.983" fill="#1f4693" d="M 371.5,354.5 C 378.221,353.751 384.554,354.918 390.5,358C 402,368.167 412.833,379 423,390.5C 430.495,407.024 425.995,418.858 409.5,426C 402.785,427.248 396.452,426.248 390.5,423C 379,412.833 368.167,402 358,390.5C 350.612,373.813 355.112,361.813 371.5,354.5 Z"/></g>
<g><path style="opacity:0.981" fill="#1f4593" d="M 249.5,405.5 C 263.594,403.625 273.094,409.292 278,422.5C 278.957,439.567 278.624,456.567 277,473.5C 270.53,485.439 260.697,489.605 247.5,486C 240.268,483.101 235.435,477.934 233,470.5C 232.333,454.5 232.333,438.5 233,422.5C 236.019,414.316 241.519,408.649 249.5,405.5 Z"/></g>
</svg>