<?xml version="1.0" encoding="UTF-8"?>
<!DOCTYPE svg PUBLIC "-//W3C//DTD SVG 1.1//EN" "http://www.w3.org/Graphics/SVG/1.1/DTD/svg11.dtd">
<svg xmlns="http://www.w3.org/2000/svg" version="1.1" width="512px" height="512px" style="shape-rendering:geometricPrecision; text-rendering:geometricPrecision; image-rendering:optimizeQuality; fill-rule:evenodd; clip-rule:evenodd" xmlns:xlink="http://www.w3.org/1999/xlink">
<g><path style="opacity:0.986" fill="#ff7373" d="M 59.5,-0.5 C 125.5,-0.5 191.5,-0.5 257.5,-0.5C 274.814,5.13549 279.981,16.4688 273,33.5C 270.404,37.3901 266.904,40.2234 262.5,42C 194.544,43.32 126.544,43.9866 58.5,44C 50.2253,46.6073 45.0587,52.1073 43,60.5C 42.3333,190.5 42.3333,320.5 43,450.5C 45.0587,458.893 50.2253,464.393 58.5,467C 126.544,467.013 194.544,467.68 262.5,469C 276.202,476.441 279.702,487.274 273,501.5C 269.137,507.006 263.971,510.339 257.5,511.5C 191.5,511.5 125.5,511.5 59.5,511.5C 27.6264,507.294 7.62635,489.627 -0.5,458.5C -0.5,323.167 -0.5,187.833 -0.5,52.5C 7.63061,21.3681 27.6306,3.70139 59.5,-0.5 Z"/></g>
<g><path style="opacity:0.975" fill="#ff7373" d="M 511.5,248.5 C 511.5,253.167 511.5,257.833 511.5,262.5C 510.108,264.273 508.941,266.273 508,268.5C 464.194,311.306 420.694,354.472 377.5,398C 369.838,404.57 361.172,406.236 351.5,403C 338.909,394.837 336.075,384.004 343,370.5C 373.861,339.305 405.028,308.472 436.5,278C 353.5,277.667 270.5,277.333 187.5,277C 172.934,273.057 167.1,263.557 170,248.5C 173.137,240.359 178.97,235.526 187.5,234C 270.5,233.667 353.5,233.333 436.5,233C 405.028,202.528 373.861,171.695 343,140.5C 336.634,128.141 338.8,117.641 349.5,109C 359.1,104.917 368.1,105.917 376.5,112C 420.028,155.861 463.861,199.361 508,242.5C 508.941,244.727 510.108,246.727 511.5,248.5 Z"/></g>
</svg>
