<?xml version="1.0" encoding="UTF-8"?>
<!DOCTYPE svg PUBLIC "-//W3C//DTD SVG 1.1//EN" "http://www.w3.org/Graphics/SVG/1.1/DTD/svg11.dtd">
<svg xmlns="http://www.w3.org/2000/svg" version="1.1" width="512px" height="512px" style="shape-rendering:geometricPrecision; text-rendering:geometricPrecision; image-rendering:optimizeQuality; fill-rule:evenodd; clip-rule:evenodd" xmlns:xlink="http://www.w3.org/1999/xlink">
<g><path style="opacity:0.999" fill="#3b4e92" d="M 244.5,-0.5 C 251.833,-0.5 259.167,-0.5 266.5,-0.5C 301.416,9.61625 317.249,32.9496 314,69.5C 313.054,75.1713 311.221,80.5047 308.5,85.5C 307.624,85.3691 306.957,85.7025 306.5,86.5C 304.98,88.6621 303.98,90.9954 303.5,93.5C 293.629,107.109 280.295,115.109 263.5,117.5C 263.5,128.5 263.5,139.5 263.5,150.5C 274.388,151.471 284.721,154.138 294.5,158.5C 295.514,159.674 296.847,160.34 298.5,160.5C 299.458,160.953 300.292,161.619 301,162.5C 302.782,169.282 300.282,173.282 293.5,174.5C 268.449,163.862 243.449,163.862 218.5,174.5C 217.279,173.535 215.946,173.702 214.5,175C 214.728,175.399 215.062,175.565 215.5,175.5C 212.039,178.069 208.372,180.403 204.5,182.5C 202.821,182.285 201.821,182.952 201.5,184.5C 168.944,212.714 159.444,247.381 173,288.5C 177.755,299.689 184.255,309.689 192.5,318.5C 194.577,322.876 197.911,325.876 202.5,327.5C 206.474,336.384 203.474,340.551 193.5,340C 183.992,332.992 175.659,324.825 168.5,315.5C 155.975,321.923 143.975,329.09 132.5,337C 141.699,366.558 134.032,390.558 109.5,409C 78.7838,425.044 51.9505,420.211 29,394.5C 10.777,364.231 14.277,336.731 39.5,312C 64.5,295.333 89.5,295.333 114.5,312C 118.036,315.201 121.203,318.701 124,322.5C 136.25,315.292 148.416,307.959 160.5,300.5C 147.168,270.512 147.168,240.512 160.5,210.5C 148.416,203.041 136.25,195.708 124,188.5C 119.192,195.479 113.025,200.813 105.5,204.5C 104.221,203.285 103.221,203.618 102.5,205.5C 75.3269,216.965 51.4935,211.965 31,190.5C 28.5738,187.309 26.4072,183.975 24.5,180.5C 25.0431,180.44 25.3764,180.107 25.5,179.5C 23.7116,175.511 22.0449,172.177 20.5,169.5C 19.5655,168.432 19.2322,167.099 19.5,165.5C 19.9382,165.565 20.2716,165.399 20.5,165C 19.2446,160.115 18.2446,155.282 17.5,150.5C 21.3551,114.812 41.1885,95.4785 77,92.5C 107.026,94.5413 126.359,109.875 135,138.5C 137.44,150.564 136.607,162.398 132.5,174C 143.975,181.91 155.975,189.077 168.5,195.5C 188.229,169.145 214.562,154.145 247.5,150.5C 247.5,139.5 247.5,128.5 247.5,117.5C 213.985,110.492 196.985,89.825 196.5,55.5C 197.617,51.7051 198.283,47.7051 198.5,43.5C 201.6,29.6222 208.933,18.6222 220.5,10.5C 220.435,10.9382 220.601,11.2716 221,11.5C 223.988,9.6009 226.821,7.6009 229.5,5.5C 234.214,2.74045 239.214,0.740454 244.5,-0.5 Z M 291.5,33.5 C 291.427,35.0269 292.094,36.0269 293.5,36.5C 297.996,46.3139 299.663,56.6472 298.5,67.5C 297.388,69.5994 296.721,71.9327 296.5,74.5C 293.868,78.8109 291.201,83.1443 288.5,87.5C 285.474,90.1954 282.474,92.8621 279.5,95.5C 258.116,106.63 238.95,103.63 222,86.5C 211.763,72.2923 209.763,56.959 216,40.5C 227.482,19.5505 244.982,11.7171 268.5,17C 277.745,20.4281 285.412,25.9281 291.5,33.5 Z M 119.5,161.5 C 118.833,163.5 118.167,165.5 117.5,167.5C 108.049,188.567 91.7155,197.733 68.5,195C 62.8392,193.505 57.5058,191.339 52.5,188.5C 50.1918,186.529 47.8585,184.529 45.5,182.5C 44.8333,181.167 43.8333,180.167 42.5,179.5C 41.8897,177.566 40.8897,175.899 39.5,174.5C 28.9826,152.252 32.9826,133.085 51.5,117C 76.0464,102.976 96.8797,107.143 114,129.5C 119.77,139.513 121.603,150.179 119.5,161.5 Z M 55.5,320.5 C 57.2838,320.107 58.9505,319.441 60.5,318.5C 84.4461,311.203 102.946,318.203 116,339.5C 125.438,365.862 117.938,385.695 93.5,399C 68.1034,406.713 49.27,398.88 37,375.5C 29.5144,352.456 35.681,334.123 55.5,320.5 Z"/></g>
<g><path style="opacity:0.62" fill="#a2946a" d="M 229.5,5.5 C 226.821,7.6009 223.988,9.6009 221,11.5C 220.601,11.2716 220.435,10.9382 220.5,10.5C 223.008,8.07642 226.008,6.40975 229.5,5.5 Z"/></g>
<g><path style="opacity:0.298" fill="#5ebe2d" d="M 291.5,33.5 C 292.906,33.9731 293.573,34.9731 293.5,36.5C 292.094,36.0269 291.427,35.0269 291.5,33.5 Z"/></g>
<g><path style="opacity:0.498" fill="#9fa557" d="M 198.5,43.5 C 198.283,47.7051 197.617,51.7051 196.5,55.5C 196.198,51.2095 196.864,47.2095 198.5,43.5 Z"/></g>
<g><path style="opacity:1" fill="#4f578b" d="M 228.5,50.5 C 237.207,50.0365 240.707,54.0365 239,62.5C 234.357,67.4534 229.357,67.7867 224,63.5C 221.552,57.7403 223.052,53.407 228.5,50.5 Z"/></g>
<g><path style="opacity:1" fill="#4e5590" d="M 251.5,50.5 C 258.304,49.2214 262.304,51.8881 263.5,58.5C 263.096,63.7368 260.263,66.4034 255,66.5C 248.192,65.8935 245.526,62.2268 247,55.5C 248.025,53.313 249.525,51.6464 251.5,50.5 Z"/></g>
<g><path style="opacity:1" fill="#4c5893" d="M 276.5,50.5 C 282.917,49.6996 286.917,52.3663 288.5,58.5C 286.991,65.5949 282.657,68.0949 275.5,66C 269.939,60.3527 270.272,55.186 276.5,50.5 Z"/></g>
<g><path style="opacity:0.824" fill="#a3b56e" d="M 298.5,67.5 C 298.829,70.2282 298.163,72.5615 296.5,74.5C 296.721,71.9327 297.388,69.5994 298.5,67.5 Z"/></g>
<g><path style="opacity:0.251" fill="#b4b881" d="M 308.5,85.5 C 307.32,88.5396 305.653,91.2063 303.5,93.5C 303.98,90.9954 304.98,88.6621 306.5,86.5C 306.957,85.7025 307.624,85.3691 308.5,85.5 Z"/></g>
<g><path style="opacity:0.98" fill="#9aab81" d="M 288.5,87.5 C 286.767,91.5649 283.767,94.2316 279.5,95.5C 282.474,92.8621 285.474,90.1954 288.5,87.5 Z"/></g>
<g><path style="opacity:1" fill="#3c4e92" d="M 462.5,204.5 C 461.279,203.535 459.946,203.702 458.5,205C 458.728,205.399 459.062,205.565 459.5,205.5C 436.81,215.467 415.477,212.967 395.5,198C 392.296,195.131 389.463,191.965 387,188.5C 374.75,195.708 362.584,203.041 350.5,210.5C 362.518,237.786 363.518,265.453 353.5,293.5C 351.952,293.821 351.285,294.821 351.5,296.5C 351.579,297.93 351.246,299.264 350.5,300.5C 362.584,307.959 374.75,315.292 387,322.5C 388.331,320.004 390.164,318.004 392.5,316.5C 395.792,314.542 398.792,312.209 401.5,309.5C 408.166,304.175 415.833,301.008 424.5,300C 454.237,297.114 475.737,308.947 489,335.5C 498.771,363.925 492.271,387.759 469.5,407C 441.099,424.252 414.599,421.752 390,399.5C 374.585,380.849 370.752,360.015 378.5,337C 367.133,329.318 355.466,322.151 343.5,315.5C 343.217,314.711 342.717,314.044 342,313.5C 339.323,315.606 337.823,317.939 337.5,320.5C 318.672,344.253 294.006,357.587 263.5,360.5C 263.5,371.5 263.5,382.5 263.5,393.5C 279.776,395.798 292.776,403.464 302.5,416.5C 303.116,419.663 304.449,421.663 306.5,422.5C 314.062,435.081 316.562,448.747 314,463.5C 307.986,489.347 292.152,505.347 266.5,511.5C 259.167,511.5 251.833,511.5 244.5,511.5C 209.584,501.384 193.751,478.05 197,441.5C 198.213,433.755 201.046,426.755 205.5,420.5C 207.048,420.179 207.715,419.179 207.5,417.5C 217.371,403.891 230.705,395.891 247.5,393.5C 247.5,382.5 247.5,371.5 247.5,360.5C 236.052,359.388 225.052,356.555 214.5,352C 210.621,347.702 210.621,343.369 214.5,339C 216.137,338.399 217.803,337.899 219.5,337.5C 265.486,353.224 302.653,341.557 331,302.5C 348.388,272.086 348.888,241.419 332.5,210.5C 332.937,208.405 331.937,206.738 329.5,205.5C 328.094,205.027 327.427,204.027 327.5,202.5C 325.933,199.717 324.1,197.051 322,194.5C 321.601,194.728 321.435,195.062 321.5,195.5C 317.169,192.002 313.336,188.002 310,183.5C 310.129,173.686 314.629,170.853 323.5,175C 330.413,181.408 336.746,188.242 342.5,195.5C 355.025,189.077 367.025,181.91 378.5,174C 376.765,168.894 375.432,163.727 374.5,158.5C 375.191,154.101 375.858,149.601 376.5,145C 376.272,144.601 375.938,144.435 375.5,144.5C 377.05,132.066 381.883,121.066 390,111.5C 391.451,109.536 393.284,108.203 395.5,107.5C 398.135,106.527 400.135,104.86 401.5,102.5C 429.126,86.9931 454.626,89.9931 478,111.5C 497.842,137.319 498.509,163.653 480,190.5C 474.957,196.257 469.124,200.923 462.5,204.5 Z M 471.5,129.5 C 471.328,130.492 471.662,131.158 472.5,131.5C 482.896,157.815 475.896,177.981 451.5,192C 427.209,200.016 408.376,193.182 395,171.5C 390.642,161.875 389.476,151.875 391.5,141.5C 392.738,139.786 393.405,137.786 393.5,135.5C 408.208,109.765 429.208,102.931 456.5,115C 459.167,117 461.833,119 464.5,121C 466.698,124.023 469.031,126.856 471.5,129.5 Z M 423.5,401.5 C 421.321,400.323 418.987,399.323 416.5,398.5C 396.041,387.578 387.874,370.578 392,347.5C 393.876,340.745 397.043,334.745 401.5,329.5C 403.5,327.833 405.5,326.167 407.5,324.5C 409.5,323.167 411.5,321.833 413.5,320.5C 415.574,319.486 417.574,318.486 419.5,317.5C 443.919,311.468 462.085,319.468 474,341.5C 481.142,362.395 476.309,379.895 459.5,394C 448.539,401.426 436.539,403.926 423.5,401.5 Z M 282.5,418.5 C 284.5,420.167 286.5,421.833 288.5,423.5C 289.475,425.795 290.808,427.795 292.5,429.5C 293.596,432.032 294.929,434.365 296.5,436.5C 303.304,463.723 293.971,482.889 268.5,494C 240.311,499.442 221.811,488.609 213,461.5C 212.098,453.06 212.598,444.727 214.5,436.5C 215.401,435.71 216.068,434.71 216.5,433.5C 227.336,414.417 243.669,406.583 265.5,410C 271.751,411.792 277.418,414.626 282.5,418.5 Z"/></g>
<g><path style="opacity:0.992" fill="#84cda4" d="M 401.5,102.5 C 400.135,104.86 398.135,106.527 395.5,107.5C 396.891,105.11 398.891,103.443 401.5,102.5 Z"/></g>
<g><path style="opacity:0.545" fill="#7adf52" d="M 472.5,131.5 C 471.662,131.158 471.328,130.492 471.5,129.5C 471.435,129.062 471.601,128.728 472,128.5C 472.374,129.416 472.874,130.25 473.5,131C 473.272,131.399 472.938,131.565 472.5,131.5 Z"/></g>
<g><path style="opacity:1" fill="#375090" d="M 53.5,132.5 C 69.1702,132.333 84.8369,132.5 100.5,133C 106.421,139.395 105.421,144.395 97.5,148C 83.8333,148.667 70.1667,148.667 56.5,148C 48.5112,144.222 47.5112,139.056 53.5,132.5 Z"/></g>
<g><path style="opacity:1" fill="#345291" d="M 410.5,132.5 C 426.17,132.333 441.837,132.5 457.5,133C 463.421,139.395 462.421,144.395 454.5,148C 440.833,148.667 427.167,148.667 413.5,148C 405.511,144.222 404.511,139.056 410.5,132.5 Z"/></g>
<g><path style="opacity:0.533" fill="#9eb778" d="M 393.5,135.5 C 393.405,137.786 392.738,139.786 391.5,141.5C 391.358,138.523 392.025,136.523 393.5,135.5 Z"/></g>
<g><path style="opacity:0.247" fill="#b59266" d="M 375.5,144.5 C 375.938,144.435 376.272,144.601 376.5,145C 375.858,149.601 375.191,154.101 374.5,158.5C 374.181,153.637 374.514,148.97 375.5,144.5 Z"/></g>
<g><path style="opacity:0.455" fill="#afb59b" d="M 17.5,150.5 C 18.2446,155.282 19.2446,160.115 20.5,165C 20.2716,165.399 19.9382,165.565 19.5,165.5C 17.8554,160.766 17.1888,155.766 17.5,150.5 Z"/></g>
<g><path style="opacity:0.667" fill="#9fc59a" d="M 449.5,157.5 C 439.494,157.334 429.494,157.5 419.5,158C 418.333,159.167 417.167,160.333 416,161.5C 415.601,161.272 415.435,160.938 415.5,160.5C 416.29,159.206 417.29,158.039 418.5,157C 429.008,156.175 439.342,156.341 449.5,157.5 Z"/></g>
<g><path style="opacity:1" fill="#3c5193" d="M 61.5,156.5 C 71.8387,156.334 82.172,156.5 92.5,157C 96.2118,159.602 97.3785,163.102 96,167.5C 95.1667,169.667 93.6667,171.167 91.5,172C 81.8333,172.667 72.1667,172.667 62.5,172C 57.9315,169.459 56.4315,165.625 58,160.5C 59.3756,159.295 60.5423,157.962 61.5,156.5 Z"/></g>
<g><path style="opacity:1" fill="#314a91" d="M 449.5,157.5 C 453.787,160.622 454.621,164.622 452,169.5C 451.097,170.701 449.931,171.535 448.5,172C 438.833,172.667 429.167,172.667 419.5,172C 414.763,169.252 413.43,165.418 415.5,160.5C 415.435,160.938 415.601,161.272 416,161.5C 417.167,160.333 418.333,159.167 419.5,158C 429.494,157.5 439.494,157.334 449.5,157.5 Z"/></g>
<g><path style="opacity:0.894" fill="#6bc02f" d="M 294.5,158.5 C 296.38,158.229 297.713,158.896 298.5,160.5C 296.847,160.34 295.514,159.674 294.5,158.5 Z"/></g>
<g><path style="opacity:0.431" fill="#64bb82" d="M 119.5,161.5 C 120.043,161.56 120.376,161.893 120.5,162.5C 120.216,164.759 119.216,166.426 117.5,167.5C 118.167,165.5 118.833,163.5 119.5,161.5 Z"/></g>
<g><path style="opacity:0.757" fill="#908d6b" d="M 24.5,180.5 C 22.3772,177.133 21.0439,173.466 20.5,169.5C 22.0449,172.177 23.7116,175.511 25.5,179.5C 25.3764,180.107 25.0431,180.44 24.5,180.5 Z"/></g>
<g><path style="opacity:0.675" fill="#5dc44d" d="M 218.5,174.5 C 217.609,175.11 216.609,175.443 215.5,175.5C 215.062,175.565 214.728,175.399 214.5,175C 215.946,173.702 217.279,173.535 218.5,174.5 Z"/></g>
<g><path style="opacity:0.969" fill="#7ec47b" d="M 39.5,174.5 C 40.8897,175.899 41.8897,177.566 42.5,179.5C 40.0633,178.262 39.0633,176.595 39.5,174.5 Z"/></g>
<g><path style="opacity:0.576" fill="#79b627" d="M 204.5,182.5 C 203.71,183.401 202.71,184.068 201.5,184.5C 201.821,182.952 202.821,182.285 204.5,182.5 Z"/></g>
<g><path style="opacity:0.325" fill="#938d47" d="M 45.5,182.5 C 47.8585,184.529 50.1918,186.529 52.5,188.5C 48.9111,187.908 46.5778,185.908 45.5,182.5 Z"/></g>
<g><path style="opacity:0.518" fill="#93a461" d="M 327.5,202.5 C 324.8,200.766 322.8,198.432 321.5,195.5C 321.435,195.062 321.601,194.728 322,194.5C 324.1,197.051 325.933,199.717 327.5,202.5 Z"/></g>
<g><path style="opacity:0.224" fill="#62c032" d="M 105.5,204.5 C 104.609,205.11 103.609,205.443 102.5,205.5C 103.221,203.618 104.221,203.285 105.5,204.5 Z"/></g>
<g><path style="opacity:0.675" fill="#73dd6d" d="M 462.5,204.5 C 461.609,205.11 460.609,205.443 459.5,205.5C 459.062,205.565 458.728,205.399 458.5,205C 459.946,203.702 461.279,203.535 462.5,204.5 Z"/></g>
<g><path style="opacity:0.263" fill="#7da942" d="M 329.5,205.5 C 331.937,206.738 332.937,208.405 332.5,210.5C 331.11,209.101 330.11,207.434 329.5,205.5 Z"/></g>
<g><path style="opacity:0.6" fill="#c65641" d="M 308.5,220.5 C 273.238,219.504 238.238,219.171 203.5,219.5C 237.998,218.336 272.664,218.169 307.5,219C 308.056,219.383 308.389,219.883 308.5,220.5 Z"/></g>
<g><path style="opacity:1" fill="#2a478b" d="M 203.5,219.5 C 238.238,219.171 273.238,219.504 308.5,220.5C 309.75,220.577 310.583,221.244 311,222.5C 312.724,227.731 311.224,231.565 306.5,234C 272.5,234.667 238.5,234.667 204.5,234C 199.52,231.149 198.187,226.982 200.5,221.5C 201.357,220.575 202.357,219.908 203.5,219.5 Z"/></g>
<g><path style="opacity:1" fill="#405595" d="M 204.5,247.5 C 238.502,247.333 272.502,247.5 306.5,248C 311.224,250.435 312.724,254.269 311,259.5C 309.786,261.049 308.286,262.215 306.5,263C 272.5,263.667 238.5,263.667 204.5,263C 199.776,260.565 198.276,256.731 200,251.5C 201.397,249.93 202.897,248.596 204.5,247.5 Z"/></g>
<g><path style="opacity:1" fill="#3d4988" d="M 223.5,276.5 C 244.836,276.333 266.169,276.5 287.5,277C 292.535,280.013 293.702,284.18 291,289.5C 290.097,290.701 288.931,291.535 287.5,292C 266.167,292.667 244.833,292.667 223.5,292C 218.465,288.987 217.298,284.82 220,279.5C 221.145,278.364 222.312,277.364 223.5,276.5 Z"/></g>
<g><path style="opacity:0.035" fill="#6fe133" d="M 353.5,293.5 C 353.068,294.71 352.401,295.71 351.5,296.5C 351.285,294.821 351.952,293.821 353.5,293.5 Z"/></g>
<g><path style="opacity:0.671" fill="#948b72" d="M 401.5,309.5 C 398.792,312.209 395.792,314.542 392.5,316.5C 394.637,313.027 397.637,310.694 401.5,309.5 Z"/></g>
<g><path style="opacity:0.569" fill="#aaa261" d="M 343.5,315.5 C 340.885,316.45 338.885,318.117 337.5,320.5C 337.823,317.939 339.323,315.606 342,313.5C 342.717,314.044 343.217,314.711 343.5,315.5 Z"/></g>
<g><path style="opacity:0.6" fill="#c79352" d="M 60.5,318.5 C 58.9505,319.441 57.2838,320.107 55.5,320.5C 55.8543,319.194 57.1876,318.194 59.5,317.5C 60.1067,317.624 60.44,317.957 60.5,318.5 Z"/></g>
<g><path style="opacity:0.576" fill="#89ad61" d="M 419.5,317.5 C 417.574,318.486 415.574,319.486 413.5,320.5C 413.369,319.624 413.702,318.957 414.5,318.5C 416.059,317.926 417.559,317.26 419,316.5C 419.399,316.728 419.565,317.062 419.5,317.5 Z"/></g>
<g><path style="opacity:0.969" fill="#7aa366" d="M 192.5,318.5 C 195.874,321.51 199.208,324.51 202.5,327.5C 197.911,325.876 194.577,322.876 192.5,318.5 Z"/></g>
<g><path style="opacity:0.188" fill="#ce9a5d" d="M 407.5,324.5 C 405.5,326.167 403.5,327.833 401.5,329.5C 402.203,327.284 403.536,325.451 405.5,324C 406.437,323.308 407.103,323.475 407.5,324.5 Z"/></g>
<g><path style="opacity:0.995" fill="#485693" d="M 50.5,350.5 C 58.3228,350.154 61.8228,353.821 61,361.5C 58.1034,366.155 53.9367,367.655 48.5,366C 44.7882,363.398 43.6215,359.898 45,355.5C 46.1065,352.887 47.9399,351.22 50.5,350.5 Z"/></g>
<g><path style="opacity:0.995" fill="#4c5790" d="M 98.5,350.5 C 107.174,350.006 110.674,354.006 109,362.5C 106.045,366.277 102.212,367.443 97.5,366C 93.4432,364.053 91.9432,360.886 93,356.5C 94.0209,353.65 95.8542,351.65 98.5,350.5 Z"/></g>
<g><path style="opacity:0.99" fill="#4b5891" d="M 407.5,350.5 C 415.323,350.154 418.823,353.821 418,361.5C 415.103,366.155 410.937,367.655 405.5,366C 401.788,363.398 400.622,359.898 402,355.5C 403.107,352.887 404.94,351.22 407.5,350.5 Z"/></g>
<g><path style="opacity:0.995" fill="#4a5491" d="M 455.5,350.5 C 464.174,350.006 467.674,354.006 466,362.5C 463.045,366.277 459.212,367.443 454.5,366C 450.443,364.053 448.943,360.886 450,356.5C 451.021,353.65 452.854,351.65 455.5,350.5 Z"/></g>
<g><path style="opacity:1" fill="#505491" d="M 73.5,350.5 C 84.1172,350.616 87.1172,355.449 82.5,365C 71.9641,368.997 67.4641,365.497 69,354.5C 70.3968,352.93 71.8968,351.596 73.5,350.5 Z"/></g>
<g><path style="opacity:1" fill="#4d528d" d="M 431.5,350.5 C 434.245,351.168 436.745,352.501 439,354.5C 439.399,354.272 439.565,353.938 439.5,353.5C 440.117,353.611 440.617,353.944 441,354.5C 443.167,364.333 439.333,368.167 429.5,366C 427.667,365.5 426.5,364.333 426,362.5C 424.042,356.627 425.875,352.627 431.5,350.5 Z"/></g>
<g><path style="opacity:0.553" fill="#b5a856" d="M 431.5,350.5 C 434.831,350.018 437.497,351.018 439.5,353.5C 439.565,353.938 439.399,354.272 439,354.5C 436.745,352.501 434.245,351.168 431.5,350.5 Z"/></g>
<g><path style="opacity:0.969" fill="#90a55f" d="M 416.5,398.5 C 418.987,399.323 421.321,400.323 423.5,401.5C 420.423,401.821 418.09,400.821 416.5,398.5 Z"/></g>
<g><path style="opacity:0.996" fill="#59af2a" d="M 207.5,417.5 C 207.715,419.179 207.048,420.179 205.5,420.5C 205.932,419.29 206.599,418.29 207.5,417.5 Z"/></g>
<g><path style="opacity:0.949" fill="#a8b04c" d="M 282.5,418.5 C 282.897,417.475 283.563,417.308 284.5,418C 286.464,419.451 287.797,421.284 288.5,423.5C 286.5,421.833 284.5,420.167 282.5,418.5 Z"/></g>
<g><path style="opacity:0.553" fill="#b8b454" d="M 302.5,416.5 C 304.326,418.147 305.66,420.147 306.5,422.5C 304.449,421.663 303.116,419.663 302.5,416.5 Z"/></g>
<g><path style="opacity:0.953" fill="#b8b277" d="M 292.5,429.5 C 295.083,430.985 296.416,433.318 296.5,436.5C 294.929,434.365 293.596,432.032 292.5,429.5 Z"/></g>
<g><path style="opacity:0.733" fill="#87c6c3" d="M 279.5,433.5 C 263.774,433.512 248.107,433.512 232.5,433.5C 248.069,432.177 263.735,432.177 279.5,433.5 Z"/></g>
<g><path style="opacity:1" fill="#2c4c95" d="M 232.5,433.5 C 248.107,433.512 263.774,433.512 279.5,433.5C 281.828,435.166 282.828,437.499 282.5,440.5C 282.881,443.325 281.881,445.491 279.5,447C 271.599,448.136 263.599,448.636 255.5,448.5C 247.401,448.636 239.401,448.136 231.5,447C 228.098,443.281 227.598,439.114 230,434.5C 230.671,433.748 231.504,433.414 232.5,433.5 Z"/></g>
<g><path style="opacity:0.184" fill="#8fc42e" d="M 216.5,433.5 C 216.068,434.71 215.401,435.71 214.5,436.5C 214.285,434.821 214.952,433.821 216.5,433.5 Z"/></g>
<g><path style="opacity:1" fill="#425494" d="M 240.5,456.5 C 250.506,456.334 260.506,456.5 270.5,457C 277.132,462.045 277.132,467.045 270.5,472C 260.5,472.667 250.5,472.667 240.5,472C 233.896,466.888 233.896,461.721 240.5,456.5 Z"/></g>
</svg>
