<?xml version="1.0" encoding="UTF-8"?>
<!DOCTYPE svg PUBLIC "-//W3C//DTD SVG 1.1//EN" "http://www.w3.org/Graphics/SVG/1.1/DTD/svg11.dtd">
<svg xmlns="http://www.w3.org/2000/svg" version="1.1" width="512px" height="512px" style="shape-rendering:geometricPrecision; text-rendering:geometricPrecision; image-rendering:optimizeQuality; fill-rule:evenodd; clip-rule:evenodd" xmlns:xlink="http://www.w3.org/1999/xlink">
<g><path style="opacity:0.964" fill="#1f4692" d="M 57.5,-0.5 C 138.5,-0.5 219.5,-0.5 300.5,-0.5C 304.317,0.840466 307.983,2.6738 311.5,5C 337.667,31.1667 363.833,57.3333 390,83.5C 392.434,86.7954 394.101,90.462 395,94.5C 395.667,141.167 395.667,187.833 395,234.5C 390.878,239.397 386.378,239.73 381.5,235.5C 380.902,234.205 380.402,232.872 380,231.5C 379.5,187.835 379.333,144.168 379.5,100.5C 361.83,100.667 344.164,100.5 326.5,100C 309.333,96.1667 298.833,85.6667 295,68.5C 295.147,50.433 294.314,32.5996 292.5,15C 217.167,14.3333 141.833,14.3333 66.5,15C 54.3589,16.1409 46.8589,22.6409 44,34.5C 43.3333,169.167 43.3333,303.833 44,438.5C 45.6133,448.78 51.4466,455.28 61.5,458C 90.1667,458.333 118.833,458.667 147.5,459C 154.864,463.692 155.197,468.692 148.5,474C 117.127,474.962 85.7935,474.629 54.5,473C 39.0759,467.573 30.2426,456.74 28,440.5C 27.3333,304.833 27.3333,169.167 28,33.5C 30.9014,16.1018 40.7347,4.76848 57.5,-0.5 Z M 310.5,27.5 C 329.632,46.1316 348.632,64.965 367.5,84C 354.5,84.6667 341.5,84.6667 328.5,84C 319.333,81.5 313.5,75.6667 311,66.5C 310.5,53.5043 310.333,40.5043 310.5,27.5 Z"/></g>
<g><path style="opacity:0.957" fill="#1f4693" d="M 86.5,84.5 C 129.168,84.3333 171.835,84.5 214.5,85C 219.224,87.4353 220.724,91.2686 219,96.5C 217.833,97.6667 216.667,98.8333 215.5,100C 172.5,100.667 129.5,100.667 86.5,100C 81.7762,97.5647 80.2762,93.7314 82,88.5C 83.3968,86.9297 84.8968,85.5964 86.5,84.5 Z"/></g>
<g><path style="opacity:0.938" fill="#1e4692" d="M 87.5,136.5 C 170.501,136.333 253.501,136.5 336.5,137C 343.663,140.994 344.33,145.994 338.5,152C 254.167,152.667 169.833,152.667 85.5,152C 82.6339,150.607 81.3006,148.274 81.5,145C 81.4506,140.572 83.4506,137.738 87.5,136.5 Z"/></g>
<g><path style="opacity:0.988" fill="#1e4593" d="M 85.5,183.5 C 169.834,183.333 254.167,183.5 338.5,184C 344.33,190.006 343.663,195.006 336.5,199C 253.5,199.667 170.5,199.667 87.5,199C 83.3339,198.015 81.3339,195.348 81.5,191C 81.4302,187.634 82.7635,185.134 85.5,183.5 Z"/></g>
<g><path style="opacity:0.969" fill="#1f4693" d="M 307.5,511.5 C 302.5,511.5 297.5,511.5 292.5,511.5C 284.766,507.461 277.099,503.128 269.5,498.5C 257.194,508.526 244.527,509.026 231.5,500C 229.637,497.636 227.971,495.136 226.5,492.5C 214.11,495.092 203.61,491.759 195,482.5C 193.226,479.285 191.726,475.952 190.5,472.5C 180.59,472.591 172.424,468.924 166,461.5C 163.965,458.439 162.799,455.105 162.5,451.5C 144.968,451.798 134.968,443.298 132.5,426C 133.197,416.607 136.864,408.607 143.5,402C 143.167,401.667 142.833,401.333 142.5,401C 137.103,402.928 131.436,404.095 125.5,404.5C 121.015,404.462 116.681,403.629 112.5,402C 106.33,398.081 99.9969,394.414 93.5,391C 85.1795,382.622 84.3461,373.456 91,363.5C 112.123,327.418 133.623,291.585 155.5,256C 161.139,252.081 167.139,251.081 173.5,253C 180.833,257.333 188.167,261.667 195.5,266C 203.315,273.434 206.815,282.601 206,293.5C 211.054,297.843 216.887,299.677 223.5,299C 232.231,296.201 240.897,293.201 249.5,290C 256.176,288.059 262.843,288.059 269.5,290C 274.952,291.893 280.285,294.06 285.5,296.5C 297.216,293.279 309.049,290.613 321,288.5C 323.824,289.054 326.657,289.554 329.5,290C 337.735,293.285 346.069,296.285 354.5,299C 357.849,299.388 361.183,299.221 364.5,298.5C 361.351,285.061 365.018,273.895 375.5,265C 384.14,259.262 393.307,254.762 403,251.5C 410.955,252.782 416.621,257.115 420,264.5C 440.081,298.998 460.415,333.332 481,367.5C 484.597,374.915 483.93,381.915 479,388.5C 470.146,394.844 460.646,400.011 450.5,404C 444.68,404.95 439.013,404.45 433.5,402.5C 430.04,404.133 426.706,405.966 423.5,408C 432.118,420.777 431.118,432.777 420.5,444C 412.569,449.423 403.903,450.923 394.5,448.5C 390.799,464.873 380.465,472.206 363.5,470.5C 360.684,484.602 352.017,492.268 337.5,493.5C 333.46,493.199 329.627,492.199 326,490.5C 323.11,500.547 316.944,507.547 307.5,511.5 Z M 166.5,268.5 C 173.853,271.594 180.686,275.594 187,280.5C 189.374,284.894 190.041,289.56 189,294.5C 171.667,323.833 154.333,353.167 137,382.5C 132.983,387.593 127.816,389.426 121.5,388C 114.798,384.655 108.465,380.821 102.5,376.5C 123.845,340.472 145.178,304.472 166.5,268.5 Z M 400.5,268.5 C 401.822,268.33 402.989,268.663 404,269.5C 425.167,305.333 446.333,341.167 467.5,377C 461.167,380.667 454.833,384.333 448.5,388C 441.439,389.54 435.939,387.373 432,381.5C 424.252,367.669 416.252,354.002 408,340.5C 403.793,336.566 399.627,336.566 395.5,340.5C 393.775,342.957 393.275,345.623 394,348.5C 402.183,362.677 410.35,376.843 418.5,391C 415.947,393.627 412.947,395.793 409.5,397.5C 375.63,377.134 341.63,356.968 307.5,337C 297.635,335.871 293.469,340.371 295,350.5C 292.145,358.844 286.311,363.177 277.5,363.5C 277.333,350.496 277.5,337.496 278,324.5C 280.167,318.333 284.333,314.167 290.5,312C 300.5,309.5 310.5,307 320.5,304.5C 329.672,307.169 338.672,310.335 347.5,314C 355.67,316.19 363.67,315.69 371.5,312.5C 374.188,315.362 376.521,318.528 378.5,322C 387.58,325.215 391.747,322.048 391,312.5C 387.919,306.669 384.585,301.002 381,295.5C 378.402,288.626 379.902,282.793 385.5,278C 390.674,274.97 395.674,271.804 400.5,268.5 Z M 256.5,304.5 C 260.91,304.031 264.91,305.031 268.5,307.5C 265.244,312.013 263.078,317.013 262,322.5C 261.333,337.5 261.333,352.5 262,367.5C 264.731,375.284 270.231,379.284 278.5,379.5C 293.276,378.216 303.776,370.882 310,357.5C 342.5,376.667 375,395.833 407.5,415C 415.485,421.049 415.485,427.049 407.5,433C 405.167,433.667 402.833,433.667 400.5,433C 378.239,420.398 356.239,407.398 334.5,394C 327.032,389.932 322.032,391.932 319.5,400C 320,401.5 320.5,403 321,404.5C 338.584,415.71 356.417,426.543 374.5,437C 378.277,439.955 379.443,443.788 378,448.5C 375.647,453.426 371.814,455.26 366.5,454C 348.669,443.919 331.002,433.586 313.5,423C 303.234,421.759 299.9,425.925 303.5,435.5C 316.168,443.836 329.168,451.67 342.5,459C 350.252,467.635 348.585,473.802 337.5,477.5C 324.042,470.27 310.709,462.77 297.5,455C 287.952,454.253 284.785,458.42 288,467.5C 293.901,471.729 300.068,475.563 306.5,479C 311.807,487.558 309.641,493.392 300,496.5C 292.666,492.913 285.499,488.913 278.5,484.5C 286.245,465.75 280.578,452.75 261.5,445.5C 264.362,424.27 255.029,412.604 233.5,410.5C 228.18,395.334 217.513,389.167 201.5,392C 197.554,393.306 193.888,395.139 190.5,397.5C 180.7,385.674 168.867,383.007 155,389.5C 154.25,388.874 153.416,388.374 152.5,388C 167.968,361.555 183.801,335.388 200,309.5C 209.635,314.745 219.802,316.245 230.5,314C 239.315,310.899 247.981,307.732 256.5,304.5 Z M 167.5,401.5 C 175.956,402.774 179.123,407.441 177,415.5C 173.221,421.612 169.055,427.445 164.5,433C 157.299,436.933 152.132,435.1 149,427.5C 148.516,425.087 148.85,422.754 150,420.5C 153.333,415.833 156.667,411.167 160,406.5C 162.17,404.177 164.67,402.51 167.5,401.5 Z M 204.5,407.5 C 211.994,406.493 216.66,409.659 218.5,417C 210.694,430.479 201.694,443.146 191.5,455C 181.994,456.819 177.494,452.985 178,443.5C 185.956,430.731 194.79,418.731 204.5,407.5 Z M 235.5,427.5 C 244.106,428.388 247.606,433.054 246,441.5C 238.421,451.658 231.088,461.991 224,472.5C 220.95,476.13 217.117,477.297 212.5,476C 207.268,473.367 205.435,469.201 207,463.5C 214,453.5 221,443.5 228,433.5C 230.134,430.847 232.634,428.847 235.5,427.5 Z M 253.5,461.5 C 261.818,461.32 265.985,465.32 266,473.5C 263.084,478.915 259.584,483.915 255.5,488.5C 247.106,492.616 241.772,490.116 239.5,481C 242.468,473.211 247.135,466.711 253.5,461.5 Z"/></g>
</svg>
