<?xml version="1.0" encoding="UTF-8"?>
<!DOCTYPE svg PUBLIC "-//W3C//DTD SVG 1.1//EN" "http://www.w3.org/Graphics/SVG/1.1/DTD/svg11.dtd">
<svg xmlns="http://www.w3.org/2000/svg" version="1.1" width="512px" height="512px" style="shape-rendering:geometricPrecision; text-rendering:geometricPrecision; image-rendering:optimizeQuality; fill-rule:evenodd; clip-rule:evenodd" xmlns:xlink="http://www.w3.org/1999/xlink">
<g><path style="opacity:0.977" fill="#1f4692" d="M 56.5,-0.5 C 141.833,-0.5 227.167,-0.5 312.5,-0.5C 338.163,23.9968 362.997,49.3301 387,75.5C 387.167,124.17 387.667,172.837 388.5,221.5C 417.719,233.943 447.052,246.109 476.5,258C 479.883,259.38 481.716,261.88 482,265.5C 482.667,305.167 482.667,344.833 482,384.5C 480.54,399.547 475.873,413.547 468,426.5C 442.935,464.404 409.769,492.737 368.5,511.5C 365.5,511.5 362.5,511.5 359.5,511.5C 321.421,494.293 290.087,468.793 265.5,435C 195.833,434.667 126.167,434.333 56.5,434C 40.0269,428.858 30.8603,417.691 29,400.5C 28.3333,278.167 28.3333,155.833 29,33.5C 30.8541,16.0682 40.0208,4.73489 56.5,-0.5 Z M 65.5,15.5 C 143.5,15.5 221.5,15.5 299.5,15.5C 290.202,72.2022 313.869,95.8689 370.5,86.5C 370.5,128.833 370.5,171.167 370.5,213.5C 366.108,212.008 361.775,212.175 357.5,214C 322.167,228.667 286.833,243.333 251.5,258C 249.714,258.785 248.214,259.951 247,261.5C 245.35,303.107 245.017,344.774 246,386.5C 247.085,397.345 250.251,407.511 255.5,417C 190.167,417.667 124.833,417.667 59.5,417C 51.2661,414.026 46.7661,408.193 46,399.5C 45.3333,277.833 45.3333,156.167 46,34.5C 47.8054,23.1928 54.3054,16.8595 65.5,15.5 Z M 316.5,28.5 C 330.299,41.7981 343.965,55.2981 357.5,69C 348.833,69.6667 340.167,69.6667 331.5,69C 323.142,66.6398 318.309,61.1398 317,52.5C 316.5,44.5069 316.334,36.5069 316.5,28.5 Z M 361.5,230.5 C 363.199,230.34 364.866,230.506 366.5,231C 399.304,245.072 432.304,258.572 465.5,271.5C 465.667,308.835 465.5,346.168 465,383.5C 462.161,400.51 455.494,415.844 445,429.5C 423.346,457.819 396.346,479.486 364,494.5C 270.435,448.637 236.602,374.303 262.5,271.5C 295.9,258.628 328.9,244.961 361.5,230.5 Z"/></g>
<g><path style="opacity:0.988" fill="#1e4593" d="M 80.5,61.5 C 127.168,61.3333 173.835,61.5 220.5,62C 227.16,64.4902 228.993,68.9902 226,75.5C 225.167,76.3333 224.333,77.1667 223.5,78C 174.833,78.6667 126.167,78.6667 77.5,78C 72.9924,73.9468 72.3257,69.2801 75.5,64C 77.3146,63.2432 78.9812,62.4098 80.5,61.5 Z"/></g>
<g><path style="opacity:0.941" fill="#1e4692" d="M 77.5,110.5 C 141.834,110.333 206.168,110.5 270.5,111C 275.305,114.089 276.472,118.256 274,123.5C 272.681,125.487 270.848,126.654 268.5,127C 205.5,127.667 142.5,127.667 79.5,127C 73.9051,124.646 72.0718,120.479 74,114.5C 75.3756,113.295 76.5423,111.962 77.5,110.5 Z"/></g>
<g><path style="opacity:0.941" fill="#1e4593" d="M 78.5,158.5 C 142.834,158.333 207.168,158.5 271.5,159C 275.666,159.985 277.666,162.652 277.5,167C 277.6,170.804 275.934,173.471 272.5,175C 207.833,175.667 143.167,175.667 78.5,175C 73.2625,171.726 72.0958,167.226 75,161.5C 76.1451,160.364 77.3117,159.364 78.5,158.5 Z"/></g>
<g><path style="opacity:0.988" fill="#1e4593" d="M 80.5,206.5 C 127.168,206.333 173.835,206.5 220.5,207C 227.16,209.49 228.993,213.99 226,220.5C 225.167,221.333 224.333,222.167 223.5,223C 174.833,223.667 126.167,223.667 77.5,223C 72.9924,218.947 72.3257,214.28 75.5,209C 77.3146,208.243 78.9812,207.41 80.5,206.5 Z"/></g>
<g><path style="opacity:0.966" fill="#1f4593" d="M 415.5,309.5 C 425.35,308.838 429.184,313.171 427,322.5C 403,352.5 379,382.5 355,412.5C 350.792,415.621 346.625,415.788 342.5,413C 328.545,394.923 314.712,376.757 301,358.5C 298.892,353.124 300.392,348.957 305.5,346C 308.303,345.245 310.97,345.578 313.5,347C 325.057,361.963 336.724,376.796 348.5,391.5C 370.827,364.172 393.16,336.839 415.5,309.5 Z"/></g>
</svg>
