<?xml version="1.0" encoding="UTF-8"?>
<!DOCTYPE svg PUBLIC "-//W3C//DTD SVG 1.1//EN" "http://www.w3.org/Graphics/SVG/1.1/DTD/svg11.dtd">
<svg xmlns="http://www.w3.org/2000/svg" version="1.1" width="512px" height="512px" style="shape-rendering:geometricPrecision; text-rendering:geometricPrecision; image-rendering:optimizeQuality; fill-rule:evenodd; clip-rule:evenodd" xmlns:xlink="http://www.w3.org/1999/xlink">
<g><path style="opacity:0.997" fill="#2c4a92" d="M 503.5,413.5 C 500.529,416.808 497.529,420.141 494.5,423.5C 486.252,424.469 477.918,424.802 469.5,424.5C 469.666,432.507 469.5,440.507 469,448.5C 466.668,454.164 462.501,457.664 456.5,459C 442.833,459.333 429.167,459.667 415.5,460C 405.247,470.757 394.58,480.924 383.5,490.5C 381.033,490.755 379.033,491.755 377.5,493.5C 294.833,493.667 212.166,493.5 129.5,493C 121.431,490.435 117.431,484.935 117.5,476.5C 118.498,441.337 118.832,406.004 118.5,370.5C 104.99,370.171 91.6562,370.504 78.5,371.5C 74.1033,371.575 69.77,371.075 65.5,370C 60.9239,367.876 56.2573,366.043 51.5,364.5C 39.0066,363.669 26.34,363.169 13.5,363C 11.714,362.215 10.214,361.049 9,359.5C 8.60123,359.728 8.43456,360.062 8.5,360.5C 7.33534,319.002 7.16867,277.335 8,235.5C 8.5,233.667 9.66667,232.5 11.5,232C 25.9015,231.949 40.2348,231.282 54.5,230C 56,229.167 57.1667,228 58,226.5C 61.6893,219.106 65.8559,212.106 70.5,205.5C 70.81,206.738 71.31,206.738 72,205.5C 73.4578,203.04 75.2911,200.873 77.5,199C 77.2716,198.601 76.9382,198.435 76.5,198.5C 76.5,197.833 76.8333,197.5 77.5,197.5C 79.5952,196.588 81.5952,195.421 83.5,194C 84.7383,193.31 84.7383,192.81 83.5,192.5C 87.0505,189.895 91.0505,188.061 95.5,187C 102.55,186.139 109.55,185.306 116.5,184.5C 116.56,185.043 116.893,185.376 117.5,185.5C 118.829,157.336 118.829,129.336 117.5,101.5C 117.5,101.167 117.5,100.833 117.5,100.5C 119.312,96.2121 121.645,92.2121 124.5,88.5C 125.473,88.0133 126.473,87.5133 127.5,87C 135.493,86.5003 143.493,86.3336 151.5,86.5C 145.939,58.3949 157.272,46.7282 185.5,51.5C 185.099,43.4148 185.599,35.4148 187,27.5C 188.927,22.5723 192.427,19.4056 197.5,18C 295.5,17.3333 393.5,17.3333 491.5,18C 496.84,19.4101 500.673,22.5768 503,27.5C 503.5,156.166 503.667,284.833 503.5,413.5 Z M 487.5,34.5 C 487.5,159.167 487.5,283.833 487.5,408.5C 481.5,408.5 475.5,408.5 469.5,408.5C 469.667,293.166 469.5,177.833 469,62.5C 466.668,56.8356 462.501,53.3356 456.5,52C 371.834,51.5 287.167,51.3333 202.5,51.5C 202.5,45.8333 202.5,40.1667 202.5,34.5C 297.5,34.5 392.5,34.5 487.5,34.5 Z M 168.5,68.5 C 263.167,68.5 357.833,68.5 452.5,68.5C 452.5,193.167 452.5,317.833 452.5,442.5C 445.833,442.5 439.167,442.5 432.5,442.5C 433.32,440.86 434.153,439.193 435,437.5C 435.667,324.5 435.667,211.5 435,98.5C 433.602,93.2015 430.435,89.3682 425.5,87C 339.834,86.5 254.167,86.3333 168.5,86.5C 168.5,80.5 168.5,74.5 168.5,68.5 Z M 378.5,428.5 C 377.391,428.557 376.391,428.89 375.5,429.5C 372.444,431.263 370.611,433.93 370,437.5C 369.5,450.496 369.333,463.496 369.5,476.5C 291.167,476.5 212.833,476.5 134.5,476.5C 134.5,441.5 134.5,406.5 134.5,371.5C 160.169,371.667 185.835,371.5 211.5,371C 222.308,367.362 227.975,359.862 228.5,348.5C 276.67,348.832 324.67,348.499 372.5,347.5C 373.492,347.672 374.158,347.338 374.5,346.5C 375.5,346.167 376.167,345.5 376.5,344.5C 379.164,337.495 376.83,333.161 369.5,331.5C 328.82,332.161 288.486,331.494 248.5,329.5C 249.338,329.158 249.672,328.492 249.5,327.5C 250.401,326.71 251.068,325.71 251.5,324.5C 251.59,322.304 251.923,320.137 252.5,318C 251.595,314.494 251.095,310.994 251,307.5C 254.741,305.762 257.908,303.262 260.5,300C 298.167,299.667 335.833,299.333 373.5,299C 379.747,294.486 380.08,289.486 374.5,284C 373.099,283.59 371.766,283.09 370.5,282.5C 335.5,282.5 300.5,282.5 265.5,282.5C 265.721,279.721 265.388,277.054 264.5,274.5C 261.604,267.268 256.604,261.935 249.5,258.5C 248.637,256.229 248.637,253.895 249.5,251.5C 290.501,251.667 331.501,251.5 372.5,251C 379.409,247.937 380.909,243.104 377,236.5C 376.25,235.874 375.416,235.374 374.5,235C 331.829,234.833 289.163,234.333 246.5,233.5C 242.88,227.184 237.546,223.018 230.5,221C 198.502,220.5 166.502,220.333 134.5,220.5C 134.5,181.167 134.5,141.833 134.5,102.5C 229.167,102.5 323.833,102.5 418.5,102.5C 418.5,210.833 418.5,319.167 418.5,427.5C 405.087,427.186 391.754,427.519 378.5,428.5 Z M 227.5,310.5 C 230.089,310.461 232.089,311.461 233.5,313.5C 236.108,318.508 234.774,322.341 229.5,325C 196.5,325.333 163.5,325.667 130.5,326C 126.068,329.291 124.901,333.458 127,338.5C 128.319,340.487 130.152,341.654 132.5,342C 158.209,342.185 183.876,342.685 209.5,343.5C 210.939,345.588 211.606,347.921 211.5,350.5C 210.636,351.688 209.636,352.855 208.5,354C 163.167,354.667 117.833,354.667 72.5,354C 68.3692,352.765 64.3692,351.265 60.5,349.5C 60.3333,315.165 60.5,280.832 61,246.5C 61.3826,245.944 61.8826,245.611 62.5,245.5C 65.4135,244.094 67.9135,242.094 70,239.5C 75.7495,229.666 81.7495,219.999 88,210.5C 90.6877,208.636 93.1877,206.636 95.5,204.5C 99.4764,203.705 103.476,203.038 107.5,202.5C 110.777,202.784 113.943,202.451 117,201.5C 117.333,211.833 117.667,222.167 118,232.5C 119.109,234.815 120.943,236.315 123.5,237C 158.167,237.333 192.833,237.667 227.5,238C 235.684,244.456 235.35,250.456 226.5,256C 199.833,256.333 173.167,256.667 146.5,257C 141.845,259.897 140.345,264.063 142,269.5C 142.833,270.333 143.667,271.167 144.5,272C 176.748,273.319 209.081,273.986 241.5,274C 247.795,276.425 249.962,280.925 248,287.5C 245.949,290.553 243.115,292.386 239.5,293C 205.167,293.333 170.833,293.667 136.5,294C 131.167,299 131.167,304 136.5,309C 166.783,310.469 197.117,310.969 227.5,310.5 Z M 43.5,247.5 C 43.5,280.833 43.5,314.167 43.5,347.5C 36.8333,347.5 30.1667,347.5 23.5,347.5C 23.5,314.167 23.5,280.833 23.5,247.5C 30.1667,247.5 36.8333,247.5 43.5,247.5 Z M 405.5,444.5 C 399.5,450.833 393.5,457.167 387.5,463.5C 386.51,457.355 386.177,451.022 386.5,444.5C 392.833,444.5 399.167,444.5 405.5,444.5 Z"/></g>
<g><path style="opacity:0.467" fill="#24fb6d" d="M 487.5,34.5 C 392.5,34.5 297.5,34.5 202.5,34.5C 202.5,40.1667 202.5,45.8333 202.5,51.5C 201.5,46.2617 201.167,40.2617 201.5,33.5C 297.001,33.1673 392.335,33.5006 487.5,34.5 Z"/></g>
<g><path style="opacity:0.259" fill="#4ad18a" d="M 168.5,68.5 C 263.332,67.5006 358.332,67.1673 453.5,67.5C 453.5,192.833 453.5,318.167 453.5,443.5C 445.742,443.833 438.742,443.499 432.5,442.5C 439.167,442.5 445.833,442.5 452.5,442.5C 452.5,317.833 452.5,193.167 452.5,68.5C 357.833,68.5 263.167,68.5 168.5,68.5 Z"/></g>
<g><path style="opacity:0.831" fill="#90856a" d="M 124.5,88.5 C 121.645,92.2121 119.312,96.2121 117.5,100.5C 117.779,95.271 120.113,91.271 124.5,88.5 Z"/></g>
<g><path style="opacity:0.839" fill="#249527" d="M 117.5,101.5 C 118.829,129.336 118.829,157.336 117.5,185.5C 116.893,185.376 116.56,185.043 116.5,184.5C 117.498,157.005 117.831,129.338 117.5,101.5 Z"/></g>
<g><path style="opacity:0.953" fill="#224692" d="M 378.5,146.5 C 377.023,148.807 375.023,150.64 372.5,152C 308.332,152.167 244.332,152.667 180.5,153.5C 174.354,150.558 172.854,145.891 176,139.5C 177.419,138.54 178.919,137.707 180.5,137C 244.5,136.333 308.5,136.333 372.5,137C 376.655,138.811 378.655,141.977 378.5,146.5 Z"/></g>
<g><path style="opacity:0.8" fill="#644b19" d="M 378.5,146.5 C 378.16,149.675 376.493,151.841 373.5,153C 309.168,153.5 244.834,153.667 180.5,153.5C 244.332,152.667 308.332,152.167 372.5,152C 375.023,150.64 377.023,148.807 378.5,146.5 Z"/></g>
<g><path style="opacity:1" fill="#3d5495" d="M 176.5,189.5 C 178.5,189.5 179.5,188.5 179.5,186.5C 244.43,185.337 309.43,185.171 374.5,186C 379.609,189.366 380.776,193.866 378,199.5C 377.097,200.701 375.931,201.535 374.5,202C 309.833,202.667 245.167,202.667 180.5,202C 175.662,199.015 174.328,194.848 176.5,189.5 Z"/></g>
<g><path style="opacity:0.804" fill="#8fd559" d="M 179.5,186.5 C 179.5,188.5 178.5,189.5 176.5,189.5C 177.167,188.167 178.167,187.167 179.5,186.5 Z"/></g>
<g><path style="opacity:0.922" fill="#b1cd7b" d="M 83.5,192.5 C 84.7383,192.81 84.7383,193.31 83.5,194C 81.5952,195.421 79.5952,196.588 77.5,197.5C 78.8908,195.11 80.8908,193.443 83.5,192.5 Z"/></g>
<g><path style="opacity:0.824" fill="#949862" d="M 76.5,198.5 C 76.9382,198.435 77.2716,198.601 77.5,199C 75.2911,200.873 73.4578,203.04 72,205.5C 71.31,206.738 70.81,206.738 70.5,205.5C 71.7805,202.553 73.7805,200.219 76.5,198.5 Z"/></g>
<g><path style="opacity:0.008" fill="#a1bb95" d="M 107.5,202.5 C 103.476,203.038 99.4764,203.705 95.5,204.5C 98.3246,202.822 101.491,201.822 105,201.5C 106.07,201.528 106.903,201.861 107.5,202.5 Z"/></g>
<g><path style="opacity:0.047" fill="#58fa56" d="M 62.5,245.5 C 61.8826,245.611 61.3826,245.944 61,246.5C 60.5,280.832 60.3333,315.165 60.5,349.5C 59.3357,315.002 59.1691,280.336 60,245.5C 60.9772,244.226 61.8106,244.226 62.5,245.5 Z"/></g>
<g><path style="opacity:0.133" fill="#2db98f" d="M 264.5,274.5 C 265.388,277.054 265.721,279.721 265.5,282.5C 300.5,282.5 335.5,282.5 370.5,282.5C 335.337,283.498 300.004,283.832 264.5,283.5C 264.238,280.252 264.238,277.252 264.5,274.5 Z"/></g>
<g><path style="opacity:0.255" fill="#8bd07b" d="M 227.5,310.5 C 229.725,309.249 231.891,309.582 234,311.5C 234.692,312.437 234.525,313.103 233.5,313.5C 232.089,311.461 230.089,310.461 227.5,310.5 Z"/></g>
<g><path style="opacity:0.596" fill="#5ddb80" d="M 251.5,324.5 C 251.068,325.71 250.401,326.71 249.5,327.5C 249.285,325.821 249.952,324.821 251.5,324.5 Z"/></g>
<g><path style="opacity:0.4" fill="#204613" d="M 248.5,329.5 C 288.486,331.494 328.82,332.161 369.5,331.5C 329.003,332.499 288.337,332.832 247.5,332.5C 247.263,331.209 247.596,330.209 248.5,329.5 Z"/></g>
<g><path style="opacity:0.996" fill="#92c25b" d="M 209.5,343.5 C 210.75,343.577 211.583,344.244 212,345.5C 212.8,348.021 212.633,349.688 211.5,350.5C 211.606,347.921 210.939,345.588 209.5,343.5 Z"/></g>
<g><path style="opacity:0.173" fill="#81cf62" d="M 376.5,344.5 C 376.167,345.5 375.5,346.167 374.5,346.5C 374.369,345.761 374.536,345.094 375,344.5C 375.69,343.262 376.19,343.262 376.5,344.5 Z"/></g>
<g><path style="opacity:0.6" fill="#b96f58" d="M 43.5,247.5 C 44.4983,280.996 44.8316,314.663 44.5,348.5C 37.3134,348.825 30.3134,348.491 23.5,347.5C 30.1667,347.5 36.8333,347.5 43.5,347.5C 43.5,314.167 43.5,280.833 43.5,247.5 Z"/></g>
<g><path style="opacity:0.6" fill="#c9493f" d="M 372.5,347.5 C 324.67,348.499 276.67,348.832 228.5,348.5C 276.236,347.831 324.069,347.164 372,346.5C 372.399,346.728 372.565,347.062 372.5,347.5 Z"/></g>
<g><path style="opacity:0.4" fill="#415324" d="M 51.5,364.5 C 38.4957,364.667 25.4957,364.5 12.5,364C 10.6763,363.34 9.34301,362.173 8.5,360.5C 8.43456,360.062 8.60123,359.728 9,359.5C 10.214,361.049 11.714,362.215 13.5,363C 26.34,363.169 39.0066,363.669 51.5,364.5 Z"/></g>
<g><path style="opacity:0.839" fill="#299822" d="M 78.5,371.5 C 91.6562,370.504 104.99,370.171 118.5,370.5C 118.832,406.004 118.498,441.337 117.5,476.5C 117.5,441.5 117.5,406.5 117.5,371.5C 104.5,371.5 91.5,371.5 78.5,371.5 Z"/></g>
<g><path style="opacity:1" fill="#2a5099" d="M 178.5,396.5 C 176.384,394.4 174.717,392.067 173.5,389.5C 172.75,385.992 174.083,383.158 177.5,381C 242.5,380.333 307.5,380.333 372.5,381C 379.421,386.743 379.088,392.076 371.5,397C 307.096,397.829 242.763,397.663 178.5,396.5 Z"/></g>
<g><path style="opacity:0.824" fill="#99aa7b" d="M 173.5,389.5 C 174.717,392.067 176.384,394.4 178.5,396.5C 174.907,395.57 173.241,393.237 173.5,389.5 Z"/></g>
<g><path style="opacity:0.137" fill="#818e75" d="M 503.5,413.5 C 501.895,418.104 498.895,421.438 494.5,423.5C 497.529,420.141 500.529,416.808 503.5,413.5 Z"/></g>
<g><path style="opacity:1" fill="#2b4e96" d="M 182.5,425.5 C 227.236,426.169 272.069,426.836 317,427.5C 317.399,427.272 317.565,426.938 317.5,426.5C 323.405,429.187 324.905,433.52 322,439.5C 321.097,440.701 319.931,441.535 318.5,442C 272.168,442.5 225.835,442.667 179.5,442.5C 177.794,439.808 176.128,437.141 174.5,434.5C 174.35,428.984 177.016,425.984 182.5,425.5 Z"/></g>
<g><path style="opacity:0.267" fill="#2987d1" d="M 182.5,425.5 C 227.67,425.168 272.67,425.501 317.5,426.5C 317.565,426.938 317.399,427.272 317,427.5C 272.069,426.836 227.236,426.169 182.5,425.5 Z"/></g>
<g><path style="opacity:0.976" fill="#b7c73c" d="M 378.5,428.5 C 377.779,430.382 376.779,430.715 375.5,429.5C 376.391,428.89 377.391,428.557 378.5,428.5 Z"/></g>
<g><path style="opacity:0.851" fill="#9fbf88" d="M 174.5,434.5 C 176.128,437.141 177.794,439.808 179.5,442.5C 176.167,440.841 174.5,438.175 174.5,434.5 Z"/></g>
<g><path style="opacity:0.663" fill="#b5b4de" d="M 405.5,444.5 C 399.167,444.5 392.833,444.5 386.5,444.5C 386.177,451.022 386.51,457.355 387.5,463.5C 387.539,464.756 387.039,465.756 386,466.5C 385.5,458.841 385.334,451.174 385.5,443.5C 392.926,443.167 399.592,443.501 405.5,444.5 Z"/></g>
<g><path style="opacity:0.008" fill="#97c8a5" d="M 383.5,490.5 C 381.967,492.245 379.967,493.245 377.5,493.5C 379.033,491.755 381.033,490.755 383.5,490.5 Z"/></g>
</svg>
