<?xml version="1.0" encoding="UTF-8"?>
<!DOCTYPE svg PUBLIC "-//W3C//DTD SVG 1.1//EN" "http://www.w3.org/Graphics/SVG/1.1/DTD/svg11.dtd">
<svg xmlns="http://www.w3.org/2000/svg" version="1.1" width="512px" height="512px" style="shape-rendering:geometricPrecision; text-rendering:geometricPrecision; image-rendering:optimizeQuality; fill-rule:evenodd; clip-rule:evenodd" xmlns:xlink="http://www.w3.org/1999/xlink">
<g><path style="opacity:0.949" fill="#ffd356" d="M 174.5,73.5 C 170.267,74.7943 165.934,74.7943 161.5,73.5C 154.764,52.5244 141.431,37.3577 121.5,28C 114.477,24.9108 107.143,23.0775 99.5,22.5C 99.5,41.1667 99.5,59.8333 99.5,78.5C 98.5655,77.4324 98.2322,76.099 98.5,74.5C 94.5,74.5 90.5,74.5 86.5,74.5C 86.5,57.1667 86.5,39.8333 86.5,22.5C 55.2099,27.1203 34.5433,44.4536 24.5,74.5C 20.1667,74.5 15.8333,74.5 11.5,74.5C 18.3947,45.766 35.5614,25.766 63,14.5C 106.394,1.29511 140.728,13.2951 166,50.5C 169.976,57.7781 172.81,65.4447 174.5,73.5 Z"/></g>
<g><path style="opacity:0.937" fill="#ffd254" d="M 243.5,29.5 C 262.926,29.0249 282.259,29.5249 301.5,31C 302.191,32.0674 302.691,33.2341 303,34.5C 303.167,41.3333 303.333,48.1667 303.5,55C 303.634,62.5998 303.134,70.0998 302,77.5C 301.167,78.3333 300.333,79.1667 299.5,80C 280.41,80.9741 261.41,80.6407 242.5,79C 242,78.5 241.5,78 241,77.5C 240.333,62.5 240.333,47.5 241,32.5C 242.045,31.6266 242.878,30.6266 243.5,29.5 Z M 253.5,42.5 C 265.833,42.5 278.167,42.5 290.5,42.5C 290.5,50.8333 290.5,59.1667 290.5,67.5C 278.167,67.5 265.833,67.5 253.5,67.5C 253.5,59.1667 253.5,50.8333 253.5,42.5 Z"/></g>
<g><path style="opacity:0.966" fill="#ffd356" d="M 322.5,35.5 C 349.169,35.3334 375.835,35.5 402.5,36C 406.292,38.0527 407.458,41.2194 406,45.5C 405.167,46.3333 404.333,47.1667 403.5,48C 376.167,48.6667 348.833,48.6667 321.5,48C 317.4,43.445 317.733,39.2783 322.5,35.5 Z"/></g>
<g><path style="opacity:0.973" fill="#ffd052" d="M 321.5,61.5 C 334.837,61.3334 348.171,61.5001 361.5,62C 365.989,67.3765 364.989,71.3765 358.5,74C 345.776,74.9198 333.11,74.5865 320.5,73C 317.625,68.783 317.959,64.9497 321.5,61.5 Z"/></g>
<g><path style="opacity:0.937" fill="#ffcc4d" d="M 161.5,73.5 C 165.934,74.7943 170.267,74.7943 174.5,73.5C 177.381,83.9 178.048,94.5667 176.5,105.5C 172.265,104.564 167.931,104.231 163.5,104.5C 163.5,102.833 163.5,101.167 163.5,99.5C 144.488,99.1671 125.488,99.5004 106.5,100.5C 106.863,101.183 107.196,101.85 107.5,102.5C 106.262,102.81 106.262,103.31 107.5,104C 102.981,104.175 98.6472,104.675 94.5,105.5C 91.4789,102.634 88.9789,99.3003 87,95.5C 86.5004,88.5079 86.3337,81.5079 86.5,74.5C 90.5,74.5 94.5,74.5 98.5,74.5C 98.2322,76.099 98.5655,77.4324 99.5,78.5C 99.5,81.1667 99.5,83.8333 99.5,86.5C 120.833,86.5 142.167,86.5 163.5,86.5C 163.313,82.087 162.646,77.7536 161.5,73.5 Z"/></g>
<g><path style="opacity:0.991" fill="#ffc849" d="M 321.5,103.5 C 348.835,103.333 376.169,103.5 403.5,104C 405.815,105.296 406.815,107.296 406.5,110C 406.667,113.502 405,115.502 401.5,116C 375.5,116.667 349.5,116.667 323.5,116C 320.05,115.288 318.384,113.122 318.5,109.5C 318.628,107.045 319.628,105.045 321.5,103.5 Z"/></g>
<g><path style="opacity:0.957" fill="#ffc849" d="M 303.5,134.5 C 302.549,133.081 302.216,131.415 302.5,129.5C 298.5,129.5 294.5,129.5 290.5,129.5C 290.5,122.833 290.5,116.167 290.5,109.5C 278.167,109.5 265.833,109.5 253.5,109.5C 253.5,117.833 253.5,126.167 253.5,134.5C 252.549,133.081 252.216,131.415 252.5,129.5C 248.5,129.5 244.5,129.5 240.5,129.5C 240.334,119.494 240.5,109.494 241,99.5C 241.5,99 242,98.5 242.5,98C 261.076,96.3597 279.743,96.0264 298.5,97C 300.667,97.8333 302.167,99.3333 303,101.5C 303.5,112.495 303.667,123.495 303.5,134.5 Z M 290.5,129.5 C 290.5,131.167 290.5,132.833 290.5,134.5C 278.167,134.5 265.833,134.5 253.5,134.5C 253.5,126.167 253.5,117.833 253.5,109.5C 265.833,109.5 278.167,109.5 290.5,109.5C 290.5,116.167 290.5,122.833 290.5,129.5 Z"/></g>
<g><path style="opacity:0.939" fill="#ffc849" d="M 11.5,74.5 C 15.8333,74.5 20.1667,74.5 24.5,74.5C 20.0583,93.7234 22.3916,112.057 31.5,129.5C 26.706,128.903 22.3727,129.57 18.5,131.5C 9.35848,113.328 7.02515,94.3277 11.5,74.5 Z"/></g>
<g><path style="opacity:0.945" fill="#ffc444" d="M 107.5,102.5 C 118.522,116.863 129.188,131.53 139.5,146.5C 134.405,146.221 129.405,146.555 124.5,147.5C 114.119,133.784 104.119,119.784 94.5,105.5C 98.6472,104.675 102.981,104.175 107.5,104C 106.262,103.31 106.262,102.81 107.5,102.5 Z"/></g>
<g><path style="opacity:0.946" fill="#ffc343" d="M 321.5,128.5 C 334.504,128.333 347.504,128.5 360.5,129C 365.809,132.953 365.809,136.953 360.5,141C 347.833,141.667 335.167,141.667 322.5,141C 318.708,138.947 317.542,135.781 319,131.5C 320.045,130.627 320.878,129.627 321.5,128.5 Z"/></g>
<g><path style="opacity:0.951" fill="#ffc444" d="M 163.5,104.5 C 167.931,104.231 172.265,104.564 176.5,105.5C 174.168,121.156 167.835,134.823 157.5,146.5C 151.833,146.5 146.167,146.5 140.5,146.5C 152.328,134.85 159.994,120.85 163.5,104.5 Z"/></g>
<g><path style="opacity:0.953" fill="#ffc242" d="M 240.5,129.5 C 244.5,129.5 248.5,129.5 252.5,129.5C 252.216,131.415 252.549,133.081 253.5,134.5C 265.833,134.5 278.167,134.5 290.5,134.5C 290.5,132.833 290.5,131.167 290.5,129.5C 294.5,129.5 298.5,129.5 302.5,129.5C 302.216,131.415 302.549,133.081 303.5,134.5C 303.665,137.518 303.498,140.518 303,143.5C 302.535,144.931 301.701,146.097 300.5,147C 281.5,147.667 262.5,147.667 243.5,147C 242.333,146.5 241.5,145.667 241,144.5C 240.501,139.511 240.334,134.511 240.5,129.5 Z"/></g>
<g><path style="opacity:0.947" fill="#ffbf3e" d="M 450.5,183.5 C 448.952,182.206 446.952,181.539 444.5,181.5C 441.861,181.941 439.528,181.941 437.5,181.5C 442.852,168.749 439.519,158.916 427.5,152C 417.852,148.662 409.685,150.828 403,158.5C 398.181,165.682 397.681,173.015 401.5,180.5C 396.93,181.441 392.263,181.774 387.5,181.5C 382.887,161.559 389.887,147.393 408.5,139C 429.603,134.019 444.103,141.519 452,161.5C 454.164,169.129 453.664,176.462 450.5,183.5 Z"/></g>
<g><path style="opacity:0.956" fill="#ffbe3d" d="M 31.5,129.5 C 53.5726,160.58 82.9059,170.413 119.5,159C 122.87,157.654 125.87,155.821 128.5,153.5C 126.748,151.754 125.415,149.754 124.5,147.5C 129.405,146.555 134.405,146.221 139.5,146.5C 139.833,146.5 140.167,146.5 140.5,146.5C 146.167,146.5 151.833,146.5 157.5,146.5C 139.463,168.342 116.13,178.509 87.5,177C 56.295,173.912 33.295,158.745 18.5,131.5C 22.3727,129.57 26.706,128.903 31.5,129.5 Z"/></g>
<g><path style="opacity:0.946" fill="#ffb735" d="M 401.5,180.5 C 408.365,191.054 417.698,193.888 429.5,189C 432.692,186.972 435.359,184.472 437.5,181.5C 439.528,181.941 441.861,181.941 444.5,181.5C 446.952,181.539 448.952,182.206 450.5,183.5C 446.147,195.031 437.814,201.864 425.5,204C 416.29,205.406 407.79,203.572 400,198.5C 396.922,202.085 393.422,205.085 389.5,207.5C 383.225,208.418 376.892,208.751 370.5,208.5C 376.636,201.838 383.136,195.505 390,189.5C 389.506,186.815 388.673,184.148 387.5,181.5C 392.263,181.774 396.93,181.441 401.5,180.5 Z"/></g>
<g><path style="opacity:0.946" fill="#ffb836" d="M 234.5,206.5 C 230.403,208.782 226.069,209.116 221.5,207.5C 218.317,191.239 208.65,185.072 192.5,189C 185.068,192.934 181.068,199.1 180.5,207.5C 176.265,208.436 171.931,208.769 167.5,208.5C 168.689,187.644 179.689,176.311 200.5,174.5C 220.564,175.897 231.897,186.564 234.5,206.5 Z"/></g>
<g><path style="opacity:0.946" fill="#ffb22e" d="M 389.5,207.5 C 379.161,217.839 368.494,227.839 357.5,237.5C 351.5,237.5 345.5,237.5 339.5,237.5C 349.506,227.495 359.839,217.828 370.5,208.5C 376.892,208.751 383.225,208.418 389.5,207.5 Z"/></g>
<g><path style="opacity:0.958" fill="#ffb12d" d="M 234.5,206.5 C 234.407,210.968 233.907,215.301 233,219.5C 243.005,225.363 252.838,231.363 262.5,237.5C 254.316,237.174 246.316,237.508 238.5,238.5C 234.446,235.719 230.28,233.053 226,230.5C 212.267,243.062 197.267,244.729 181,235.5C 176.97,239.033 172.803,242.366 168.5,245.5C 163.025,244.511 157.358,244.178 151.5,244.5C 158.452,238.215 165.119,231.548 171.5,224.5C 168.599,219.562 167.266,214.229 167.5,208.5C 171.931,208.769 176.265,208.436 180.5,207.5C 182.824,223.983 192.157,230.483 208.5,227C 216.461,222.91 220.794,216.41 221.5,207.5C 226.069,209.116 230.403,208.782 234.5,206.5 Z"/></g>
<g><path style="opacity:0.956" fill="#ffae28" d="M 238.5,238.5 C 246.316,237.508 254.316,237.174 262.5,237.5C 269.907,241.955 277.407,246.288 285,250.5C 298.639,239.115 313.472,237.448 329.5,245.5C 333.141,243.19 336.474,240.523 339.5,237.5C 345.5,237.5 351.5,237.5 357.5,237.5C 351.671,244.162 345.337,250.329 338.5,256C 340.16,257.488 341.16,259.321 341.5,261.5C 336.93,262.441 332.263,262.774 327.5,262.5C 320.014,253.134 310.681,250.968 299.5,256C 296.024,258.157 293.357,260.99 291.5,264.5C 287.627,262.57 283.294,261.903 278.5,262.5C 265.167,254.5 251.833,246.5 238.5,238.5 Z"/></g>
<g><path style="opacity:0.963" fill="#ffab25" d="M 151.5,244.5 C 157.358,244.178 163.025,244.511 168.5,245.5C 158.124,256.21 147.124,266.21 135.5,275.5C 129.31,275.823 123.31,275.49 117.5,274.5C 128.531,264.135 139.864,254.135 151.5,244.5 Z"/></g>
<g><path style="opacity:0.924" fill="#ffa923" d="M 460.5,285.5 C 459.596,286.209 459.263,287.209 459.5,288.5C 455.833,288.5 452.167,288.5 448.5,288.5C 448.784,290.415 448.451,292.081 447.5,293.5C 447.5,287.5 447.5,281.5 447.5,275.5C 428.833,275.5 410.167,275.5 391.5,275.5C 391.5,278.5 391.5,281.5 391.5,284.5C 390.566,285.568 390.232,286.901 390.5,288.5C 386.833,288.5 383.167,288.5 379.5,288.5C 379.737,287.209 379.404,286.209 378.5,285.5C 378.334,279.491 378.501,273.491 379,267.5C 379.309,266.234 379.809,265.067 380.5,264C 393.409,262.851 406.409,262.351 419.5,262.5C 432.591,262.351 445.591,262.851 458.5,264C 459.126,264.75 459.626,265.584 460,266.5C 460.5,272.825 460.666,279.158 460.5,285.5 Z"/></g>
<g><path style="opacity:0.96" fill="#ffa61f" d="M 117.5,274.5 C 123.31,275.49 129.31,275.823 135.5,275.5C 130.395,280.103 125.395,284.936 120.5,290C 123.481,295.445 125.148,301.279 125.5,307.5C 121.265,306.564 116.931,306.231 112.5,306.5C 107.563,287.534 96.2296,282.367 78.5,291C 70.531,298.699 68.8644,307.532 73.5,317.5C 68.9296,318.441 64.263,318.774 59.5,318.5C 54.4653,296.063 62.7987,281.23 84.5,274C 94.1763,272.502 103.176,274.336 111.5,279.5C 113.519,277.81 115.519,276.144 117.5,274.5 Z"/></g>
<g><path style="opacity:0.949" fill="#ffa51f" d="M 341.5,261.5 C 347.275,281.354 340.942,295.854 322.5,305C 306.012,310.28 292.512,306.114 282,292.5C 276.302,282.98 275.136,272.98 278.5,262.5C 283.294,261.903 287.627,262.57 291.5,264.5C 287.833,274.334 289.833,282.834 297.5,290C 308.619,296.897 318.452,295.397 327,285.5C 331.431,277.885 331.598,270.218 327.5,262.5C 332.263,262.774 336.93,262.441 341.5,261.5 Z"/></g>
<g><path style="opacity:0.977" fill="#fea01a" d="M 241.5,335.5 C 237.167,335.5 232.833,335.5 228.5,335.5C 228.5,328.167 228.5,320.833 228.5,313.5C 210.167,313.5 191.833,313.5 173.5,313.5C 173.5,320.833 173.5,328.167 173.5,335.5C 169.167,335.5 164.833,335.5 160.5,335.5C 160.333,324.828 160.5,314.161 161,303.5C 161.5,303 162,302.5 162.5,302C 175.267,300.861 188.1,300.361 201,300.5C 213.592,300.352 226.092,300.852 238.5,302C 239.333,302.833 240.167,303.667 241,304.5C 241.5,314.828 241.666,325.161 241.5,335.5 Z"/></g>
<g><path style="opacity:0.99" fill="#fea11a" d="M 391.5,284.5 C 391.5,301.5 391.5,318.5 391.5,335.5C 387.069,335.231 382.735,335.564 378.5,336.5C 378.5,319.5 378.5,302.5 378.5,285.5C 379.404,286.209 379.737,287.209 379.5,288.5C 383.167,288.5 386.833,288.5 390.5,288.5C 390.232,286.901 390.566,285.568 391.5,284.5 Z"/></g>
<g><path style="opacity:0.901" fill="#fea11a" d="M 460.5,285.5 C 460.5,302.167 460.5,318.833 460.5,335.5C 456.167,335.5 451.833,335.5 447.5,335.5C 447.5,321.5 447.5,307.5 447.5,293.5C 448.451,292.081 448.784,290.415 448.5,288.5C 452.167,288.5 455.833,288.5 459.5,288.5C 459.263,287.209 459.596,286.209 460.5,285.5 Z"/></g>
<g><path style="opacity:0.947" fill="#fe9f17" d="M 112.5,306.5 C 116.931,306.231 121.265,306.564 125.5,307.5C 124.734,315.631 121.901,322.964 117,329.5C 115.871,331.141 114.371,332.141 112.5,332.5C 98.1667,331.167 83.8333,331.167 69.5,332.5C 65.0351,328.692 61.7018,324.026 59.5,318.5C 64.263,318.774 68.9296,318.441 73.5,317.5C 83.6185,329.561 94.7852,330.561 107,320.5C 110.242,316.356 112.075,311.689 112.5,306.5 Z"/></g>
<g><path style="opacity:0.973" fill="#f2991d" d="M 112.5,332.5 C 111.738,334.262 110.404,335.262 108.5,335.5C 97.1667,335.5 85.8333,335.5 74.5,335.5C 72.5659,334.89 70.8993,333.89 69.5,332.5C 83.8333,331.167 98.1667,331.167 112.5,332.5 Z"/></g>
<g><path style="opacity:0.885" fill="#e79723" d="M 74.5,335.5 C 85.8333,335.5 97.1667,335.5 108.5,335.5C 103.529,339.164 97.8626,340.83 91.5,340.5C 85.1374,340.83 79.4708,339.164 74.5,335.5 Z"/></g>
<g><path style="opacity:0.958" fill="#de9128" d="M 228.5,335.5 C 232.833,335.5 237.167,335.5 241.5,335.5C 241.5,338.167 241.5,340.833 241.5,343.5C 237.167,343.5 232.833,343.5 228.5,343.5C 228.5,340.833 228.5,338.167 228.5,335.5 Z"/></g>
<g><path style="opacity:1" fill="#dd9128" d="M 160.5,335.5 C 164.833,335.5 169.167,335.5 173.5,335.5C 173.5,338.5 173.5,341.5 173.5,344.5C 169.265,343.564 164.931,343.231 160.5,343.5C 160.5,340.833 160.5,338.167 160.5,335.5 Z"/></g>
<g><path style="opacity:0.924" fill="#dc9029" d="M 391.5,335.5 C 391.5,338.833 391.5,342.167 391.5,345.5C 387.069,345.231 382.735,345.564 378.5,346.5C 378.5,343.167 378.5,339.833 378.5,336.5C 382.735,335.564 387.069,335.231 391.5,335.5 Z"/></g>
<g><path style="opacity:1" fill="#de9128" d="M 447.5,335.5 C 451.833,335.5 456.167,335.5 460.5,335.5C 460.5,338.167 460.5,340.833 460.5,343.5C 456.167,343.5 451.833,343.5 447.5,343.5C 447.5,340.833 447.5,338.167 447.5,335.5 Z"/></g>
<g><path style="opacity:0.989" fill="#cd8a31" d="M 160.5,343.5 C 164.931,343.231 169.265,343.564 173.5,344.5C 173.5,345.833 173.5,347.167 173.5,348.5C 169.167,348.5 164.833,348.5 160.5,348.5C 160.5,346.833 160.5,345.167 160.5,343.5 Z"/></g>
<g><path style="opacity:0.958" fill="#cd8a31" d="M 228.5,343.5 C 232.833,343.5 237.167,343.5 241.5,343.5C 241.5,345.167 241.5,346.833 241.5,348.5C 237.167,348.5 232.833,348.5 228.5,348.5C 228.5,346.833 228.5,345.167 228.5,343.5 Z"/></g>
<g><path style="opacity:0.873" fill="#cd8a31" d="M 447.5,343.5 C 451.833,343.5 456.167,343.5 460.5,343.5C 460.5,345.167 460.5,346.833 460.5,348.5C 456.167,348.5 451.833,348.5 447.5,348.5C 447.5,346.833 447.5,345.167 447.5,343.5 Z"/></g>
<g><path style="opacity:0.995" fill="#c38637" d="M 391.5,345.5 C 391.5,347.833 391.5,350.167 391.5,352.5C 387.069,352.769 382.735,352.436 378.5,351.5C 378.5,349.833 378.5,348.167 378.5,346.5C 382.735,345.564 387.069,345.231 391.5,345.5 Z"/></g>
<g><path style="opacity:0.992" fill="#bb833c" d="M 350.5,354.5 C 323.5,354.5 296.5,354.5 269.5,354.5C 269.859,352.629 270.859,351.129 272.5,350C 297.5,349.333 322.5,349.333 347.5,350C 349.376,350.918 350.376,352.418 350.5,354.5 Z"/></g>
<g><path style="opacity:0.895" fill="#b8823d" d="M 160.5,348.5 C 164.833,348.5 169.167,348.5 173.5,348.5C 173.5,351.5 173.5,354.5 173.5,357.5C 169.265,356.564 164.931,356.231 160.5,356.5C 160.5,353.833 160.5,351.167 160.5,348.5 Z"/></g>
<g><path style="opacity:0.922" fill="#b8823d" d="M 228.5,348.5 C 232.833,348.5 237.167,348.5 241.5,348.5C 241.5,351.167 241.5,353.833 241.5,356.5C 237.167,356.5 232.833,356.5 228.5,356.5C 228.5,353.833 228.5,351.167 228.5,348.5 Z"/></g>
<g><path style="opacity:0.95" fill="#b8823d" d="M 447.5,348.5 C 451.833,348.5 456.167,348.5 460.5,348.5C 460.5,351.167 460.5,353.833 460.5,356.5C 456.167,356.5 451.833,356.5 447.5,356.5C 447.5,353.833 447.5,351.167 447.5,348.5 Z"/></g>
<g><path style="opacity:0.994" fill="#ae7e43" d="M 269.5,354.5 C 296.5,354.5 323.5,354.5 350.5,354.5C 350.5,355.833 350.5,357.167 350.5,358.5C 323.5,358.5 296.5,358.5 269.5,358.5C 269.5,357.167 269.5,355.833 269.5,354.5 Z"/></g>
<g><path style="opacity:0.99" fill="#aa7c45" d="M 378.5,351.5 C 382.735,352.436 387.069,352.769 391.5,352.5C 391.5,355.833 391.5,359.167 391.5,362.5C 387.167,362.5 382.833,362.5 378.5,362.5C 378.5,358.833 378.5,355.167 378.5,351.5 Z"/></g>
<g><path style="opacity:0.985" fill="#a0794a" d="M 269.5,358.5 C 296.5,358.5 323.5,358.5 350.5,358.5C 350.5,360.833 350.5,363.167 350.5,365.5C 346.167,365.5 341.833,365.5 337.5,365.5C 337.5,364.5 337.5,363.5 337.5,362.5C 319.167,362.5 300.833,362.5 282.5,362.5C 282.5,363.833 282.5,365.167 282.5,366.5C 278.167,367.833 273.833,367.833 269.5,366.5C 269.5,363.833 269.5,361.167 269.5,358.5 Z"/></g>
<g><path style="opacity:1" fill="#a27949" d="M 160.5,356.5 C 164.931,356.231 169.265,356.564 173.5,357.5C 173.5,359.833 173.5,362.167 173.5,364.5C 169.265,363.564 164.931,363.231 160.5,363.5C 160.5,361.167 160.5,358.833 160.5,356.5 Z"/></g>
<g><path style="opacity:0.922" fill="#a27949" d="M 228.5,356.5 C 232.833,356.5 237.167,356.5 241.5,356.5C 241.5,358.5 241.5,360.5 241.5,362.5C 237.265,363.436 232.931,363.769 228.5,363.5C 228.5,361.167 228.5,358.833 228.5,356.5 Z"/></g>
<g><path style="opacity:0.98" fill="#a27949" d="M 447.5,356.5 C 451.833,356.5 456.167,356.5 460.5,356.5C 460.5,358.833 460.5,361.167 460.5,363.5C 456.167,363.5 451.833,363.5 447.5,363.5C 447.5,361.167 447.5,358.833 447.5,356.5 Z"/></g>
<g><path style="opacity:0.924" fill="#917253" d="M 378.5,362.5 C 382.833,362.5 387.167,362.5 391.5,362.5C 391.5,364.833 391.5,367.167 391.5,369.5C 387.167,369.5 382.833,369.5 378.5,369.5C 378.5,367.167 378.5,364.833 378.5,362.5 Z"/></g>
<g><path style="opacity:0.989" fill="#8c7056" d="M 160.5,363.5 C 164.931,363.231 169.265,363.564 173.5,364.5C 173.5,366.833 173.5,369.167 173.5,371.5C 169.167,371.5 164.833,371.5 160.5,371.5C 160.5,368.833 160.5,366.167 160.5,363.5 Z"/></g>
<g><path style="opacity:0.922" fill="#8c7056" d="M 241.5,362.5 C 241.5,365.5 241.5,368.5 241.5,371.5C 237.167,371.5 232.833,371.5 228.5,371.5C 228.5,368.833 228.5,366.167 228.5,363.5C 232.931,363.769 237.265,363.436 241.5,362.5 Z"/></g>
<g><path style="opacity:0.922" fill="#8c7056" d="M 447.5,363.5 C 451.833,363.5 456.167,363.5 460.5,363.5C 460.5,366.167 460.5,368.833 460.5,371.5C 456.167,371.5 451.833,371.5 447.5,371.5C 447.5,368.833 447.5,366.167 447.5,363.5 Z"/></g>
<g><path style="opacity:0.988" fill="#866e59" d="M 337.5,365.5 C 341.833,365.5 346.167,365.5 350.5,365.5C 350.5,368.167 350.5,370.833 350.5,373.5C 346.069,373.231 341.735,373.564 337.5,374.5C 337.5,371.5 337.5,368.5 337.5,365.5 Z"/></g>
<g><path style="opacity:0.924" fill="#806c5c" d="M 269.5,366.5 C 273.833,367.833 278.167,367.833 282.5,366.5C 282.5,369.5 282.5,372.5 282.5,375.5C 278.167,375.5 273.833,375.5 269.5,375.5C 269.5,372.5 269.5,369.5 269.5,366.5 Z"/></g>
<g><path style="opacity:0.99" fill="#7a695f" d="M 378.5,369.5 C 382.833,369.5 387.167,369.5 391.5,369.5C 391.5,372.167 391.5,374.833 391.5,377.5C 387.167,377.5 382.833,377.5 378.5,377.5C 378.5,374.833 378.5,372.167 378.5,369.5 Z"/></g>
<g><path style="opacity:0.922" fill="#6d6567" d="M 131.5,380.5 C 104.833,380.5 78.1667,380.5 51.5,380.5C 51.9528,379.542 52.6195,378.708 53.5,378C 78.8333,377.333 104.167,377.333 129.5,378C 130.381,378.708 131.047,379.542 131.5,380.5 Z"/></g>
<g><path style="opacity:0.994" fill="#736763" d="M 160.5,371.5 C 164.833,371.5 169.167,371.5 173.5,371.5C 173.5,374.833 173.5,378.167 173.5,381.5C 169.265,380.564 164.931,380.231 160.5,380.5C 160.5,377.5 160.5,374.5 160.5,371.5 Z"/></g>
<g><path style="opacity:0.922" fill="#736763" d="M 228.5,371.5 C 232.833,371.5 237.167,371.5 241.5,371.5C 241.5,374.5 241.5,377.5 241.5,380.5C 237.167,380.5 232.833,380.5 228.5,380.5C 228.5,377.5 228.5,374.5 228.5,371.5 Z"/></g>
<g><path style="opacity:0.924" fill="#6f6566" d="M 269.5,375.5 C 273.833,375.5 278.167,375.5 282.5,375.5C 282.5,377.167 282.5,378.833 282.5,380.5C 278.167,380.5 273.833,380.5 269.5,380.5C 269.5,378.833 269.5,377.167 269.5,375.5 Z"/></g>
<g><path style="opacity:0.922" fill="#706665" d="M 350.5,373.5 C 350.5,375.833 350.5,378.167 350.5,380.5C 346.167,380.5 341.833,380.5 337.5,380.5C 337.5,378.5 337.5,376.5 337.5,374.5C 341.735,373.564 346.069,373.231 350.5,373.5 Z"/></g>
<g><path style="opacity:0.95" fill="#736764" d="M 447.5,371.5 C 451.833,371.5 456.167,371.5 460.5,371.5C 460.5,374.5 460.5,377.5 460.5,380.5C 456.069,380.231 451.735,380.564 447.5,381.5C 447.5,378.167 447.5,374.833 447.5,371.5 Z"/></g>
<g><path style="opacity:0.99" fill="#61606d" d="M 51.5,380.5 C 78.1667,380.5 104.833,380.5 131.5,380.5C 131.833,381.833 132.167,383.167 132.5,384.5C 105.167,384.5 77.8333,384.5 50.5,384.5C 50.4326,383.041 50.7659,381.708 51.5,380.5 Z"/></g>
<g><path style="opacity:0.99" fill="#61606d" d="M 378.5,377.5 C 382.833,377.5 387.167,377.5 391.5,377.5C 391.5,381.167 391.5,384.833 391.5,388.5C 387.167,388.5 382.833,388.5 378.5,388.5C 378.5,384.833 378.5,381.167 378.5,377.5 Z"/></g>
<g><path style="opacity:0.988" fill="#5a5d71" d="M 337.5,380.5 C 341.833,380.5 346.167,380.5 350.5,380.5C 350.5,383.167 350.5,385.833 350.5,388.5C 346.167,388.5 341.833,388.5 337.5,388.5C 337.5,385.833 337.5,383.167 337.5,380.5 Z"/></g>
<g><path style="opacity:0.98" fill="#555b74" d="M 50.5,384.5 C 77.8333,384.5 105.167,384.5 132.5,384.5C 132.5,385.833 132.5,387.167 132.5,388.5C 105.167,388.5 77.8333,388.5 50.5,388.5C 50.5,387.167 50.5,385.833 50.5,384.5 Z"/></g>
<g><path style="opacity:0.989" fill="#595c72" d="M 160.5,380.5 C 164.931,380.231 169.265,380.564 173.5,381.5C 173.5,383.833 173.5,386.167 173.5,388.5C 169.167,388.5 164.833,388.5 160.5,388.5C 160.5,385.833 160.5,383.167 160.5,380.5 Z"/></g>
<g><path style="opacity:0.922" fill="#595d72" d="M 228.5,380.5 C 232.833,380.5 237.167,380.5 241.5,380.5C 241.5,383.167 241.5,385.833 241.5,388.5C 237.167,388.5 232.833,388.5 228.5,388.5C 228.5,385.833 228.5,383.167 228.5,380.5 Z"/></g>
<g><path style="opacity:0.924" fill="#595c72" d="M 269.5,380.5 C 273.833,380.5 278.167,380.5 282.5,380.5C 282.5,383.167 282.5,385.833 282.5,388.5C 278.167,388.5 273.833,388.5 269.5,388.5C 269.5,385.833 269.5,383.167 269.5,380.5 Z"/></g>
<g><path style="opacity:0.929" fill="#595d72" d="M 460.5,380.5 C 460.5,383.167 460.5,385.833 460.5,388.5C 456.167,388.5 451.833,388.5 447.5,388.5C 447.5,386.167 447.5,383.833 447.5,381.5C 451.735,380.564 456.069,380.231 460.5,380.5 Z"/></g>
<g><path style="opacity:0.693" fill="#4a577a" d="M 50.5,388.5 C 77.8333,388.5 105.167,388.5 132.5,388.5C 132.5,390.167 132.5,391.833 132.5,393.5C 128.265,394.436 123.931,394.769 119.5,394.5C 119.5,393.167 119.5,391.833 119.5,390.5C 100.833,390.5 82.1667,390.5 63.5,390.5C 63.5,391.833 63.5,393.167 63.5,394.5C 59.1667,394.5 54.8333,394.5 50.5,394.5C 50.5,392.5 50.5,390.5 50.5,388.5 Z"/></g>
<g><path style="opacity:0.882" fill="#42537f" d="M 447.5,388.5 C 451.833,388.5 456.167,388.5 460.5,388.5C 460.5,391.5 460.5,394.5 460.5,397.5C 456.167,396.167 451.833,396.167 447.5,397.5C 447.5,394.5 447.5,391.5 447.5,388.5 Z"/></g>
<g><path style="opacity:0.928" fill="#42537f" d="M 160.5,388.5 C 164.833,388.5 169.167,388.5 173.5,388.5C 173.5,391.167 173.5,393.833 173.5,396.5C 169.167,396.5 164.833,396.5 160.5,396.5C 160.5,393.833 160.5,391.167 160.5,388.5 Z"/></g>
<g><path style="opacity:1" fill="#42537f" d="M 228.5,388.5 C 232.833,388.5 237.167,388.5 241.5,388.5C 241.5,391.167 241.5,393.833 241.5,396.5C 237.167,396.5 232.833,396.5 228.5,396.5C 228.5,393.833 228.5,391.167 228.5,388.5 Z"/></g>
<g><path style="opacity:0.959" fill="#42537f" d="M 269.5,388.5 C 273.833,388.5 278.167,388.5 282.5,388.5C 282.5,391.5 282.5,394.5 282.5,397.5C 278.265,396.564 273.931,396.231 269.5,396.5C 269.5,393.833 269.5,391.167 269.5,388.5 Z"/></g>
<g><path style="opacity:0.927" fill="#42537f" d="M 337.5,388.5 C 341.833,388.5 346.167,388.5 350.5,388.5C 350.5,391.167 350.5,393.833 350.5,396.5C 346.167,396.5 341.833,396.5 337.5,396.5C 337.5,393.833 337.5,391.167 337.5,388.5 Z"/></g>
<g><path style="opacity:0.924" fill="#42537f" d="M 378.5,388.5 C 382.833,388.5 387.167,388.5 391.5,388.5C 391.5,391.167 391.5,393.833 391.5,396.5C 387.167,396.5 382.833,396.5 378.5,396.5C 378.5,393.833 378.5,391.167 378.5,388.5 Z"/></g>
<g><path style="opacity:0.946" fill="#374f85" d="M 50.5,394.5 C 54.8333,394.5 59.1667,394.5 63.5,394.5C 63.5,395.833 63.5,397.167 63.5,398.5C 59.2648,399.436 54.9315,399.769 50.5,399.5C 50.5,397.833 50.5,396.167 50.5,394.5 Z"/></g>
<g><path style="opacity:0.989" fill="#374f85" d="M 132.5,393.5 C 132.5,395.167 132.5,396.833 132.5,398.5C 128.265,399.436 123.931,399.769 119.5,399.5C 119.5,397.833 119.5,396.167 119.5,394.5C 123.931,394.769 128.265,394.436 132.5,393.5 Z"/></g>
<g><path style="opacity:0.952" fill="#2d4b8b" d="M 160.5,396.5 C 164.833,396.5 169.167,396.5 173.5,396.5C 173.5,398.5 173.5,400.5 173.5,402.5C 169.265,403.436 164.931,403.769 160.5,403.5C 160.5,401.167 160.5,398.833 160.5,396.5 Z"/></g>
<g><path style="opacity:0.897" fill="#2d4b8b" d="M 460.5,397.5 C 460.5,399.5 460.5,401.5 460.5,403.5C 456.167,403.5 451.833,403.5 447.5,403.5C 447.5,401.5 447.5,399.5 447.5,397.5C 451.833,396.167 456.167,396.167 460.5,397.5 Z"/></g>
<g><path style="opacity:0.922" fill="#2d4b8b" d="M 228.5,396.5 C 232.833,396.5 237.167,396.5 241.5,396.5C 241.5,398.833 241.5,401.167 241.5,403.5C 237.167,403.5 232.833,403.5 228.5,403.5C 228.5,401.167 228.5,398.833 228.5,396.5 Z"/></g>
<g><path style="opacity:0.958" fill="#2d4b8b" d="M 269.5,396.5 C 273.931,396.231 278.265,396.564 282.5,397.5C 282.5,399.5 282.5,401.5 282.5,403.5C 278.167,403.5 273.833,403.5 269.5,403.5C 269.5,401.167 269.5,398.833 269.5,396.5 Z"/></g>
<g><path style="opacity:0.994" fill="#2d4b8b" d="M 337.5,396.5 C 341.833,396.5 346.167,396.5 350.5,396.5C 350.5,398.833 350.5,401.167 350.5,403.5C 346.069,403.769 341.735,403.436 337.5,402.5C 337.5,400.5 337.5,398.5 337.5,396.5 Z"/></g>
<g><path style="opacity:0.99" fill="#2d4b8b" d="M 378.5,396.5 C 382.833,396.5 387.167,396.5 391.5,396.5C 391.5,398.833 391.5,401.167 391.5,403.5C 387.069,403.769 382.735,403.436 378.5,402.5C 378.5,400.5 378.5,398.5 378.5,396.5 Z"/></g>
<g><path style="opacity:0.965" fill="#1f4692" d="M 63.5,398.5 C 63.5,428.833 63.5,459.167 63.5,489.5C 82.1667,489.5 100.833,489.5 119.5,489.5C 119.5,459.5 119.5,429.5 119.5,399.5C 123.931,399.769 128.265,399.436 132.5,398.5C 132.5,428.833 132.5,459.167 132.5,489.5C 141.833,489.5 151.167,489.5 160.5,489.5C 160.5,460.833 160.5,432.167 160.5,403.5C 164.931,403.769 169.265,403.436 173.5,402.5C 173.5,431.5 173.5,460.5 173.5,489.5C 191.833,489.5 210.167,489.5 228.5,489.5C 228.5,460.833 228.5,432.167 228.5,403.5C 232.833,403.5 237.167,403.5 241.5,403.5C 241.5,432.167 241.5,460.833 241.5,489.5C 250.833,489.5 260.167,489.5 269.5,489.5C 269.5,460.833 269.5,432.167 269.5,403.5C 273.833,403.5 278.167,403.5 282.5,403.5C 282.5,432.167 282.5,460.833 282.5,489.5C 300.833,489.5 319.167,489.5 337.5,489.5C 337.5,460.5 337.5,431.5 337.5,402.5C 341.735,403.436 346.069,403.769 350.5,403.5C 350.5,432.167 350.5,460.833 350.5,489.5C 359.833,489.5 369.167,489.5 378.5,489.5C 378.5,460.5 378.5,431.5 378.5,402.5C 382.735,403.436 387.069,403.769 391.5,403.5C 391.5,432.167 391.5,460.833 391.5,489.5C 410.167,489.5 428.833,489.5 447.5,489.5C 447.5,460.833 447.5,432.167 447.5,403.5C 451.833,403.5 456.167,403.5 460.5,403.5C 460.5,432.167 460.5,460.833 460.5,489.5C 473.504,489.333 486.504,489.5 499.5,490C 502.167,493.667 502.167,497.333 499.5,501C 336.833,501.667 174.167,501.667 11.5,501C 8.83333,497.333 8.83333,493.667 11.5,490C 24.4957,489.5 37.4957,489.333 50.5,489.5C 50.5,459.5 50.5,429.5 50.5,399.5C 54.9315,399.769 59.2648,399.436 63.5,398.5 Z"/></g>
</svg>
