<?xml version="1.0" encoding="UTF-8"?>
<!DOCTYPE svg PUBLIC "-//W3C//DTD SVG 1.1//EN" "http://www.w3.org/Graphics/SVG/1.1/DTD/svg11.dtd">
<svg xmlns="http://www.w3.org/2000/svg" version="1.1" width="512px" height="512px" style="shape-rendering:geometricPrecision; text-rendering:geometricPrecision; image-rendering:optimizeQuality; fill-rule:evenodd; clip-rule:evenodd" xmlns:xlink="http://www.w3.org/1999/xlink">
<g><path style="opacity:0.97" fill="#1f4693" d="M 92.5,-0.5 C 113.167,-0.5 133.833,-0.5 154.5,-0.5C 177.004,0.97869 199.337,4.47869 221.5,10C 228.227,12.1973 234.561,15.1973 240.5,19C 243.433,21.2643 245.6,24.0976 247,27.5C 247.667,96.8333 247.667,166.167 247,235.5C 243.777,241.723 238.943,246.223 232.5,249C 212.524,256.529 191.858,260.862 170.5,262C 123.813,266.408 77.4802,264.075 31.5,255C 18.4498,252.651 7.78312,246.485 -0.5,236.5C -0.5,166.833 -0.5,97.1667 -0.5,27.5C 5.80858,18.4878 14.4752,12.6545 25.5,10C 47.6552,4.47967 69.9886,0.979672 92.5,-0.5 Z M 100.5,16.5 C 137.183,15.0633 173.517,17.8966 209.5,25C 216.292,26.4287 222.625,28.9287 228.5,32.5C 219.734,37.1953 210.401,40.362 200.5,42C 147.437,50.9292 94.4365,50.5958 41.5,41C 33.3211,39.4416 25.6544,36.6083 18.5,32.5C 27.2169,27.6497 36.5502,24.483 46.5,23C 64.5333,19.8347 82.5333,17.6681 100.5,16.5 Z M 16.5,51.5 C 30.3613,56.715 44.6946,60.215 59.5,62C 108.301,68.0906 156.968,67.0906 205.5,59C 213.946,57.2948 222.113,54.7948 230,51.5C 230.667,66.8333 230.667,82.1667 230,97.5C 222.491,102.228 214.324,105.394 205.5,107C 150.833,117 96.1667,117 41.5,107C 32.6757,105.394 24.5091,102.228 17,97.5C 16.5001,82.1703 16.3334,66.837 16.5,51.5 Z M 16.5,117.5 C 30.3032,122.963 44.6365,126.463 59.5,128C 110.042,134.472 160.375,133.138 210.5,124C 217.257,122.521 223.757,120.354 230,117.5C 230.667,132.833 230.667,148.167 230,163.5C 222.491,168.228 214.324,171.394 205.5,173C 150.832,183 96.165,183 41.5,173C 36.4565,171.822 31.4565,170.489 26.5,169C 22.7926,168.064 19.6259,166.231 17,163.5C 16.5001,148.17 16.3334,132.837 16.5,117.5 Z M 16.5,183.5 C 29.992,188.834 43.992,192.334 58.5,194C 101.833,200 145.166,200 188.5,194C 202.857,192.397 216.69,188.897 230,183.5C 230.667,198.833 230.667,214.167 230,229.5C 227.079,231.712 223.912,233.545 220.5,235C 197.632,241.553 174.298,245.219 150.5,246C 113.522,248.311 76.8557,245.978 40.5,239C 32.3211,237.442 24.6544,234.608 17.5,230.5C 16.5006,214.848 16.1673,199.181 16.5,183.5 Z"/></g>
<g><path style="opacity:0.968" fill="#1f4593" d="M 288.5,-0.5 C 294.167,-0.5 299.833,-0.5 305.5,-0.5C 322.422,6.15124 331.089,18.6512 331.5,37C 344.016,45.5717 356.683,53.5717 369.5,61C 386.815,44.5488 404.315,44.3821 422,60.5C 434.097,79.9262 431.264,96.7596 413.5,111C 405.969,115.068 397.969,116.401 389.5,115C 386.491,113.972 383.491,113.305 380.5,113C 365.079,135.176 349.412,157.176 333.5,179C 347.438,191.662 350.271,206.495 342,223.5C 337.979,229.859 332.479,234.359 325.5,237C 324.941,237.725 324.608,238.558 324.5,239.5C 329.328,258.477 333.994,277.477 338.5,296.5C 355.18,296.833 371.847,296.499 388.5,295.5C 400.833,272.167 413.167,248.833 425.5,225.5C 407.463,207.572 407.129,189.405 424.5,171C 436.279,163.576 448.613,162.576 461.5,168C 479.098,180.147 483.264,195.981 474,215.5C 466.046,226.145 455.379,231.812 442,232.5C 430.833,253.5 419.667,274.5 408.5,295.5C 435.827,296.333 463.161,296.833 490.5,297C 491.931,297.465 493.097,298.299 494,299.5C 495.491,353.416 495.991,407.416 495.5,461.5C 501.556,460.516 506.889,461.849 511.5,465.5C 511.5,474.833 511.5,484.167 511.5,493.5C 508.5,502.5 502.5,508.5 493.5,511.5C 400.833,511.5 308.167,511.5 215.5,511.5C 206.517,508.682 200.683,502.682 198,493.5C 197.333,484.5 197.333,475.5 198,466.5C 198.833,464.333 200.333,462.833 202.5,462C 206.152,461.501 209.818,461.335 213.5,461.5C 213.333,408.499 213.5,355.499 214,302.5C 214.774,300.061 216.274,298.227 218.5,297C 252.498,296.5 286.498,296.333 320.5,296.5C 315.833,277.167 311.167,257.833 306.5,238.5C 289.731,234.009 280.731,223.009 279.5,205.5C 282.334,183.339 295,172.006 317.5,171.5C 334.361,147.805 351.028,123.972 367.5,100C 363.716,93.3653 361.883,86.1986 362,78.5C 349.833,70.3333 337.667,62.1667 325.5,54C 324.5,53.3333 323.5,53.3333 322.5,54C 305.472,70.2697 288.306,70.4364 271,54.5C 262.674,42.6332 261.341,29.9666 267,16.5C 272.242,8.30771 279.409,2.64105 288.5,-0.5 Z M 293.5,16.5 C 310.045,17.5971 315.545,25.9304 310,41.5C 302.61,49.7456 294.443,50.5789 285.5,44C 277.697,31.7041 280.364,22.5375 293.5,16.5 Z M 390.5,66.5 C 405.985,65.1505 412.818,72.1505 411,87.5C 405.239,97.9807 397.072,100.481 386.5,95C 376.795,83.9794 378.128,74.4794 390.5,66.5 Z M 442.5,181.5 C 451.879,181.393 458.045,185.726 461,194.5C 460.429,211.045 452.262,216.545 436.5,211C 428.749,204.164 427.583,196.331 433,187.5C 435.843,184.837 439.009,182.837 442.5,181.5 Z M 311.5,189.5 C 325.457,191.27 330.957,198.937 328,212.5C 322.692,221.359 315.192,223.859 305.5,220C 296.744,213.215 295.244,205.048 301,195.5C 304.069,192.554 307.569,190.554 311.5,189.5 Z M 231.5,313.5 C 262.833,313.5 294.167,313.5 325.5,313.5C 328.693,328.606 332.36,343.606 336.5,358.5C 322.928,369.05 318.428,382.717 323,399.5C 331.293,416.563 344.793,423.397 363.5,420C 382.606,412.626 390.44,398.793 387,378.5C 384.337,371.173 380.17,364.839 374.5,359.5C 382.755,344.659 390.755,329.659 398.5,314.5C 424.825,313.5 451.158,313.167 477.5,313.5C 477.5,362.833 477.5,412.167 477.5,461.5C 395.5,461.5 313.5,461.5 231.5,461.5C 231.5,412.167 231.5,362.833 231.5,313.5 Z M 343.5,313.5 C 355.186,313.168 366.852,313.501 378.5,314.5C 371.627,327.746 364.627,340.913 357.5,354C 355.888,354.72 354.388,354.554 353,353.5C 349.514,340.224 346.347,326.891 343.5,313.5 Z M 351.5,371.5 C 364.849,371.678 371.016,378.345 370,391.5C 365.882,402.1 358.382,405.6 347.5,402C 337.39,394.672 336.056,386.005 343.5,376C 346.099,374.205 348.766,372.705 351.5,371.5 Z M 214.5,478.5 C 307.833,478.5 401.167,478.5 494.5,478.5C 494.665,481.85 494.498,485.183 494,488.5C 493.226,490.939 491.726,492.773 489.5,494C 399.833,494.667 310.167,494.667 220.5,494C 218,492.833 216.167,491 215,488.5C 214.502,485.183 214.335,481.85 214.5,478.5 Z"/></g>
<g><path style="opacity:0.97" fill="#1f4592" d="M 79.5,279.5 C 92.1711,279.333 104.838,279.5 117.5,280C 119.081,280.707 120.581,281.54 122,282.5C 123.482,309.078 123.982,335.744 123.5,362.5C 128.833,362.5 134.167,362.5 139.5,362.5C 139.334,355.825 139.5,349.158 140,342.5C 142.785,338.359 146.618,336.859 151.5,338C 166.638,352.137 181.471,366.637 196,381.5C 198.786,384.967 199.12,388.634 197,392.5C 182.138,407.696 166.971,422.529 151.5,437C 146.375,438.569 142.541,437.069 140,432.5C 139.5,425.842 139.334,419.175 139.5,412.5C 118.831,412.667 98.164,412.5 77.5,412C 75.9512,410.786 74.7845,409.286 74,407.5C 73.3333,366.5 73.3333,325.5 74,284.5C 75.7297,282.598 77.563,280.931 79.5,279.5 Z M 90.5,297.5 C 95.8333,297.5 101.167,297.5 106.5,297.5C 106.018,323.922 106.518,350.256 108,376.5C 108.903,377.701 110.069,378.535 111.5,379C 125.167,379.667 138.833,379.667 152.5,379C 155.954,376.031 157.454,372.198 157,367.5C 163.681,374.014 170.181,380.681 176.5,387.5C 170.181,394.319 163.681,400.986 157,407.5C 157.583,402.394 155.75,398.561 151.5,396C 131.169,395.5 110.836,395.333 90.5,395.5C 90.5,362.833 90.5,330.167 90.5,297.5 Z"/></g>
<g><path style="opacity:0.933" fill="#1f4593" d="M 251.5,329.5 C 261.167,329.5 270.833,329.5 280.5,329.5C 280.5,335.167 280.5,340.833 280.5,346.5C 275.167,346.5 269.833,346.5 264.5,346.5C 264.5,352.167 264.5,357.833 264.5,363.5C 258.5,363.5 252.5,363.5 246.5,363.5C 246.334,354.161 246.5,344.827 247,335.5C 247.979,333.032 249.479,331.032 251.5,329.5 Z"/></g>
<g><path style="opacity:0.948" fill="#1f4693" d="M 428.5,329.5 C 438.938,329.049 449.271,329.549 459.5,331C 460.893,332.171 461.727,333.671 462,335.5C 462.5,344.827 462.666,354.161 462.5,363.5C 456.5,363.5 450.5,363.5 444.5,363.5C 444.5,357.833 444.5,352.167 444.5,346.5C 439.167,346.5 433.833,346.5 428.5,346.5C 428.5,340.833 428.5,335.167 428.5,329.5 Z"/></g>
<g><path style="opacity:0.954" fill="#1e4693" d="M 246.5,411.5 C 252.5,411.5 258.5,411.5 264.5,411.5C 264.5,417.167 264.5,422.833 264.5,428.5C 269.833,428.5 275.167,428.5 280.5,428.5C 280.5,434.167 280.5,439.833 280.5,445.5C 270.062,445.951 259.729,445.451 249.5,444C 248.54,442.581 247.707,441.081 247,439.5C 246.5,430.173 246.334,420.839 246.5,411.5 Z"/></g>
<g><path style="opacity:0.969" fill="#1f4693" d="M 444.5,411.5 C 450.5,411.5 456.5,411.5 462.5,411.5C 462.951,421.938 462.451,432.271 461,442.5C 460.097,443.701 458.931,444.535 457.5,445C 447.839,445.5 438.172,445.666 428.5,445.5C 428.5,439.833 428.5,434.167 428.5,428.5C 433.833,428.5 439.167,428.5 444.5,428.5C 444.5,422.833 444.5,417.167 444.5,411.5 Z"/></g>
</svg>
