<?xml version="1.0" encoding="UTF-8"?>
<!DOCTYPE svg PUBLIC "-//W3C//DTD SVG 1.1//EN" "http://www.w3.org/Graphics/SVG/1.1/DTD/svg11.dtd">
<svg xmlns="http://www.w3.org/2000/svg" version="1.1" width="512px" height="512px" style="shape-rendering:geometricPrecision; text-rendering:geometricPrecision; image-rendering:optimizeQuality; fill-rule:evenodd; clip-rule:evenodd" xmlns:xlink="http://www.w3.org/1999/xlink">
<g><path style="opacity:1" fill="#1f4593" d="M 71.5,-0.5 C 85.8333,-0.5 100.167,-0.5 114.5,-0.5C 114.5,4.83333 114.5,10.1667 114.5,15.5C 100.167,15.5 85.8333,15.5 71.5,15.5C 71.5,10.1667 71.5,4.83333 71.5,-0.5 Z"/></g>
<g><path style="opacity:1" fill="#1f4593" d="M 114.5,-0.5 C 134.5,-0.5 154.5,-0.5 174.5,-0.5C 174.5,4.83333 174.5,10.1667 174.5,15.5C 154.5,15.5 134.5,15.5 114.5,15.5C 114.5,10.1667 114.5,4.83333 114.5,-0.5 Z"/></g>
<g><path style="opacity:1" fill="#1f4593" d="M 174.5,-0.5 C 187.5,-0.5 200.5,-0.5 213.5,-0.5C 213.5,4.83333 213.5,10.1667 213.5,15.5C 200.5,15.5 187.5,15.5 174.5,15.5C 174.5,10.1667 174.5,4.83333 174.5,-0.5 Z"/></g>
<g><path style="opacity:1" fill="#1f4593" d="M 213.5,-0.5 C 225.833,-0.5 238.167,-0.5 250.5,-0.5C 250.5,4.83333 250.5,10.1667 250.5,15.5C 238.167,15.5 225.833,15.5 213.5,15.5C 213.5,10.1667 213.5,4.83333 213.5,-0.5 Z"/></g>
<g><path style="opacity:1" fill="#1f4593" d="M 250.5,-0.5 C 262.833,-0.5 275.167,-0.5 287.5,-0.5C 287.5,4.83333 287.5,10.1667 287.5,15.5C 275.167,15.5 262.833,15.5 250.5,15.5C 250.5,10.1667 250.5,4.83333 250.5,-0.5 Z"/></g>
<g><path style="opacity:1" fill="#1f4593" d="M 287.5,-0.5 C 295.833,-0.5 304.167,-0.5 312.5,-0.5C 315.139,1.47281 317.473,3.80614 319.5,6.5C 316.944,5.45659 314.777,3.78992 313,1.5C 312.5,26.1644 312.333,50.8311 312.5,75.5C 311.395,74.3995 310.062,73.7329 308.5,73.5C 303.457,67.8992 300.624,61.2325 300,53.5C 299.5,40.8377 299.333,28.1711 299.5,15.5C 295.5,15.5 291.5,15.5 287.5,15.5C 287.5,10.1667 287.5,4.83333 287.5,-0.5 Z"/></g>
<g><path style="opacity:1" fill="#1f4593" d="M 56.5,-0.5 C 58.1667,-0.5 59.8333,-0.5 61.5,-0.5C 58.7814,0.913011 55.7814,1.57968 52.5,1.5C 53.8333,0.833333 55.1667,0.166667 56.5,-0.5 Z"/></g>
<g><path style="opacity:1" fill="#1f4593" d="M 319.5,6.5 C 329.5,15.8333 339.167,25.5 348.5,35.5C 343.53,32.0705 338.697,27.7371 334,22.5C 333.5,29.1583 333.334,35.825 333.5,42.5C 331.754,40.7484 329.754,39.4151 327.5,38.5C 325.234,34.5644 322.234,31.2311 318.5,28.5C 318.189,27.5222 317.522,26.8555 316.5,26.5C 315.18,34.6572 315.18,42.6572 316.5,50.5C 317.042,53.6727 318.042,56.6727 319.5,59.5C 318.285,60.779 318.618,61.779 320.5,62.5C 324.001,65.6635 328.001,67.9969 332.5,69.5C 333.452,75.0748 333.786,80.7414 333.5,86.5C 325.361,85.9248 318.361,82.9248 312.5,77.5C 313.506,77.0623 313.506,76.3957 312.5,75.5C 312.333,50.8311 312.5,26.1644 313,1.5C 314.777,3.78992 316.944,5.45659 319.5,6.5 Z"/></g>
<g><path style="opacity:1" fill="#1f4593" d="M 61.5,-0.5 C 64.8333,-0.5 68.1667,-0.5 71.5,-0.5C 71.5,4.83333 71.5,10.1667 71.5,15.5C 57.3275,14.4805 48.8275,20.8139 46,34.5C 45.3333,156.167 45.3333,277.833 46,399.5C 46.54,405.856 49.3733,410.856 54.5,414.5C 54.7869,416.121 55.7869,417.121 57.5,417.5C 58.4954,423.128 58.8288,428.794 58.5,434.5C 51.7785,433.308 46.1119,430.308 41.5,425.5C 43.3321,286.504 44.1655,147.17 44,7.5C 45.0386,6.75618 45.5386,5.75618 45.5,4.5C 47.7128,3.22713 50.0462,2.22713 52.5,1.5C 55.7814,1.57968 58.7814,0.913011 61.5,-0.5 Z"/></g>
<g><path style="opacity:1" fill="#1f4593" d="M 45.5,4.5 C 45.5386,5.75618 45.0386,6.75618 44,7.5C 44.1655,147.17 43.3321,286.504 41.5,425.5C 39.0615,423.973 37.0615,421.973 35.5,419.5C 36.3285,418.668 37.1618,419.001 38,420.5C 38.8327,284.333 38.6661,148.333 37.5,12.5C 39.2295,8.95471 41.8962,6.28805 45.5,4.5 Z"/></g>
<g><path style="opacity:1" fill="#1f4593" d="M 37.5,12.5 C 38.6661,148.333 38.8327,284.333 38,420.5C 37.1618,419.001 36.3285,418.668 35.5,419.5C 33.9925,417.819 32.9925,415.819 32.5,413.5C 33.666,283.001 33.8327,152.334 33,21.5C 32.6232,22.9423 31.7899,23.9423 30.5,24.5C 31.8278,19.8349 34.1611,15.8349 37.5,12.5 Z"/></g>
<g><path style="opacity:1" fill="#1f4593" d="M 32.5,413.5 C 31.6618,413.158 31.3284,412.492 31.5,411.5C 31.5797,408.219 30.913,405.219 29.5,402.5C 29.5,401.833 29.5,401.167 29.5,400.5C 29.5049,277.264 29.5049,153.93 29.5,30.5C 29.5172,28.4352 29.8505,26.4352 30.5,24.5C 31.7899,23.9423 32.6232,22.9423 33,21.5C 33.8327,152.334 33.666,283.001 32.5,413.5 Z"/></g>
<g><path style="opacity:1" fill="#1f4593" d="M 318.5,28.5 C 318.5,28.8333 318.5,29.1667 318.5,29.5C 317.883,29.3893 317.383,29.056 317,28.5C 316.5,35.8258 316.334,43.1591 316.5,50.5C 315.18,42.6572 315.18,34.6572 316.5,26.5C 317.522,26.8555 318.189,27.5222 318.5,28.5 Z"/></g>
<g><path style="opacity:1" fill="#1f4593" d="M 318.5,28.5 C 322.234,31.2311 325.234,34.5644 327.5,38.5C 324.167,35.8333 321.167,32.8333 318.5,29.5C 318.5,29.1667 318.5,28.8333 318.5,28.5 Z"/></g>
<g><path style="opacity:1" fill="#1f4593" d="M 29.5,30.5 C 29.5049,153.93 29.5049,277.264 29.5,400.5C 28.1714,277.306 28.1714,153.973 29.5,30.5 Z"/></g>
<g><path style="opacity:1" fill="#1f4593" d="M 327.5,38.5 C 329.754,39.4151 331.754,40.7484 333.5,42.5C 337.963,47.4646 342.63,52.2979 347.5,57C 347.272,57.3988 346.938,57.5654 346.5,57.5C 339.833,51.5 333.5,45.1667 327.5,38.5 Z"/></g>
<g><path style="opacity:1" fill="#1f4593" d="M 348.5,35.5 C 353.833,40.1667 358.833,45.1667 363.5,50.5C 361.522,61.7854 360.855,73.4521 361.5,85.5C 364.385,85.1936 367.052,85.5269 369.5,86.5C 357.5,86.5 345.5,86.5 333.5,86.5C 333.786,80.7414 333.452,75.0748 332.5,69.5C 340.833,69.5 349.167,69.5 357.5,69.5C 358.423,70.3029 359.423,70.4696 360.5,70C 356.572,65.5642 352.239,61.7308 347.5,58.5C 346.833,58.5 346.5,58.1667 346.5,57.5C 346.938,57.5654 347.272,57.3988 347.5,57C 342.63,52.2979 337.963,47.4646 333.5,42.5C 333.334,35.825 333.5,29.1583 334,22.5C 338.697,27.7371 343.53,32.0705 348.5,35.5 Z"/></g>
<g><path style="opacity:1" fill="#1f4593" d="M 363.5,50.5 C 370.833,57.1667 377.833,64.1667 384.5,71.5C 384.565,71.9382 384.399,72.2716 384,72.5C 383.292,71.6195 382.458,70.9528 381.5,70.5C 375.108,64.1118 369.108,57.4451 363.5,50.5 Z"/></g>
<g><path style="opacity:1" fill="#1f4593" d="M 363.5,50.5 C 369.108,57.4451 375.108,64.1118 381.5,70.5C 382.156,126.049 381.489,181.383 379.5,236.5C 374.924,234.871 370.591,232.871 366.5,230.5C 365.365,228.912 364.031,228.579 362.5,229.5C 360.958,223.572 361.292,217.905 363.5,212.5C 365.861,212.674 368.194,213.007 370.5,213.5C 370.832,170.997 370.499,128.663 369.5,86.5C 367.052,85.5269 364.385,85.1936 361.5,85.5C 360.855,73.4521 361.522,61.7854 363.5,50.5 Z"/></g>
<g><path style="opacity:1" fill="#1f4593" d="M 319.5,59.5 C 320.11,60.391 320.443,61.391 320.5,62.5C 318.618,61.779 318.285,60.779 319.5,59.5 Z"/></g>
<g><path style="opacity:1" fill="#1f4593" d="M 134.5,61.5 C 128.021,62.4907 121.354,62.824 114.5,62.5C 114.5,67.5 114.5,72.5 114.5,77.5C 117.385,77.1936 120.052,77.5269 122.5,78.5C 107.496,78.6666 92.4963,78.4999 77.5,78C 73.2119,74.2288 72.3786,69.7288 75,64.5C 76.6477,63.283 78.481,62.4497 80.5,62C 98.4969,61.5001 116.497,61.3334 134.5,61.5 Z"/></g>
<g><path style="opacity:1" fill="#1f4593" d="M 134.5,61.5 C 139.167,61.5 143.833,61.5 148.5,61.5C 153.305,62.4872 158.305,62.8205 163.5,62.5C 163.5,67.8333 163.5,73.1667 163.5,78.5C 149.833,78.5 136.167,78.5 122.5,78.5C 120.052,77.5269 117.385,77.1936 114.5,77.5C 114.5,72.5 114.5,67.5 114.5,62.5C 121.354,62.824 128.021,62.4907 134.5,61.5 Z"/></g>
<g><path style="opacity:1" fill="#1f4593" d="M 148.5,61.5 C 172.502,61.3334 196.502,61.5 220.5,62C 226.161,63.8201 228.328,67.6535 227,73.5C 226.215,75.286 225.049,76.786 223.5,78C 203.503,78.5 183.503,78.6666 163.5,78.5C 163.5,73.1667 163.5,67.8333 163.5,62.5C 158.305,62.8205 153.305,62.4872 148.5,61.5 Z"/></g>
<g><path style="opacity:1" fill="#1f4593" d="M 347.5,58.5 C 352.239,61.7308 356.572,65.5642 360.5,70C 359.423,70.4696 358.423,70.3029 357.5,69.5C 354.167,65.8333 350.833,62.1667 347.5,58.5 Z"/></g>
<g><path style="opacity:1" fill="#1f4593" d="M 381.5,70.5 C 382.458,70.9528 383.292,71.6195 384,72.5C 384.399,72.2716 384.565,71.9382 384.5,71.5C 385.558,72.6002 386.392,73.9336 387,75.5C 387.167,124.17 387.667,172.837 388.5,221.5C 394.685,223.996 400.685,226.663 406.5,229.5C 406.062,229.435 405.728,229.601 405.5,230C 406.416,230.374 407.25,230.874 408,231.5C 408.499,237.157 408.666,242.824 408.5,248.5C 402.2,246.347 396.2,243.68 390.5,240.5C 388.684,238.559 386.684,237.892 384.5,238.5C 382.833,237.833 381.167,237.167 379.5,236.5C 381.489,181.383 382.156,126.049 381.5,70.5 Z"/></g>
<g><path style="opacity:1" fill="#1f4593" d="M 308.5,73.5 C 310.062,73.7329 311.395,74.3995 312.5,75.5C 313.506,76.3957 313.506,77.0623 312.5,77.5C 310.833,76.5 309.5,75.1667 308.5,73.5 Z"/></g>
<g><path style="opacity:1" fill="#1f4593" d="M 127.5,110.5 C 126.833,116.167 126.167,121.833 125.5,127.5C 110.163,127.667 94.8297,127.5 79.5,127C 73.9051,124.646 72.0718,120.479 74,114.5C 75.1667,113.333 76.3333,112.167 77.5,111C 94.1633,110.5 110.83,110.333 127.5,110.5 Z"/></g>
<g><path style="opacity:1" fill="#1f4593" d="M 127.5,110.5 C 144.167,110.5 160.833,110.5 177.5,110.5C 178.045,116.463 177.379,122.13 175.5,127.5C 158.833,127.5 142.167,127.5 125.5,127.5C 126.167,121.833 126.833,116.167 127.5,110.5 Z"/></g>
<g><path style="opacity:1" fill="#1f4593" d="M 177.5,110.5 C 194.5,110.5 211.5,110.5 228.5,110.5C 226.735,111.461 224.735,111.795 222.5,111.5C 222.5,116.833 222.5,122.167 222.5,127.5C 206.833,127.5 191.167,127.5 175.5,127.5C 177.379,122.13 178.045,116.463 177.5,110.5 Z"/></g>
<g><path style="opacity:1" fill="#1f4593" d="M 228.5,110.5 C 242.504,110.333 256.504,110.5 270.5,111C 276.607,115.558 276.94,120.558 271.5,126C 270.5,126.333 269.5,126.667 268.5,127C 253.17,127.5 237.837,127.667 222.5,127.5C 222.5,122.167 222.5,116.833 222.5,111.5C 224.735,111.795 226.735,111.461 228.5,110.5 Z"/></g>
<g><path style="opacity:1" fill="#1f4593" d="M 124.5,158.5 C 122.735,159.461 120.735,159.795 118.5,159.5C 118.5,164.5 118.5,169.5 118.5,174.5C 112.642,174.178 106.975,174.511 101.5,175.5C 93.0567,175.938 84.7233,175.438 76.5,174C 72.5678,169.404 72.5678,164.737 76.5,160C 92.4044,158.53 108.404,158.03 124.5,158.5 Z"/></g>
<g><path style="opacity:1" fill="#1f4593" d="M 124.5,158.5 C 149.833,158.5 175.167,158.5 200.5,158.5C 195.025,159.489 189.358,159.822 183.5,159.5C 183.5,164.5 183.5,169.5 183.5,174.5C 179.298,174.183 175.298,174.517 171.5,175.5C 148.167,175.5 124.833,175.5 101.5,175.5C 106.975,174.511 112.642,174.178 118.5,174.5C 118.5,169.5 118.5,164.5 118.5,159.5C 120.735,159.795 122.735,159.461 124.5,158.5 Z"/></g>
<g><path style="opacity:1" fill="#1f4593" d="M 200.5,158.5 C 212.5,158.5 224.5,158.5 236.5,158.5C 232.03,159.486 227.363,159.819 222.5,159.5C 222.5,164.5 222.5,169.5 222.5,174.5C 228.69,174.177 234.69,174.51 240.5,175.5C 217.5,175.5 194.5,175.5 171.5,175.5C 175.298,174.517 179.298,174.183 183.5,174.5C 183.5,169.5 183.5,164.5 183.5,159.5C 189.358,159.822 195.025,159.489 200.5,158.5 Z"/></g>
<g><path style="opacity:1" fill="#1f4593" d="M 236.5,158.5 C 248.171,158.333 259.838,158.5 271.5,159C 276.906,160.98 278.739,164.814 277,170.5C 276.167,172.667 274.667,174.167 272.5,175C 261.839,175.5 251.172,175.667 240.5,175.5C 234.69,174.51 228.69,174.177 222.5,174.5C 222.5,169.5 222.5,164.5 222.5,159.5C 227.363,159.819 232.03,159.486 236.5,158.5 Z"/></g>
<g><path style="opacity:1" fill="#1f4593" d="M 134.5,206.5 C 128.021,207.491 121.354,207.824 114.5,207.5C 114.5,212.5 114.5,217.5 114.5,222.5C 117.385,222.194 120.052,222.527 122.5,223.5C 107.496,223.667 92.4963,223.5 77.5,223C 73.2119,219.229 72.3786,214.729 75,209.5C 76.6477,208.283 78.481,207.45 80.5,207C 98.4969,206.5 116.497,206.333 134.5,206.5 Z"/></g>
<g><path style="opacity:1" fill="#1f4593" d="M 134.5,206.5 C 139.167,206.5 143.833,206.5 148.5,206.5C 153.305,207.487 158.305,207.821 163.5,207.5C 163.5,212.833 163.5,218.167 163.5,223.5C 149.833,223.5 136.167,223.5 122.5,223.5C 120.052,222.527 117.385,222.194 114.5,222.5C 114.5,217.5 114.5,212.5 114.5,207.5C 121.354,207.824 128.021,207.491 134.5,206.5 Z"/></g>
<g><path style="opacity:1" fill="#1f4593" d="M 148.5,206.5 C 172.502,206.333 196.502,206.5 220.5,207C 226.161,208.82 228.328,212.653 227,218.5C 226.215,220.286 225.049,221.786 223.5,223C 203.503,223.5 183.503,223.667 163.5,223.5C 163.5,218.167 163.5,212.833 163.5,207.5C 158.305,207.821 153.305,207.487 148.5,206.5 Z"/></g>
<g><path style="opacity:1" fill="#1f4593" d="M 334.5,223.5 C 334.631,224.376 334.298,225.043 333.5,225.5C 331.941,226.074 330.441,226.74 329,227.5C 328.601,227.272 328.435,226.938 328.5,226.5C 330.426,225.514 332.426,224.514 334.5,223.5 Z"/></g>
<g><path style="opacity:1" fill="#1f4593" d="M 363.5,212.5 C 361.292,217.905 360.958,223.572 362.5,229.5C 364.031,228.579 365.365,228.912 366.5,230.5C 364.801,230.34 363.134,230.506 361.5,231C 349.581,236.129 337.581,240.963 325.5,245.5C 324.5,245.5 323.5,245.5 322.5,245.5C 322.5,239.833 322.5,234.167 322.5,228.5C 324.5,227.833 326.5,227.167 328.5,226.5C 328.435,226.938 328.601,227.272 329,227.5C 330.441,226.74 331.941,226.074 333.5,225.5C 334.298,225.043 334.631,224.376 334.5,223.5C 344.067,219.549 353.734,215.882 363.5,212.5 Z"/></g>
<g><path style="opacity:1" fill="#1f4593" d="M 322.5,228.5 C 322.5,234.167 322.5,239.833 322.5,245.5C 323.5,245.5 324.5,245.5 325.5,245.5C 310.013,252.405 294.346,259.072 278.5,265.5C 278.5,259.5 278.5,253.5 278.5,247.5C 292.93,240.795 307.597,234.461 322.5,228.5 Z"/></g>
<g><path style="opacity:1" fill="#1f4593" d="M 384.5,238.5 C 386.684,237.892 388.684,238.559 390.5,240.5C 388.297,240.396 386.297,239.73 384.5,238.5 Z"/></g>
<g><path style="opacity:1" fill="#1f4593" d="M 406.5,229.5 C 427.738,237.796 448.738,246.462 469.5,255.5C 468.167,255.5 466.833,255.5 465.5,255.5C 465.782,260.927 465.449,266.26 464.5,271.5C 445.828,263.832 427.162,256.165 408.5,248.5C 408.666,242.824 408.499,237.157 408,231.5C 407.25,230.874 406.416,230.374 405.5,230C 405.728,229.601 406.062,229.435 406.5,229.5 Z"/></g>
<g><path style="opacity:1" fill="#1f4593" d="M 469.5,255.5 C 473.887,256.461 477.721,258.461 481,261.5C 481.333,262.833 481.667,264.167 482,265.5C 482.667,305.167 482.667,344.833 482,384.5C 480.54,399.547 475.873,413.547 468,426.5C 462.117,436.287 455.284,445.287 447.5,453.5C 446.504,453.414 445.671,453.748 445,454.5C 443.957,445.292 444.457,436.292 446.5,427.5C 456.231,414.368 462.397,399.701 465,383.5C 465.831,345.998 465.664,308.664 464.5,271.5C 465.449,266.26 465.782,260.927 465.5,255.5C 466.833,255.5 468.167,255.5 469.5,255.5 Z"/></g>
<g><path style="opacity:1" fill="#1f4593" d="M 278.5,247.5 C 278.5,253.5 278.5,259.5 278.5,265.5C 273.38,268.06 268.046,270.06 262.5,271.5C 262.035,311.534 262.535,351.534 264,391.5C 270.25,410.679 280.083,427.679 293.5,442.5C 293.565,442.938 293.399,443.272 293,443.5C 291.333,441.833 289.667,440.167 288,438.5C 287.5,445.826 287.334,453.159 287.5,460.5C 279.284,452.782 271.951,444.282 265.5,435C 259.843,434.501 254.176,434.334 248.5,434.5C 250.37,429.468 251.037,424.135 250.5,418.5C 248.585,418.784 246.919,418.451 245.5,417.5C 248.85,417.665 252.183,417.498 255.5,417C 254.086,415.007 253.086,412.84 252.5,410.5C 253.833,359.5 253.833,308.5 252.5,257.5C 261.1,253.967 269.767,250.634 278.5,247.5 Z"/></g>
<g><path style="opacity:1" fill="#1f4593" d="M 252.5,257.5 C 253.833,308.5 253.833,359.5 252.5,410.5C 248.849,403.027 246.683,395.027 246,386.5C 245.333,345.833 245.333,305.167 246,264.5C 246.962,261.039 249.128,258.705 252.5,257.5 Z"/></g>
<g><path style="opacity:1" fill="#1f4593" d="M 355.5,411.5 C 354.504,411.414 353.671,411.748 353,412.5C 352.562,404.199 352.395,396.199 352.5,388.5C 352.328,387.508 352.662,386.842 353.5,386.5C 353.435,386.938 353.601,387.272 354,387.5C 356.382,384.573 358.882,381.739 361.5,379C 361.272,378.601 360.938,378.435 360.5,378.5C 360.427,376.973 361.094,375.973 362.5,375.5C 363.496,375.586 364.329,375.252 365,374.5C 366.421,372.595 367.588,370.595 368.5,368.5C 383.55,348.605 399.217,329.105 415.5,310C 422.636,308.139 426.969,310.805 428.5,318C 427.884,321.287 426.384,324.121 424,326.5C 400.954,354.708 378.12,383.041 355.5,411.5 Z"/></g>
<g><path style="opacity:1" fill="#1f4593" d="M 325.5,362.5 C 324.343,370.656 324.177,378.99 325,387.5C 326.094,389.078 326.928,390.745 327.5,392.5C 317.062,380.451 307.728,367.617 299.5,354C 300.821,347.349 304.821,344.682 311.5,346C 317.069,350.735 321.735,356.235 325.5,362.5 Z"/></g>
<g><path style="opacity:1" fill="#1f4593" d="M 368.5,368.5 C 367.588,370.595 366.421,372.595 365,374.5C 364.329,375.252 363.496,375.586 362.5,375.5C 363.8,372.568 365.8,370.234 368.5,368.5 Z"/></g>
<g><path style="opacity:1" fill="#1f4593" d="M 360.5,378.5 C 360.938,378.435 361.272,378.601 361.5,379C 358.882,381.739 356.382,384.573 354,387.5C 353.601,387.272 353.435,386.938 353.5,386.5C 355.372,383.418 357.705,380.751 360.5,378.5 Z"/></g>
<g><path style="opacity:1" fill="#1f4593" d="M 325.5,362.5 C 332.934,371.841 340.268,381.341 347.5,391C 349.435,390.942 351.102,390.109 352.5,388.5C 352.395,396.199 352.562,404.199 353,412.5C 353.671,411.748 354.504,411.414 355.5,411.5C 351.495,415.425 347.162,415.925 342.5,413C 337.115,406.374 332.115,399.541 327.5,392.5C 326.928,390.745 326.094,389.078 325,387.5C 324.177,378.99 324.343,370.656 325.5,362.5 Z"/></g>
<g><path style="opacity:1" fill="#1f4593" d="M 29.5,402.5 C 30.913,405.219 31.5797,408.219 31.5,411.5C 30.087,408.781 29.4203,405.781 29.5,402.5 Z"/></g>
<g><path style="opacity:1" fill="#1f4593" d="M 54.5,414.5 C 56.1401,415.32 57.8068,416.153 59.5,417C 74.1629,417.5 88.8295,417.667 103.5,417.5C 101.052,418.473 98.3854,418.806 95.5,418.5C 95.5,423.5 95.5,428.5 95.5,433.5C 97.099,433.232 98.4324,433.566 99.5,434.5C 85.8333,434.5 72.1667,434.5 58.5,434.5C 58.8288,428.794 58.4954,423.128 57.5,417.5C 55.7869,417.121 54.7869,416.121 54.5,414.5 Z"/></g>
<g><path style="opacity:1" fill="#1f4593" d="M 103.5,417.5 C 118.5,417.5 133.5,417.5 148.5,417.5C 146.052,418.473 143.385,418.806 140.5,418.5C 139.963,424.135 140.63,429.468 142.5,434.5C 128.167,434.5 113.833,434.5 99.5,434.5C 98.4324,433.566 97.099,433.232 95.5,433.5C 95.5,428.5 95.5,423.5 95.5,418.5C 98.3854,418.806 101.052,418.473 103.5,417.5 Z"/></g>
<g><path style="opacity:1" fill="#1f4593" d="M 148.5,417.5 C 163.833,417.5 179.167,417.5 194.5,417.5C 194.5,422.833 194.5,428.167 194.5,433.5C 184.985,433.173 175.652,433.506 166.5,434.5C 158.5,434.5 150.5,434.5 142.5,434.5C 140.63,429.468 139.963,424.135 140.5,418.5C 143.385,418.806 146.052,418.473 148.5,417.5 Z"/></g>
<g><path style="opacity:1" fill="#1f4593" d="M 194.5,417.5 C 211.5,417.5 228.5,417.5 245.5,417.5C 246.919,418.451 248.585,418.784 250.5,418.5C 251.037,424.135 250.37,429.468 248.5,434.5C 221.167,434.5 193.833,434.5 166.5,434.5C 175.652,433.506 184.985,433.173 194.5,433.5C 194.5,428.167 194.5,422.833 194.5,417.5 Z"/></g>
<g><path style="opacity:1" fill="#1f4593" d="M 446.5,427.5 C 444.457,436.292 443.957,445.292 445,454.5C 445.671,453.748 446.504,453.414 447.5,453.5C 433.621,469.054 417.955,482.387 400.5,493.5C 402.493,487.038 402.993,480.371 402,473.5C 401.31,474.738 400.81,474.738 400.5,473.5C 418.167,460.5 433.5,445.167 446.5,427.5 Z"/></g>
<g><path style="opacity:1" fill="#1f4593" d="M 293.5,442.5 C 299.833,449.5 306.5,456.167 313.5,462.5C 312.509,468.979 312.176,475.646 312.5,482.5C 302.924,476.591 294.59,469.258 287.5,460.5C 287.334,453.159 287.5,445.826 288,438.5C 289.667,440.167 291.333,441.833 293,443.5C 293.399,443.272 293.565,442.938 293.5,442.5 Z"/></g>
<g><path style="opacity:1" fill="#1f4593" d="M 313.5,462.5 C 322.578,469.587 331.912,476.254 341.5,482.5C 341.334,488.509 341.501,494.509 342,500.5C 343.518,501.163 344.685,502.163 345.5,503.5C 333.307,498.245 322.307,491.245 312.5,482.5C 312.176,475.646 312.509,468.979 313.5,462.5 Z"/></g>
<g><path style="opacity:1" fill="#1f4593" d="M 400.5,473.5 C 400.81,474.738 401.31,474.738 402,473.5C 402.993,480.371 402.493,487.038 400.5,493.5C 392.019,499.245 383.019,504.245 373.5,508.5C 373.44,507.957 373.107,507.624 372.5,507.5C 369.741,508.879 367.075,510.213 364.5,511.5C 362.833,511.5 361.167,511.5 359.5,511.5C 354.833,508.833 350.167,506.167 345.5,503.5C 344.685,502.163 343.518,501.163 342,500.5C 341.501,494.509 341.334,488.509 341.5,482.5C 348.894,486.615 356.394,490.615 364,494.5C 376.63,488.108 388.796,481.108 400.5,473.5 Z"/></g>
<g><path style="opacity:1" fill="#1f4593" d="M 373.5,508.5 C 371.632,509.263 369.965,510.263 368.5,511.5C 367.167,511.5 365.833,511.5 364.5,511.5C 367.075,510.213 369.741,508.879 372.5,507.5C 373.107,507.624 373.44,507.957 373.5,508.5 Z"/></g>
</svg>
