<?xml version="1.0" encoding="UTF-8"?>
<!DOCTYPE svg PUBLIC "-//W3C//DTD SVG 1.1//EN" "http://www.w3.org/Graphics/SVG/1.1/DTD/svg11.dtd">
<svg xmlns="http://www.w3.org/2000/svg" version="1.1" width="512px" height="512px" style="shape-rendering:geometricPrecision; text-rendering:geometricPrecision; image-rendering:optimizeQuality; fill-rule:evenodd; clip-rule:evenodd" xmlns:xlink="http://www.w3.org/1999/xlink">
<g><path style="opacity:1" fill="#fefffe" d="M 389.5,16.5 C 390.144,18.0537 391.811,19.0537 394.5,19.5C 427.465,51.9652 460.299,84.6318 493,117.5C 493.667,118.833 494.333,120.167 495,121.5C 495.667,233.5 495.667,345.5 495,457.5C 494.024,462.612 492.191,467.278 489.5,471.5C 489.565,471.062 489.399,470.728 489,470.5C 488,471.833 487,473.167 486,474.5C 485.308,475.437 485.475,476.103 486.5,476.5C 486.5,477.167 486.167,477.5 485.5,477.5C 483.114,478.373 481.114,479.873 479.5,482C 479.728,482.399 480.062,482.565 480.5,482.5C 474.359,489.241 466.692,493.408 457.5,495C 322.833,495.667 188.167,495.667 53.5,495C 33.6667,489.833 21.1667,477.333 16,457.5C 15.3333,322.833 15.3333,188.167 16,53.5C 21.1667,33.6667 33.6667,21.1667 53.5,16C 165.667,15.1674 277.667,15.3341 389.5,16.5 Z M 159.5,145.5 C 159.298,147.95 159.631,150.283 160.5,152.5C 163.685,164.518 171.352,172.018 183.5,175C 231.5,175.667 279.5,175.667 327.5,175C 340,171.833 347.833,164 351,151.5C 351.5,116.835 351.667,82.1683 351.5,47.5C 359.833,47.5 368.167,47.5 376.5,47.5C 379.833,51.5 383.5,55.1667 387.5,58.5C 412.465,83.9653 437.632,109.299 463,134.5C 463.831,239.236 463.664,343.903 462.5,448.5C 462.483,450.565 462.15,452.565 461.5,454.5C 460.599,455.29 459.932,456.29 459.5,457.5C 458.167,458.167 457.167,459.167 456.5,460.5C 453.652,461.772 450.652,462.605 447.5,463C 436.839,463.5 426.172,463.667 415.5,463.5C 415.667,422.832 415.5,382.165 415,341.5C 413.895,335.673 411.728,330.34 408.5,325.5C 407.396,323.611 406.063,321.945 404.5,320.5C 397.431,311.949 388.431,306.449 377.5,304C 296.167,303.333 214.833,303.333 133.5,304C 131.942,304.21 130.609,304.71 129.5,305.5C 126.458,305.733 123.792,306.733 121.5,308.5C 107.731,315.346 99.2312,326.346 96,341.5C 95.5,382.165 95.3333,422.832 95.5,463.5C 83.1137,463.894 70.7804,463.394 58.5,462C 51.9469,459.399 48.4469,454.566 48,447.5C 47.3333,319.5 47.3333,191.5 48,63.5C 49.1667,54.3333 54.3333,49.1667 63.5,48C 95.4983,47.5 127.498,47.3334 159.5,47.5C 159.5,80.1667 159.5,112.833 159.5,145.5 Z M 191.5,47.5 C 234.167,47.5 276.833,47.5 319.5,47.5C 319.5,79.5 319.5,111.5 319.5,143.5C 276.833,143.5 234.167,143.5 191.5,143.5C 191.5,111.5 191.5,79.5 191.5,47.5 Z M 143.5,335.5 C 218.167,335.333 292.834,335.5 367.5,336C 376.667,337.167 381.833,342.333 383,351.5C 383.5,388.832 383.667,426.165 383.5,463.5C 298.167,463.5 212.833,463.5 127.5,463.5C 127.333,426.165 127.5,388.832 128,351.5C 129.346,342.322 134.513,336.989 143.5,335.5 Z"/></g>
<g><path style="opacity:0.992" fill="#fefffe" d="M 389.5,16.5 C 391.674,16.7497 393.341,17.7497 394.5,19.5C 391.811,19.0537 390.144,18.0537 389.5,16.5 Z"/></g>
<g><path style="opacity:0.902" fill="#fefffe" d="M 376.5,47.5 C 381.167,50.1667 384.833,53.8333 387.5,58.5C 383.5,55.1667 379.833,51.5 376.5,47.5 Z"/></g>
<g><path style="opacity:0.086" fill="#fefffe" d="M 159.5,145.5 C 160.283,147.343 160.95,149.343 161.5,151.5C 161.376,152.107 161.043,152.44 160.5,152.5C 159.631,150.283 159.298,147.95 159.5,145.5 Z"/></g>
<g><path style="opacity:0.969" fill="#fefffe" d="M 129.5,305.5 C 127.133,306.914 124.633,308.248 122,309.5C 121.601,309.272 121.435,308.938 121.5,308.5C 123.792,306.733 126.458,305.733 129.5,305.5 Z"/></g>
<g><path style="opacity:0.996" fill="#fefffe" d="M 404.5,320.5 C 406.063,321.945 407.396,323.611 408.5,325.5C 406.003,324.871 404.67,323.204 404.5,320.5 Z"/></g>
<g><path style="opacity:0.667" fill="#fefffe" d="M 462.5,448.5 C 463.139,449.097 463.472,449.93 463.5,451C 463.497,453.314 462.831,454.481 461.5,454.5C 462.15,452.565 462.483,450.565 462.5,448.5 Z"/></g>
<g><path style="opacity:0.906" fill="#fefffe" d="M 459.5,457.5 C 459.938,457.435 460.272,457.601 460.5,458C 459.529,459.481 458.196,460.315 456.5,460.5C 457.167,459.167 458.167,458.167 459.5,457.5 Z"/></g>
<g><path style="opacity:0.31" fill="#fefffe" d="M 489.5,471.5 C 488.752,473.332 487.752,474.999 486.5,476.5C 485.475,476.103 485.308,475.437 486,474.5C 487,473.167 488,471.833 489,470.5C 489.399,470.728 489.565,471.062 489.5,471.5 Z"/></g>
<g><path style="opacity:0.345" fill="#fefffe" d="M 485.5,477.5 C 484.167,479.5 482.5,481.167 480.5,482.5C 480.062,482.565 479.728,482.399 479.5,482C 481.114,479.873 483.114,478.373 485.5,477.5 Z"/></g>
</svg>
