<?xml version="1.0" encoding="UTF-8"?>
<!DOCTYPE svg PUBLIC "-//W3C//DTD SVG 1.1//EN" "http://www.w3.org/Graphics/SVG/1.1/DTD/svg11.dtd">
<svg xmlns="http://www.w3.org/2000/svg" version="1.1" width="512px" height="512px" style="shape-rendering:geometricPrecision; text-rendering:geometricPrecision; image-rendering:optimizeQuality; fill-rule:evenodd; clip-rule:evenodd" xmlns:xlink="http://www.w3.org/1999/xlink">
<g><path style="opacity:0.945" fill="#ff9f17" d="M 330.5,151.5 C 326.5,147.833 322.5,144.167 318.5,140.5C 340.916,132.337 349.083,116.67 343,93.5C 338.121,82.8011 329.955,75.9678 318.5,73C 307.428,72.9319 296.428,72.2652 285.5,71C 284.667,70.1667 283.833,69.3333 283,68.5C 281.338,41.1753 267.005,25.842 240,22.5C 232.784,23.1792 225.95,25.1792 219.5,28.5C 216.14,24.4729 212.473,20.8062 208.5,17.5C 221.264,9.24675 235.264,6.41342 250.5,9C 276.28,15.2791 291.613,31.4458 296.5,57.5C 318.363,53.6192 336.529,59.9525 351,76.5C 363.942,97.082 363.608,117.415 350,137.5C 344.587,143.78 338.087,148.447 330.5,151.5 Z"/></g>
<g><path style="opacity:0.949" fill="#ffb32f" d="M 208.5,17.5 C 212.473,20.8062 216.14,24.4729 219.5,28.5C 207.208,35.7485 199.875,46.4151 197.5,60.5C 193.441,56.4349 189.107,52.7683 184.5,49.5C 188.621,35.9257 196.621,25.259 208.5,17.5 Z"/></g>
<g><path style="opacity:0.955" fill="#ffc040" d="M 184.5,49.5 C 189.107,52.7683 193.441,56.4349 197.5,60.5C 199.038,69.2926 195.371,73.9593 186.5,74.5C 183.169,70.249 180.169,66.249 177.5,62.5C 179.109,61.2291 180.942,60.2291 183,59.5C 183.455,56.1464 183.955,52.8131 184.5,49.5 Z"/></g>
<g><path style="opacity:0.942" fill="#fecc4e" d="M 177.5,62.5 C 180.169,66.249 183.169,70.249 186.5,74.5C 176.653,79.0105 169.986,86.3438 166.5,96.5C 163.167,92.5 159.5,88.8333 155.5,85.5C 160.11,75.2233 167.443,67.5567 177.5,62.5 Z"/></g>
<g><path style="opacity:0.953" fill="#dfc551" d="M 155.5,85.5 C 159.5,88.8333 163.167,92.5 166.5,96.5C 162.885,118.377 171.552,132.877 192.5,140C 195.5,140.333 198.5,140.667 201.5,141C 208.475,144.63 209.142,149.297 203.5,155C 201.527,155.495 199.527,155.662 197.5,155.5C 181.806,139.473 166.139,123.473 150.5,107.5C 150.146,99.5879 151.813,92.2545 155.5,85.5 Z"/></g>
<g><path style="opacity:0.975" fill="#ccbb4e" d="M 150.5,107.5 C 166.139,123.473 181.806,139.473 197.5,155.5C 169.032,152.032 153.366,136.032 150.5,107.5 Z"/></g>
<g><path style="opacity:0.943" fill="#fecf52" d="M 227.5,155.5 C 222.224,151.563 217.224,147.229 212.5,142.5C 212.334,133.494 212.5,124.494 213,115.5C 213.5,113.667 214.667,112.5 216.5,112C 220.987,110.622 224.487,111.788 227,115.5C 227.5,128.829 227.667,142.163 227.5,155.5 Z"/></g>
<g><path style="opacity:0.933" fill="#ffb12c" d="M 318.5,140.5 C 322.5,144.167 326.5,147.833 330.5,151.5C 323.311,155.024 315.644,156.19 307.5,155C 301.858,149.297 302.525,144.63 309.5,141C 312.482,140.502 315.482,140.335 318.5,140.5 Z"/></g>
<g><path style="opacity:1" fill="#ffc342" d="M 262.5,160.5 C 257.833,156.167 253.167,151.833 248.5,147.5C 248.333,136.495 248.5,125.495 249,114.5C 253.333,110.5 257.667,110.5 262,114.5C 262.5,129.83 262.667,145.163 262.5,160.5 Z"/></g>
<g><path style="opacity:0.933" fill="#ffb735" d="M 298.5,171.5 C 292.741,166.746 287.741,161.412 283.5,155.5C 283.333,142.163 283.5,128.829 284,115.5C 286.513,111.788 290.013,110.622 294.5,112C 295.416,112.374 296.25,112.874 297,113.5C 298.475,132.741 298.975,152.074 298.5,171.5 Z"/></g>
<g><path style="opacity:0.957" fill="#e9c953" d="M 212.5,142.5 C 217.224,147.229 222.224,151.563 227.5,155.5C 227.5,162.167 227.5,168.833 227.5,175.5C 222.14,170.806 217.14,165.806 212.5,160.5C 212.5,154.5 212.5,148.5 212.5,142.5 Z"/></g>
<g><path style="opacity:1" fill="#fed052" d="M 248.5,147.5 C 253.167,151.833 257.833,156.167 262.5,160.5C 262.5,170.833 262.5,181.167 262.5,191.5C 257.833,187.167 253.167,182.833 248.5,178.5C 248.5,168.167 248.5,157.833 248.5,147.5 Z"/></g>
<g><path style="opacity:0.957" fill="#ffc343" d="M 283.5,155.5 C 287.741,161.412 292.741,166.746 298.5,171.5C 298.5,173.833 298.5,176.167 298.5,178.5C 301.5,178.5 304.5,178.5 307.5,178.5C 307.389,179.117 307.056,179.617 306.5,180C 315,188.5 323.5,197 332,205.5C 332.483,206.448 332.649,207.448 332.5,208.5C 321.814,208.663 314.148,203.996 309.5,194.5C 302.189,193.669 294.856,193.169 287.5,193C 286.333,191.833 285.167,190.667 284,189.5C 283.5,178.172 283.333,166.838 283.5,155.5 Z"/></g>
<g><path style="opacity:0.976" fill="#b7b14b" d="M 178.5,164.5 C 189.313,163.403 196.98,167.737 201.5,177.5C 203.045,178.452 204.712,178.785 206.5,178.5C 211.167,183.5 215.833,188.5 220.5,193.5C 215.833,193.5 211.167,193.5 206.5,193.5C 197.167,183.833 187.833,174.167 178.5,164.5 Z"/></g>
<g><path style="opacity:0.982" fill="#ffb12e" d="M 349.5,196.5 C 345.227,193.566 341.227,190.233 337.5,186.5C 336.526,181.523 333.526,179.19 328.5,179.5C 328.611,178.883 328.944,178.383 329.5,178C 325.964,174.296 322.298,170.796 318.5,167.5C 337.03,160.267 348.363,166.433 352.5,186C 351.975,189.682 350.975,193.182 349.5,196.5 Z"/></g>
<g><path style="opacity:0.962" fill="#a4a848" d="M 178.5,164.5 C 187.833,174.167 197.167,183.833 206.5,193.5C 204.712,193.215 203.045,193.548 201.5,194.5C 200.547,197.43 198.88,199.763 196.5,201.5C 192.833,198.167 189.167,194.833 185.5,191.5C 189.394,187.466 189.061,183.632 184.5,180C 181.177,179.068 178.177,179.568 175.5,181.5C 172.167,177.833 168.833,174.167 165.5,170.5C 168.888,166.642 173.222,164.642 178.5,164.5 Z"/></g>
<g><path style="opacity:0.973" fill="#ffbb39" d="M 318.5,167.5 C 322.298,170.796 325.964,174.296 329.5,178C 328.944,178.383 328.611,178.883 328.5,179.5C 322.008,182.793 321.342,186.96 326.5,192C 331.957,193.938 335.624,192.105 337.5,186.5C 341.227,190.233 345.227,193.566 349.5,196.5C 345.798,203.192 340.131,207.192 332.5,208.5C 332.649,207.448 332.483,206.448 332,205.5C 323.5,197 315,188.5 306.5,180C 307.056,179.617 307.389,179.117 307.5,178.5C 309.776,176.669 311.609,174.336 313,171.5C 314.432,169.561 316.265,168.228 318.5,167.5 Z"/></g>
<g><path style="opacity:0.955" fill="#849843" d="M 165.5,170.5 C 168.833,174.167 172.167,177.833 175.5,181.5C 172.732,187.311 174.565,191.311 181,193.5C 182.585,192.956 184.085,192.289 185.5,191.5C 189.167,194.833 192.833,198.167 196.5,201.5C 184.881,211.207 173.714,210.54 163,199.5C 156.842,189.155 157.676,179.488 165.5,170.5 Z"/></g>
<g><path style="opacity:0.958" fill="#cebc4f" d="M 212.5,160.5 C 217.14,165.806 222.14,170.806 227.5,175.5C 227.666,180.179 227.499,184.845 227,189.5C 225.429,191.923 223.263,193.256 220.5,193.5C 215.833,188.5 211.167,183.5 206.5,178.5C 208.5,178.5 210.5,178.5 212.5,178.5C 212.5,172.5 212.5,166.5 212.5,160.5 Z"/></g>
<g><path style="opacity:0.982" fill="#ebca53" d="M 248.5,178.5 C 253.167,182.833 257.833,187.167 262.5,191.5C 262.338,193.527 262.505,195.527 263,197.5C 274.489,203.144 278.989,212.144 276.5,224.5C 267.167,215.5 257.833,206.5 248.5,197.5C 248.5,191.167 248.5,184.833 248.5,178.5 Z"/></g>
<g><path style="opacity:0.99" fill="#d8c150" d="M 248.5,197.5 C 257.833,206.5 267.167,215.5 276.5,224.5C 276.023,228.793 274.023,232.127 270.5,234.5C 267.167,230.833 263.833,227.167 260.5,223.5C 263.861,217.543 262.194,213.543 255.5,211.5C 253.7,211.902 252.033,212.569 250.5,213.5C 247.167,209.833 243.833,206.167 240.5,202.5C 242.794,200.347 245.46,198.68 248.5,197.5 Z"/></g>
<g><path style="opacity:0.981" fill="#b7b14b" d="M 240.5,202.5 C 243.833,206.167 247.167,209.833 250.5,213.5C 252.033,212.569 253.7,211.902 255.5,211.5C 262.194,213.543 263.861,217.543 260.5,223.5C 263.833,227.167 267.167,230.833 270.5,234.5C 268.2,237.324 265.2,239.157 261.5,240C 247.931,242.469 238.764,237.302 234,224.5C 232.26,215.897 234.426,208.564 240.5,202.5 Z"/></g>
<g><path style="opacity:0.96" fill="#76bbca" d="M 96.5,250.5 C 100.772,256.11 105.438,261.443 110.5,266.5C 102.178,265.945 93.8442,265.612 85.5,265.5C 81.1667,260.833 76.8333,256.167 72.5,251.5C 80.3159,250.508 88.3159,250.174 96.5,250.5 Z"/></g>
<g><path style="opacity:0.925" fill="#ecca53" d="M 302.5,252.5 C 310.167,252.5 317.833,252.5 325.5,252.5C 325.389,253.117 325.056,253.617 324.5,254C 329.037,258.369 333.37,262.869 337.5,267.5C 329.833,267.5 322.167,267.5 314.5,267.5C 310.37,262.869 306.037,258.369 301.5,254C 302.056,253.617 302.389,253.117 302.5,252.5 Z"/></g>
<g><path style="opacity:0.922" fill="#fecb4c" d="M 325.5,252.5 C 343.5,252.5 361.5,252.5 379.5,252.5C 384.167,257.5 388.833,262.5 393.5,267.5C 374.833,267.5 356.167,267.5 337.5,267.5C 333.37,262.869 329.037,258.369 324.5,254C 325.056,253.617 325.389,253.117 325.5,252.5 Z"/></g>
<g><path style="opacity:0.953" fill="#ffa018" d="M 437.5,252.5 C 453.503,252.333 469.503,252.5 485.5,253C 493.687,254.185 499.187,258.685 502,266.5C 502.5,281.163 502.667,295.83 502.5,310.5C 497.833,306.167 493.167,301.833 488.5,297.5C 488.666,289.493 488.5,281.493 488,273.5C 487.727,271.671 486.893,270.171 485.5,269C 473.601,267.541 461.601,267.041 449.5,267.5C 449.611,266.883 449.944,266.383 450.5,266C 445.963,261.631 441.63,257.131 437.5,252.5 Z"/></g>
<g><path style="opacity:0.969" fill="#74c0e5" d="M 72.5,251.5 C 76.8333,256.167 81.1667,260.833 85.5,265.5C 77.8252,265.68 70.1585,266.014 62.5,266.5C 60.8008,266.66 59.1341,266.494 57.5,266C 53.5434,261.531 49.2101,257.698 44.5,254.5C 53.7374,252.679 63.0708,251.679 72.5,251.5 Z"/></g>
<g><path style="opacity:0.952" fill="#74b0a9" d="M 96.5,250.5 C 110.6,251.082 124.266,253.415 137.5,257.5C 146.22,267.222 155.553,276.222 165.5,284.5C 165.5,290.5 165.5,296.5 165.5,302.5C 159.167,296.5 152.833,290.5 146.5,284.5C 150.441,282.107 150.441,279.607 146.5,277C 135.016,271.63 123.016,268.13 110.5,266.5C 105.438,261.443 100.772,256.11 96.5,250.5 Z"/></g>
<g><path style="opacity:0.974" fill="#b2ae4a" d="M 279.5,252.5 C 284.806,257.14 289.806,262.14 294.5,267.5C 288.5,267.5 282.5,267.5 276.5,267.5C 271.86,263.527 267.527,259.194 263.5,254.5C 268.675,252.915 274.009,252.248 279.5,252.5 Z"/></g>
<g><path style="opacity:0.99" fill="#d1bd4f" d="M 279.5,252.5 C 287.167,252.5 294.833,252.5 302.5,252.5C 302.389,253.117 302.056,253.617 301.5,254C 306.037,258.369 310.37,262.869 314.5,267.5C 307.833,267.5 301.167,267.5 294.5,267.5C 289.806,262.14 284.806,257.14 279.5,252.5 Z"/></g>
<g><path style="opacity:0.99" fill="#ffbb39" d="M 379.5,252.5 C 386.167,252.5 392.833,252.5 399.5,252.5C 401.292,253.309 403.292,253.809 405.5,254C 410.037,258.369 414.37,262.869 418.5,267.5C 410.167,267.5 401.833,267.5 393.5,267.5C 388.833,262.5 384.167,257.5 379.5,252.5 Z"/></g>
<g><path style="opacity:0.99" fill="#ffae29" d="M 399.5,252.5 C 412.167,252.5 424.833,252.5 437.5,252.5C 441.63,257.131 445.963,261.631 450.5,266C 449.944,266.383 449.611,266.883 449.5,267.5C 439.167,267.5 428.833,267.5 418.5,267.5C 414.37,262.869 410.037,258.369 405.5,254C 403.292,253.809 401.292,253.309 399.5,252.5 Z"/></g>
<g><path style="opacity:0.948" fill="#6ab2dd" d="M 44.5,254.5 C 49.2101,257.698 53.5434,261.531 57.5,266C 59.1341,266.494 60.8008,266.66 62.5,266.5C 53.0291,267.868 43.6957,270.201 34.5,273.5C 31.5358,268.869 27.8692,264.869 23.5,261.5C 30.3054,258.565 37.3054,256.232 44.5,254.5 Z"/></g>
<g><path style="opacity:0.951" fill="#74aa97" d="M 137.5,257.5 C 148.946,259.295 157.78,264.961 164,274.5C 165.043,277.757 165.543,281.09 165.5,284.5C 155.553,276.222 146.22,267.222 137.5,257.5 Z"/></g>
<g><path style="opacity:0.999" fill="#8d9c44" d="M 263.5,254.5 C 267.527,259.194 271.86,263.527 276.5,267.5C 268.909,266.862 264.409,270.195 263,277.5C 262.502,280.817 262.335,284.15 262.5,287.5C 257.833,283.167 253.167,278.833 248.5,274.5C 249.674,264.989 254.674,258.322 263.5,254.5 Z"/></g>
<g><path style="opacity:0.974" fill="#5d9fd0" d="M 23.5,261.5 C 27.8692,264.869 31.5358,268.869 34.5,273.5C 30.4849,274.591 26.9849,276.591 24,279.5C 23.8374,281.387 24.6707,282.887 26.5,284C 39.9282,290.355 53.9282,294.188 68.5,295.5C 68.0618,295.435 67.7284,295.601 67.5,296C 72.3699,300.702 77.0366,305.535 81.5,310.5C 67.5869,310.51 53.9203,308.843 40.5,305.5C 30.5,294.833 20.1667,284.5 9.5,274.5C 12.4028,268.363 17.0695,264.03 23.5,261.5 Z"/></g>
<g><path style="opacity:0.972" fill="#5392c7" d="M 9.5,274.5 C 20.1667,284.5 30.5,294.833 40.5,305.5C 34.4232,304.197 28.5899,302.197 23,299.5C 22.502,302.482 22.3354,305.482 22.5,308.5C 17.8333,304.167 13.1667,299.833 8.5,295.5C 8.17547,288.313 8.50881,281.313 9.5,274.5 Z"/></g>
<g><path style="opacity:0.971" fill="#75b5b9" d="M 146.5,284.5 C 152.833,290.5 159.167,296.5 165.5,302.5C 165.5,308.5 165.5,314.5 165.5,320.5C 160.776,315.771 155.776,311.437 150.5,307.5C 150.664,304.813 150.497,302.146 150,299.5C 148.67,300.582 147.17,301.249 145.5,301.5C 141.833,297.5 138.167,293.5 134.5,289.5C 138.5,287.833 142.5,286.167 146.5,284.5 Z"/></g>
<g><path style="opacity:1" fill="#729144" d="M 248.5,274.5 C 253.167,278.833 257.833,283.167 262.5,287.5C 262.5,293.5 262.5,299.5 262.5,305.5C 257.833,301.167 253.167,296.833 248.5,292.5C 248.5,286.5 248.5,280.5 248.5,274.5 Z"/></g>
<g><path style="opacity:0.964" fill="#76bdd3" d="M 134.5,289.5 C 138.167,293.5 141.833,297.5 145.5,301.5C 138.139,304.59 130.472,306.59 122.5,307.5C 118.5,303.167 114.5,298.833 110.5,294.5C 118.646,293.476 126.646,291.809 134.5,289.5 Z"/></g>
<g><path style="opacity:0.968" fill="#71bce3" d="M 110.5,294.5 C 114.5,298.833 118.5,303.167 122.5,307.5C 108.999,310.023 95.3323,311.023 81.5,310.5C 77.0366,305.535 72.3699,300.702 67.5,296C 67.7284,295.601 68.0618,295.435 68.5,295.5C 82.5219,295.722 96.5219,295.388 110.5,294.5 Z"/></g>
<g><path style="opacity:0.971" fill="#518fc5" d="M 35.5,312.5 C 43.3557,313.547 51.0224,315.381 58.5,318C 62.3687,324.591 60.702,329.091 53.5,331.5C 47.0882,330.318 40.7548,328.818 34.5,327C 29.0028,321.683 29.3361,316.85 35.5,312.5 Z"/></g>
<g><path style="opacity:0.991" fill="#457db9" d="M 8.5,295.5 C 13.1667,299.833 17.8333,304.167 22.5,308.5C 22.3338,314.509 22.5005,320.509 23,326.5C 28.0174,331.093 33.8508,334.26 40.5,336C 48.3771,338.209 56.3771,339.709 64.5,340.5C 69.5618,345.557 74.2285,350.89 78.5,356.5C 59.2339,356.48 40.7339,352.813 23,345.5C 22.5014,349.152 22.3347,352.818 22.5,356.5C 17.8333,352.167 13.1667,347.833 8.5,343.5C 8.5,327.5 8.5,311.5 8.5,295.5 Z"/></g>
<g><path style="opacity:0.924" fill="#73a78c" d="M 199.5,319.5 C 207.167,319.5 214.833,319.5 222.5,319.5C 227.194,324.86 232.194,329.86 237.5,334.5C 229.5,334.5 221.5,334.5 213.5,334.5C 208.833,329.5 204.167,324.5 199.5,319.5 Z"/></g>
<g><path style="opacity:0.978" fill="#73a075" d="M 222.5,319.5 C 230.5,319.5 238.5,319.5 246.5,319.5C 251.5,325.167 256.833,330.5 262.5,335.5C 262.5,341.167 262.5,346.833 262.5,352.5C 257.833,348.167 253.167,343.833 248.5,339.5C 248.5,337.833 248.5,336.167 248.5,334.5C 244.833,334.5 241.167,334.5 237.5,334.5C 232.194,329.86 227.194,324.86 222.5,319.5 Z"/></g>
<g><path style="opacity:0.973" fill="#719556" d="M 248.5,292.5 C 253.167,296.833 257.833,301.167 262.5,305.5C 262.5,310.167 262.5,314.833 262.5,319.5C 267.5,319.5 272.5,319.5 277.5,319.5C 277.369,320.239 277.536,320.906 278,321.5C 284.756,328.761 291.922,335.428 299.5,341.5C 297.706,343.797 295.706,345.963 293.5,348C 284.667,349.833 281.167,346.333 283,337.5C 283.833,336.667 284.667,335.833 285.5,335C 277.655,334.178 269.989,334.344 262.5,335.5C 256.833,330.5 251.5,325.167 246.5,319.5C 248.471,310.895 249.138,301.895 248.5,292.5 Z"/></g>
<g><path style="opacity:0.959" fill="#74afa6" d="M 199.5,319.5 C 204.167,324.5 208.833,329.5 213.5,334.5C 205.826,334.666 198.159,334.5 190.5,334C 184.938,328.837 185.271,324.171 191.5,320C 194.146,319.503 196.813,319.336 199.5,319.5 Z"/></g>
<g><path style="opacity:0.988" fill="#779342" d="M 299.5,341.5 C 291.922,335.428 284.756,328.761 278,321.5C 277.536,320.906 277.369,320.239 277.5,319.5C 279.924,319.808 282.257,319.474 284.5,318.5C 279.904,308.925 282.904,304.758 293.5,306C 299,311.5 304.5,317 310,322.5C 312,325.5 312,328.5 310,331.5C 306.631,335.037 303.131,338.371 299.5,341.5 Z"/></g>
<g><path style="opacity:0.945" fill="#76bdd3" d="M 150.5,307.5 C 155.776,311.437 160.776,315.771 165.5,320.5C 165.5,329.833 165.5,339.167 165.5,348.5C 159.091,343.597 153.091,338.097 147.5,332C 146.552,331.517 145.552,331.351 144.5,331.5C 146.463,330.04 148.296,328.373 150,326.5C 150.5,320.175 150.666,313.842 150.5,307.5 Z"/></g>
<g><path style="opacity:0.995" fill="#74c0e6" d="M 144.5,331.5 C 145.552,331.351 146.552,331.517 147.5,332C 153.091,338.097 159.091,343.597 165.5,348.5C 165.5,356.5 165.5,364.5 165.5,372.5C 160.224,368.563 155.224,364.229 150.5,359.5C 150.666,354.821 150.499,350.155 150,345.5C 144.409,348.197 138.576,350.197 132.5,351.5C 129.167,347.167 125.833,342.833 122.5,338.5C 130.101,336.966 137.434,334.633 144.5,331.5 Z"/></g>
<g><path style="opacity:1" fill="#ffb22f" d="M 488.5,297.5 C 493.167,301.833 497.833,306.167 502.5,310.5C 502.5,328.167 502.5,345.833 502.5,363.5C 497.833,359.167 493.167,354.833 488.5,350.5C 488.5,332.833 488.5,315.167 488.5,297.5 Z"/></g>
<g><path style="opacity:0.964" fill="#65abd8" d="M 122.5,338.5 C 125.833,342.833 129.167,347.167 132.5,351.5C 123.26,353.725 113.927,355.391 104.5,356.5C 100.389,350.051 95.0557,345.051 88.5,341.5C 99.9485,341.672 111.282,340.672 122.5,338.5 Z"/></g>
<g><path style="opacity:0.945" fill="#5898cb" d="M 64.5,340.5 C 72.4659,341.365 80.4659,341.698 88.5,341.5C 95.0557,345.051 100.389,350.051 104.5,356.5C 95.8333,356.5 87.1667,356.5 78.5,356.5C 74.2285,350.89 69.5618,345.557 64.5,340.5 Z"/></g>
<g><path style="opacity:0.982" fill="#3161a5" d="M 8.5,343.5 C 13.1667,347.833 17.8333,352.167 22.5,356.5C 22.334,361.844 22.5006,367.177 23,372.5C 31.5456,379.519 41.379,383.519 52.5,384.5C 52.3893,385.117 52.056,385.617 51.5,386C 56.7031,391.035 61.7031,396.202 66.5,401.5C 54.1187,400.957 42.1187,398.624 30.5,394.5C 23.5,386.833 16.1667,379.5 8.5,372.5C 8.5,362.833 8.5,353.167 8.5,343.5 Z"/></g>
<g><path style="opacity:0.949" fill="#3d71b1" d="M 35.5,358.5 C 42.8819,359.678 50.2152,361.178 57.5,363C 60.3939,365.909 61.2272,369.409 60,373.5C 58.3805,375.726 56.2138,377.06 53.5,377.5C 47.0882,376.318 40.7548,374.818 34.5,373C 29.0028,367.683 29.3361,362.85 35.5,358.5 Z"/></g>
<g><path style="opacity:0.995" fill="#75b8c3" d="M 220.5,364.5 C 225.229,369.224 229.563,374.224 233.5,379.5C 226.167,379.5 218.833,379.5 211.5,379.5C 206.548,375.215 201.881,370.548 197.5,365.5C 196.06,364.048 194.394,363.048 192.5,362.5C 196.363,356.959 201.363,352.959 207.5,350.5C 212.278,350.779 214.945,353.279 215.5,358C 214.944,360.237 213.944,362.237 212.5,364C 215.146,364.497 217.813,364.664 220.5,364.5 Z"/></g>
<g><path style="opacity:0.986" fill="#73a78d" d="M 248.5,339.5 C 253.167,343.833 257.833,348.167 262.5,352.5C 262.5,356.5 262.5,360.5 262.5,364.5C 266.167,364.5 269.833,364.5 273.5,364.5C 278.806,369.14 283.806,374.14 288.5,379.5C 279.833,379.5 271.167,379.5 262.5,379.5C 262.5,380.5 262.5,381.5 262.5,382.5C 256.167,376.833 250.167,370.833 244.5,364.5C 245.833,364.5 247.167,364.5 248.5,364.5C 248.5,356.167 248.5,347.833 248.5,339.5 Z"/></g>
<g><path style="opacity:0.974" fill="#74afa6" d="M 220.5,364.5 C 228.5,364.5 236.5,364.5 244.5,364.5C 250.167,370.833 256.167,376.833 262.5,382.5C 262.5,385.167 262.5,387.833 262.5,390.5C 264.833,390.5 267.167,390.5 269.5,390.5C 274.806,395.14 279.806,400.14 284.5,405.5C 278.833,405.5 273.167,405.5 267.5,405.5C 261.5,398.833 255.167,392.5 248.5,386.5C 248.5,384.167 248.5,381.833 248.5,379.5C 243.5,379.5 238.5,379.5 233.5,379.5C 229.563,374.224 225.229,369.224 220.5,364.5 Z"/></g>
<g><path style="opacity:0.991" fill="#76bfd9" d="M 192.5,362.5 C 194.394,363.048 196.06,364.048 197.5,365.5C 201.881,370.548 206.548,375.215 211.5,379.5C 217.08,385.947 215.913,390.947 208,394.5C 199.474,389.315 192.14,382.648 186,374.5C 185.317,369.003 187.484,365.003 192.5,362.5 Z"/></g>
<g><path style="opacity:0.97" fill="#729c6a" d="M 273.5,364.5 C 284.936,364.044 296.269,364.544 307.5,366C 311.769,370.709 311.436,375.042 306.5,379C 300.509,379.499 294.509,379.666 288.5,379.5C 283.806,374.14 278.806,369.14 273.5,364.5 Z"/></g>
<g><path style="opacity:0.946" fill="#61a5d4" d="M 150.5,359.5 C 155.224,364.229 160.224,368.563 165.5,372.5C 165.667,388.837 165.5,405.17 165,421.5C 163.875,426.763 161.042,430.763 156.5,433.5C 152.773,429.767 148.773,426.434 144.5,423.5C 146.463,422.04 148.296,420.373 150,418.5C 150.667,409.5 150.667,400.5 150,391.5C 144.409,394.197 138.576,396.197 132.5,397.5C 128.435,393.441 124.768,389.107 121.5,384.5C 131.276,383.132 140.276,379.798 148.5,374.5C 149.192,373.975 149.692,373.308 150,372.5C 150.499,368.179 150.666,363.846 150.5,359.5 Z"/></g>
<g><path style="opacity:0.958" fill="#3c71b0" d="M 52.5,384.5 C 60.3664,386.226 68.3664,387.226 76.5,387.5C 80.4671,393.134 85.1338,398.134 90.5,402.5C 82.4144,402.801 74.4144,402.467 66.5,401.5C 61.7031,396.202 56.7031,391.035 51.5,386C 52.056,385.617 52.3893,385.117 52.5,384.5 Z"/></g>
<g><path style="opacity:0.956" fill="#5290c6" d="M 121.5,384.5 C 124.768,389.107 128.435,393.441 132.5,397.5C 126.659,399.267 120.659,400.267 114.5,400.5C 109.833,396.5 105.5,392.167 101.5,387.5C 108.218,386.791 114.885,385.791 121.5,384.5 Z"/></g>
<g><path style="opacity:0.957" fill="#ffc848" d="M 488.5,350.5 C 493.167,354.833 497.833,359.167 502.5,363.5C 502.5,380.833 502.5,398.167 502.5,415.5C 493.833,407.5 485.5,399.167 477.5,390.5C 481.167,390.5 484.833,390.5 488.5,390.5C 488.5,377.167 488.5,363.833 488.5,350.5 Z"/></g>
<g><path style="opacity:0.97" fill="#4881bc" d="M 76.5,387.5 C 84.8333,387.5 93.1667,387.5 101.5,387.5C 105.5,392.167 109.833,396.5 114.5,400.5C 106.723,402.088 98.723,402.754 90.5,402.5C 85.1338,398.134 80.4671,393.134 76.5,387.5 Z"/></g>
<g><path style="opacity:0.94" fill="#73a78c" d="M 269.5,390.5 C 277.167,390.5 284.833,390.5 292.5,390.5C 297.806,395.14 302.806,400.14 307.5,405.5C 299.833,405.5 292.167,405.5 284.5,405.5C 279.806,400.14 274.806,395.14 269.5,390.5 Z"/></g>
<g><path style="opacity:0.957" fill="#739f73" d="M 292.5,390.5 C 300.5,390.5 308.5,390.5 316.5,390.5C 321.806,395.14 326.806,400.14 331.5,405.5C 323.5,405.5 315.5,405.5 307.5,405.5C 302.806,400.14 297.806,395.14 292.5,390.5 Z"/></g>
<g><path style="opacity:0.94" fill="#729044" d="M 339.5,390.5 C 346.5,390.5 353.5,390.5 360.5,390.5C 365.806,395.14 370.806,400.14 375.5,405.5C 368.5,405.5 361.5,405.5 354.5,405.5C 349.806,400.14 344.806,395.14 339.5,390.5 Z"/></g>
<g><path style="opacity:0.964" fill="#beb44c" d="M 403.5,390.5 C 409.5,390.5 415.5,390.5 421.5,390.5C 427.412,394.741 432.746,399.741 437.5,405.5C 431.167,405.5 424.833,405.5 418.5,405.5C 413.806,400.14 408.806,395.14 403.5,390.5 Z"/></g>
<g><path style="opacity:0.888" fill="#d9c150" d="M 421.5,390.5 C 430.5,390.5 439.5,390.5 448.5,390.5C 453.229,395.224 457.563,400.224 461.5,405.5C 453.5,405.5 445.5,405.5 437.5,405.5C 432.746,399.741 427.412,394.741 421.5,390.5 Z"/></g>
<g><path style="opacity:0.959" fill="#f8cf54" d="M 448.5,390.5 C 458.167,390.5 467.833,390.5 477.5,390.5C 485.5,399.167 493.833,407.5 502.5,415.5C 502.786,425.598 498.453,432.932 489.5,437.5C 489.414,436.504 489.748,435.671 490.5,435C 486.893,431.902 483.893,428.402 481.5,424.5C 483.787,423.381 485.621,421.715 487,419.5C 488.225,414.915 488.725,410.248 488.5,405.5C 479.5,405.5 470.5,405.5 461.5,405.5C 457.563,400.224 453.229,395.224 448.5,390.5 Z"/></g>
<g><path style="opacity:0.986" fill="#72975a" d="M 316.5,390.5 C 324.167,390.5 331.833,390.5 339.5,390.5C 344.806,395.14 349.806,400.14 354.5,405.5C 346.833,405.5 339.167,405.5 331.5,405.5C 326.806,400.14 321.806,395.14 316.5,390.5 Z"/></g>
<g><path style="opacity:0.99" fill="#869943" d="M 360.5,390.5 C 366.833,390.5 373.167,390.5 379.5,390.5C 384.806,395.14 389.806,400.14 394.5,405.5C 388.167,405.5 381.833,405.5 375.5,405.5C 370.806,400.14 365.806,395.14 360.5,390.5 Z"/></g>
<g><path style="opacity:0.986" fill="#a1a647" d="M 379.5,390.5 C 387.5,390.5 395.5,390.5 403.5,390.5C 408.806,395.14 413.806,400.14 418.5,405.5C 410.5,405.5 402.5,405.5 394.5,405.5C 389.806,400.14 384.806,395.14 379.5,390.5 Z"/></g>
<g><path style="opacity:0.973" fill="#204894" d="M 8.5,372.5 C 16.1667,379.5 23.5,386.833 30.5,394.5C 28.0721,393.788 25.7388,392.788 23.5,391.5C 22.3347,400.482 22.168,409.482 23,418.5C 26.2356,421.871 30.0689,424.371 34.5,426C 41.3939,428.307 48.3939,430.14 55.5,431.5C 60.9946,438.34 67.3279,444.007 74.5,448.5C 54.8022,448.128 36.1355,443.628 18.5,435C 14.2811,432.448 11.1145,428.948 9,424.5C 8.50006,407.17 8.33339,389.837 8.5,372.5 Z"/></g>
<g><path style="opacity:1" fill="#75b5b9" d="M 248.5,386.5 C 255.167,392.5 261.5,398.833 267.5,405.5C 265.833,405.5 264.167,405.5 262.5,405.5C 262.5,408.833 262.5,412.167 262.5,415.5C 262.631,416.239 262.464,416.906 262,417.5C 257.631,412.963 253.131,408.63 248.5,404.5C 248.5,398.5 248.5,392.5 248.5,386.5 Z"/></g>
<g><path style="opacity:0.961" fill="#2a569e" d="M 35.5,404.5 C 42.8819,405.678 50.2152,407.178 57.5,409C 60.3939,411.909 61.2272,415.409 60,419.5C 58.2205,421.764 55.8872,423.097 53,423.5C 46.7712,422.254 40.6046,420.754 34.5,419C 29.0028,413.683 29.3361,408.85 35.5,404.5 Z"/></g>
<g><path style="opacity:0.994" fill="#739247" d="M 365.5,407.5 C 373.571,407.137 381.571,407.637 389.5,409C 393.749,413.801 393.416,418.134 388.5,422C 379.833,422.667 371.167,422.667 362.5,422C 357.584,418.134 357.251,413.801 361.5,409C 363.058,408.79 364.391,408.29 365.5,407.5 Z"/></g>
<g><path style="opacity:1" fill="#76baca" d="M 248.5,404.5 C 253.131,408.63 257.631,412.963 262,417.5C 262.464,416.906 262.631,416.239 262.5,415.5C 263.537,419.882 266.204,422.882 270.5,424.5C 274.233,429.74 278.566,434.574 283.5,439C 285.708,439.191 287.708,439.691 289.5,440.5C 283.491,440.666 277.491,440.499 271.5,440C 260.205,439.037 252.705,433.204 249,422.5C 248.501,416.509 248.334,410.509 248.5,404.5 Z"/></g>
<g><path style="opacity:0.995" fill="#75b4b5" d="M 270.5,424.5 C 276.441,425.413 282.441,425.746 288.5,425.5C 293.194,430.86 298.194,435.86 303.5,440.5C 298.833,440.5 294.167,440.5 289.5,440.5C 287.708,439.691 285.708,439.191 283.5,439C 278.566,434.574 274.233,429.74 270.5,424.5 Z"/></g>
<g><path style="opacity:0.995" fill="#74ac9e" d="M 288.5,425.5 C 296.167,425.5 303.833,425.5 311.5,425.5C 315.63,430.131 319.963,434.631 324.5,439C 327.365,439.183 330.031,439.683 332.5,440.5C 322.833,440.5 313.167,440.5 303.5,440.5C 298.194,435.86 293.194,430.86 288.5,425.5 Z"/></g>
<g><path style="opacity:0.976" fill="#73a587" d="M 311.5,425.5 C 319.5,425.5 327.5,425.5 335.5,425.5C 340.224,431.227 345.558,436.227 351.5,440.5C 351.393,446.248 350.726,451.915 349.5,457.5C 345.167,453.5 340.833,449.5 336.5,445.5C 336.5,443.833 336.5,442.167 336.5,440.5C 335.167,440.5 333.833,440.5 332.5,440.5C 330.031,439.683 327.365,439.183 324.5,439C 319.963,434.631 315.63,430.131 311.5,425.5 Z"/></g>
<g><path style="opacity:0.997" fill="#729d6c" d="M 335.5,425.5 C 343.167,425.5 350.833,425.5 358.5,425.5C 363.254,431.259 368.588,436.259 374.5,440.5C 366.833,440.5 359.167,440.5 351.5,440.5C 345.558,436.227 340.224,431.227 335.5,425.5 Z"/></g>
<g><path style="opacity:0.995" fill="#a5a848" d="M 420.5,425.5 C 426.833,425.5 433.167,425.5 439.5,425.5C 444.229,430.224 448.563,435.224 452.5,440.5C 448.5,440.5 444.5,440.5 440.5,440.5C 438.369,439.686 436.036,439.186 433.5,439C 428.963,434.631 424.63,430.131 420.5,425.5 Z"/></g>
<g><path style="opacity:0.993" fill="#c2b64d" d="M 439.5,425.5 C 447.5,425.5 455.5,425.5 463.5,425.5C 468.229,430.224 472.563,435.224 476.5,440.5C 468.5,440.5 460.5,440.5 452.5,440.5C 448.563,435.224 444.229,430.224 439.5,425.5 Z"/></g>
<g><path style="opacity:0.969" fill="#d8c150" d="M 481.5,424.5 C 483.893,428.402 486.893,431.902 490.5,435C 489.748,435.671 489.414,436.504 489.5,437.5C 485.319,439.032 480.986,440.032 476.5,440.5C 472.563,435.224 468.229,430.224 463.5,425.5C 469.545,425.697 475.545,425.363 481.5,424.5 Z"/></g>
<g><path style="opacity:1" fill="#8c9c44" d="M 402.5,425.5 C 408.5,425.5 414.5,425.5 420.5,425.5C 424.63,430.131 428.963,434.631 433.5,439C 436.036,439.186 438.369,439.686 440.5,440.5C 432.833,440.5 425.167,440.5 417.5,440.5C 412.194,435.86 407.194,430.86 402.5,425.5 Z"/></g>
<g><path style="opacity:0.966" fill="#4983bd" d="M 144.5,423.5 C 148.773,426.434 152.773,429.767 156.5,433.5C 150.174,437.839 143.174,440.839 135.5,442.5C 131.833,438.5 128.167,434.5 124.5,430.5C 131.221,428.592 137.887,426.258 144.5,423.5 Z"/></g>
<g><path style="opacity:0.972" fill="#3d71b1" d="M 124.5,430.5 C 128.167,434.5 131.833,438.5 135.5,442.5C 125.873,445.64 115.873,447.307 105.5,447.5C 101.036,443.537 96.7022,439.37 92.5,435C 93.056,434.617 93.3893,434.117 93.5,433.5C 103.902,433.159 114.235,432.159 124.5,430.5 Z"/></g>
<g><path style="opacity:0.967" fill="#2d5aa1" d="M 55.5,431.5 C 68.1019,433.151 80.7686,433.818 93.5,433.5C 93.3893,434.117 93.056,434.617 92.5,435C 96.7022,439.37 101.036,443.537 105.5,447.5C 95.3468,448.494 85.0135,448.828 74.5,448.5C 67.3279,444.007 60.9946,438.34 55.5,431.5 Z"/></g>
<g><path style="opacity:0.973" fill="#72934c" d="M 358.5,425.5 C 373.167,425.5 387.833,425.5 402.5,425.5C 407.194,430.86 412.194,435.86 417.5,440.5C 416.022,440.238 414.689,440.571 413.5,441.5C 414.871,450.317 416.871,458.984 419.5,467.5C 425.509,467.334 431.509,467.501 437.5,468C 448.158,472.947 451.658,481.113 448,492.5C 446.723,494.747 445.223,496.747 443.5,498.5C 438.833,495.833 435.167,492.167 432.5,487.5C 435.271,485.278 434.938,483.445 431.5,482C 427.514,481.501 423.514,481.334 419.5,481.5C 414.5,475.833 409.167,470.5 403.5,465.5C 400.942,457.376 399.275,449.042 398.5,440.5C 390.5,440.5 382.5,440.5 374.5,440.5C 368.588,436.259 363.254,431.259 358.5,425.5 Z"/></g>
<g><path style="opacity:0.995" fill="#74ac9d" d="M 336.5,445.5 C 340.833,449.5 345.167,453.5 349.5,457.5C 348.833,460.833 348.167,464.167 347.5,467.5C 351.5,467.5 355.5,467.5 359.5,467.5C 363.833,472.167 368.167,476.833 372.5,481.5C 362.833,481.5 353.167,481.5 343.5,481.5C 339.167,476.833 334.833,472.167 330.5,467.5C 333.415,460.517 335.415,453.184 336.5,445.5 Z"/></g>
<g><path style="opacity:1" fill="#73a37f" d="M 359.5,467.5 C 367.167,467.5 374.833,467.5 382.5,467.5C 386.833,472.167 391.167,476.833 395.5,481.5C 387.833,481.5 380.167,481.5 372.5,481.5C 368.167,476.833 363.833,472.167 359.5,467.5 Z"/></g>
<g><path style="opacity:1" fill="#729b68" d="M 403.5,465.5 C 409.167,470.5 414.5,475.833 419.5,481.5C 411.5,481.5 403.5,481.5 395.5,481.5C 391.167,476.833 386.833,472.167 382.5,467.5C 389.913,468.128 396.913,467.461 403.5,465.5 Z"/></g>
<g><path style="opacity:0.978" fill="#75b7bd" d="M 330.5,467.5 C 334.833,472.167 339.167,476.833 343.5,481.5C 335.5,481.5 327.5,481.5 319.5,481.5C 316.35,477.006 312.35,473.672 307.5,471.5C 309.09,469.766 311.09,468.6 313.5,468C 319.157,467.501 324.824,467.334 330.5,467.5 Z"/></g>
<g><path style="opacity:0.992" fill="#76bfd7" d="M 307.5,471.5 C 312.35,473.672 316.35,477.006 319.5,481.5C 316.747,482.593 316.08,484.426 317.5,487C 320.688,488.316 324.022,488.816 327.5,488.5C 331.833,493.167 336.167,497.833 340.5,502.5C 331.494,502.666 322.494,502.5 313.5,502C 302.842,497.053 299.342,488.887 303,477.5C 304.277,475.253 305.777,473.253 307.5,471.5 Z"/></g>
<g><path style="opacity:1" fill="#75b5b7" d="M 327.5,488.5 C 335.5,488.5 343.5,488.5 351.5,488.5C 355.833,493.167 360.167,497.833 364.5,502.5C 356.5,502.5 348.5,502.5 340.5,502.5C 336.167,497.833 331.833,493.167 327.5,488.5 Z"/></g>
<g><path style="opacity:1" fill="#74ad9e" d="M 351.5,488.5 C 359.167,488.5 366.833,488.5 374.5,488.5C 378.833,493.167 383.167,497.833 387.5,502.5C 379.833,502.5 372.167,502.5 364.5,502.5C 360.167,497.833 355.833,493.167 351.5,488.5 Z"/></g>
<g><path style="opacity:1" fill="#73a586" d="M 374.5,488.5 C 382.5,488.5 390.5,488.5 398.5,488.5C 402.833,493.167 407.167,497.833 411.5,502.5C 403.5,502.5 395.5,502.5 387.5,502.5C 383.167,497.833 378.833,493.167 374.5,488.5 Z"/></g>
<g><path style="opacity:0.997" fill="#729c69" d="M 432.5,487.5 C 435.167,492.167 438.833,495.833 443.5,498.5C 441.91,500.234 439.91,501.4 437.5,502C 428.84,502.5 420.173,502.666 411.5,502.5C 407.167,497.833 402.833,493.167 398.5,488.5C 409.914,488.811 421.248,488.477 432.5,487.5 Z"/></g>
</svg>
