<?xml version="1.0" encoding="UTF-8"?>
<!DOCTYPE svg PUBLIC "-//W3C//DTD SVG 1.1//EN" "http://www.w3.org/Graphics/SVG/1.1/DTD/svg11.dtd">
<svg xmlns="http://www.w3.org/2000/svg" version="1.1" width="512px" height="512px" style="shape-rendering:geometricPrecision; text-rendering:geometricPrecision; image-rendering:optimizeQuality; fill-rule:evenodd; clip-rule:evenodd" xmlns:xlink="http://www.w3.org/1999/xlink">
<g><path style="opacity:0.963" fill="#3667aa" d="M 170.5,-0.5 C 187.5,-0.5 204.5,-0.5 221.5,-0.5C 221.5,-0.166667 221.5,0.166667 221.5,0.5C 217.814,5.18571 213.48,9.18571 208.5,12.5C 191.129,11.7237 173.796,12.057 156.5,13.5C 160.812,8.52102 165.479,3.85435 170.5,-0.5 Z"/></g>
<g><path style="opacity:0.948" fill="#26519a" d="M 158.5,-0.5 C 162.5,-0.5 166.5,-0.5 170.5,-0.5C 165.479,3.85435 160.812,8.52102 156.5,13.5C 134.555,14.5398 112.888,17.5398 91.5,22.5C 96.479,16.8543 101.812,11.521 107.5,6.5C 124.378,3.2175 141.378,0.884168 158.5,-0.5 Z"/></g>
<g><path style="opacity:0.957" fill="#457cb8" d="M 221.5,0.5 C 245.837,1.50059 269.837,4.83392 293.5,10.5C 289.5,14.1667 285.5,17.8333 281.5,21.5C 257.502,16.1253 233.169,13.1253 208.5,12.5C 213.48,9.18571 217.814,5.18571 221.5,0.5 Z"/></g>
<g><path style="opacity:0.959" fill="#204894" d="M 107.5,6.5 C 101.812,11.521 96.479,16.8543 91.5,22.5C 73.6492,26.5043 56.9825,33.3376 41.5,43C 27.8592,53.1235 27.5259,63.4569 40.5,74C 44.3447,76.363 48.0113,78.863 51.5,81.5C 48.3351,84.9101 44.6684,87.5768 40.5,89.5C 36.9683,88.1461 33.8016,86.1461 31,83.5C 30.501,87.8206 30.3343,92.1539 30.5,96.5C 29.7784,96.0825 29.2784,95.4158 29,94.5C 25.965,97.8702 22.6317,100.87 19,103.5C 18.7216,102.584 18.2216,101.918 17.5,101.5C 17.3334,86.8295 17.5001,72.1629 18,57.5C 19.4418,47.3773 24.2751,39.2106 32.5,33C 55.4904,18.7239 80.4904,9.89056 107.5,6.5 Z"/></g>
<g><path style="opacity:0.968" fill="#5493c7" d="M 293.5,10.5 C 307.91,13.745 321.577,18.745 334.5,25.5C 330.746,27.7476 327.412,30.581 324.5,34C 325.056,34.3826 325.389,34.8826 325.5,35.5C 311.429,29.0324 296.763,24.3657 281.5,21.5C 285.5,17.8333 289.5,14.1667 293.5,10.5 Z"/></g>
<g><path style="opacity:0.964" fill="#66add9" d="M 334.5,25.5 C 347.202,30.7017 356.035,39.7017 361,52.5C 361.498,55.4816 361.665,58.4816 361.5,61.5C 347.059,73.4334 332.725,85.6001 318.5,98C 317.748,98.6708 317.414,99.5041 317.5,100.5C 303.749,105.104 289.749,108.771 275.5,111.5C 274.209,110.527 274.209,109.527 275.5,108.5C 279.334,105.827 283,102.994 286.5,100C 287.833,98.6667 289.167,97.3333 290.5,96C 289.906,95.5357 289.239,95.369 288.5,95.5C 307.096,91.0382 324.429,83.5382 340.5,73C 351.157,63.6238 351.157,54.2904 340.5,45C 335.773,41.3089 330.773,38.1422 325.5,35.5C 325.389,34.8826 325.056,34.3826 324.5,34C 327.412,30.581 330.746,27.7476 334.5,25.5 Z"/></g>
<g><path style="opacity:0.977" fill="#6fb9e2" d="M 361.5,61.5 C 361.5,79.1667 361.5,96.8333 361.5,114.5C 356.114,117.886 351.781,122.219 348.5,127.5C 348.667,112.83 348.5,98.1629 348,83.5C 338.662,90.5874 328.495,96.2541 317.5,100.5C 317.414,99.5041 317.748,98.6708 318.5,98C 332.725,85.6001 347.059,73.4334 361.5,61.5 Z"/></g>
<g><path style="opacity:0.945" fill="#3261a6" d="M 51.5,81.5 C 67.3076,88.4359 83.641,93.7692 100.5,97.5C 96.6479,100.745 93.3146,104.411 90.5,108.5C 72.6657,104.894 55.999,98.5605 40.5,89.5C 44.6684,87.5768 48.3351,84.9101 51.5,81.5 Z"/></g>
<g><path style="opacity:0.948" fill="#5c9ecf" d="M 288.5,95.5 C 289.239,95.369 289.906,95.5357 290.5,96C 289.167,97.3333 287.833,98.6667 286.5,100C 283,102.994 279.334,105.827 275.5,108.5C 274.209,109.527 274.209,110.527 275.5,111.5C 254.625,114.931 233.625,117.264 212.5,118.5C 218.167,113.833 223.833,109.167 229.5,104.5C 249.302,102.478 268.969,99.4776 288.5,95.5 Z"/></g>
<g><path style="opacity:0.958" fill="#4279b6" d="M 100.5,97.5 C 120.324,101.311 140.324,103.645 160.5,104.5C 155.983,108.41 151.983,112.743 148.5,117.5C 129.024,115.622 109.691,112.622 90.5,108.5C 93.3146,104.411 96.6479,100.745 100.5,97.5 Z"/></g>
<g><path style="opacity:0.939" fill="#4e8ac2" d="M 160.5,104.5 C 183.466,105.699 206.466,105.699 229.5,104.5C 223.833,109.167 218.167,113.833 212.5,118.5C 191.157,118.629 169.824,118.296 148.5,117.5C 151.983,112.743 155.983,108.41 160.5,104.5 Z"/></g>
<g><path style="opacity:0.993" fill="#2d5aa0" d="M 30.5,96.5 C 30.5,110.5 30.5,124.5 30.5,138.5C 29.71,139.609 29.21,140.942 29,142.5C 25.2724,145.738 21.4391,148.738 17.5,151.5C 17.5,134.833 17.5,118.167 17.5,101.5C 18.2216,101.918 18.7216,102.584 19,103.5C 22.6317,100.87 25.965,97.8702 29,94.5C 29.2784,95.4158 29.7784,96.0825 30.5,96.5 Z"/></g>
<g><path style="opacity:0.96" fill="#70bbe3" d="M 257.5,161.5 C 257.082,160.778 256.416,160.278 255.5,160C 260.167,156 264.833,152 269.5,148C 268.552,147.517 267.552,147.351 266.5,147.5C 282.722,144.442 298.722,140.109 314.5,134.5C 320.631,136.094 322.464,139.761 320,145.5C 312.591,149.317 304.758,152.151 296.5,154C 283.626,157.208 270.626,159.708 257.5,161.5 Z"/></g>
<g><path style="opacity:0.968" fill="#64aad7" d="M 266.5,147.5 C 267.552,147.351 268.552,147.517 269.5,148C 264.833,152 260.167,156 255.5,160C 256.416,160.278 257.082,160.778 257.5,161.5C 231.458,165.137 205.458,166.471 179.5,165.5C 181.857,165.663 184.19,165.497 186.5,165C 190.507,160.141 195.173,156.307 200.5,153.5C 222.596,152.603 244.596,150.603 266.5,147.5 Z"/></g>
<g><path style="opacity:0.976" fill="#5695c9" d="M 200.5,153.5 C 195.173,156.307 190.507,160.141 186.5,165C 184.19,165.497 181.857,165.663 179.5,165.5C 161.078,165.737 142.745,164.57 124.5,162C 119.602,158.478 119.269,154.478 123.5,150C 149.111,151.883 174.778,153.05 200.5,153.5 Z"/></g>
<g><path style="opacity:0.964" fill="#3f74b2" d="M 64.5,131.5 C 82.1323,131.303 89.6323,139.97 87,157.5C 80.7207,169.735 71.2207,172.901 58.5,167C 51.2476,161.244 48.7476,153.744 51,144.5C 53.4424,137.888 57.9424,133.555 64.5,131.5 Z M 67.5,144.5 C 73.9822,145.144 76.1489,148.477 74,154.5C 66.3301,158.333 62.9968,155.999 64,147.5C 65.1451,146.364 66.3117,145.364 67.5,144.5 Z"/></g>
<g><path style="opacity:0.971" fill="#87c6d8" d="M 361.5,114.5 C 361.5,131.167 361.5,147.833 361.5,164.5C 346.743,176.418 332.409,188.918 318.5,202C 318.728,202.399 319.062,202.565 319.5,202.5C 301.252,209.812 282.252,214.478 262.5,216.5C 268.797,211.538 274.797,206.205 280.5,200.5C 301.279,196.606 320.612,189.106 338.5,178C 342.422,174.749 345.588,170.916 348,166.5C 348.5,153.504 348.667,140.504 348.5,127.5C 351.781,122.219 356.114,117.886 361.5,114.5 Z"/></g>
<g><path style="opacity:0.93" fill="#92c8cd" d="M 361.5,164.5 C 361.5,172.167 361.5,179.833 361.5,187.5C 357.561,190.262 353.728,193.262 350,196.5C 349.809,198.708 349.309,200.708 348.5,202.5C 348.666,197.489 348.499,192.489 348,187.5C 339.273,193.947 329.773,198.947 319.5,202.5C 319.062,202.565 318.728,202.399 318.5,202C 332.409,188.918 346.743,176.418 361.5,164.5 Z"/></g>
<g><path style="opacity:0.923" fill="#3e73b2" d="M 30.5,138.5 C 30.1091,148.233 30.6091,157.9 32,167.5C 37.4773,175.474 44.644,181.474 53.5,185.5C 49.8604,188.473 46.5271,191.806 43.5,195.5C 38.9329,193.106 34.7663,190.106 31,186.5C 30.5004,193.492 30.3337,200.492 30.5,207.5C 26.243,210.251 22.4097,213.584 19,217.5C 18.8171,220.365 18.3171,223.031 17.5,225.5C 17.5,200.833 17.5,176.167 17.5,151.5C 21.4391,148.738 25.2724,145.738 29,142.5C 29.21,140.942 29.71,139.609 30.5,138.5 Z"/></g>
<g><path style="opacity:0.944" fill="#9dc9c0" d="M 361.5,187.5 C 361.5,196.5 361.5,205.5 361.5,214.5C 357.746,216.748 354.412,219.581 351.5,223C 350.212,223.239 349.212,222.739 348.5,221.5C 348.5,215.167 348.5,208.833 348.5,202.5C 349.309,200.708 349.809,198.708 350,196.5C 353.728,193.262 357.561,190.262 361.5,187.5 Z"/></g>
<g><path style="opacity:0.956" fill="#508cc3" d="M 53.5,185.5 C 72.6254,193.544 92.292,199.544 112.5,203.5C 107.052,205.269 102.719,208.603 99.5,213.5C 79.841,210.502 61.1744,204.502 43.5,195.5C 46.5271,191.806 49.8604,188.473 53.5,185.5 Z"/></g>
<g><path style="opacity:0.967" fill="#78c4e7" d="M 280.5,200.5 C 274.797,206.205 268.797,211.538 262.5,216.5C 249.665,218.753 236.665,220.419 223.5,221.5C 227.59,216.58 232.257,212.08 237.5,208C 237.272,207.601 236.938,207.435 236.5,207.5C 251.105,205.622 265.772,203.289 280.5,200.5 Z"/></g>
<g><path style="opacity:0.943" fill="#61a5d4" d="M 112.5,203.5 C 133.429,206.327 154.429,208.327 175.5,209.5C 175.611,210.117 175.944,210.617 176.5,211C 172.376,214.055 168.709,217.555 165.5,221.5C 143.125,220.786 121.125,218.119 99.5,213.5C 102.719,208.603 107.052,205.269 112.5,203.5 Z"/></g>
<g><path style="opacity:0.978" fill="#6cb6df" d="M 236.5,207.5 C 236.938,207.435 237.272,207.601 237.5,208C 232.257,212.08 227.59,216.58 223.5,221.5C 204.161,222.594 184.828,222.594 165.5,221.5C 168.709,217.555 172.376,214.055 176.5,211C 175.944,210.617 175.611,210.117 175.5,209.5C 195.858,209.521 216.192,208.854 236.5,207.5 Z"/></g>
<g><path style="opacity:0.964" fill="#96c8c8" d="M 264.5,259.5 C 264.082,258.778 263.416,258.278 262.5,258C 267.434,253.714 272.1,249.214 276.5,244.5C 289.585,241.687 302.418,238.021 315,233.5C 320.764,235.359 322.431,239.025 320,244.5C 313.931,247.97 307.431,250.47 300.5,252C 288.662,255.334 276.662,257.834 264.5,259.5 Z"/></g>
<g><path style="opacity:0.973" fill="#599acc" d="M 64.5,230.5 C 84.8864,231.072 91.7198,241.072 85,260.5C 77.6914,268.876 68.8581,270.71 58.5,266C 51.2476,260.244 48.7476,252.744 51,243.5C 53.4424,236.888 57.9424,232.555 64.5,230.5 Z M 66.5,243.5 C 73.9973,243.802 76.3307,247.302 73.5,254C 65.923,257.09 62.7564,254.59 64,246.5C 65.045,245.627 65.8783,244.627 66.5,243.5 Z"/></g>
<g><path style="opacity:0.944" fill="#4c87bf" d="M 30.5,207.5 C 30.1813,224.91 30.5146,242.244 31.5,259.5C 30.0689,259.119 29.2355,258.119 29,256.5C 22.1679,261.743 18.3346,268.41 17.5,276.5C 17.5,259.5 17.5,242.5 17.5,225.5C 18.3171,223.031 18.8171,220.365 19,217.5C 22.4097,213.584 26.243,210.251 30.5,207.5 Z"/></g>
<g><path style="opacity:0.966" fill="#adcbaf" d="M 361.5,214.5 C 361.5,229.5 361.5,244.5 361.5,259.5C 360.883,259.389 360.383,259.056 360,258.5C 354.305,263.366 348.805,268.366 343.5,273.5C 330.826,272.835 318.493,274.501 306.5,278.5C 312.833,272.5 319.167,266.5 325.5,260.5C 333.126,260.636 340.626,260.636 348,260.5C 348.5,247.504 348.667,234.504 348.5,221.5C 349.212,222.739 350.212,223.239 351.5,223C 354.412,219.581 357.746,216.748 361.5,214.5 Z"/></g>
<g><path style="opacity:0.955" fill="#8bc7d4" d="M 276.5,244.5 C 272.1,249.214 267.434,253.714 262.5,258C 263.416,258.278 264.082,258.778 264.5,259.5C 252.293,261.856 239.96,263.19 227.5,263.5C 226.761,263.631 226.094,263.464 225.5,263C 230.023,259.233 234.357,255.233 238.5,251C 238.272,250.601 237.938,250.435 237.5,250.5C 250.397,248.704 263.397,246.704 276.5,244.5 Z"/></g>
<g><path style="opacity:0.978" fill="#70bbe3" d="M 203.5,252.5 C 198.833,256.833 194.167,261.167 189.5,265.5C 167.742,265.328 146.075,263.828 124.5,261C 119.602,257.478 119.269,253.478 123.5,249C 150.109,250.964 176.776,252.13 203.5,252.5 Z"/></g>
<g><path style="opacity:0.915" fill="#7fc5e1" d="M 237.5,250.5 C 237.938,250.435 238.272,250.601 238.5,251C 234.357,255.233 230.023,259.233 225.5,263C 226.094,263.464 226.761,263.631 227.5,263.5C 215.028,264.952 202.362,265.619 189.5,265.5C 194.167,261.167 198.833,256.833 203.5,252.5C 214.757,251.487 226.09,250.82 237.5,250.5 Z"/></g>
<g><path style="opacity:0.958" fill="#a5cab8" d="M 325.5,260.5 C 319.167,266.5 312.833,272.5 306.5,278.5C 287.034,286.636 272.367,299.969 262.5,318.5C 262.103,317.475 261.437,317.308 260.5,318C 255.29,322.754 249.957,327.254 244.5,331.5C 245.366,325.903 247.033,320.57 249.5,315.5C 250.653,314.687 250.653,313.687 249.5,312.5C 266.792,296.413 284.459,281.079 302.5,266.5C 309.788,263.427 317.454,261.427 325.5,260.5 Z"/></g>
<g><path style="opacity:0.941" fill="#bacca1" d="M 361.5,259.5 C 361.215,261.288 361.548,262.955 362.5,264.5C 367.278,266.312 371.945,268.312 376.5,270.5C 373.585,273.959 370.252,276.959 366.5,279.5C 358.846,277.053 351.179,275.053 343.5,273.5C 348.805,268.366 354.305,263.366 360,258.5C 360.383,259.056 360.883,259.389 361.5,259.5 Z"/></g>
<g><path style="opacity:0.934" fill="#9ec9bf" d="M 302.5,266.5 C 284.459,281.079 266.792,296.413 249.5,312.5C 250.653,313.687 250.653,314.687 249.5,315.5C 248.551,314.848 247.385,314.514 246,314.5C 235.543,315.852 225.043,316.518 214.5,316.5C 218.64,311.939 222.973,307.605 227.5,303.5C 237.528,302.663 247.528,301.497 257.5,300C 264.844,290.99 273.177,282.99 282.5,276C 288.805,272.014 295.472,268.847 302.5,266.5 Z"/></g>
<g><path style="opacity:0.976" fill="#599acd" d="M 31.5,259.5 C 32.7552,264.497 35.4219,268.663 39.5,272C 45.5645,276.362 51.8978,280.195 58.5,283.5C 54.5428,286.122 50.8761,289.122 47.5,292.5C 41.4735,290.069 35.9735,286.735 31,282.5C 30.5003,290.827 30.3336,299.16 30.5,307.5C 26.8341,310.997 23.0008,314.331 19,317.5C 18.8195,320.695 18.3195,323.695 17.5,326.5C 17.5,309.833 17.5,293.167 17.5,276.5C 18.3346,268.41 22.1679,261.743 29,256.5C 29.2355,258.119 30.0689,259.119 31.5,259.5 Z"/></g>
<g><path style="opacity:0.943" fill="#c9cd90" d="M 376.5,270.5 C 389.994,277.002 400.994,286.336 409.5,298.5C 406.306,301.272 403.306,304.272 400.5,307.5C 391.279,295.613 379.945,286.279 366.5,279.5C 370.252,276.959 373.585,273.959 376.5,270.5 Z"/></g>
<g><path style="opacity:0.97" fill="#b2cbaa" d="M 346.5,285.5 C 345.078,285.709 343.745,286.209 342.5,287C 338.886,290.442 335.552,293.942 332.5,297.5C 303.727,300.278 285.727,315.611 278.5,343.5C 274.834,346.997 271.001,350.331 267,353.5C 266.617,352.944 266.117,352.611 265.5,352.5C 267.718,318.455 285.052,296.288 317.5,286C 327.289,284.297 336.956,284.13 346.5,285.5 Z"/></g>
<g><path style="opacity:0.956" fill="#c2cd98" d="M 346.5,285.5 C 358.549,287.284 369.215,291.95 378.5,299.5C 374.878,301.787 371.545,304.453 368.5,307.5C 357.609,300.316 345.609,296.983 332.5,297.5C 335.552,293.942 338.886,290.442 342.5,287C 343.745,286.209 345.078,285.709 346.5,285.5 Z"/></g>
<g><path style="opacity:0.967" fill="#68afdb" d="M 58.5,283.5 C 73.0887,289.231 88.0887,293.564 103.5,296.5C 103.631,297.239 103.464,297.906 103,298.5C 99.3332,301.336 95.8332,304.336 92.5,307.5C 76.6755,304.67 61.6755,299.67 47.5,292.5C 50.8761,289.122 54.5428,286.122 58.5,283.5 Z"/></g>
<g><path style="opacity:0.951" fill="#72bee5" d="M 103.5,296.5 C 117.997,299.646 132.663,301.646 147.5,302.5C 142.562,306.099 137.895,310.099 133.5,314.5C 119.507,313.335 105.84,311.002 92.5,307.5C 95.8332,304.336 99.3332,301.336 103,298.5C 103.464,297.906 103.631,297.239 103.5,296.5 Z"/></g>
<g><path style="opacity:0.949" fill="#82c6de" d="M 147.5,302.5 C 159.769,303.865 172.102,304.532 184.5,304.5C 185.263,305.268 186.263,305.768 187.5,306C 183.605,310.065 179.605,313.898 175.5,317.5C 161.476,316.795 147.476,315.795 133.5,314.5C 137.895,310.099 142.562,306.099 147.5,302.5 Z"/></g>
<g><path style="opacity:0.941" fill="#8fc7d0" d="M 227.5,303.5 C 222.973,307.605 218.64,311.939 214.5,316.5C 201.579,317.48 188.579,317.814 175.5,317.5C 179.605,313.898 183.605,310.065 187.5,306C 186.263,305.768 185.263,305.268 184.5,304.5C 198.847,304.604 213.18,304.27 227.5,303.5 Z"/></g>
<g><path style="opacity:0.952" fill="#dcd07c" d="M 409.5,298.5 C 414.491,304.468 418.491,311.134 421.5,318.5C 417.543,321.122 413.876,324.122 410.5,327.5C 408.219,320.271 404.885,313.604 400.5,307.5C 403.306,304.272 406.306,301.272 409.5,298.5 Z"/></g>
<g><path style="opacity:0.945" fill="#d5cf85" d="M 378.5,299.5 C 386.361,305.356 392.361,312.69 396.5,321.5C 393.562,323.934 390.729,326.601 388,329.5C 387.329,328.748 386.496,328.414 385.5,328.5C 384.265,325.699 382.765,323.032 381,320.5C 377.303,315.638 373.136,311.304 368.5,307.5C 371.545,304.453 374.878,301.787 378.5,299.5 Z"/></g>
<g><path style="opacity:0.945" fill="#e8d16e" d="M 421.5,318.5 C 424.437,326.247 426.437,334.247 427.5,342.5C 422.992,345.253 418.659,348.253 414.5,351.5C 414.836,343.187 413.503,335.187 410.5,327.5C 413.876,324.122 417.543,321.122 421.5,318.5 Z"/></g>
<g><path style="opacity:0.97" fill="#c8ce92" d="M 328.5,319.5 C 335.327,318.825 338.16,321.825 337,328.5C 331.413,338.006 326.08,347.673 321,357.5C 317.333,361.5 313.667,361.5 310,357.5C 308.699,355.635 308.365,353.635 309,351.5C 314.787,340.234 321.287,329.567 328.5,319.5 Z"/></g>
<g><path style="opacity:0.939" fill="#e2d075" d="M 396.5,321.5 C 400.837,329.17 403.17,337.503 403.5,346.5C 400.172,350.825 396.172,354.492 391.5,357.5C 392.052,347.259 390.052,337.592 385.5,328.5C 386.496,328.414 387.329,328.748 388,329.5C 390.729,326.601 393.562,323.934 396.5,321.5 Z"/></g>
<g><path style="opacity:0.966" fill="#adcbae" d="M 262.5,318.5 C 257.956,328.674 255.29,339.341 254.5,350.5C 250.526,354.138 246.526,357.805 242.5,361.5C 231.561,362.941 220.561,363.608 209.5,363.5C 214.167,359.167 218.833,354.833 223.5,350.5C 229.431,349.616 235.431,348.949 241.5,348.5C 241.863,342.593 242.863,336.927 244.5,331.5C 249.957,327.254 255.29,322.754 260.5,318C 261.437,317.308 262.103,317.475 262.5,318.5 Z"/></g>
<g><path style="opacity:0.952" fill="#73bfe6" d="M 64.5,329.5 C 84.8864,330.072 91.7198,340.072 85,359.5C 77.6914,367.876 68.8581,369.71 58.5,365C 51.2476,359.244 48.7476,351.744 51,342.5C 53.4509,335.88 57.9509,331.546 64.5,329.5 Z M 66.5,342.5 C 71.0669,342.056 74.0669,344.056 75.5,348.5C 72.9393,355.041 69.1059,356.041 64,351.5C 62.9271,347.9 63.7605,344.9 66.5,342.5 Z"/></g>
<g><path style="opacity:0.96" fill="#d7cf82" d="M 352.5,332.5 C 360,332.879 362.5,336.546 360,343.5C 351.543,358.25 342.71,372.75 333.5,387C 324.882,388.279 322.049,384.779 325,376.5C 332.333,363.833 339.667,351.167 347,338.5C 348.36,335.977 350.193,333.977 352.5,332.5 Z"/></g>
<g><path style="opacity:0.957" fill="#8bc7d4" d="M 158.5,350.5 C 153.502,353.3 148.836,356.8 144.5,361C 145.056,361.383 145.389,361.883 145.5,362.5C 137.747,361.879 130.08,360.713 122.5,359C 119.686,355.064 120.019,351.397 123.5,348C 135.164,348.555 146.831,349.388 158.5,350.5 Z"/></g>
<g><path style="opacity:0.929" fill="#a3c9b9" d="M 223.5,350.5 C 218.833,354.833 214.167,359.167 209.5,363.5C 197.914,364.478 186.247,364.811 174.5,364.5C 178.639,360.532 182.973,356.699 187.5,353C 186.584,352.722 185.918,352.222 185.5,351.5C 198.171,351.293 210.837,350.96 223.5,350.5 Z"/></g>
<g><path style="opacity:0.974" fill="#68afdb" d="M 30.5,307.5 C 30.5,325.833 30.5,344.167 30.5,362.5C 26.5442,364.788 23.2109,367.788 20.5,371.5C 19.037,368.797 18.2037,365.797 18,362.5C 17.5001,350.505 17.3335,338.505 17.5,326.5C 18.3195,323.695 18.8195,320.695 19,317.5C 23.0008,314.331 26.8341,310.997 30.5,307.5 Z"/></g>
<g><path style="opacity:0.971" fill="#97c8c6" d="M 158.5,350.5 C 167.491,351.041 176.491,351.374 185.5,351.5C 185.918,352.222 186.584,352.722 187.5,353C 182.973,356.699 178.639,360.532 174.5,364.5C 164.855,363.694 155.189,363.027 145.5,362.5C 145.389,361.883 145.056,361.383 144.5,361C 148.836,356.8 153.502,353.3 158.5,350.5 Z"/></g>
<g><path style="opacity:0.955" fill="#efd267" d="M 403.5,346.5 C 405.96,374.938 395.294,397.105 371.5,413C 355.745,422.223 339.079,425.056 321.5,421.5C 321.389,420.883 321.056,420.383 320.5,420C 323.833,417.333 327.167,414.667 330.5,412C 329.748,411.329 329.414,410.496 329.5,409.5C 364.956,410.059 385.622,392.726 391.5,357.5C 396.172,354.492 400.172,350.825 403.5,346.5 Z"/></g>
<g><path style="opacity:0.942" fill="#c0cd9a" d="M 278.5,343.5 C 278.119,352.6 278.785,361.6 280.5,370.5C 278.037,374.3 274.704,376.967 270.5,378.5C 266.699,370.38 265.032,361.714 265.5,352.5C 266.117,352.611 266.617,352.944 267,353.5C 271.001,350.331 274.834,346.997 278.5,343.5 Z"/></g>
<g><path style="opacity:0.955" fill="#73bfe6" d="M 30.5,362.5 C 36.491,374.196 45.8243,382.196 58.5,386.5C 56.0877,389.417 53.421,392.251 50.5,395C 49.552,395.483 48.552,395.649 47.5,395.5C 35.3461,391.011 26.3461,383.011 20.5,371.5C 23.2109,367.788 26.5442,364.788 30.5,362.5 Z"/></g>
<g><path style="opacity:0.955" fill="#f9d35d" d="M 427.5,342.5 C 429.43,358.915 427.097,374.582 420.5,389.5C 399.562,406.805 379.229,424.805 359.5,443.5C 349.037,446.092 338.37,447.092 327.5,446.5C 327.196,445.85 326.863,445.183 326.5,444.5C 330.546,440.783 334.546,437.116 338.5,433.5C 377.799,429.707 402.632,408.707 413,370.5C 414.188,364.222 414.688,357.888 414.5,351.5C 418.659,348.253 422.992,345.253 427.5,342.5 Z"/></g>
<g><path style="opacity:0.943" fill="#bdcd9e" d="M 254.5,350.5 C 254.526,362.964 256.859,374.964 261.5,386.5C 258.579,389.762 255.579,393.095 252.5,396.5C 246.361,385.736 243.027,374.069 242.5,361.5C 246.526,357.805 250.526,354.138 254.5,350.5 Z"/></g>
<g><path style="opacity:0.962" fill="#ccce8e" d="M 280.5,370.5 C 283.56,376.952 286.893,383.285 290.5,389.5C 287.526,392.138 284.526,394.805 281.5,397.5C 276.051,392.277 272.384,385.944 270.5,378.5C 274.704,376.967 278.037,374.3 280.5,370.5 Z"/></g>
<g><path style="opacity:0.955" fill="#d4cf84" d="M 290.5,389.5 C 294.897,393.904 299.564,397.904 304.5,401.5C 301.894,405.793 298.227,408.459 293.5,409.5C 288.479,406.479 284.479,402.479 281.5,397.5C 284.526,394.805 287.526,392.138 290.5,389.5 Z"/></g>
<g><path style="opacity:0.967" fill="#ffd457" d="M 420.5,389.5 C 419.441,394.117 417.441,398.284 414.5,402C 418,405.5 421.5,409 425,412.5C 430.388,409.794 435.554,410.294 440.5,414C 457,430.5 473.5,447 490,463.5C 491.623,466.327 492.79,469.327 493.5,472.5C 492.79,475.673 491.623,478.673 490,481.5C 479.938,491.729 469.772,501.729 459.5,511.5C 455.833,511.5 452.167,511.5 448.5,511.5C 430.228,493.729 412.062,475.729 394,457.5C 392.241,453.235 392.074,448.902 393.5,444.5C 390.182,440.682 386.682,437.015 383,433.5C 375.681,438.077 367.848,441.41 359.5,443.5C 379.229,424.805 399.562,406.805 420.5,389.5 Z M 405.5,413.5 C 409.08,415.408 412.08,418.074 414.5,421.5C 410.833,425.833 406.833,429.833 402.5,433.5C 399.5,431.167 396.833,428.5 394.5,425.5C 398.92,422.085 402.586,418.085 405.5,413.5 Z M 430.5,424.5 C 447.248,439.746 463.581,455.579 479.5,472C 471.364,481.137 462.864,489.97 454,498.5C 437.833,482.333 421.667,466.167 405.5,450C 414.036,441.632 422.369,433.132 430.5,424.5 Z"/></g>
<g><path style="opacity:0.946" fill="#85c7db" d="M 58.5,386.5 C 67.427,390.251 76.427,393.584 85.5,396.5C 81.7457,398.748 78.4124,401.581 75.5,405C 76.056,405.383 76.3893,405.883 76.5,406.5C 66.0856,404.587 56.4189,400.921 47.5,395.5C 48.552,395.649 49.552,395.483 50.5,395C 53.421,392.251 56.0877,389.417 58.5,386.5 Z"/></g>
<g><path style="opacity:0.966" fill="#92c8cd" d="M 85.5,396.5 C 95.2458,398.249 104.913,400.249 114.5,402.5C 111.088,406.238 107.755,409.905 104.5,413.5C 94.8253,412.081 85.492,409.748 76.5,406.5C 76.3893,405.883 76.056,405.383 75.5,405C 78.4124,401.581 81.7457,398.748 85.5,396.5 Z"/></g>
<g><path style="opacity:0.981" fill="#cace8f" d="M 261.5,386.5 C 266.171,395.165 271.838,403.165 278.5,410.5C 275.461,413.54 272.127,416.206 268.5,418.5C 267.089,417.092 265.423,416.092 263.5,415.5C 251.272,417.823 238.939,419.156 226.5,419.5C 231.152,415.034 235.486,410.368 239.5,405.5C 244.519,405.248 249.519,404.748 254.5,404C 254.957,403.586 255.291,403.086 255.5,402.5C 253.962,400.757 252.962,398.757 252.5,396.5C 255.579,393.095 258.579,389.762 261.5,386.5 Z"/></g>
<g><path style="opacity:0.954" fill="#9dc9c0" d="M 114.5,402.5 C 124.122,403.911 133.789,404.911 143.5,405.5C 138.566,408.764 134.233,412.764 130.5,417.5C 121.755,416.598 113.089,415.265 104.5,413.5C 107.755,409.905 111.088,406.238 114.5,402.5 Z"/></g>
<g><path style="opacity:0.942" fill="#a9cab3" d="M 143.5,405.5 C 152.722,406.994 162.056,407.66 171.5,407.5C 171.611,408.117 171.944,408.617 172.5,409C 169.023,412.567 165.356,415.9 161.5,419C 159.866,419.494 158.199,419.66 156.5,419.5C 147.776,419.493 139.109,418.827 130.5,417.5C 134.233,412.764 138.566,408.764 143.5,405.5 Z"/></g>
<g><path style="opacity:0.965" fill="#bfcd9b" d="M 239.5,405.5 C 235.486,410.368 231.152,415.034 226.5,419.5C 216.513,420.193 206.513,420.86 196.5,421.5C 200.307,417.865 204.307,414.365 208.5,411C 209.823,410.184 210.489,409.017 210.5,407.5C 220.221,407.44 229.888,406.773 239.5,405.5 Z"/></g>
<g><path style="opacity:0.985" fill="#b5cba6" d="M 171.5,407.5 C 184.496,408.723 197.496,408.723 210.5,407.5C 210.489,409.017 209.823,410.184 208.5,411C 204.307,414.365 200.307,417.865 196.5,421.5C 182.995,421.15 169.662,420.483 156.5,419.5C 158.199,419.66 159.866,419.494 161.5,419C 165.356,415.9 169.023,412.567 172.5,409C 171.944,408.617 171.611,408.117 171.5,407.5 Z"/></g>
<g><path style="opacity:0.946" fill="#e2d075" d="M 304.5,401.5 C 312.183,406.172 320.516,408.839 329.5,409.5C 329.414,410.496 329.748,411.329 330.5,412C 327.167,414.667 323.833,417.333 320.5,420C 321.056,420.383 321.389,420.883 321.5,421.5C 310.92,420.205 301.587,416.205 293.5,409.5C 298.227,408.459 301.894,405.793 304.5,401.5 Z"/></g>
<g><path style="opacity:0.955" fill="#ddd07c" d="M 278.5,410.5 C 285.163,416.824 292.496,422.157 300.5,426.5C 299.448,426.351 298.448,426.517 297.5,427C 294.335,429.335 291.335,431.835 288.5,434.5C 280.699,430.598 274.032,425.264 268.5,418.5C 272.127,416.206 275.461,413.54 278.5,410.5 Z"/></g>
<g><path style="opacity:0.949" fill="#ebd16c" d="M 300.5,426.5 C 312.628,431.615 325.294,433.948 338.5,433.5C 334.546,437.116 330.546,440.783 326.5,444.5C 326.863,445.183 327.196,445.85 327.5,446.5C 313.417,445.692 300.417,441.692 288.5,434.5C 291.335,431.835 294.335,429.335 297.5,427C 298.448,426.517 299.448,426.351 300.5,426.5 Z"/></g>
</svg>
