<?xml version="1.0" encoding="UTF-8"?>
<!DOCTYPE svg PUBLIC "-//W3C//DTD SVG 1.1//EN" "http://www.w3.org/Graphics/SVG/1.1/DTD/svg11.dtd">
<svg xmlns="http://www.w3.org/2000/svg" version="1.1" width="512px" height="512px" style="shape-rendering:geometricPrecision; text-rendering:geometricPrecision; image-rendering:optimizeQuality; fill-rule:evenodd; clip-rule:evenodd" xmlns:xlink="http://www.w3.org/1999/xlink">
<g><path style="opacity:0.978" fill="#ffd356" d="M 19.5,-0.5 C 54.5,-0.5 89.5,-0.5 124.5,-0.5C 120.167,4.16667 115.833,8.83333 111.5,13.5C 84.8333,13.5 58.1667,13.5 31.5,13.5C 31.5,40.1667 31.5,66.8333 31.5,93.5C 26.5,98.1667 21.5,102.833 16.5,107.5C 16.3333,72.8317 16.5,38.1651 17,3.5C 17.6622,2.01608 18.4955,0.682751 19.5,-0.5 Z"/></g>
<g><path style="opacity:1" fill="#ffcc4d" d="M 124.5,-0.5 C 136.5,-0.5 148.5,-0.5 160.5,-0.5C 156.167,4.16667 151.833,8.83333 147.5,13.5C 135.5,13.5 123.5,13.5 111.5,13.5C 115.833,8.83333 120.167,4.16667 124.5,-0.5 Z"/></g>
<g><path style="opacity:1" fill="#ffc343" d="M 160.5,-0.5 C 180.833,-0.5 201.167,-0.5 221.5,-0.5C 217.167,4.16667 212.833,8.83333 208.5,13.5C 188.167,13.5 167.833,13.5 147.5,13.5C 151.833,8.83333 156.167,4.16667 160.5,-0.5 Z"/></g>
<g><path style="opacity:1" fill="#ffb937" d="M 221.5,-0.5 C 243.833,-0.5 266.167,-0.5 288.5,-0.5C 284.167,4.16667 279.833,8.83333 275.5,13.5C 253.167,13.5 230.833,13.5 208.5,13.5C 212.833,8.83333 217.167,4.16667 221.5,-0.5 Z"/></g>
<g><path style="opacity:0.943" fill="#ffaf29" d="M 288.5,-0.5 C 292.5,-0.5 296.5,-0.5 300.5,-0.5C 311.167,10.5 321.833,21.5 332.5,32.5C 328.808,35.8617 325.141,39.1951 321.5,42.5C 314.187,35.5215 306.854,28.5215 299.5,21.5C 293.877,34.8643 288.544,48.3643 283.5,62C 284.094,62.4643 284.761,62.631 285.5,62.5C 280.226,69.1114 274.56,75.4447 268.5,81.5C 263.817,79.7905 262.317,76.4571 264,71.5C 270.872,52.3834 278.039,33.3834 285.5,14.5C 282.232,13.513 278.898,13.1796 275.5,13.5C 279.833,8.83333 284.167,4.16667 288.5,-0.5 Z"/></g>
<g><path style="opacity:0.948" fill="#ffd153" d="M 99.5,30.5 C 95.3701,35.1312 91.0367,39.6312 86.5,44C 90.3563,44.1773 94.023,44.6773 97.5,45.5C 86.1667,45.5 74.8333,45.5 63.5,45.5C 63.5,50.8333 63.5,56.1667 63.5,61.5C 62.6862,63.631 62.1862,65.9644 62,68.5C 58,72.5 54,76.5 50,80.5C 49.8138,83.0356 49.3138,85.369 48.5,87.5C 48.3334,69.8302 48.5001,52.1635 49,34.5C 50.3189,32.5125 52.1523,31.3459 54.5,31C 69.4963,30.5001 84.4963,30.3334 99.5,30.5 Z"/></g>
<g><path style="opacity:0.886" fill="#ffc241" d="M 148.5,30.5 C 162.833,30.5 177.167,30.5 191.5,30.5C 186.194,35.1396 181.194,40.1396 176.5,45.5C 166.5,45.5 156.5,45.5 146.5,45.5C 150.63,40.8688 154.963,36.3688 159.5,32C 155.644,31.8227 151.977,31.3227 148.5,30.5 Z"/></g>
<g><path style="opacity:0.99" fill="#ffc849" d="M 99.5,30.5 C 115.833,30.5 132.167,30.5 148.5,30.5C 151.977,31.3227 155.644,31.8227 159.5,32C 154.963,36.3688 150.63,40.8688 146.5,45.5C 130.167,45.5 113.833,45.5 97.5,45.5C 94.023,44.6773 90.3563,44.1773 86.5,44C 91.0367,39.6312 95.3701,35.1312 99.5,30.5 Z"/></g>
<g><path style="opacity:0.99" fill="#ffbb39" d="M 191.5,30.5 C 207.503,30.3334 223.503,30.5001 239.5,31C 243.57,31.8987 245.57,34.3987 245.5,38.5C 241.231,43.2713 236.731,47.938 232,52.5C 231.617,51.944 231.117,51.6107 230.5,51.5C 230.5,49.5 230.5,47.5 230.5,45.5C 212.5,45.5 194.5,45.5 176.5,45.5C 181.194,40.1396 186.194,35.1396 191.5,30.5 Z"/></g>
<g><path style="opacity:0.972" fill="#ffa61f" d="M 332.5,32.5 C 338.163,37.33 343.33,42.6633 348,48.5C 348.667,59.8333 348.667,71.1667 348,82.5C 344.414,88.0286 340.081,88.6952 335,84.5C 333.733,76.9376 333.066,69.2709 333,61.5C 313.333,68.7227 293.499,75.556 273.5,82C 271.613,82.7796 269.946,82.6129 268.5,81.5C 274.56,75.4447 280.226,69.1114 285.5,62.5C 299.031,57.5988 312.697,52.7655 326.5,48C 324.627,46.2962 322.96,44.4628 321.5,42.5C 325.141,39.1951 328.808,35.8617 332.5,32.5 Z"/></g>
<g><path style="opacity:0.973" fill="#ffaf2b" d="M 245.5,38.5 C 245.98,62.9232 245.48,87.2566 244,111.5C 243.5,112 243,112.5 242.5,113C 218.836,113.5 195.169,113.667 171.5,113.5C 175.63,108.869 179.963,104.369 184.5,100C 180.644,99.8227 176.977,99.3227 173.5,98.5C 192.5,98.5 211.5,98.5 230.5,98.5C 230.5,82.8333 230.5,67.1667 230.5,51.5C 231.117,51.6107 231.617,51.944 232,52.5C 236.731,47.938 241.231,43.2713 245.5,38.5 Z"/></g>
<g><path style="opacity:0.927" fill="#ffcc4d" d="M 31.5,93.5 C 31.5,107.167 31.5,120.833 31.5,134.5C 30.71,133.391 30.21,132.058 30,130.5C 25.6312,135.037 21.1312,139.37 16.5,143.5C 16.5,131.5 16.5,119.5 16.5,107.5C 21.5,102.833 26.5,98.1667 31.5,93.5 Z"/></g>
<g><path style="opacity:0.998" fill="#ffc849" d="M 63.5,61.5 C 63.5,73.8333 63.5,86.1667 63.5,98.5C 74.8333,98.5 86.1667,98.5 97.5,98.5C 95.7078,99.3091 93.7078,99.8091 91.5,100C 87.5,104 83.5,108 79.5,112C 76.9644,112.186 74.631,112.686 72.5,113.5C 65.4921,113.666 58.4921,113.5 51.5,113C 51,112.5 50.5,112 50,111.5C 48.5648,103.611 48.0648,95.6112 48.5,87.5C 49.3138,85.369 49.8138,83.0356 50,80.5C 54,76.5 58,72.5 62,68.5C 62.1862,65.9644 62.6862,63.631 63.5,61.5 Z"/></g>
<g><path style="opacity:0.994" fill="#ffc03f" d="M 97.5,98.5 C 114.5,98.5 131.5,98.5 148.5,98.5C 149.609,99.29 150.942,99.79 152.5,100C 147.963,104.369 143.63,108.869 139.5,113.5C 117.167,113.5 94.8333,113.5 72.5,113.5C 74.631,112.686 76.9644,112.186 79.5,112C 83.5,108 87.5,104 91.5,100C 93.7078,99.8091 95.7078,99.3091 97.5,98.5 Z"/></g>
<g><path style="opacity:0.995" fill="#ffb735" d="M 148.5,98.5 C 156.833,98.5 165.167,98.5 173.5,98.5C 176.977,99.3227 180.644,99.8227 184.5,100C 179.963,104.369 175.63,108.869 171.5,113.5C 160.833,113.5 150.167,113.5 139.5,113.5C 143.63,108.869 147.963,104.369 152.5,100C 150.942,99.79 149.609,99.29 148.5,98.5 Z"/></g>
<g><path style="opacity:0.947" fill="#f2a129" d="M 348.5,119.5 C 343.86,124.806 338.86,129.806 333.5,134.5C 333.334,127.159 333.5,119.826 334,112.5C 339.163,106.938 343.829,107.271 348,113.5C 348.495,115.473 348.662,117.473 348.5,119.5 Z"/></g>
<g><path style="opacity:0.947" fill="#eaa336" d="M 348.5,119.5 C 348.925,126.615 348.425,133.615 347,140.5C 339.147,145.892 334.647,143.892 333.5,134.5C 338.86,129.806 343.86,124.806 348.5,119.5 Z"/></g>
<g><path style="opacity:0.934" fill="#ffbf3e" d="M 126.5,128.5 C 120.304,132.019 114.971,136.686 110.5,142.5C 94.8333,142.5 79.1667,142.5 63.5,142.5C 63.5,149.5 63.5,156.5 63.5,163.5C 62.71,162.391 62.21,161.058 62,159.5C 57.2691,164.062 52.7691,168.729 48.5,173.5C 48.3334,159.496 48.5001,145.496 49,131.5C 49.3742,130.584 49.8742,129.75 50.5,129C 63.4088,127.851 76.4088,127.351 89.5,127.5C 102.005,127.5 114.338,127.833 126.5,128.5 Z"/></g>
<g><path style="opacity:0.934" fill="#ffb735" d="M 126.5,128.5 C 128.173,129.343 129.34,130.676 130,132.5C 130.5,140.159 130.666,147.826 130.5,155.5C 125.594,158.898 121.094,162.898 117,167.5C 116.814,170.036 116.314,172.369 115.5,174.5C 115.5,163.833 115.5,153.167 115.5,142.5C 113.833,142.5 112.167,142.5 110.5,142.5C 114.971,136.686 120.304,132.019 126.5,128.5 Z"/></g>
<g><path style="opacity:0.966" fill="#ffae2a" d="M 209.5,139.5 C 205.37,144.131 201.037,148.631 196.5,153C 192.644,153.177 188.977,153.677 185.5,154.5C 173.495,154.667 161.495,154.5 149.5,154C 146.317,152.982 144.984,150.815 145.5,147.5C 145.119,144.675 146.119,142.509 148.5,141C 168.741,139.524 189.075,139.024 209.5,139.5 Z"/></g>
<g><path style="opacity:0.91" fill="#ffa822" d="M 209.5,139.5 C 218.167,139.5 226.833,139.5 235.5,139.5C 236.609,140.29 237.942,140.79 239.5,141C 234.963,145.369 230.63,149.869 226.5,154.5C 212.833,154.5 199.167,154.5 185.5,154.5C 188.977,153.677 192.644,153.177 196.5,153C 201.037,148.631 205.37,144.131 209.5,139.5 Z"/></g>
<g><path style="opacity:0.976" fill="#fea019" d="M 235.5,139.5 C 258.5,139.5 281.5,139.5 304.5,139.5C 297.998,143.322 292.331,148.322 287.5,154.5C 267.167,154.5 246.833,154.5 226.5,154.5C 230.63,149.869 234.963,145.369 239.5,141C 237.942,140.79 236.609,140.29 235.5,139.5 Z"/></g>
<g><path style="opacity:0.967" fill="#f3a127" d="M 304.5,139.5 C 315.058,138.874 318.391,143.374 314.5,153C 305.608,154.443 296.608,154.943 287.5,154.5C 292.331,148.322 297.998,143.322 304.5,139.5 Z"/></g>
<g><path style="opacity:0.954" fill="#ffba37" d="M 104.5,146.5 C 113.09,148.086 115.257,152.753 111,160.5C 104.5,167.667 98,174.833 91.5,182C 88.9699,183.422 86.3033,183.755 83.5,183C 78,178.833 72.5,174.667 67,170.5C 63.9642,160.539 67.4642,156.705 77.5,159C 79.9833,161.406 82.65,163.573 85.5,165.5C 88.8244,162.006 91.991,158.339 95,154.5C 97.7948,151.189 100.961,148.523 104.5,146.5 Z"/></g>
<g><path style="opacity:0.916" fill="#ffc343" d="M 31.5,134.5 C 31.5,154.833 31.5,175.167 31.5,195.5C 30.71,194.391 30.21,193.058 30,191.5C 25.6312,196.037 21.1312,200.37 16.5,204.5C 16.5,184.167 16.5,163.833 16.5,143.5C 21.1312,139.37 25.6312,135.037 30,130.5C 30.21,132.058 30.71,133.391 31.5,134.5 Z"/></g>
<g><path style="opacity:0.941" fill="#ffb22e" d="M 130.5,155.5 C 130.667,169.837 130.5,184.171 130,198.5C 129.535,199.931 128.701,201.097 127.5,202C 112.263,203.468 96.9296,203.968 81.5,203.5C 85.6299,198.869 89.9633,194.369 94.5,190C 97.0356,189.814 99.369,189.314 101.5,188.5C 106.167,188.5 110.833,188.5 115.5,188.5C 115.5,183.833 115.5,179.167 115.5,174.5C 116.314,172.369 116.814,170.036 117,167.5C 121.094,162.898 125.594,158.898 130.5,155.5 Z"/></g>
<g><path style="opacity:0.962" fill="#d8a852" d="M 348.5,175.5 C 343.86,180.806 338.86,185.806 333.5,190.5C 333.068,182.721 333.568,175.054 335,167.5C 338.647,165.006 342.481,164.84 346.5,167C 348.179,169.565 348.846,172.398 348.5,175.5 Z"/></g>
<g><path style="opacity:1" fill="#ffa923" d="M 203.5,176.5 C 199.167,181.167 194.833,185.833 190.5,190.5C 176.496,190.667 162.496,190.5 148.5,190C 144.5,185.667 144.5,181.333 148.5,177C 166.83,176.5 185.164,176.333 203.5,176.5 Z"/></g>
<g><path style="opacity:1" fill="#fea01a" d="M 203.5,176.5 C 223.833,176.5 244.167,176.5 264.5,176.5C 260.167,181.167 255.833,185.833 251.5,190.5C 231.167,190.5 210.833,190.5 190.5,190.5C 194.833,185.833 199.167,181.167 203.5,176.5 Z"/></g>
<g><path style="opacity:0.99" fill="#f5a124" d="M 264.5,176.5 C 268.637,176.146 272.637,176.646 276.5,178C 279.484,182.71 278.817,186.71 274.5,190C 266.841,190.5 259.174,190.666 251.5,190.5C 255.833,185.833 260.167,181.167 264.5,176.5 Z"/></g>
<g><path style="opacity:0.965" fill="#cfab5f" d="M 348.5,175.5 C 348.5,184.833 348.5,194.167 348.5,203.5C 344.5,208.167 340.167,212.5 335.5,216.5C 327.924,214.651 320.257,213.318 312.5,212.5C 316.897,208.108 320.897,203.442 324.5,198.5C 327.189,199.038 329.856,199.705 332.5,200.5C 333.487,197.232 333.82,193.898 333.5,190.5C 338.86,185.806 343.86,180.806 348.5,175.5 Z"/></g>
<g><path style="opacity:0.937" fill="#ffb937" d="M 63.5,163.5 C 63.5,171.833 63.5,180.167 63.5,188.5C 76.1667,188.5 88.8333,188.5 101.5,188.5C 99.369,189.314 97.0356,189.814 94.5,190C 89.9633,194.369 85.6299,198.869 81.5,203.5C 71.3949,203.949 61.3949,203.449 51.5,202C 50.6667,201.167 49.8333,200.333 49,199.5C 48.5002,190.84 48.3336,182.173 48.5,173.5C 52.7691,168.729 57.2691,164.062 62,159.5C 62.21,161.058 62.71,162.391 63.5,163.5 Z"/></g>
<g><path style="opacity:0.957" fill="#e0a645" d="M 307.5,197.5 C 302.5,202.833 297.5,208.167 292.5,213.5C 285.407,214.357 278.407,215.69 271.5,217.5C 271.062,217.565 270.728,217.399 270.5,217C 276.703,210.965 282.703,204.798 288.5,198.5C 294.797,197.68 301.131,197.347 307.5,197.5 Z"/></g>
<g><path style="opacity:1" fill="#d9a850" d="M 307.5,197.5 C 313.189,197.532 318.855,197.866 324.5,198.5C 320.897,203.442 316.897,208.108 312.5,212.5C 305.789,212.287 299.123,212.62 292.5,213.5C 297.5,208.167 302.5,202.833 307.5,197.5 Z"/></g>
<g><path style="opacity:0.958" fill="#eaa335" d="M 288.5,198.5 C 282.703,204.798 276.703,210.965 270.5,217C 270.728,217.399 271.062,217.565 271.5,217.5C 241.795,228.026 219.795,247.359 205.5,275.5C 205.565,275.062 205.399,274.728 205,274.5C 198.244,281.761 191.078,288.428 183.5,294.5C 184.078,289.835 185.411,285.501 187.5,281.5C 212.473,256.194 237.473,230.86 262.5,205.5C 270.72,201.943 279.387,199.61 288.5,198.5 Z"/></g>
<g><path style="opacity:0.976" fill="#c4af70" d="M 348.5,203.5 C 352.674,206.088 357.007,208.421 361.5,210.5C 360.127,210.343 358.793,210.51 357.5,211C 354.297,214.371 350.964,217.538 347.5,220.5C 343.421,219.363 339.421,218.029 335.5,216.5C 340.167,212.5 344.5,208.167 348.5,203.5 Z"/></g>
<g><path style="opacity:0.969" fill="#f2a129" d="M 262.5,205.5 C 237.473,230.86 212.473,256.194 187.5,281.5C 179.684,280.508 171.684,280.174 163.5,280.5C 163.351,279.448 163.517,278.448 164,277.5C 168.037,273.631 171.87,269.631 175.5,265.5C 181.868,265.83 188.202,265.496 194.5,264.5C 197.853,257.32 202.186,250.82 207.5,245C 205.19,244.503 202.857,244.337 200.5,244.5C 200.082,243.778 199.416,243.278 198.5,243C 203.037,238.631 207.37,234.131 211.5,229.5C 215.182,229.665 218.848,229.499 222.5,229C 234.155,218.338 247.489,210.505 262.5,205.5 Z"/></g>
<g><path style="opacity:0.957" fill="#bcb17d" d="M 361.5,210.5 C 365.201,212.012 368.534,214.012 371.5,216.5C 368.437,220.566 364.771,223.899 360.5,226.5C 355.978,224.736 351.645,222.736 347.5,220.5C 350.964,217.538 354.297,214.371 357.5,211C 358.793,210.51 360.127,210.343 361.5,210.5 Z"/></g>
<g><path style="opacity:0.926" fill="#ffb937" d="M 31.5,195.5 C 31.5,214.833 31.5,234.167 31.5,253.5C 26.8688,257.63 22.3688,261.963 18,266.5C 17.8138,269.036 17.3138,271.369 16.5,273.5C 16.5,250.5 16.5,227.5 16.5,204.5C 21.1312,200.37 25.6312,196.037 30,191.5C 30.21,193.058 30.71,194.391 31.5,195.5 Z"/></g>
<g><path style="opacity:0.953" fill="#ffb32f" d="M 97.5,216.5 C 98.2625,217.268 99.2625,217.768 100.5,218C 95.9633,222.369 91.6299,226.869 87.5,231.5C 79.5,231.5 71.5,231.5 63.5,231.5C 63.5,237.833 63.5,244.167 63.5,250.5C 62.6909,252.292 62.1909,254.292 62,256.5C 57.6312,261.037 53.1312,265.37 48.5,269.5C 48.3334,253.163 48.5001,236.83 49,220.5C 50.3189,218.513 52.1523,217.346 54.5,217C 68.8295,216.5 83.1628,216.333 97.5,216.5 Z"/></g>
<g><path style="opacity:0.961" fill="#b4b48b" d="M 371.5,216.5 C 376.197,218.178 380.197,220.844 383.5,224.5C 379.229,227.101 375.563,230.434 372.5,234.5C 368.223,232.218 364.223,229.551 360.5,226.5C 364.771,223.899 368.437,220.566 371.5,216.5 Z"/></g>
<g><path style="opacity:0.952" fill="#acb597" d="M 383.5,224.5 C 387.456,226.788 390.789,229.788 393.5,233.5C 389.5,236.5 385.5,239.5 381.5,242.5C 378.474,239.805 375.474,237.138 372.5,234.5C 375.563,230.434 379.229,227.101 383.5,224.5 Z"/></g>
<g><path style="opacity:0.976" fill="#fea019" d="M 211.5,229.5 C 207.37,234.131 203.037,238.631 198.5,243C 199.416,243.278 200.082,243.778 200.5,244.5C 183.83,244.667 167.163,244.5 150.5,244C 145.776,241.565 144.276,237.731 146,232.5C 146.833,231.667 147.667,230.833 148.5,230C 169.497,229.5 190.497,229.333 211.5,229.5 Z"/></g>
<g><path style="opacity:0.94" fill="#cfab60" d="M 321.5,230.5 C 317.167,235.167 312.833,239.833 308.5,244.5C 297.513,244.22 286.847,245.887 276.5,249.5C 281.803,242.53 287.803,236.196 294.5,230.5C 303.352,229.27 312.352,229.27 321.5,230.5 Z"/></g>
<g><path style="opacity:0.992" fill="#d9a951" d="M 294.5,230.5 C 287.803,236.196 281.803,242.53 276.5,249.5C 251.624,260.602 235.624,279.268 228.5,305.5C 223.11,310.894 217.444,315.894 211.5,320.5C 212.188,307.032 215.521,294.365 221.5,282.5C 237.167,268.508 252.5,253.508 267.5,237.5C 276.037,233.449 285.037,231.116 294.5,230.5 Z"/></g>
<g><path style="opacity:0.953" fill="#c1af75" d="M 321.5,230.5 C 328.465,231.574 335.131,233.574 341.5,236.5C 337.767,240.227 334.434,244.227 331.5,248.5C 324.012,246.196 316.346,244.863 308.5,244.5C 312.833,239.833 317.167,235.167 321.5,230.5 Z"/></g>
<g><path style="opacity:0.947" fill="#ffac26" d="M 102.5,236.5 C 111.485,235.979 114.652,239.979 112,248.5C 104.833,256.333 97.6667,264.167 90.5,272C 87.8333,272.667 85.1667,272.667 82.5,272C 77.0589,268.193 71.8922,264.027 67,259.5C 63.6751,250.319 66.8418,246.485 76.5,248C 79.3603,250.36 82.3603,252.527 85.5,254.5C 91.2161,248.453 96.8828,242.453 102.5,236.5 Z"/></g>
<g><path style="opacity:0.967" fill="#dfa747" d="M 267.5,237.5 C 252.5,253.508 237.167,268.508 221.5,282.5C 231.101,261.689 246.434,246.689 267.5,237.5 Z"/></g>
<g><path style="opacity:0.933" fill="#b8b184" d="M 341.5,236.5 C 346.32,238.074 350.653,240.407 354.5,243.5C 350.833,246.833 347.167,250.167 343.5,253.5C 339.495,251.832 335.495,250.165 331.5,248.5C 334.434,244.227 337.767,240.227 341.5,236.5 Z"/></g>
<g><path style="opacity:0.964" fill="#a1b8a9" d="M 393.5,233.5 C 398.54,237.539 402.873,242.206 406.5,247.5C 402.5,250.833 398.833,254.5 395.5,258.5C 391.235,252.896 386.568,247.563 381.5,242.5C 385.5,239.5 389.5,236.5 393.5,233.5 Z"/></g>
<g><path style="opacity:0.96" fill="#b0b490" d="M 354.5,243.5 C 358.392,245.062 361.725,247.395 364.5,250.5C 361.437,254.566 357.771,257.899 353.5,260.5C 350.129,258.154 346.796,255.821 343.5,253.5C 347.167,250.167 350.833,246.833 354.5,243.5 Z"/></g>
<g><path style="opacity:0.927" fill="#ffb22e" d="M 31.5,253.5 C 31.5,264.833 31.5,276.167 31.5,287.5C 26.8688,291.63 22.3688,295.963 18,300.5C 17.8091,302.708 17.3091,304.708 16.5,306.5C 16.5,295.5 16.5,284.5 16.5,273.5C 17.3138,271.369 17.8138,269.036 18,266.5C 22.3688,261.963 26.8688,257.63 31.5,253.5 Z"/></g>
<g><path style="opacity:0.972" fill="#a8b69d" d="M 364.5,250.5 C 368.791,253.123 372.457,256.456 375.5,260.5C 371.5,263.5 367.5,266.5 363.5,269.5C 360.141,266.471 356.808,263.471 353.5,260.5C 357.771,257.899 361.437,254.566 364.5,250.5 Z"/></g>
<g><path style="opacity:0.919" fill="#ffad28" d="M 63.5,250.5 C 63.5,259.5 63.5,268.5 63.5,277.5C 66.1667,277.5 68.8333,277.5 71.5,277.5C 66.8063,282.86 61.8063,287.86 56.5,292.5C 53.0388,292.854 50.5388,291.521 49,288.5C 48.5005,282.175 48.3338,275.842 48.5,269.5C 53.1312,265.37 57.6312,261.037 62,256.5C 62.1909,254.292 62.6909,252.292 63.5,250.5 Z"/></g>
<g><path style="opacity:0.943" fill="#94bdbf" d="M 406.5,247.5 C 411.63,254.312 415.963,261.645 419.5,269.5C 415.511,273.548 411.511,276.881 407.5,279.5C 403.782,272.405 399.782,265.405 395.5,258.5C 398.833,254.5 402.5,250.833 406.5,247.5 Z"/></g>
<g><path style="opacity:0.929" fill="#fc9e1a" d="M 175.5,265.5 C 171.87,269.631 168.037,273.631 164,277.5C 163.517,278.448 163.351,279.448 163.5,280.5C 158.041,280.897 152.708,280.397 147.5,279C 145.066,275.284 144.899,271.451 147,267.5C 147.75,266.874 148.584,266.374 149.5,266C 158.16,265.5 166.827,265.334 175.5,265.5 Z"/></g>
<g><path style="opacity:0.967" fill="#9cb9ae" d="M 375.5,260.5 C 380.151,265.129 383.818,270.463 386.5,276.5C 383.129,279.871 379.463,282.871 375.5,285.5C 371.916,279.908 367.916,274.574 363.5,269.5C 367.5,266.5 371.5,263.5 375.5,260.5 Z"/></g>
<g><path style="opacity:0.994" fill="#c4ae71" d="M 296.5,272.5 C 287.167,282.5 277.5,292.167 267.5,301.5C 265.522,280.145 275.188,270.478 296.5,272.5 Z"/></g>
<g><path style="opacity:0.978" fill="#beb07a" d="M 296.5,272.5 C 299.5,272.5 302.5,272.5 305.5,272.5C 301.167,277.167 296.833,281.833 292.5,286.5C 288.69,286.379 285.523,287.712 283,290.5C 282.667,294.833 282.333,299.167 282,303.5C 279.565,308.224 275.731,309.724 270.5,308C 268.081,306.491 267.081,304.325 267.5,301.5C 277.5,292.167 287.167,282.5 296.5,272.5 Z"/></g>
<g><path style="opacity:1" fill="#b8b284" d="M 305.5,272.5 C 314.221,272.225 322.887,272.558 331.5,273.5C 328.232,278.107 324.565,282.441 320.5,286.5C 311.167,286.5 301.833,286.5 292.5,286.5C 296.833,281.833 301.167,277.167 305.5,272.5 Z"/></g>
<g><path style="opacity:0.969" fill="#ffa721" d="M 97.5,216.5 C 107.58,216.077 117.58,216.577 127.5,218C 128.701,218.903 129.535,220.069 130,221.5C 130.978,244.255 130.645,266.922 129,289.5C 128.167,290.333 127.333,291.167 126.5,292C 103.169,292.5 79.8357,292.667 56.5,292.5C 61.8063,287.86 66.8063,282.86 71.5,277.5C 86.1667,277.5 100.833,277.5 115.5,277.5C 115.5,262.167 115.5,246.833 115.5,231.5C 106.167,231.5 96.8333,231.5 87.5,231.5C 91.6299,226.869 95.9633,222.369 100.5,218C 99.2625,217.768 98.2625,217.268 97.5,216.5 Z"/></g>
<g><path style="opacity:0.977" fill="#a8b69c" d="M 331.5,273.5 C 338.672,276.994 342.672,282.66 343.5,290.5C 329.5,305.167 315.167,319.5 300.5,333.5C 300.334,327.491 300.501,321.491 301,315.5C 301.5,314.5 302,313.5 302.5,312.5C 310.241,307.434 318.241,302.768 326.5,298.5C 330.997,291.491 328.997,287.491 320.5,286.5C 324.565,282.441 328.232,278.107 331.5,273.5 Z"/></g>
<g><path style="opacity:0.971" fill="#86c0d3" d="M 419.5,269.5 C 422.563,276.355 425.229,283.355 427.5,290.5C 422.893,293.768 418.559,297.435 414.5,301.5C 412.572,294.049 410.239,286.715 407.5,279.5C 411.511,276.881 415.511,273.548 419.5,269.5 Z"/></g>
<g><path style="opacity:0.959" fill="#e4a53f" d="M 205.5,275.5 C 202.434,283.032 199.767,290.699 197.5,298.5C 192.194,304.473 186.527,310.14 180.5,315.5C 180.479,308.313 181.479,301.313 183.5,294.5C 191.078,288.428 198.244,281.761 205,274.5C 205.399,274.728 205.565,275.062 205.5,275.5 Z"/></g>
<g><path style="opacity:0.962" fill="#a2b8a7" d="M 343.5,290.5 C 344.919,298.718 342.252,305.551 335.5,311C 329.167,314.5 322.833,318 316.5,321.5C 315.669,328.476 315.169,335.476 315,342.5C 309.837,348.062 305.171,347.729 301,341.5C 300.503,338.854 300.336,336.187 300.5,333.5C 315.167,319.5 329.5,305.167 343.5,290.5 Z"/></g>
<g><path style="opacity:0.943" fill="#8fbec5" d="M 386.5,276.5 C 388.81,279.102 390.643,282.102 392,285.5C 393.946,291.169 395.779,296.836 397.5,302.5C 392.56,305.77 388.227,309.77 384.5,314.5C 382.544,304.624 379.544,294.957 375.5,285.5C 379.463,282.871 383.129,279.871 386.5,276.5 Z"/></g>
<g><path style="opacity:0.971" fill="#dea749" d="M 197.5,298.5 C 196.225,306.804 195.225,315.137 194.5,323.5C 193.883,323.389 193.383,323.056 193,322.5C 188.964,326.704 184.798,330.704 180.5,334.5C 175.695,333.513 170.695,333.179 165.5,333.5C 165.389,332.883 165.056,332.383 164.5,332C 169.037,327.631 173.37,323.131 177.5,318.5C 178.5,318.5 179.5,318.5 180.5,318.5C 180.5,317.5 180.5,316.5 180.5,315.5C 186.527,310.14 192.194,304.473 197.5,298.5 Z"/></g>
<g><path style="opacity:0.961" fill="#77c5e9" d="M 427.5,290.5 C 435.099,322.04 431.766,352.373 417.5,381.5C 442.819,407.32 468.319,432.986 494,458.5C 494.942,467.602 494.609,476.602 493,485.5C 484.272,494.396 475.438,503.063 466.5,511.5C 457.833,511.5 449.167,511.5 440.5,511.5C 415.202,485.701 389.702,460.035 364,434.5C 340.242,446.876 315.075,451.21 288.5,447.5C 292.296,443.202 296.296,439.036 300.5,435C 299.584,434.722 298.918,434.222 298.5,433.5C 343.067,434.804 377.234,416.804 401,379.5C 414.845,355.109 419.345,329.109 414.5,301.5C 418.559,297.435 422.893,293.768 427.5,290.5 Z M 408.5,395.5 C 432.416,417.914 455.916,440.914 479,464.5C 479.667,468.833 479.667,473.167 479,477.5C 472.5,484 466,490.5 459.5,497C 455.5,497.667 451.5,497.667 447.5,497C 424.167,473.667 400.833,450.333 377.5,427C 389.374,417.96 399.708,407.46 408.5,395.5 Z"/></g>
<g><path style="opacity:0.94" fill="#fea21b" d="M 129.5,311.5 C 125.167,316.5 120.5,321.167 115.5,325.5C 115.5,324.167 115.5,322.833 115.5,321.5C 98.1667,321.5 80.8333,321.5 63.5,321.5C 63.5,336.833 63.5,352.167 63.5,367.5C 66.8333,367.5 70.1667,367.5 73.5,367.5C 69.3701,372.131 65.0367,376.631 60.5,381C 61.4158,381.278 62.0825,381.778 62.5,382.5C 57.2846,383.298 52.7846,381.964 49,378.5C 48.0209,355.079 48.3543,331.745 50,308.5C 50.7504,307.874 51.5838,307.374 52.5,307C 77.1667,306.333 101.833,306.333 126.5,307C 128.141,308.129 129.141,309.629 129.5,311.5 Z"/></g>
<g><path style="opacity:0.977" fill="#83c1d6" d="M 397.5,302.5 C 398.167,307.167 398.833,311.833 399.5,316.5C 394.86,321.806 389.86,326.806 384.5,331.5C 384.5,325.833 384.5,320.167 384.5,314.5C 388.227,309.77 392.56,305.77 397.5,302.5 Z"/></g>
<g><path style="opacity:0.967" fill="#ccac65" d="M 228.5,305.5 C 227.126,313.502 226.793,321.502 227.5,329.5C 222.558,333.103 217.892,337.103 213.5,341.5C 212.636,334.523 211.969,327.523 211.5,320.5C 217.444,315.894 223.11,310.894 228.5,305.5 Z"/></g>
<g><path style="opacity:0.936" fill="#e5a53e" d="M 177.5,318.5 C 173.37,323.131 169.037,327.631 164.5,332C 165.056,332.383 165.389,332.883 165.5,333.5C 159.379,333.91 153.379,333.41 147.5,332C 145.066,328.284 144.899,324.451 147,320.5C 147.75,319.874 148.584,319.374 149.5,319C 158.827,318.5 168.161,318.334 177.5,318.5 Z"/></g>
<g><path style="opacity:0.933" fill="#f4a126" d="M 129.5,311.5 C 130.489,316.975 130.822,322.642 130.5,328.5C 125.898,334.44 120.898,340.107 115.5,345.5C 115.5,338.833 115.5,332.167 115.5,325.5C 120.5,321.167 125.167,316.5 129.5,311.5 Z"/></g>
<g><path style="opacity:0.926" fill="#ffa924" d="M 31.5,287.5 C 31.5,308.167 31.5,328.833 31.5,349.5C 26.8688,353.63 22.3688,357.963 18,362.5C 17.79,360.942 17.29,359.609 16.5,358.5C 16.5,341.167 16.5,323.833 16.5,306.5C 17.3091,304.708 17.8091,302.708 18,300.5C 22.3688,295.963 26.8688,291.63 31.5,287.5 Z"/></g>
<g><path style="opacity:0.958" fill="#78c4e8" d="M 399.5,316.5 C 399.344,367.815 374.677,400.648 325.5,415C 319.555,416.162 313.555,416.662 307.5,416.5C 313.199,411.802 318.199,406.469 322.5,400.5C 357.184,390.147 377.85,367.147 384.5,331.5C 389.86,326.806 394.86,321.806 399.5,316.5 Z"/></g>
<g><path style="opacity:0.95" fill="#eca333" d="M 130.5,328.5 C 130.5,334.833 130.5,341.167 130.5,347.5C 126.632,352.878 122.132,357.878 117,362.5C 116.617,361.944 116.117,361.611 115.5,361.5C 115.5,356.167 115.5,350.833 115.5,345.5C 120.898,340.107 125.898,334.44 130.5,328.5 Z"/></g>
<g><path style="opacity:0.957" fill="#c1b076" d="M 227.5,329.5 C 227.815,336.076 229.148,342.409 231.5,348.5C 226.895,351.436 222.895,355.102 219.5,359.5C 216.928,353.785 214.928,347.785 213.5,341.5C 217.892,337.103 222.558,333.103 227.5,329.5 Z"/></g>
<g><path style="opacity:0.974" fill="#caad67" d="M 196.5,344.5 C 197.819,348.416 199.152,352.416 200.5,356.5C 195.226,360.105 190.559,364.438 186.5,369.5C 182.167,369.5 177.833,369.5 173.5,369.5C 181.557,361.447 189.223,353.113 196.5,344.5 Z"/></g>
<g><path style="opacity:0.938" fill="#e4a53f" d="M 130.5,347.5 C 130.953,358.27 130.453,368.937 129,379.5C 127.829,380.893 126.329,381.727 124.5,382C 115.84,382.5 107.173,382.666 98.5,382.5C 102.437,377.224 106.771,372.224 111.5,367.5C 112.833,367.5 114.167,367.5 115.5,367.5C 115.5,365.5 115.5,363.5 115.5,361.5C 116.117,361.611 116.617,361.944 117,362.5C 122.132,357.878 126.632,352.878 130.5,347.5 Z"/></g>
<g><path style="opacity:0.944" fill="#d8a952" d="M 169.5,354.5 C 164.806,359.86 159.806,364.86 154.5,369.5C 146.678,369.834 143.844,366.167 146,358.5C 147.214,356.951 148.714,355.785 150.5,355C 156.825,354.5 163.158,354.334 169.5,354.5 Z"/></g>
<g><path style="opacity:0.93" fill="#d1aa5d" d="M 194.5,323.5 C 195.331,330.475 195.998,337.475 196.5,344.5C 189.223,353.113 181.557,361.447 173.5,369.5C 167.167,369.5 160.833,369.5 154.5,369.5C 159.806,364.86 164.806,359.86 169.5,354.5C 174.167,354.5 178.833,354.5 183.5,354.5C 182.128,347.894 181.128,341.228 180.5,334.5C 184.798,330.704 188.964,326.704 193,322.5C 193.383,323.056 193.883,323.389 194.5,323.5 Z"/></g>
<g><path style="opacity:0.952" fill="#b8b283" d="M 231.5,348.5 C 232.617,352.734 234.284,356.734 236.5,360.5C 232.5,363.833 228.833,367.5 225.5,371.5C 222.992,367.818 220.992,363.818 219.5,359.5C 222.895,355.102 226.895,351.436 231.5,348.5 Z"/></g>
<g><path style="opacity:0.958" fill="#94bcbd" d="M 305.5,350.5 C 309.426,350.047 312.592,351.38 315,354.5C 315.667,359.833 315.667,365.167 315,370.5C 309.837,376.062 305.171,375.729 301,369.5C 300.333,364.833 300.333,360.167 301,355.5C 302.025,353.313 303.525,351.646 305.5,350.5 Z"/></g>
<g><path style="opacity:0.952" fill="#c3af73" d="M 200.5,356.5 C 201.969,361.574 203.636,366.574 205.5,371.5C 202.566,375.773 199.233,379.773 195.5,383.5C 192.873,379.49 190.706,375.156 189,370.5C 188.329,369.748 187.496,369.414 186.5,369.5C 190.559,364.438 195.226,360.105 200.5,356.5 Z"/></g>
<g><path style="opacity:0.974" fill="#f4a126" d="M 73.5,367.5 C 80.1667,367.5 86.8333,367.5 93.5,367.5C 88.107,372.898 82.4403,377.898 76.5,382.5C 71.8333,382.5 67.1667,382.5 62.5,382.5C 62.0825,381.778 61.4158,381.278 60.5,381C 65.0367,376.631 69.3701,372.131 73.5,367.5 Z"/></g>
<g><path style="opacity:0.987" fill="#b0b490" d="M 236.5,360.5 C 238.584,364.336 240.917,368.003 243.5,371.5C 240.167,375.167 236.833,378.833 233.5,382.5C 230.112,379.403 227.445,375.736 225.5,371.5C 228.833,367.5 232.5,363.833 236.5,360.5 Z"/></g>
<g><path style="opacity:0.97" fill="#eda331" d="M 93.5,367.5 C 99.5,367.5 105.5,367.5 111.5,367.5C 106.771,372.224 102.437,377.224 98.5,382.5C 91.1667,382.5 83.8333,382.5 76.5,382.5C 82.4403,377.898 88.107,372.898 93.5,367.5 Z"/></g>
<g><path style="opacity:0.975" fill="#a8b69d" d="M 243.5,371.5 C 246.471,374.808 249.471,378.141 252.5,381.5C 249.167,385.167 245.833,388.833 242.5,392.5C 238.788,389.789 235.788,386.456 233.5,382.5C 236.833,378.833 240.167,375.167 243.5,371.5 Z"/></g>
<g><path style="opacity:0.924" fill="#fea01a" d="M 31.5,349.5 C 31.5,364.833 31.5,380.167 31.5,395.5C 36.5,395.5 41.5,395.5 46.5,395.5C 41.1937,400.14 36.1937,405.14 31.5,410.5C 27.8183,410.665 24.1516,410.499 20.5,410C 19.3333,408.833 18.1667,407.667 17,406.5C 16.5001,390.503 16.3334,374.503 16.5,358.5C 17.29,359.609 17.79,360.942 18,362.5C 22.3688,357.963 26.8688,353.63 31.5,349.5 Z"/></g>
<g><path style="opacity:0.969" fill="#9cb9ae" d="M 252.5,381.5 C 258.029,385.758 263.695,389.758 269.5,393.5C 265.5,396.833 261.833,400.5 258.5,404.5C 252.77,400.975 247.437,396.975 242.5,392.5C 245.833,388.833 249.167,385.167 252.5,381.5 Z"/></g>
<g><path style="opacity:0.939" fill="#e0a745" d="M 108.5,395.5 C 104.563,400.776 100.229,405.776 95.5,410.5C 86.4983,411.006 83.3317,407.006 86,398.5C 86.9025,397.299 88.0692,396.465 89.5,396C 95.8246,395.5 102.158,395.334 108.5,395.5 Z"/></g>
<g><path style="opacity:0.95" fill="#d8a952" d="M 108.5,395.5 C 114.833,395.5 121.167,395.5 127.5,395.5C 123.563,400.776 119.229,405.776 114.5,410.5C 108.167,410.5 101.833,410.5 95.5,410.5C 100.229,405.776 104.563,400.776 108.5,395.5 Z"/></g>
<g><path style="opacity:0.93" fill="#d0ab5e" d="M 127.5,395.5 C 133.167,395.5 138.833,395.5 144.5,395.5C 144.611,396.117 144.944,396.617 145.5,397C 140.963,401.369 136.63,405.869 132.5,410.5C 126.5,410.5 120.5,410.5 114.5,410.5C 119.229,405.776 123.563,400.776 127.5,395.5 Z"/></g>
<g><path style="opacity:0.942" fill="#c0af77" d="M 166.5,395.5 C 171.5,395.5 176.5,395.5 181.5,395.5C 177.563,400.776 173.229,405.776 168.5,410.5C 162.833,410.5 157.167,410.5 151.5,410.5C 156.194,405.14 161.194,400.14 166.5,395.5 Z"/></g>
<g><path style="opacity:0.928" fill="#b7b286" d="M 205.5,371.5 C 209.466,377.811 213.466,384.144 217.5,390.5C 216.761,390.369 216.094,390.536 215.5,391C 208.904,397.09 202.904,403.59 197.5,410.5C 187.833,410.5 178.167,410.5 168.5,410.5C 173.229,405.776 177.563,400.776 181.5,395.5C 188.508,395.666 195.508,395.5 202.5,395C 199.941,391.281 197.608,387.448 195.5,383.5C 199.233,379.773 202.566,375.773 205.5,371.5 Z"/></g>
<g><path style="opacity:0.957" fill="#abb698" d="M 217.5,390.5 C 221.805,395.141 226.139,399.807 230.5,404.5C 226.859,407.805 223.192,411.138 219.5,414.5C 218.038,413.542 216.705,412.376 215.5,411C 209.509,410.501 203.509,410.334 197.5,410.5C 202.904,403.59 208.904,397.09 215.5,391C 216.094,390.536 216.761,390.369 217.5,390.5 Z"/></g>
<g><path style="opacity:0.96" fill="#f3a128" d="M 46.5,395.5 C 51.2973,395.121 55.964,395.621 60.5,397C 64.6459,401.625 64.3125,405.959 59.5,410C 50.1726,410.5 40.8393,410.666 31.5,410.5C 36.1937,405.14 41.1937,400.14 46.5,395.5 Z"/></g>
<g><path style="opacity:0.971" fill="#c8ad6b" d="M 144.5,395.5 C 151.833,395.5 159.167,395.5 166.5,395.5C 161.194,400.14 156.194,405.14 151.5,410.5C 145.167,410.5 138.833,410.5 132.5,410.5C 136.63,405.869 140.963,401.369 145.5,397C 144.944,396.617 144.611,396.117 144.5,395.5 Z"/></g>
<g><path style="opacity:0.957" fill="#8fbec5" d="M 269.5,393.5 C 278.127,397.375 287.127,400.042 296.5,401.5C 292.435,405.559 288.768,409.893 285.5,414.5C 275.901,412.745 266.901,409.412 258.5,404.5C 261.833,400.5 265.5,396.833 269.5,393.5 Z"/></g>
<g><path style="opacity:0.951" fill="#82c1d7" d="M 322.5,400.5 C 318.199,406.469 313.199,411.802 307.5,416.5C 300.023,416.847 292.69,416.181 285.5,414.5C 288.768,409.893 292.435,405.559 296.5,401.5C 305.195,401.673 313.862,401.34 322.5,400.5 Z"/></g>
<g><path style="opacity:0.977" fill="#9dbaaf" d="M 230.5,404.5 C 235.524,408.53 240.524,412.53 245.5,416.5C 242.167,420.167 238.833,423.833 235.5,427.5C 229.562,423.894 224.229,419.561 219.5,414.5C 223.192,411.138 226.859,407.805 230.5,404.5 Z"/></g>
<g><path style="opacity:0.978" fill="#77c4ea" d="M 408.5,418.5 C 410.086,419.148 411.753,419.648 413.5,420C 429,435.5 444.5,451 460,466.5C 462.925,477.239 459.092,480.739 448.5,477C 433.333,461.833 418.167,446.667 403,431.5C 399.981,424.888 401.814,420.555 408.5,418.5 Z"/></g>
<g><path style="opacity:0.955" fill="#8fbec5" d="M 245.5,416.5 C 253.75,420.793 262.083,424.793 270.5,428.5C 266.102,431.895 262.436,435.895 259.5,440.5C 251.015,437.004 243.015,432.671 235.5,427.5C 238.833,423.833 242.167,420.167 245.5,416.5 Z"/></g>
<g><path style="opacity:0.955" fill="#7ec2de" d="M 270.5,428.5 C 279.641,431.195 288.974,432.861 298.5,433.5C 298.918,434.222 299.584,434.722 300.5,435C 296.296,439.036 292.296,443.202 288.5,447.5C 278.563,446.266 268.896,443.932 259.5,440.5C 262.436,435.895 266.102,431.895 270.5,428.5 Z"/></g>
</svg>
