<?xml version="1.0" encoding="UTF-8"?>
<!DOCTYPE svg PUBLIC "-//W3C//DTD SVG 1.1//EN" "http://www.w3.org/Graphics/SVG/1.1/DTD/svg11.dtd">
<svg xmlns="http://www.w3.org/2000/svg" version="1.1" width="1275px" height="283px" style="shape-rendering:geometricPrecision; text-rendering:geometricPrecision; image-rendering:optimizeQuality; fill-rule:evenodd; clip-rule:evenodd" xmlns:xlink="http://www.w3.org/1999/xlink">
<g><path style="opacity:1" fill="#718f3f" d="M 117.5,133.5 C 91.2827,120.056 65.616,105.556 40.5,90C 36.5562,87.8585 32.5562,86.0252 28.5,84.5C 29.9568,82.2152 31.9568,80.3819 34.5,79C 62.75,61.9589 90.9167,44.7922 119,27.5C 119.5,28 120,28.5 120.5,29C 119.506,63.8335 118.506,98.6669 117.5,133.5 Z"/></g>
<g><path style="opacity:0.994" fill="#1e4693" d="M 364.5,113.5 C 341.343,129.137 318.01,144.637 294.5,160C 289.059,163.717 283.392,166.884 277.5,169.5C 276.833,169.5 276.167,169.5 275.5,169.5C 228.533,144.684 181.866,119.35 135.5,93.5C 162.62,73.7668 189.953,54.2668 217.5,35C 267.018,60.0937 316.018,86.2603 364.5,113.5 Z"/></g>
<g><path style="opacity:0.983" fill="#fe9e16" d="M 28.5,84.5 C 32.5562,86.0252 36.5562,87.8585 40.5,90C 65.616,105.556 91.2827,120.056 117.5,133.5C 117.5,133.833 117.5,134.167 117.5,134.5C 88.1667,151.833 58.8333,169.167 29.5,186.5C 28.5017,152.671 28.1683,118.671 28.5,84.5 Z"/></g>
<g><path style="opacity:0.973" fill="#1e4693" d="M 773.5,88.5 C 786.246,86.96 798.246,89.1267 809.5,95C 819.338,101.509 824.338,110.675 824.5,122.5C 817.167,122.5 809.833,122.5 802.5,122.5C 802.893,117.175 800.893,113.009 796.5,110C 786.938,105.132 777.604,105.465 768.5,111C 760.406,120.95 762.406,128.283 774.5,133C 786.153,135.745 797.486,139.412 808.5,144C 826.049,154.391 830.549,168.891 822,187.5C 814.361,197.574 804.194,203.408 791.5,205C 776.099,207.216 762.099,203.883 749.5,195C 742.107,187.714 738.44,178.88 738.5,168.5C 745.532,168.17 752.532,168.503 759.5,169.5C 760.95,178.117 765.95,183.284 774.5,185C 783.354,186.597 791.687,185.264 799.5,181C 806.747,169.415 803.747,161.748 790.5,158C 776.062,155.732 762.729,150.732 750.5,143C 739.867,130.793 738.701,117.626 747,103.5C 754.537,95.9873 763.371,90.9873 773.5,88.5 Z"/></g>
<g><path style="opacity:0.987" fill="#1d4593" d="M 837.5,89.5 C 867.5,89.5 897.5,89.5 927.5,89.5C 927.5,95.8333 927.5,102.167 927.5,108.5C 916.167,108.5 904.833,108.5 893.5,108.5C 893.5,140.167 893.5,171.833 893.5,203.5C 886.167,203.5 878.833,203.5 871.5,203.5C 871.5,171.833 871.5,140.167 871.5,108.5C 860.167,108.5 848.833,108.5 837.5,108.5C 837.5,102.167 837.5,95.8333 837.5,89.5 Z"/></g>
<g><path style="opacity:0.982" fill="#1e4693" d="M 529.5,89.5 C 547.875,89.0824 566.208,89.5824 584.5,91C 608.126,97.7299 617.292,113.23 612,137.5C 608.877,147.451 602.711,154.784 593.5,159.5C 602.233,173.633 609.899,188.299 616.5,203.5C 608.472,203.831 600.472,203.498 592.5,202.5C 585.754,189.341 578.754,176.341 571.5,163.5C 564.866,162.503 558.2,162.17 551.5,162.5C 551.5,176.167 551.5,189.833 551.5,203.5C 544.5,203.5 537.5,203.5 530.5,203.5C 530.821,165.457 530.488,127.457 529.5,89.5 Z M 551.5,108.5 C 560.173,108.334 568.84,108.5 577.5,109C 588.193,112.204 592.359,119.37 590,130.5C 589.331,137.505 585.497,141.672 578.5,143C 569.589,143.181 560.755,143.681 552,144.5C 551.5,132.505 551.333,120.505 551.5,108.5 Z"/></g>
<g><path style="opacity:0.965" fill="#1e4693" d="M 423.5,89.5 C 453.833,89.5 484.167,89.5 514.5,89.5C 514.5,95.8333 514.5,102.167 514.5,108.5C 503.167,108.5 491.833,108.5 480.5,108.5C 480.5,140.167 480.5,171.833 480.5,203.5C 473.167,203.5 465.833,203.5 458.5,203.5C 458.5,171.833 458.5,140.167 458.5,108.5C 446.833,108.5 435.167,108.5 423.5,108.5C 423.5,102.167 423.5,95.8333 423.5,89.5 Z"/></g>
<g><path style="opacity:0.98" fill="#1e4693" d="M 630.5,89.5 C 637.5,89.5 644.5,89.5 651.5,89.5C 651.045,116.21 651.545,142.876 653,169.5C 657.039,179.849 664.705,185.182 676,185.5C 686.9,185.238 694.566,180.238 699,170.5C 700.465,143.551 700.965,116.551 700.5,89.5C 707.833,89.5 715.167,89.5 722.5,89.5C 722.667,116.169 722.5,142.835 722,169.5C 716.255,193.051 701.088,205.051 676.5,205.5C 656.708,206.03 642.208,197.697 633,180.5C 632.178,178.212 631.511,175.878 631,173.5C 630.5,145.502 630.333,117.502 630.5,89.5 Z"/></g>
<g><path style="opacity:0.986" fill="#1e4693" d="M 943.5,89.5 C 968.167,89.5 992.833,89.5 1017.5,89.5C 1017.5,95.8333 1017.5,102.167 1017.5,108.5C 1000.17,108.5 982.833,108.5 965.5,108.5C 965.5,118.167 965.5,127.833 965.5,137.5C 981.833,137.5 998.167,137.5 1014.5,137.5C 1014.81,143.758 1014.48,149.924 1013.5,156C 997.503,156.5 981.503,156.667 965.5,156.5C 965.5,165.833 965.5,175.167 965.5,184.5C 982.837,184.333 1000.17,184.5 1017.5,185C 1018.83,191 1018.83,197 1017.5,203C 992.836,203.5 968.169,203.667 943.5,203.5C 943.5,165.5 943.5,127.5 943.5,89.5 Z"/></g>
<g><path style="opacity:0.988" fill="#1e4693" d="M 1036.5,89.5 C 1061.17,89.3334 1085.84,89.5 1110.5,90C 1111.48,96.0758 1111.81,102.242 1111.5,108.5C 1093.83,108.5 1076.17,108.5 1058.5,108.5C 1058.5,118.167 1058.5,127.833 1058.5,137.5C 1074.83,137.5 1091.17,137.5 1107.5,137.5C 1107.81,143.758 1107.48,149.924 1106.5,156C 1090.5,156.5 1074.5,156.667 1058.5,156.5C 1058.5,165.833 1058.5,175.167 1058.5,184.5C 1076.17,184.5 1093.83,184.5 1111.5,184.5C 1111.5,190.833 1111.5,197.167 1111.5,203.5C 1086.5,203.5 1061.5,203.5 1036.5,203.5C 1036.5,165.5 1036.5,127.5 1036.5,89.5 Z"/></g>
<g><path style="opacity:0.999" fill="#77c4e9" d="M 363.5,222.5 C 334.833,204.833 306.167,187.167 277.5,169.5C 283.392,166.884 289.059,163.717 294.5,160C 318.01,144.637 341.343,129.137 364.5,113.5C 365.496,113.586 366.329,113.252 367,112.5C 366.339,149.289 365.173,185.956 363.5,222.5 Z"/></g>
<g><path style="opacity:1" fill="#fed457" d="M 117.5,134.5 C 144.786,151.816 171.786,169.649 198.5,188C 213.463,197.971 228.129,208.304 242.5,219C 214.286,237.534 185.786,255.701 157,273.5C 114.174,244.848 71.674,215.848 29.5,186.5C 58.8333,169.167 88.1667,151.833 117.5,134.5 Z"/></g>
<g><path style="opacity:0.982" fill="#fe9e16" d="M 275.5,169.5 C 276.167,169.5 276.833,169.5 277.5,169.5C 306.167,187.167 334.833,204.833 363.5,222.5C 332.44,238.363 301.106,253.697 269.5,268.5C 270.878,235.408 272.878,202.408 275.5,169.5 Z"/></g>
</svg>
