<?xml version="1.0" encoding="UTF-8"?>
<!DOCTYPE svg PUBLIC "-//W3C//DTD SVG 1.1//EN" "http://www.w3.org/Graphics/SVG/1.1/DTD/svg11.dtd">
<svg xmlns="http://www.w3.org/2000/svg" version="1.1" width="300px" height="216px" style="shape-rendering:geometricPrecision; text-rendering:geometricPrecision; image-rendering:optimizeQuality; fill-rule:evenodd; clip-rule:evenodd" xmlns:xlink="http://www.w3.org/1999/xlink">
<g><path style="opacity:0.956" fill="#718f3f" d="M 76.5,-0.5 C 77.8333,-0.5 79.1667,-0.5 80.5,-0.5C 79.8333,30.5 79.1667,61.5 78.5,92.5C 76.6916,92.5086 75.0249,92.0086 73.5,91C 48.9416,76.557 24.275,62.3903 -0.5,48.5C -0.5,47.8333 -0.5,47.1667 -0.5,46.5C 25.675,31.5832 51.3416,15.9166 76.5,-0.5 Z"/></g>
<g><path style="opacity:0.967" fill="#1e4693" d="M 299.5,74.5 C 299.5,74.8333 299.5,75.1667 299.5,75.5C 272.624,91.4309 246.29,108.098 220.5,125.5C 177.706,103.271 135.373,80.2713 93.5,56.5C 118.326,38.9201 143.326,21.5867 168.5,4.5C 212.352,27.5914 256.019,50.9247 299.5,74.5 Z"/></g>
<g><path style="opacity:0.998" fill="#fe9e16" d="M -0.5,48.5 C 24.275,62.3903 48.9416,76.557 73.5,91C 75.0249,92.0086 76.6916,92.5086 78.5,92.5C 53.4518,108.204 27.7852,123.204 1.5,137.5C 0.702451,137.957 0.369118,138.624 0.5,139.5C 0.166667,139.5 -0.166667,139.5 -0.5,139.5C -0.5,109.167 -0.5,78.8333 -0.5,48.5 Z"/></g>
<g><path style="opacity:0.983" fill="#77c4e8" d="M 299.5,75.5 C 299.5,97.8333 299.5,120.167 299.5,142.5C 298.833,152.167 298.167,161.833 297.5,171.5C 286.4,164.108 275.067,156.941 263.5,150C 249.261,141.578 234.928,133.411 220.5,125.5C 246.29,108.098 272.624,91.4309 299.5,75.5 Z"/></g>
<g><path style="opacity:0.968" fill="#ffd356" d="M 78.5,92.5 C 115.952,117.445 153.285,142.612 190.5,168C 165.599,183.608 140.932,199.442 116.5,215.5C 114.5,215.5 112.5,215.5 110.5,215.5C 73.8333,190.167 37.1667,164.833 0.5,139.5C 0.369118,138.624 0.702451,137.957 1.5,137.5C 27.7852,123.204 53.4518,108.204 78.5,92.5 Z"/></g>
<g><path style="opacity:0.951" fill="#fe9e17" d="M 220.5,125.5 C 234.928,133.411 249.261,141.578 263.5,150C 275.067,156.941 286.4,164.108 297.5,171.5C 270.408,185.713 243.075,199.379 215.5,212.5C 216.815,183.476 218.482,154.476 220.5,125.5 Z"/></g>
</svg>
