<?xml version="1.0" encoding="UTF-8"?>
<!DOCTYPE svg PUBLIC "-//W3C//DTD SVG 1.1//EN" "http://www.w3.org/Graphics/SVG/1.1/DTD/svg11.dtd">
<svg xmlns="http://www.w3.org/2000/svg" version="1.1" width="3476px" height="782px" style="shape-rendering:geometricPrecision; text-rendering:geometricPrecision; image-rendering:optimizeQuality; fill-rule:evenodd; clip-rule:evenodd" xmlns:xlink="http://www.w3.org/1999/xlink">
<g><path style="opacity:0.993" fill="#718f3f" d="M 287.5,-0.5 C 288.167,-0.5 288.833,-0.5 289.5,-0.5C 286.82,112.154 284.487,224.821 282.5,337.5C 281.127,337.657 279.793,337.49 278.5,337C 185.728,282.952 92.7281,229.452 -0.5,176.5C -0.5,175.833 -0.5,175.167 -0.5,174.5C 95.841,116.666 191.841,58.3325 287.5,-0.5 Z"/></g>
<g><path style="opacity:0.994" fill="#1e4693" d="M 1081.5,274.5 C 1062.22,286.478 1042.56,297.978 1022.5,309C 948.102,357.524 873.768,406.024 799.5,454.5C 799.167,454.5 798.833,454.5 798.5,454.5C 646.026,372.43 493.693,290.096 341.5,207.5C 429.288,145.766 517.288,84.2662 605.5,23C 607.044,21.8129 608.711,21.4795 610.5,22C 767.845,105.67 924.845,189.837 1081.5,274.5 Z"/></g>
<g><path style="opacity:0.997" fill="#fe9e16" d="M -0.5,176.5 C 92.7281,229.452 185.728,282.952 278.5,337C 279.793,337.49 281.127,337.657 282.5,337.5C 283.167,338.167 283.833,338.833 284.5,339.5C 198.891,390.205 112.558,440.039 25.5,489C 17.8333,493.5 10.1667,498 2.5,502.5C 1.70245,502.957 1.36912,503.624 1.5,504.5C 0.833333,504.5 0.166667,504.5 -0.5,504.5C -0.5,395.167 -0.5,285.833 -0.5,176.5 Z"/></g>
<g><path style="opacity:0.978" fill="#1d4592" d="M 2410.5,192.5 C 2445.76,189.982 2478.43,197.816 2508.5,216C 2536.9,235.637 2551.57,262.804 2552.5,297.5C 2531.17,297.5 2509.83,297.5 2488.5,297.5C 2485.42,274.576 2472.75,259.742 2450.5,253C 2429.29,247.793 2408.29,248.46 2387.5,255C 2359.56,268.011 2351.73,288.511 2364,316.5C 2376.75,329.797 2392.25,338.297 2410.5,342C 2427.78,346.537 2445.11,350.87 2462.5,355C 2488.96,362.143 2512.46,374.643 2533,392.5C 2556.03,419.281 2563.03,449.947 2554,484.5C 2547.75,506.741 2535.25,524.574 2516.5,538C 2487.17,556.167 2455.17,564.667 2420.5,563.5C 2387.19,564.475 2356.19,556.642 2327.5,540C 2296.66,518.409 2280.99,488.575 2280.5,450.5C 2302.5,450.5 2324.5,450.5 2346.5,450.5C 2348.53,475.683 2361.53,492.517 2385.5,501C 2412.85,509.529 2439.52,507.862 2465.5,496C 2490.02,481.495 2496.52,461.328 2485,435.5C 2473.12,422.858 2458.62,414.691 2441.5,411C 2416.83,404.333 2392.17,397.667 2367.5,391C 2345.86,383.438 2326.69,371.938 2310,356.5C 2292.06,333.41 2286.06,307.41 2292,278.5C 2300.55,244.918 2320.72,221.085 2352.5,207C 2371.09,198.685 2390.43,193.851 2410.5,192.5 Z"/></g>
<g><path style="opacity:0.983" fill="#1d4592" d="M 1611.5,197.5 C 1661.83,197.333 1712.17,197.5 1762.5,198C 1793.19,199.667 1820.03,210.5 1843,230.5C 1860.32,249.472 1870.32,271.805 1873,297.5C 1876.73,327.869 1870.4,355.869 1854,381.5C 1842.1,396.727 1827.27,408.227 1809.5,416C 1835.53,462.561 1861.2,509.394 1886.5,556.5C 1861.83,557.833 1837.17,557.833 1812.5,556.5C 1789.29,513.254 1765.96,470.087 1742.5,427C 1720.84,426.5 1699.17,426.333 1677.5,426.5C 1677.5,470.167 1677.5,513.833 1677.5,557.5C 1655.5,557.5 1633.5,557.5 1611.5,557.5C 1611.5,437.5 1611.5,317.5 1611.5,197.5 Z M 1677.5,253.5 C 1702.17,253.333 1726.84,253.5 1751.5,254C 1787.43,257.756 1805.43,277.589 1805.5,313.5C 1806.22,344.233 1791.55,362.733 1761.5,369C 1755.87,369.966 1750.2,370.633 1744.5,371C 1722.17,371.5 1699.84,371.667 1677.5,371.5C 1677.5,332.167 1677.5,292.833 1677.5,253.5 Z"/></g>
<g><path style="opacity:0.98" fill="#1e4592" d="M 1270.5,197.5 C 1366.17,197.5 1461.83,197.5 1557.5,197.5C 1557.5,216.167 1557.5,234.833 1557.5,253.5C 1520.5,253.5 1483.5,253.5 1446.5,253.5C 1446.5,354.833 1446.5,456.167 1446.5,557.5C 1424.5,557.5 1402.5,557.5 1380.5,557.5C 1380.5,456.167 1380.5,354.833 1380.5,253.5C 1343.83,253.5 1307.17,253.5 1270.5,253.5C 1270.5,234.833 1270.5,216.167 1270.5,197.5 Z"/></g>
<g><path style="opacity:0.983" fill="#1d4592" d="M 1932.5,197.5 C 1954.5,197.5 1976.5,197.5 1998.5,197.5C 1998.33,278.167 1998.5,358.834 1999,439.5C 2005.76,476.258 2027.59,497.425 2064.5,503C 2095.13,507.679 2120.97,498.846 2142,476.5C 2152.1,462.882 2157.43,447.548 2158,430.5C 2158.5,352.834 2158.67,275.167 2158.5,197.5C 2180.5,197.5 2202.5,197.5 2224.5,197.5C 2224.67,279.167 2224.5,360.834 2224,442.5C 2218.81,497.676 2190.31,534.843 2138.5,554C 2094.35,567.689 2050.68,566.355 2007.5,550C 1964.67,530.854 1939.83,498.02 1933,451.5C 1932.5,366.834 1932.33,282.167 1932.5,197.5 Z"/></g>
<g><path style="opacity:0.981" fill="#1e4592" d="M 2598.5,197.5 C 2694.17,197.5 2789.83,197.5 2885.5,197.5C 2885.5,216.167 2885.5,234.833 2885.5,253.5C 2848.5,253.5 2811.5,253.5 2774.5,253.5C 2774.5,354.833 2774.5,456.167 2774.5,557.5C 2752.59,557.827 2730.76,557.494 2709,556.5C 2708.5,455.501 2708.33,354.501 2708.5,253.5C 2671.83,253.5 2635.17,253.5 2598.5,253.5C 2598.5,234.833 2598.5,216.167 2598.5,197.5 Z"/></g>
<g><path style="opacity:0.982" fill="#1e4592" d="M 2939.5,197.5 C 3017.83,197.5 3096.17,197.5 3174.5,197.5C 3174.5,216.167 3174.5,234.833 3174.5,253.5C 3118.17,253.5 3061.83,253.5 3005.5,253.5C 3005.5,285.5 3005.5,317.5 3005.5,349.5C 3057.83,349.5 3110.17,349.5 3162.5,349.5C 3162.5,368.167 3162.5,386.833 3162.5,405.5C 3110.17,405.5 3057.83,405.5 3005.5,405.5C 3005.5,437.833 3005.5,470.167 3005.5,502.5C 3062.17,502.5 3118.83,502.5 3175.5,502.5C 3175.5,520.833 3175.5,539.167 3175.5,557.5C 3096.83,557.5 3018.17,557.5 2939.5,557.5C 2939.5,437.5 2939.5,317.5 2939.5,197.5 Z"/></g>
<g><path style="opacity:0.985" fill="#1e4592" d="M 3475.5,502.5 C 3475.5,520.833 3475.5,539.167 3475.5,557.5C 3396.83,557.5 3318.17,557.5 3239.5,557.5C 3239.5,437.5 3239.5,317.5 3239.5,197.5C 3317.5,197.5 3395.5,197.5 3473.5,197.5C 3473.5,216.167 3473.5,234.833 3473.5,253.5C 3417.5,253.5 3361.5,253.5 3305.5,253.5C 3305.5,285.5 3305.5,317.5 3305.5,349.5C 3357.5,349.5 3409.5,349.5 3461.5,349.5C 3461.5,368.167 3461.5,386.833 3461.5,405.5C 3409.5,405.5 3357.5,405.5 3305.5,405.5C 3305.5,437.833 3305.5,470.167 3305.5,502.5C 3362.17,502.5 3418.83,502.5 3475.5,502.5 Z"/></g>
<g><path style="opacity:0.997" fill="#77c4e9" d="M 1081.5,274.5 C 1082.17,278.319 1082.5,282.319 1082.5,286.5C 1079.95,397.163 1077.62,507.829 1075.5,618.5C 983.5,563.833 891.5,509.167 799.5,454.5C 873.768,406.024 948.102,357.524 1022.5,309C 1042.56,297.978 1062.22,286.478 1081.5,274.5 Z"/></g>
<g><path style="opacity:0.994" fill="#ffd356" d="M 284.5,339.5 C 415.471,427.323 546.471,515.157 677.5,603C 680.255,604.711 682.589,606.878 684.5,609.5C 593.805,666.844 503.139,724.177 412.5,781.5C 411.5,781.5 410.5,781.5 409.5,781.5C 273.846,688.672 137.846,596.339 1.5,504.5C 1.36912,503.624 1.70245,502.957 2.5,502.5C 10.1667,498 17.8333,493.5 25.5,489C 112.558,440.039 198.891,390.205 284.5,339.5 Z"/></g>
<g><path style="opacity:0.991" fill="#fe9e16" d="M 798.5,454.5 C 798.833,454.5 799.167,454.5 799.5,454.5C 891.5,509.167 983.5,563.833 1075.5,618.5C 977.592,668.455 879.592,718.455 781.5,768.5C 781.167,766.333 780.833,764.167 780.5,762C 787.106,659.534 793.106,557.034 798.5,454.5 Z"/></g>
</svg>