<?xml version="1.0" encoding="utf-8"?>
<!-- Svg Vector Icons : http://www.onlinewebfonts.com/icon -->
<!DOCTYPE svg PUBLIC "-//W3C//DTD SVG 1.1//EN" "http://www.w3.org/Graphics/SVG/1.1/DTD/svg11.dtd">
<svg version="1.1" xmlns="http://www.w3.org/2000/svg" xmlns:xlink="http://www.w3.org/1999/xlink" x="0px" y="0px" viewBox="0 0 256 256" enable-background="new 0 0 256 256" xml:space="preserve">
<metadata> Svg Vector Icons : http://www.onlinewebfonts.com/icon </metadata>
<g><g><g><path fill="#000000" d="M38.9,35L10,64.2v93.1v93h70h70.1l1.5-1.5c2-2,2-4.8,0-6.7l-1.5-1.5H84.9H19.8v-84.7V71.1h27.5h27.5V43.3V15.5h61.5h61.5v42.2v42.3l1.5,1.5c2.4,2.4,5.9,1.8,7.5-1.3c0.6-1,0.7-13.6,0.7-47.8V5.7l-69.8,0.1L67.8,5.8L38.9,35z M64.8,61.2c-0.1,0.1-8.7,0.1-19,0.1L27.2,61L46,41.8l18.8-19.2l0.2,19.1C65,52.3,65,61,64.8,61.2z"/><path fill="#000000" d="M181.2,140c-11.6,10-21.2,18.5-21.5,18.8c-0.8,1.2-0.5,4.3,0.4,5.7c1.1,1.6,3.4,2.2,5.3,1.5c0.8-0.4,8.3-6.5,16.7-13.8l15.3-13.2l0.3,54.5L198,248l1.5,1.2c1.8,1.5,4.4,1.5,6.1-0.1c0.7-0.7,1.4-1.3,1.5-1.4c0.1-0.1,0.3-24.5,0.5-54.4l0.3-54.2l15.5,13.3c8.5,7.3,16.1,13.5,17,13.7c3.6,0.9,6.8-3,5.4-6.7c-0.2-0.6-8.1-7.7-17.6-15.8c-9.4-8.2-19-16.4-21.2-18.3c-2.2-2-4.2-3.5-4.3-3.5C202.4,121.9,192.7,130,181.2,140z"/></g></g></g>
</svg>