<?xml version="1.0" encoding="utf-8"?>
<!-- Svg Vector Icons : http://www.onlinewebfonts.com/icon -->
<!DOCTYPE svg PUBLIC "-//W3C//DTD SVG 1.1//EN" "http://www.w3.org/Graphics/SVG/1.1/DTD/svg11.dtd">
<svg version="1.1" xmlns="http://www.w3.org/2000/svg" xmlns:xlink="http://www.w3.org/1999/xlink" x="0px" y="0px" viewBox="0 0 256 256" enable-background="new 0 0 256 256" xml:space="preserve">
<metadata> Svg Vector Icons : http://www.onlinewebfonts.com/icon </metadata>
<g><g><g><path fill="#1f4593" d="M124,10.6c-1.1,0.3-2.9,1.2-3.9,1.8C119,13,107.6,24.1,94.8,37C68.5,63.3,69.3,62.4,69.2,68.9c0,5.9,3,10.8,8.5,13.3c2.5,1.2,3,1.2,11.7,1.3l9.1,0.2v7.3v7.3H76.4H54.3l-22.1,44.3L10,186.9v29.5v29.5h118h118v-29.5v-29.5l-22.1-44.3l-22.1-44.3h-22.1h-22.1v-7.3v-7.3l9.1-0.2c8.7-0.1,9.2-0.2,11.7-1.3c3.1-1.5,5.5-3.8,7.2-7c1.1-2.1,1.2-3,1.2-6.3c0-6.5,0.6-5.8-26-32.4c-20.3-20.4-23.7-23.6-26.2-24.8C131.2,10,127,9.6,124,10.6z M150.4,46.8l22.1,22.1h-14.9h-14.8v22.1v22.1H128h-14.8V91.1V68.9H98.4H83.5l22.1-22.1c12.2-12.2,22.2-22.1,22.4-22.1S138.2,34.7,150.4,46.8z M98.7,115.4c0.7,4.7,4,9,8.5,11.2l2.6,1.2H128h18.2l2.6-1.2c4.5-2.1,7.8-6.5,8.5-11.3l0.3-2h17.6h17.6l14.7,29.3c8,16.1,14.6,29.4,14.6,29.5c0,0.1-42.3,0.2-94,0.2s-94-0.1-94-0.2c0-0.1,6.6-13.4,14.6-29.5l14.7-29.3h17.6h17.6L98.7,115.4z M231.3,209.1v22.1H128H24.8v-22.1v-22.1H128h103.3V209.1z"/><path fill="#1f4593" d="M187,209.1v7.4h14.8h14.8v-7.4v-7.4h-14.8H187V209.1z"/></g></g></g>
</svg>