<?xml version="1.0" encoding="UTF-8"?>
<!DOCTYPE svg PUBLIC "-//W3C//DTD SVG 1.1//EN" "http://www.w3.org/Graphics/SVG/1.1/DTD/svg11.dtd">
<svg xmlns="http://www.w3.org/2000/svg" version="1.1" width="512px" height="512px" style="shape-rendering:geometricPrecision; text-rendering:geometricPrecision; image-rendering:optimizeQuality; fill-rule:evenodd; clip-rule:evenodd" xmlns:xlink="http://www.w3.org/1999/xlink">
<g><path style="opacity:0.982" fill="#1f4693" d="M 135.5,-0.5 C 142.167,-0.5 148.833,-0.5 155.5,-0.5C 181.897,8.26823 193.73,26.6016 191,54.5C 181.64,85.2718 161.14,97.1052 129.5,90C 104.772,79.0478 94.9391,60.2145 100,33.5C 105.553,15.4434 117.387,4.11008 135.5,-0.5 Z M 144.5,29.5 C 158.974,32.4475 163.474,40.7809 158,54.5C 149.333,63.8333 140.667,63.8333 132,54.5C 127.167,41.4978 131.334,33.1645 144.5,29.5 Z"/></g>
<g><path style="opacity:0.983" fill="#1f4693" d="M 355.5,-0.5 C 362.167,-0.5 368.833,-0.5 375.5,-0.5C 402.012,7.55347 414.178,25.5535 412,53.5C 406.145,77.6894 390.811,90.6894 366,92.5C 348.681,92.1783 335.348,84.845 326,70.5C 314.399,47.3161 317.899,26.8161 336.5,9C 342.368,4.73262 348.701,1.56595 355.5,-0.5 Z M 365.5,29.5 C 379.427,32.6851 383.927,41.0184 379,54.5C 370.333,63.8333 361.667,63.8333 353,54.5C 347.618,41.2641 351.784,32.9307 365.5,29.5 Z"/></g>
<g><path style="opacity:0.979" fill="#1f4593" d="M 247.5,69.5 C 271.586,67.122 288.752,76.7886 299,98.5C 301.357,105.645 302.524,112.978 302.5,120.5C 352.833,120.5 403.167,120.5 453.5,120.5C 453.667,148.169 453.5,175.835 453,203.5C 408,241.5 363,279.5 318,317.5C 317.5,343.498 317.333,369.498 317.5,395.5C 276.167,395.5 234.833,395.5 193.5,395.5C 193.667,369.498 193.5,343.498 193,317.5C 148,279.5 103,241.5 58,203.5C 57.5,175.835 57.3334,148.169 57.5,120.5C 107.833,120.5 158.167,120.5 208.5,120.5C 208.419,93.2726 221.419,76.2726 247.5,69.5 Z M 250.5,100.5 C 264.445,99.4485 271.112,105.782 270.5,119.5C 260.5,120.833 250.5,120.833 240.5,119.5C 239.337,110.827 242.67,104.493 250.5,100.5 Z M 88.5,151.5 C 199.833,151.5 311.167,151.5 422.5,151.5C 422.5,161.167 422.5,170.833 422.5,180.5C 311.167,180.5 199.833,180.5 88.5,180.5C 88.5,170.833 88.5,161.167 88.5,151.5 Z M 116.5,212.5 C 208.999,211.334 301.666,211.168 394.5,212C 358.759,242.286 322.926,272.452 287,302.5C 286.5,323.164 286.333,343.831 286.5,364.5C 265.833,364.5 245.167,364.5 224.5,364.5C 224.667,343.831 224.5,323.164 224,302.5C 188.586,271.913 152.753,241.913 116.5,212.5 Z"/></g>
<g><path style="opacity:0.983" fill="#1f4693" d="M 265.5,511.5 C 258.833,511.5 252.167,511.5 245.5,511.5C 216.421,501.361 204.921,481.028 211,450.5C 218.965,430.378 233.799,419.712 255.5,418.5C 281.93,420.431 297.43,434.431 302,460.5C 302.541,486.796 290.375,503.796 265.5,511.5 Z M 251.5,449.5 C 267.877,449.942 273.711,457.942 269,473.5C 262.705,480.914 255.205,482.414 246.5,478C 237.703,470.011 237.37,461.678 245.5,453C 247.727,452.059 249.727,450.892 251.5,449.5 Z"/></g>
</svg>
