<?xml version="1.0" encoding="UTF-8"?>
<!DOCTYPE svg PUBLIC "-//W3C//DTD SVG 1.1//EN" "http://www.w3.org/Graphics/SVG/1.1/DTD/svg11.dtd">
<svg xmlns="http://www.w3.org/2000/svg" version="1.1" width="444px" height="384px" style="shape-rendering:geometricPrecision; text-rendering:geometricPrecision; image-rendering:optimizeQuality; fill-rule:evenodd; clip-rule:evenodd" xmlns:xlink="http://www.w3.org/1999/xlink">
<g><path style="opacity:0.993" fill="#000000" d="M -0.5,0.5 C -0.5,0.166667 -0.5,-0.166667 -0.5,-0.5C 147.5,-0.5 295.5,-0.5 443.5,-0.5C 443.5,-0.166667 443.5,0.166667 443.5,0.5C 442.5,1.83333 441.5,3.16667 440.5,4.5C 440.167,4.5 439.833,4.5 439.5,4.5C 440.028,3.27935 440.695,2.11268 441.5,1C 294.833,0.333333 148.167,0.333333 1.5,1C 2.30501,2.11268 2.97168,3.27935 3.5,4.5C 3.16667,4.5 2.83333,4.5 2.5,4.5C 1.5,3.16667 0.5,1.83333 -0.5,0.5 Z"/></g>
<g><path style="opacity:1" fill="#1e4592" d="M 439.5,4.5 C 366.86,129.77 294.193,255.104 221.5,380.5C 148.822,255.139 76.155,129.806 3.5,4.5C 2.97168,3.27935 2.30501,2.11268 1.5,1C 148.167,0.333333 294.833,0.333333 441.5,1C 440.695,2.11268 440.028,3.27935 439.5,4.5 Z"/></g>
<g><path style="opacity:0.422" fill="#02040b" d="M 2.5,4.5 C 2.83333,4.5 3.16667,4.5 3.5,4.5C 76.155,129.806 148.822,255.139 221.5,380.5C 294.193,255.104 366.86,129.77 439.5,4.5C 439.833,4.5 440.167,4.5 440.5,4.5C 367.833,130.833 295.167,257.167 222.5,383.5C 221.833,383.5 221.167,383.5 220.5,383.5C 147.833,257.167 75.1667,130.833 2.5,4.5 Z"/></g>
</svg>