<?xml version="1.0" encoding="UTF-8"?>
<!DOCTYPE svg PUBLIC "-//W3C//DTD SVG 1.1//EN" "http://www.w3.org/Graphics/SVG/1.1/DTD/svg11.dtd">
<svg xmlns="http://www.w3.org/2000/svg" version="1.1" width="512px" height="512px" style="shape-rendering:geometricPrecision; text-rendering:geometricPrecision; image-rendering:optimizeQuality; fill-rule:evenodd; clip-rule:evenodd" xmlns:xlink="http://www.w3.org/1999/xlink">
<g><path style="opacity:0.988" fill="#1f4593" d="M 238.5,-0.5 C 249.833,-0.5 261.167,-0.5 272.5,-0.5C 335.524,9.68711 377.357,45.0204 398,105.5C 412.282,162.211 399.449,211.711 359.5,254C 353.712,259.723 347.379,264.723 340.5,269C 427.827,302.659 482.994,364.825 506,455.5C 508.254,466.576 510.087,477.576 511.5,488.5C 511.5,496.167 511.5,503.833 511.5,511.5C 497.833,511.5 484.167,511.5 470.5,511.5C 468.647,438.289 438.647,379.789 380.5,336C 314.865,292.088 245.198,284.421 171.5,313C 103.274,344.57 60.7737,397.07 44,470.5C 41.2557,484.032 40.089,497.699 40.5,511.5C 26.8333,511.5 13.1667,511.5 -0.5,511.5C -0.5,503.833 -0.5,496.167 -0.5,488.5C 9.97281,399.568 53.6395,332.401 130.5,287C 143.359,279.903 156.693,273.903 170.5,269C 124.11,234.698 103.277,188.531 108,130.5C 117.863,67.31 153.03,25.4767 213.5,5C 221.877,2.72213 230.21,0.888795 238.5,-0.5 Z M 254.5,39.5 C 300.523,41.7214 333.69,63.3881 354,104.5C 372.898,157.454 360.398,201.287 316.5,236C 275.833,262 235.167,262 194.5,236C 152.403,203.034 139.236,160.868 155,109.5C 174.003,65.9923 207.169,42.659 254.5,39.5 Z"/></g>
</svg>
