<?xml version="1.0" encoding="UTF-8"?>
<!DOCTYPE svg PUBLIC "-//W3C//DTD SVG 1.1//EN" "http://www.w3.org/Graphics/SVG/1.1/DTD/svg11.dtd">
<svg xmlns="http://www.w3.org/2000/svg" version="1.1" width="512px" height="512px" style="shape-rendering:geometricPrecision; text-rendering:geometricPrecision; image-rendering:optimizeQuality; fill-rule:evenodd; clip-rule:evenodd" xmlns:xlink="http://www.w3.org/1999/xlink">
<defs>
<mask id="mask1">
	<rect fill="#FFFFFF" x="0" y="0" width="512" height="512"/>
	<path fill="#000000" d="M 246.5,54.5 C 266.192,52.3328 282.026,58.9995 294,74.5C 353.333,177.167 412.667,279.833 472,382.5C 484.619,404.351 482.785,424.851 466.5,444C 458.868,450.981 449.868,454.981 439.5,456C 315.5,456.667 191.5,456.667 67.5,456C 43.9874,449.152 31.6541,433.486 30.5,409C 30.7153,399.353 33.5486,390.52 39,382.5C 98.3333,279.833 157.667,177.167 217,74.5C 224.776,64.703 234.609,58.0363 246.5,54.5 Z"/>
</mask>
</defs>
<g><path style="opacity:0.994" fill="#FFFFFF" d="M 511.5,397.5 C 511.5,405.833 511.5,414.167 511.5,422.5C 502.128,462.697 476.795,484.53 435.5,488C 315.5,488.667 195.5,488.667 75.5,488C 34.6568,484.649 9.32344,463.149 -0.5,423.5C -0.5,414.833 -0.5,406.167 -0.5,397.5C 1.54287,388.548 4.70954,379.882 9,371.5C 70.4141,265.003 132.081,158.67 194,52.5C 220.349,23.371 251.849,15.871 288.5,30C 299.724,35.2137 309.224,42.7137 317,52.5C 378.919,158.67 440.586,265.003 502,371.5C 506.29,379.882 509.457,388.548 511.5,397.5 Z" mask="url(#mask1)"/></g>
<g><path style="opacity:1" fill="#FFFFFF" d="M 249.5,132.5 C 265.554,130.442 276.054,137.109 281,152.5C 281.667,201.833 281.667,251.167 281,300.5C 276.619,317.281 265.786,324.448 248.5,322C 238.391,318.224 232.224,311.057 230,300.5C 229.333,251.167 229.333,201.833 230,152.5C 233.386,142.616 239.886,135.949 249.5,132.5 Z"/></g>
<g><path style="opacity:1" fill="#FFFFFF" d="M 249.5,353.5 C 270.86,353.028 281.36,363.361 281,384.5C 275.399,400.713 264.232,407.213 247.5,404C 234.611,398.393 228.777,388.559 230,374.5C 232.923,364.08 239.423,357.08 249.5,353.5 Z"/></g>
</svg>
