<?xml version="1.0" encoding="UTF-8"?>
<!DOCTYPE svg PUBLIC "-//W3C//DTD SVG 1.1//EN" "http://www.w3.org/Graphics/SVG/1.1/DTD/svg11.dtd">
<svg xmlns="http://www.w3.org/2000/svg" version="1.1" width="512px" height="512px" style="shape-rendering:geometricPrecision; text-rendering:geometricPrecision; image-rendering:optimizeQuality; fill-rule:evenodd; clip-rule:evenodd" xmlns:xlink="http://www.w3.org/1999/xlink">
<g><path style="opacity:0.998" fill="#1f4593" d="M 511.5,165.5 C 511.5,225.167 511.5,284.833 511.5,344.5C 502.321,392.516 473.987,422.683 426.5,435C 421.201,435.93 415.867,436.597 410.5,437C 307.167,437.667 203.833,437.667 100.5,437C 56.6506,433.134 25.484,411.301 7,371.5C 3.85065,362.883 1.35065,354.217 -0.5,345.5C -0.5,285.5 -0.5,225.5 -0.5,165.5C 9.87902,115.954 39.879,85.7873 89.5,75C 93.1667,74.6667 96.8333,74.3333 100.5,74C 203.833,73.3333 307.167,73.3333 410.5,74C 454.347,77.8624 485.513,99.6957 504,139.5C 507.149,148.117 509.649,156.783 511.5,165.5 Z M 189.5,181.5 C 237.715,204.941 285.715,228.941 333.5,253.5C 335.339,255.527 335.839,257.86 335,260.5C 288.73,283.385 242.23,305.885 195.5,328C 191.296,330.659 188.129,329.825 186,325.5C 185.333,278.833 185.333,232.167 186,185.5C 186.69,183.65 187.856,182.316 189.5,181.5 Z"/></g>
</svg>
